# ProBuilder 5.2.0
# https://unity3d.com/unity/features/worldbuilding/probuilder
# 11/10/2023 12:02:31 PM

mtllib ./Tractor.mtl
o Tractor

g Tractor
v 0.5239212 0.0693705 -0.4781967
v 0.1239212 0.0693705 -0.4781967
v 0.5239212 0.0793705 -0.4781967
v 0.1239212 0.0793705 -0.4781967
v 0.1239212 0.0693705 -0.7781967
v 0.1239212 0.0793705 -0.7781967
v 0.5239212 0.0693705 -0.7781967
v 0.5239212 0.0793705 -0.7781967
v 0.5139212 0.0893705 -0.4881967
v 0.1339212 0.0893705 -0.4881967
v 0.5139212 0.0893705 -0.7681967
v 0.1339212 0.0893705 -0.7681967
v 0.5239182 0.0702424 -0.4881592
v 0.1239243 0.0702424 -0.4881592
v 0.1239243 0.4687204 -0.4532928
v 0.1239243 0.4678488 -0.4433327
v 0.5239182 0.4687204 -0.4532928
v 0.5239182 0.4678488 -0.4433327
v 0.5139236 0.45963 -0.4641266
v 0.1339188 0.45963 -0.4641266
v 0.5139236 0.08107615 -0.4972458
v 0.1339188 0.08107615 -0.4972458
v 0.3639221 -0.2216296 -0.5781975
v 0.2839203 -0.2216296 -0.5781975
v 0.3639221 0.07837057 -0.5781975
v 0.2839203 0.07837057 -0.5781975
v 0.2739182 -0.2216296 -0.5881958
v 0.2739182 -0.2216296 -0.6681976
v 0.2739182 0.07837057 -0.5881958
v 0.2739182 0.07837057 -0.6681976
v 0.2839203 -0.2216296 -0.678196
v 0.3639221 -0.2216296 -0.678196
v 0.2839203 0.07837057 -0.678196
v 0.3639221 0.07837057 -0.678196
v 0.3739243 -0.2216296 -0.6681976
v 0.3739243 -0.2216296 -0.5881958
v 0.3739243 0.07837057 -0.6681976
v 0.3739243 0.07837057 -0.5881958
v 0.8307571 -0.1723757 -0.8260651
v 0.6267166 -0.1723757 -0.8260651
v 0.6266556 -0.1723757 -1.104832
v 0.6267166 -0.2432456 -0.8260651
v 0.8307571 -0.2432456 -0.8260651
v 0.6266556 -0.2432461 -1.104832
v 0.8325729 -0.2290716 -0.8289032
v 0.8325729 -0.1865497 -0.8289032
v 0.6266556 -0.2290716 -1.108196
v 0.6266556 -0.1865497 -1.108196
v -0.1772919 -0.2432456 -0.8260651
v 0.02674866 -0.2432456 -0.8260651
v 0.02680969 -0.2432456 -1.104832
v 0.02674866 -0.1723757 -0.8260651
v -0.1772919 -0.1723757 -0.8260651
v 0.02680969 -0.1723752 -1.104832
v -0.1791077 -0.1865497 -0.8289032
v -0.1791077 -0.2290716 -0.8289032
v 0.02680969 -0.1865492 -1.108196
v 0.02680969 -0.2290716 -1.108196
v 0.6267548 -0.2432456 -0.0188942
v 0.02674866 -0.2432456 -0.0188942
v 0.6267548 -0.1932454 -0.0188942
v 0.02674866 -0.1932454 -0.0188942
v 0.02674866 -0.2432456 -0.4188957
v 0.02674866 -0.1932454 -0.4188957
v 0.6267548 -0.2432456 -0.4188957
v 0.6267548 -0.1932454 -0.4188957
v 0.5767517 -0.2406287 -0.4688187
v 0.07675171 -0.2406287 -0.4688187
v 0.5767517 -0.2432456 -0.4188881
v 0.07675171 -0.2432456 -0.4188881
v 0.07675171 0.158823 -0.4478874
v 0.07675171 0.1562061 -0.3979568
v 0.5767517 0.158823 -0.4478874
v 0.5767517 0.1562061 -0.3979568
v 0.5967484 0.8053837 -0.2838898
v 0.05675507 0.8053837 -0.2838898
v 0.5967484 0.8053837 -1.123886
v 0.05675507 0.8053837 -1.123886
v 0.02674866 0.7753835 -1.153889
v 0.02674866 0.7753835 -0.2538872
v 0.6267548 0.7753835 -0.2538872
v 0.6267548 0.7753835 -1.153889
v 0.6267548 0.7553835 -0.2538872
v 0.3267517 0.7553835 -0.2538872
v 0.02674866 0.7553835 -0.2538872
v 0.02674866 0.7553835 -0.7038879
v 0.02674866 0.7553835 -1.153889
v 0.3267517 0.7553835 -1.153889
v 0.6267548 0.7553835 -1.153889
v 0.6267548 0.7553835 -0.7038879
v 0.3267517 0.7553835 -0.7038879
v 0.6267548 0.7553835 -0.3665581
v 0.5767517 0.7553835 -0.3665581
v 0.5767517 0.7580004 -0.4164886
v 0.6267548 -0.2406292 -0.4688263
v 0.6267548 0.7580004 -0.4164886
v 0.07675171 0.7553835 -0.3665581
v 0.02674866 0.7553835 -0.3665581
v 0.02674866 -0.2406292 -0.4688263
v 0.02674866 0.7580004 -0.4164886
v 0.07675171 0.7580004 -0.4164886
v 0.4739227 -0.1976299 -0.4781952
v 0.1739197 -0.1976299 -0.4781952
v 0.4739227 -0.1476297 -0.4781952
v 0.1739197 -0.1476297 -0.4781952
v 0.1739197 -0.1976299 -0.7781982
v 0.1739197 -0.1476297 -0.7781982
v 0.4739227 -0.1976299 -0.7781982
v 0.4739227 -0.1476297 -0.7781982
v 0.4239197 -0.09762955 -0.5281982
v 0.2239227 -0.09762955 -0.5281982
v 0.4239197 -0.09762955 -0.7281952
v 0.2239227 -0.09762955 -0.7281952
v 0.6267166 -0.1723752 -0.8527298
v 0.8767166 -0.1723752 -0.8527298
v 0.8767166 -0.1723752 -0.8260612
v 0.8767166 -0.08555126 -0.8446274
v 0.6267166 -0.08555126 -0.8446274
v 0.8767166 -0.09076071 -0.8183632
v 0.6267166 -0.09076071 -0.8183632
v 0.8767166 -0.001365185 -0.8205643
v 0.6267166 -0.001365185 -0.8205643
v 0.8767166 -0.01162577 -0.7955055
v 0.6267166 -0.01162577 -0.7955055
v 0.8767166 0.0776248 -0.7812729
v 0.6267166 0.0776248 -0.7812729
v 0.8767166 0.06262493 -0.7581825
v 0.6267166 0.06262493 -0.7581825
v 0.8767166 0.1490188 -0.727951
v 0.6267166 0.1490188 -0.727951
v 0.8767166 0.129735 -0.7075233
v 0.6267166 0.129735 -0.7075233
v 0.8767166 0.2106471 -0.6622162
v 0.6267166 0.2106471 -0.6622162
v 0.8767166 0.1876659 -0.6450729
v 0.6267166 0.1876659 -0.6450729
v 0.8767166 0.2606373 -0.5860596
v 0.6267166 0.2606373 -0.5860596
v 0.8767166 0.2346568 -0.5727272
v 0.6267166 0.2346568 -0.5727272
v 0.8767166 0.297471 -0.5018044
v 0.6267166 0.297471 -0.5018044
v 0.8767166 0.2692804 -0.4926834
v 0.6267166 0.2692804 -0.4926834
v 0.8767166 0.3200288 -0.4120064
v 0.6267166 0.3200288 -0.4120064
v 0.8767166 0.2904844 -0.4073753
v 0.6267166 0.2904844 -0.4073753
v 0.8767166 0.3276248 -0.3193932
v 0.6267166 0.3276248 -0.3193932
v 0.8767166 0.2976246 -0.3193932
v 0.6267166 0.2976246 -0.3193932
v 0.8767166 0.3200288 -0.2267838
v 0.6267166 0.3200288 -0.2267838
v 0.8767166 0.2904844 -0.2314148
v 0.6267166 0.2904844 -0.2314148
v 0.8767166 0.297471 -0.1369858
v 0.6267166 0.297471 -0.1369858
v 0.8767166 0.2692804 -0.1461029
v 0.6267166 0.2692804 -0.1461029
v 0.8767166 0.2606373 -0.05272675
v 0.6267166 0.2606373 -0.05272675
v 0.8767166 0.2346568 -0.06606293
v 0.6267166 0.2346568 -0.06606293
v -0.2232513 -0.1723757 -0.8527298
v -0.2232513 -0.1723757 -0.8260651
v 0.02674866 -0.1723757 -0.8527298
v 0.02674866 -0.08555174 -0.8446274
v -0.2232513 -0.08555174 -0.8446274
v 0.02674866 -0.09076118 -0.818367
v -0.2232513 -0.09076118 -0.818367
v 0.02674866 -0.001365662 -0.8205643
v -0.2232513 -0.001365662 -0.8205643
v 0.02674866 -0.01162624 -0.7955093
v -0.2232513 -0.01162624 -0.7955093
v 0.02674866 0.07762432 -0.7812767
v -0.2232513 0.07762432 -0.7812767
v 0.02674866 0.06262445 -0.7581825
v -0.2232513 0.06262445 -0.7581825
v 0.02674866 0.1490183 -0.7279549
v -0.2232513 0.1490183 -0.7279549
v 0.02674866 0.1297345 -0.7075272
v -0.2232513 0.1297345 -0.7075272
v 0.02674866 0.2106466 -0.6622162
v -0.2232513 0.2106466 -0.6622162
v 0.02674866 0.187665 -0.6450768
v -0.2232513 0.187665 -0.6450768
v 0.02674866 0.2606373 -0.5860634
v -0.2232513 0.2606373 -0.5860634
v 0.02674866 0.2346563 -0.572731
v -0.2232513 0.2346563 -0.572731
v 0.02674866 0.2974706 -0.5018082
v -0.2232513 0.2974706 -0.5018082
v 0.02674866 0.26928 -0.4926872
v -0.2232513 0.26928 -0.4926872
v 0.02674866 0.3200283 -0.4120102
v -0.2232513 0.3200283 -0.4120102
v 0.02674866 0.290484 -0.4073792
v -0.2232513 0.290484 -0.4073792
v 0.02674866 0.3276243 -0.319397
v -0.2232513 0.3276243 -0.319397
v 0.02674866 0.2976246 -0.319397
v -0.2232513 0.2976246 -0.319397
v 0.02674866 0.3200283 -0.2267838
v -0.2232513 0.3200283 -0.2267838
v 0.02674866 0.290484 -0.2314148
v -0.2232513 0.290484 -0.2314148
v 0.02674866 0.2974706 -0.1369858
v -0.2232513 0.2974706 -0.1369858
v 0.02674866 0.26928 -0.1461067
v -0.2232513 0.26928 -0.1461067
v 0.02674866 0.2606373 -0.05273056
v -0.2232513 0.2606373 -0.05273056
v 0.02674866 0.2346563 -0.06606293
v -0.2232513 0.2346563 -0.06606293
v 0.5767517 -0.2432685 -0.8437805
v 0.6267548 -0.2432685 -0.8437805
v 0.6267548 -0.1736331 -0.8401451
v 0.5767517 -0.1736331 -0.8401451
v 0.6267548 -0.1051893 -0.8293037
v 0.5767517 -0.1051893 -0.8293037
v 0.6267548 -0.03910828 -0.8114357
v 0.5767517 -0.03910828 -0.8114357
v 0.6267548 0.02347994 -0.7868538
v 0.5767517 0.02347994 -0.7868538
v 0.6267548 0.08150387 -0.7559738
v 0.5767517 0.08150387 -0.7559738
v 0.6267548 0.1339707 -0.719326
v 0.5767517 0.1339707 -0.719326
v 0.6267548 0.1799827 -0.6775398
v 0.5767517 0.1799827 -0.6775398
v 0.6267548 0.2187533 -0.6313248
v 0.5767517 0.2187533 -0.6313248
v 0.6267548 0.2496181 -0.5814743
v 0.5767517 0.2496181 -0.5814743
v 0.6267548 0.2720499 -0.5288429
v 0.5767517 0.2720499 -0.5288429
v 0.6267548 0.2856641 -0.4743309
v 0.5767517 0.2856641 -0.4743309
v 0.6267548 0.2902284 -0.418869
v 0.5767517 0.2902284 -0.418869
v 0.02674866 -0.2432456 -0.8438034
v 0.07675171 -0.2432456 -0.8438034
v 0.07675171 -0.1736102 -0.840168
v 0.02674866 -0.1736102 -0.840168
v 0.07675171 -0.1051664 -0.8293266
v 0.02674866 -0.1051664 -0.8293266
v 0.07675171 -0.03908539 -0.8114586
v 0.02674866 -0.03908539 -0.8114586
v 0.07675171 0.02350283 -0.7868767
v 0.02674866 0.02350283 -0.7868767
v 0.07675171 0.08152676 -0.7559967
v 0.02674866 0.08152676 -0.7559967
v 0.07675171 0.1339936 -0.7193489
v 0.02674866 0.1339936 -0.7193489
v 0.07675171 0.1800056 -0.6775627
v 0.02674866 0.1800056 -0.6775627
v 0.07675171 0.2187762 -0.6313477
v 0.02674866 0.2187762 -0.6313477
v 0.07675171 0.2496409 -0.5814972
v 0.02674866 0.2496409 -0.5814972
v 0.07675171 0.2720728 -0.5288658
v 0.02674866 0.2720728 -0.5288658
v 0.07675171 0.285687 -0.4743538
v 0.02674866 0.285687 -0.4743538
v 0.07675171 0.2902513 -0.4188919
v 0.02674866 0.2902513 -0.4188919
v 0.5217514 0.1882291 -0.8483391
v 0.3267517 0.1882291 -0.8483391
v 0.131752 0.1882291 -0.8483391
v 0.131752 0.3748426 -1.033318
v 0.5217514 0.3748426 -1.033318
v 0.03175354 0.1175184 -0.9190483
v 0.03175354 0.01145363 -0.9520187
v 0.03175354 -0.1653242 -1.201893
v 0.03175354 0.01822567 -1.385441
v 0.03175354 0.3010683 -1.1026
v 0.6217499 -0.1653242 -1.201893
v 0.6217499 0.01145363 -0.9520187
v 0.6217499 0.1175184 -0.9190483
v 0.6217499 0.3010683 -1.1026
v 0.6217499 0.01822567 -1.385441
v 0.3267517 -0.1653242 -1.201893
v 0.3267517 0.01145363 -0.9520187
v 0.06104279 0.3503609 -1.11047
v 0.06033325 0.3498611 -1.11097
v 0.07217407 0.04680777 -1.414024
v 0.5813293 0.04680777 -1.414024
v 0.5931702 0.3498611 -1.11097
v 0.5924606 0.3503613 -1.11047
v 0.07544708 -0.1140308 -1.621208
v 0.06812286 -0.1140308 -1.638885
v 0.07544708 0.8859692 -1.621208
v 0.06812286 0.8859692 -1.638885
v 0.08812714 -0.1140308 -1.638885
v 0.08959198 -0.1140308 -1.635349
v 0.08812714 0.8859692 -1.638885
v 0.08959198 0.8859692 -1.635349
v 0.09312439 -0.1140308 -1.613884
v 0.09312439 0.8859692 -1.613884
v 0.09312439 -0.1140308 -1.633884
v 0.09312439 0.8859692 -1.633884
v 0.1108017 -0.1140308 -1.621208
v 0.1108017 0.8859692 -1.621208
v 0.0966568 -0.1140308 -1.635349
v 0.0966568 0.8859692 -1.635349
v 0.1181259 -0.1140308 -1.638885
v 0.1181259 0.8859692 -1.638885
v 0.09812164 -0.1140308 -1.638885
v 0.09812164 0.8859692 -1.638885
v 0.1108017 -0.1140308 -1.656563
v 0.1108017 0.8859692 -1.656563
v 0.0966568 -0.1140308 -1.642422
v 0.0966568 0.8859692 -1.642422
v 0.09312439 -0.1140308 -1.663887
v 0.09312439 0.8859692 -1.663887
v 0.09312439 -0.1140308 -1.643887
v 0.09312439 0.8859692 -1.643887
v 0.07544708 -0.1140308 -1.656563
v 0.07544708 0.8859692 -1.656563
v 0.08959198 -0.1140308 -1.642422
v 0.08959198 0.8859692 -1.642422
v 0.02674866 -0.2432456 -1.218895
v 0.02674866 -0.1932454 -1.218895
v 0.6267548 -0.2432456 -1.218895
v 0.6267548 -0.1932454 -1.218895
v 0.02674866 -0.2432451 -1.086388
v 0.02674866 -0.2432451 -1.917877
v 0.02674866 0.1067543 -1.086388
v 0.02674866 0.1067543 -1.917877
v 0.6267548 -0.2432451 -1.917877
v 0.6267548 -0.2432451 -1.086388
v 0.6267548 0.1067543 -1.917877
v 0.6267548 0.1067543 -1.086388
v 0.5267487 0.2567549 -1.028511
v 0.1267548 0.2567549 -1.028511
v 0.5267487 0.2567549 -1.917877
v 0.1267548 0.2567549 -1.917877
v 0.5914001 0.1921101 -1.028511
v 0.5914001 0.1921101 -1.917877
v 0.06210327 0.1921101 -1.917877
v 0.06210327 0.1921101 -1.028511
v 0.5267487 -0.2432451 -1.964687
v 0.5498276 0.1276584 -1.964687
v 0.4957581 0.1843777 -1.964687
v 0.156044 0.1856651 -1.964687
v 0.0975647 0.1273613 -1.964687
v 0.1267548 -0.2432451 -1.964687
v 0.5970459 0.1455183 -1.935955
v 0.05484772 0.145092 -1.936455
v 0.5917816 0.191186 -1.028511
v 0.5353699 -0.2432451 -1.028511
v 0.1181335 -0.2432451 -1.028511
v 0.0617218 0.191186 -1.028511

vt 0.5239212 0.0693705
vt 0.1239212 0.0693705
vt 0.5239212 0.0793705
vt 0.1239212 0.0793705
vt -0.4781967 0.0693705
vt -0.7781967 0.0693705
vt -0.4781967 0.0793705
vt -0.7781967 0.0793705
vt -0.1239212 0.0693705
vt -0.5239212 0.0693705
vt -0.1239212 0.0793705
vt -0.5239212 0.0793705
vt 0.7781967 0.0693705
vt 0.4781967 0.0693705
vt 0.7781967 0.0793705
vt 0.4781967 0.0793705
vt -0.5139212 -0.4881967
vt -0.1339212 -0.4881967
vt -0.5139212 -0.7681967
vt -0.1339212 -0.7681967
vt 0.5239212 -0.7781967
vt 0.1239212 -0.7781967
vt 0.5239212 -0.4781967
vt 0.1239212 -0.4781967
vt 0.1239212 0.3942594
vt 0.5239212 0.3942594
vt 0.1339212 0.4084015
vt 0.5139212 0.4084015
vt -0.3143446 -0.4781967
vt -0.3143446 -0.7781967
vt -0.3002025 -0.4881967
vt -0.3002025 -0.7681967
vt -0.143749 -0.7781967
vt -0.143749 -0.4781967
vt -0.1578911 -0.7681967
vt -0.1578911 -0.4881967
vt -0.5239212 -0.4941446
vt -0.1239212 -0.4941446
vt -0.5139212 -0.4800024
vt -0.1339212 -0.4800024
vt 0.5239212 0.0893705
vt 0.1239212 0.0893705
vt -0.4281967 0.0793705
vt -0.8281967 0.0793705
vt -0.4281967 0.0893705
vt -0.8281967 0.0893705
vt -0.1239212 0.0893705
vt -0.5239212 0.0893705
vt 0.8281967 0.0793705
vt 0.4281967 0.0793705
vt 0.8281967 0.0893705
vt 0.4281967 0.0893705
vt -0.5239213 -0.4281967
vt -0.1239212 -0.4281967
vt -0.5239213 -0.8281966
vt -0.1239212 -0.8281967
vt 0.5139212 -0.8181967
vt 0.1339212 -0.8181967
vt 0.5139212 -0.4381967
vt 0.1339212 -0.4381967
vt -0.1239212 0.6417467
vt -0.5239212 0.6417468
vt -0.1339159 0.6276044
vt -0.5139266 0.6276045
vt 0.4262563 -0.8286136
vt 0.4262534 -0.4286135
vt 0.4121142 -0.8186131
vt 0.4121141 -0.4386136
vt 0.03184396 -0.4286129
vt 0.03183728 -0.8286134
vt 0.04597941 -0.4386137
vt 0.04597571 -0.8186135
vt 0.5239212 -0.2466573
vt 0.1239212 -0.2466572
vt 0.5139266 -0.2607994
vt 0.1339158 -0.2607994
vt 0.3639212 -0.07062951
vt 0.2839212 -0.07062951
vt 0.3639212 0.2293705
vt 0.2839212 0.2293705
vt -0.5881967 -0.07062951
vt -0.6681967 -0.07062951
vt -0.5881967 0.2293705
vt -0.6681967 0.2293705
vt -0.2839212 -0.07062951
vt -0.3639212 -0.07062951
vt -0.2839212 0.2293705
vt -0.3639212 0.2293705
vt 0.6681967 -0.07062951
vt 0.5881967 -0.07062951
vt 0.6681967 0.2293705
vt 0.5881967 0.2293705
vt -0.2080842 -0.07062951
vt -0.2080842 0.2293705
vt -0.2222264 -0.07062951
vt -0.2222263 0.2293705
vt 0.2222263 -0.07062951
vt 0.2222264 0.2293705
vt 0.2080842 -0.07062951
vt 0.2080842 0.2293705
vt 0.666178 0.2293705
vt 0.666178 -0.07062951
vt 0.6803201 0.2293705
vt 0.6803201 -0.07062951
vt -0.6661779 -0.07062951
vt -0.6661779 0.2293705
vt -0.68032 -0.07062951
vt -0.68032 0.2293705
vt 0.2839227 -0.6781967
vt 0.2739212 -0.6681982
vt 0.2739212 -0.5881952
vt 0.2839227 -0.5781967
vt 0.3639197 -0.5781967
vt 0.3739212 -0.5881952
vt 0.3739212 -0.6681982
vt 0.3639197 -0.6781967
vt -0.2839227 -0.5781967
vt -0.2739212 -0.5881952
vt -0.2739212 -0.6681982
vt -0.2839227 -0.6781967
vt -0.3639197 -0.6781967
vt -0.3739212 -0.6681982
vt -0.3739212 -0.5881952
vt -0.3639197 -0.5781967
vt -0.01 -1.430511E-06
vt -0.5313416 -1.430511E-06
vt -0.5314981 0.8289754
vt 0.5313416 -1.610582E-06
vt 0.01 -1.610582E-06
vt 0.5314981 0.8289753
vt -0.6436534 0.009998791
vt -0.6736534 0.009998791
vt -0.6436532 0.9931627
vt -0.6736534 0.9931627
vt 0.01 -0.6836534
vt 0.5313416 -0.6836534
vt 0.01 -0.6336534
vt 0.5313416 -0.6336534
vt -0.8881231 0.7634688
vt -0.5828072 -0.1670945
vt -0.852399 0.7832888
vt -0.545333 -0.1511676
vt -0.416133 0.1747451
vt -0.07405066 1.093149
vt -0.4534138 0.192316
vt -0.1091881 1.114454
vt -0.6426616 0.005537599
vt -0.6717296 0.01074243
vt -0.6358876 -0.01247987
vt -0.6843343 -0.003805161
vt 0.6336532 0.8290706
vt 0.6436534 0.8390758
vt 0.6736534 0.8390758
vt 0.6836534 0.8290706
vt 0.6836534 9.894371E-05
vt 0.6336534 9.894371E-05
vt 0.626744 0.07632121
vt 0.02674407 0.07632121
vt 0.626744 0.1263212
vt 0.02674407 0.1263212
vt -0.8313263 0.07632121
vt -1.231326 0.07632121
vt -0.8313263 0.1263212
vt -1.231326 0.1263212
vt -0.02674407 0.07632121
vt -0.626744 0.07632121
vt -0.02674407 0.1263212
vt -0.626744 0.1263212
vt 1.231326 0.07632121
vt 0.8313263 0.07632121
vt 1.231326 0.1263212
vt 0.8313263 0.1263212
vt -0.626744 -0.8313263
vt -0.02674407 -0.8313263
vt -0.626744 -1.231326
vt -0.02674407 -1.231326
vt 0.626744 -1.231326
vt 0.02674407 -1.231326
vt 0.626744 -0.8313263
vt 0.02674407 -0.8313263
vt 0.5767441 0.07632247
vt 0.07674408 0.07632247
vt 0.5767441 0.1263225
vt 0.07674408 0.1263225
vt -0.07674408 0.0763225
vt -0.5767441 0.0763225
vt -0.07674408 0.1263225
vt -0.5767441 0.1263225
vt -0.5767441 -0.8313267
vt -0.07674408 -0.8313267
vt -0.5767441 -1.231327
vt -0.07674408 -1.231327
vt 0.5767441 -1.231327
vt 0.07674408 -1.231327
vt 0.5767441 -0.8313267
vt 0.07674408 -0.8313267
vt -0.5967441 -0.6113263
vt -0.05674407 -0.6113263
vt -0.5967441 -1.451326
vt -0.05674407 -1.451326
vt -0.08702028 -1.481326
vt -0.08702016 -0.5813262
vt -0.1294469 -1.451324
vt -0.1294467 -0.6113288
vt 0.02674407 0.479169
vt 0.626744 0.4791689
vt 0.05675018 0.5215955
vt 0.596738 0.5215954
vt -0.3750653 -0.5813262
vt -0.3750655 -1.481326
vt -0.3326388 -0.6113288
vt -0.332639 -1.451324
vt -0.626744 -0.9793459
vt -0.02674407 -0.979346
vt -0.596738 -0.9369195
vt -0.05675018 -0.9369195
vt 0.3267441 0.07632122
vt 0.02674407 0.09632123
vt 0.6267441 0.09632123
vt -0.5813263 0.07632122
vt -1.031326 0.07632122
vt -1.481326 0.07632122
vt -1.481326 0.09632123
vt -0.5813263 0.09632123
vt -0.3267441 0.07632122
vt -0.6267441 0.09632123
vt -0.02674407 0.09632123
vt 1.481326 0.07632122
vt 1.031326 0.07632122
vt 0.5813263 0.07632122
vt 0.5813263 0.09632123
vt 1.481326 0.09632123
vt 0.6267441 -1.481326
vt 0.326744 -1.481326
vt 0.3267441 -1.031326
vt 0.6267442 -1.031326
vt 0.02674396 -1.481326
vt 0.02674405 -1.031326
vt 0.02674407 -0.5813262
vt 0.3267441 -0.5813262
vt 0.6267442 -0.5813262
vt 0.3517441 -0.3986788
vt 0.3017441 -0.3986788
vt 0.3517441 0.6013213
vt 0.3017441 0.6013213
vt -1.006325 -0.3986787
vt -1.056326 -0.3986786
vt -1.006326 0.6013211
vt -1.056324 0.6013212
vt -0.3017441 -0.3986788
vt -0.3517441 -0.3986788
vt -0.3017441 0.6013212
vt -0.3517441 0.6013212
vt 1.056326 -0.3986786
vt 1.006325 -0.3986787
vt 1.056324 0.6013212
vt 1.006326 0.6013211
vt -0.3517441 -1.006326
vt -0.3017441 -1.006326
vt -0.3517441 -1.056326
vt -0.3017441 -1.056326
vt 0.3517441 -1.056326
vt 0.3017441 -1.056326
vt 0.3517441 -1.006326
vt 0.3017441 -1.006326
vt 0.4739212 0.0293705
vt 0.1739212 0.0293705
vt 0.4739212 0.0793705
vt 0.1739212 0.0793705
vt -0.4781967 0.0293705
vt -0.7781967 0.0293705
vt -0.1739212 0.0293705
vt -0.4739212 0.0293705
vt -0.1739212 0.0793705
vt -0.4739212 0.0793705
vt 0.7781967 0.0293705
vt 0.4781967 0.0293705
vt -0.4239212 -0.5281967
vt -0.2239212 -0.5281967
vt -0.4239212 -0.7281967
vt -0.2239212 -0.7281967
vt 0.4739212 -0.7781967
vt 0.1739212 -0.7781967
vt 0.4739212 -0.4781967
vt 0.1739212 -0.4781967
vt -0.2789896 -0.4781967
vt -0.2789896 -0.7781967
vt -0.2082788 -0.5281993
vt -0.2082789 -0.7281942
vt 0.1739212 0.3942595
vt 0.4739212 0.3942595
vt 0.2239237 0.4649702
vt 0.4239187 0.4649702
vt -0.1791043 -0.7781967
vt -0.1791042 -0.4781967
vt -0.249815 -0.7281942
vt -0.2498149 -0.5281993
vt -0.4739212 -0.4941448
vt -0.1739212 -0.4941448
vt -0.4239187 -0.4234341
vt -0.2239237 -0.4234341
vt 0.2684723 -0.4629137
vt 0.295139 -0.4629137
vt 0.2684723 -0.7129137
vt 0.295139 -0.7129137
vt -0.7129137 0.1714625
vt -0.7129137 0.2586638
vt -0.4629137 0.1714625
vt -0.4629137 0.2586638
vt 0.7129137 0.2561928
vt 0.7129137 0.174216
vt 0.4629137 0.2561928
vt 0.4629137 0.174216
vt -0.7129137 0.3009742
vt -0.7129137 0.3885312
vt -0.4629137 0.3009742
vt -0.4629137 0.3885312
vt 0.7129137 0.3861923
vt 0.7129137 0.3038222
vt 0.4629137 0.3861923
vt 0.4629137 0.3038222
vt -0.7129137 0.4187577
vt -0.7129137 0.5069792
vt -0.4629137 0.4187577
vt -0.4629137 0.5069792
vt 0.7129137 0.5044847
vt 0.7129137 0.4213806
vt 0.4629137 0.5044847
vt 0.4629137 0.4213806
vt -0.7129137 0.5216098
vt -0.7129137 0.6107188
vt -0.4629137 0.5216098
vt -0.4629137 0.6107188
vt 0.7129137 0.6078033
vt 0.7129137 0.5237206
vt 0.4629137 0.6078033
vt 0.4629137 0.5237206
vt -0.6073481 -0.7129138
vt -0.6974559 -0.7129138
vt -0.6073481 -0.4629137
vt -0.6974559 -0.4629137
vt 0.6939992 -0.7129137
vt 0.6088171 -0.7129137
vt 0.6939993 -0.4629137
vt 0.6088172 -0.4629137
vt -0.6746442 -0.7129138
vt -0.7657398 -0.7129138
vt -0.6746442 -0.4629137
vt -0.7657398 -0.4629137
vt 0.7618334 -0.7129137
vt 0.675566 -0.7129137
vt 0.7618334 -0.4629137
vt 0.675566 -0.4629137
vt -0.7227233 -0.7129137
vt -0.8146786 -0.7129137
vt -0.7227233 -0.4629137
vt -0.8146786 -0.4629137
vt 0.8106237 -0.7129138
vt 0.7234131 -0.7129138
vt 0.8106238 -0.4629137
vt 0.7234132 -0.4629137
vt -0.7510525 -0.7129137
vt -0.8436407 -0.7129137
vt -0.7510525 -0.4629137
vt -0.8436407 -0.4629137
vt 0.8398916 -0.7129137
vt 0.7519875 -0.7129137
vt 0.8398917 -0.4629137
vt 0.7519875 -0.4629137
vt -0.759101 -0.7129137
vt -0.8520244 -0.7129137
vt -0.759101 -0.4629137
vt -0.8520244 -0.4629137
vt 0.8491006 -0.7129137
vt 0.7608296 -0.7129137
vt 0.8491007 -0.4629137
vt 0.7608296 -0.4629137
vt -0.7462198 -0.7129137
vt -0.8391432 -0.7129137
vt -0.7462198 -0.4629137
vt -0.8391432 -0.4629137
vt 0.8375263 -0.7129137
vt 0.7492554 -0.7129137
vt 0.8375264 -0.4629137
vt 0.7492554 -0.4629137
vt -0.7116498 -0.7129137
vt -0.8042381 -0.7129137
vt -0.7116498 -0.4629137
vt -0.8042381 -0.4629137
vt 0.8042706 -0.7129137
vt 0.7163664 -0.7129137
vt 0.8042707 -0.4629137
vt 0.7163664 -0.4629137
vt -0.6546637 -0.7129137
vt -0.746619 -0.7129137
vt -0.6546637 -0.4629137
vt -0.746619 -0.4629137
vt 0.7484034 -0.7129137
vt 0.6611927 -0.7129137
vt 0.7484035 -0.4629137
vt 0.6611928 -0.4629137
vt 0.4629137 0.9748063
vt 0.4629137 1.004009
vt 0.7129137 0.9748063
vt 0.7129137 1.004009
vt 0.2684723 0.1471534
vt 0.2765741 0.2339775
vt 0.2951389 0.1471534
vt 0.3028364 0.228768
vt -0.2765741 0.2339775
vt -0.2684723 0.1471534
vt -0.3028364 0.228768
vt -0.2951389 0.1471534
vt 0.3006369 0.3181635
vt 0.3256947 0.3079029
vt -0.3006369 0.3181635
vt -0.3256947 0.3079029
vt 0.3399285 0.3971533
vt 0.3630194 0.3821535
vt -0.3399285 0.3971533
vt -0.3630194 0.3821535
vt 0.3932483 0.4685472
vt 0.4136764 0.4492634
vt -0.3932483 0.4685472
vt -0.4136764 0.4492634
vt 0.4589833 0.5301756
vt 0.4761266 0.5071944
vt -0.4589833 0.5301756
vt -0.4761266 0.5071944
vt 0.5351403 0.5801661
vt 0.5484723 0.5541855
vt -0.5351403 0.5801661
vt -0.5484723 0.5541855
vt 0.6193944 0.6169997
vt 0.6285154 0.588809
vt -0.6193944 0.6169997
vt -0.6285154 0.588809
vt 0.7091928 0.6395572
vt 0.7138238 0.6100129
vt -0.7091928 0.6395572
vt -0.7138238 0.6100129
vt 0.8018057 0.6471534
vt 0.8018057 0.6171532
vt -0.8018057 0.6471534
vt -0.8018057 0.6171532
vt 0.894418 0.6395574
vt 0.8897868 0.610013
vt -0.894418 0.6395574
vt -0.8897868 0.610013
vt 0.9842165 0.6169995
vt 0.9750993 0.5888089
vt -0.9842165 0.6169995
vt -0.9750993 0.5888089
vt 1.068472 0.5801659
vt 1.055136 0.5541853
vt -1.068472 0.5801659
vt -1.055136 0.5541853
vt 0.1684723 -0.5629138
vt 1.168472 -0.5629138
vt 0.1684723 -0.6129137
vt 1.168472 -0.6129137
vt -0.6129137 -0.09160784
vt -0.6129137 0.03919843
vt -0.5629138 -0.09160784
vt -0.5629138 0.03919843
vt -0.6129137 0.06168407
vt -0.6129137 0.1924904
vt -0.5629138 0.06168407
vt -0.5629138 0.1924904
vt -0.6129137 0.2128015
vt -0.6129137 0.3436078
vt -0.5629138 0.2128015
vt -0.5629138 0.3436078
vt -0.6129137 0.3591587
vt -0.6129137 0.4899649
vt -0.5629138 0.3591587
vt -0.5629138 0.4899649
vt -0.6129137 0.4982516
vt -0.6129137 0.6290579
vt -0.5629138 0.4982516
vt -0.5629138 0.6290579
vt -0.6129137 0.6277
vt -0.6129137 0.7585063
vt -0.5629138 0.6277
vt -0.5629138 0.7585063
vt -0.7452894 -0.6129137
vt -0.8760957 -0.6129137
vt -0.7452894 -0.5629138
vt -0.8760957 -0.5629138
vt -0.8490077 -0.6129137
vt -0.9798141 -0.6129137
vt -0.8490077 -0.5629138
vt -0.9798141 -0.5629138
vt -0.9370799 -0.6129137
vt -1.067886 -0.6129137
vt -0.9370799 -0.5629138
vt -1.067886 -0.5629138
vt -1.007999 -0.6129138
vt -1.138806 -0.6129138
vt -1.007999 -0.5629137
vt -1.138806 -0.5629137
vt -1.060553 -0.6129138
vt -1.191359 -0.6129138
vt -1.060553 -0.5629137
vt -1.191359 -0.5629137
vt -1.093841 -0.6129138
vt -1.224647 -0.6129138
vt -1.093841 -0.5629137
vt -1.224647 -0.5629137
vt 0.5629138 -0.1028465
vt 0.5629138 0.8971535
vt 0.6129137 -0.1028465
vt 0.6129137 0.8971535
vt 0.1676924 -0.09624687
vt 0.1779828 0.03425631
vt 1.167516 -0.1095371
vt -0.1779828 0.03425622
vt -0.1676924 -0.0962469
vt -1.167516 -0.109537
vt 0.1752691 0.0470548
vt 0.2051694 0.1553683
vt 1.165937 -0.1032482
vt -0.2051696 0.1553683
vt -0.1752691 0.04705486
vt -1.165937 -0.1032482
vt 0.1999202 0.1763835
vt 0.2491255 0.2782204
vt 1.164487 -0.1039243
vt -0.2491256 0.2782204
vt -0.1999203 0.1763836
vt -1.164487 -0.1039243
vt 0.2413247 0.2996331
vt 0.3091414 0.3941576
vt 1.163371 -0.1048504
vt -0.3091414 0.3941576
vt -0.2413247 0.299633
vt -1.163371 -0.1048503
vt 0.2988203 0.4153807
vt 0.3843266 0.5013461
vt 1.162709 -0.1059135
vt -0.3843265 0.5013462
vt -0.2988201 0.4153807
vt -1.162709 -0.1059136
vt 0.3714542 0.5219786
vt 0.4734581 0.5981487
vt 1.162574 -0.1069668
vt -0.4734583 0.5981487
vt -0.3714545 0.5219786
vt -1.162574 -0.1069668
vt 0.457992 0.6177994
vt 0.5750003 0.6831558
vt 1.162987 -0.1078285
vt -0.5750003 0.6831558
vt -0.4579921 0.6177993
vt -1.162987 -0.1078283
vt 0.556922 0.7013516
vt 0.6870846 0.7551926
vt 1.1639 -0.1082962
vt -0.6870846 0.7551926
vt -0.5569221 0.7013516
vt -1.163901 -0.1082962
vt 0.6664686 0.7713481
vt 0.8074509 0.8132797
vt 1.165164 -0.1081895
vt -0.8074508 0.8132797
vt -0.6664686 0.771348
vt -1.165164 -0.1081895
vt 0.7846227 0.8266683
vt 0.9334186 0.8565843
vt 1.166534 -0.1073934
vt -0.9334188 0.8565843
vt -0.7846227 0.8266683
vt -1.166535 -0.1073934
vt 0.9091947 0.8663709
vt 1.061544 0.8843489
vt 1.167706 -0.105916
vt -1.061544 0.8843489
vt -0.9091948 0.8663709
vt -1.167706 -0.105916
vt 1.037893 0.8896862
vt 1.185039 0.89579
vt 1.168383 -0.1039324
vt -1.185039 0.89579
vt -1.037893 0.8896862
vt -1.168383 -0.1039324
vt 0.5194094 0.05018064
vt 0.3244095 0.05018064
vt 0.1294095 0.05018064
vt 0.1294095 0.2501807
vt 0.5194094 0.2501807
vt -0.6526905 0.05018064
vt -0.8026905 0.05018064
vt -1.052691 0.05018064
vt -1.052691 0.3097593
vt -0.6526905 0.3097593
vt 1.052691 0.05018064
vt 0.8026905 0.05018064
vt 0.6526905 0.05018064
vt 0.6526905 0.3097593
vt 1.052691 0.3097593
vt 0.6194094 -1.053708
vt 0.3244095 -1.053708
vt 0.3244095 -0.7506383
vt 0.6194094 -0.7506383
vt 0.3244013 -1.05517
vt 0.02790858 -1.053701
vt 0.02941766 -0.7491764
vt 0.3259104 -0.7506457
vt -0.05869882 -0.6234012
vt -0.05799171 -0.6241083
vt -0.06983084 -1.052691
vt -0.5789881 -1.052691
vt -0.5908272 -0.6241083
vt -0.5901201 -0.6234011
vt 0.5217519 -0.5530711
vt 0.6202856 -0.6515356
vt 0.6183445 -0.7602597
vt 0.322576 -0.7549795
vt 0.02680749 -0.7496992
vt 0.02874854 -0.6409751
vt 0.130734 -0.5460904
vt 0.326243 -0.5495808
vt -0.1294085 -0.6336737
vt -0.5194105 -0.6336735
vt -0.0586988 -0.7146161
vt -0.5901201 -0.7146158
vt 0.6452991 -0.1103326
vt 1.045299 -0.1103339
vt 0.6167157 -0.06082921
vt 1.0453 -0.05399247
vt -0.2344865 -1.045953
vt -0.2344871 -0.6459535
vt -0.291651 -1.045954
vt -0.2832773 -0.6173695
vt 0.7586654 0.06909086
vt 0.7577835 0.3318543
vt 0.8586023 0.3691414
vt 0.8596041 0.3691416
vt 0.9000379 0.3287377
vt 0.9000977 0.06914981
vt -0.06983024 0.3501808
vt -0.02940947 0.3097584
vt -0.02940953 0.05018055
vt -0.3244095 0.05018061
vt -0.6194094 0.05018067
vt -0.6194094 0.3097585
vt -0.5789887 0.3501808
vt -0.3014036 0.06876233
vt -0.4428229 0.06876287
vt -0.4428224 0.3283438
vt -0.4024016 0.3687634
vt -0.4014001 0.3687634
vt -0.3005818 0.3315192
vt -0.3462001 0.8079691
vt -0.3653344 0.8079691
vt -0.3462001 1.807969
vt -0.3653344 1.807969
vt 0.3576822 0.8079691
vt 0.3538554 0.8079691
vt 0.3576822 1.807969
vt 0.3538554 1.807969
vt 0.08067989 0.8079691
vt 0.06154567 0.8079691
vt 0.08067989 1.807969
vt 0.06154567 1.807969
vt -0.06920135 0.8079691
vt -0.07302821 0.8079691
vt -0.06920135 1.807969
vt -0.07302821 1.807969
vt 0.465904 0.8079691
vt 0.4467698 0.8079691
vt 0.465904 1.807969
vt 0.4467698 1.807969
vt -0.4544222 0.8079691
vt -0.458249 0.8079691
vt -0.4544222 1.807969
vt -0.458249 1.807969
vt 0.5838116 0.8079691
vt 0.5646774 0.8079691
vt 0.5838116 1.807969
vt 0.5646774 1.807969
vt -0.5723307 0.8079691
vt -0.5761576 0.8079691
vt -0.5723307 1.807969
vt -0.5761576 1.807969
vt 0.3653343 0.8079691
vt 0.3462 0.8079691
vt 0.3653343 1.807969
vt 0.3462 1.807969
vt -0.3538541 0.8079691
vt -0.3576808 0.8079691
vt -0.3538541 1.807969
vt -0.3576808 1.807969
vt -0.06154662 0.8079691
vt -0.08068073 0.8079691
vt -0.06154662 1.807969
vt -0.08068073 1.807969
vt 0.07302409 0.8079691
vt 0.0691973 0.8079691
vt 0.07302409 1.807969
vt 0.0691973 1.807969
vt -0.4467693 0.8079691
vt -0.4659034 0.8079691
vt -0.4467693 1.807969
vt -0.4659034 1.807969
vt 0.4582517 0.8079691
vt 0.4544248 0.8079691
vt 0.4582517 1.807969
vt 0.4544248 1.807969
vt -0.5646772 0.8079691
vt -0.5838115 0.8079691
vt -0.5646772 1.807969
vt -0.5838115 1.807969
vt 0.5761578 0.8079691
vt 0.572331 0.8079691
vt 0.5761578 1.807969
vt 0.572331 1.807969
vt 0.2604538 -0.5033188
vt 0.2677764 -0.4856412
vt 0.2804537 -0.5033188
vt 0.2819183 -0.4997826
vt -0.2677764 -0.4856412
vt -0.2604538 -0.5033188
vt -0.2819183 -0.4997826
vt -0.2804537 -0.5033188
vt 0.2854538 -0.4783188
vt 0.2854538 -0.4983184
vt -0.2854538 -0.4783188
vt -0.2854538 -0.4983184
vt 0.3031315 -0.4856427
vt 0.2889863 -0.4997832
vt -0.3031315 -0.4856427
vt -0.2889863 -0.4997832
vt 0.3104538 -0.5033188
vt 0.2904539 -0.5033188
vt -0.3104538 -0.5033188
vt -0.2904539 -0.5033188
vt 0.3031312 -0.5209966
vt 0.2889893 -0.5068551
vt -0.3031312 -0.5209966
vt -0.2889893 -0.5068551
vt 0.2854538 -0.5283189
vt 0.2854538 -0.5083191
vt -0.2854538 -0.5283189
vt -0.2854538 -0.5083191
vt 0.2677761 -0.5209949
vt 0.2819213 -0.5068543
vt -0.2677761 -0.5209949
vt -0.2819213 -0.5068543
vt -0.6313263 0.07632121
vt -1.431326 0.07632121
vt -0.6313263 0.1263212
vt -1.431326 0.1263212
vt 1.431326 0.07632121
vt 0.6313263 0.07632121
vt 1.431326 0.1263212
vt 0.6313263 0.1263212
vt -0.626744 -0.6313263
vt -0.02674407 -0.6313263
vt -0.626744 -1.431326
vt -0.02674407 -1.431326
vt 0.626744 -1.431326
vt 0.02674407 -1.431326
vt 0.626744 -0.6313263
vt 0.02674407 -0.6313263
vt -0.3291045 0.02019763
vt -2.137717 0.02019763
vt -0.3291045 0.3701976
vt -2.137717 0.3701976
vt 2.137717 0.02019763
vt 0.3291045 0.02019763
vt 2.137717 0.3701976
vt 0.3291045 0.3701976
vt -0.6310684 -0.2377167
vt -0.2310684 -0.2377167
vt -0.6310684 -2.137717
vt -0.2310684 -2.137717
vt -0.169819 -0.2377167
vt -0.169819 -2.137717
vt -0.07839759 -0.2377167
vt -0.07839759 -2.137717
vt -0.439804 -2.137717
vt -0.439804 -0.2377167
vt -0.5312253 -2.137717
vt -0.5312253 -0.2377167
vt -0.6310684 0.02019763
vt -0.6541474 0.3911014
vt -0.6000721 0.4478203
vt -0.260357 0.4491079
vt -0.2018826 0.3908046
vt -0.2310684 0.02019763
vt -0.2310684 -1.440912
vt -0.6310684 -1.440912
vt -0.260357 -1.563606
vt -0.6000721 -1.564352
vt 1.115177 0.4148705
vt 1.16378 0.453701
vt 1.241035 0.435968
vt 1.25634 0.06476702
vt 1.115177 0.06496134
vt 1.03018 -0.6854126
vt 1.121921 -0.7736291
vt 1.083006 -0.8416426
vt 1.006407 -0.8204712
vt 0.9836591 -0.7641103
vt 1.771918 -0.1650573
vt 1.7837 -0.07342367
vt 1.818227 -0.1234424
vt -1.626738 -0.4340329
vt -1.649604 -0.4916087
vt -1.722439 -0.5133488
vt -1.763862 -0.4419158
vt -1.672532 -0.3549076
vt -1.709097 0.05809959
vt -1.850096 0.05777869
vt -1.831114 0.428877
vt -1.757513 0.4464002
vt -1.709097 0.4079486
vt 0.6957131 0.455553
vt 0.6960958 0.454629
vt 0.6396806 0.02019763
vt 0.2224562 0.02019763
vt 0.166041 0.454629
vt 0.1664238 0.455553
vt 0.2310684 0.5201976
vt 0.6310684 0.5201976
vt -2.081616 0.1587443
vt -2.092021 0.2505445
vt -2.127807 0.1999761
vt -5.261478 2.093274
vt -5.242531 2.443987
vt -5.39034 2.100236
vt -5.310048 2.532485
vt -108.0055 2.453337
vt -108.0293 2.099636
vt -107.9013 2.532045
vt -107.8884 2.090165
vt 0.1310684 -0.3291045
vt 0.2224562 -0.2377167
vt 0.6396806 -0.2377167
vt 0.7310684 -0.3291045
vt 0.7310684 -2.137717
vt 0.6310684 -2.237717
vt 0.2310684 -2.237717
vt 0.1310684 -2.137717
vt 0.3291045 0.06225033
vt 0.2377167 0.1536382
vt 0.2377167 0.1546383
vt 2.137717 0.1546383
vt 2.137717 0.06225033
vt -2.137717 0.3921757
vt -2.137717 0.4845637
vt -0.2377167 0.4845637
vt -0.2377167 0.4835635
vt -0.3291045 0.3921757

vn 0 0 1
vn -1 0 0
vn 0 0 -1
vn 1 0 0
vn 0 1 0
vn 0 -1 0
vn 0 0.7071065 0.7071071
vn 0.7071071 0.7071065 0
vn -0.7071065 0.7071071 0
vn 0 0.7071065 -0.707107
vn 0 -0.9961954 -0.08714803
vn 0 0.9961925 0.08718115
vn 0 -0.08715626 0.9961947
vn 0 0.08715583 -0.9961947
vn 0 0.7660502 -0.6427808
vn 0.7073057 0.06161813 -0.7042172
vn -0.7071722 0.06162978 -0.7043504
vn 0 -0.6426225 -0.766183
vn -0.7069719 0 0.7072417
vn 0.7069719 0 -0.7072417
vn 0.7069719 0 0.7072417
vn -0.7069719 0 -0.7072417
vn 0.8048873 0 -0.5934278
vn 0.7990385 0.1388705 -0.5850235
vn 0.7924032 0.177768 -0.5821774
vn 0.7857679 0.2166656 -0.5793314
vn 0.7877379 -0.2164009 -0.5767493
vn 0.7923784 -0.1779423 -0.582188
vn 0.7970189 -0.1394837 -0.5876266
vn 0.8423536 0 0.5389252
vn -0.8048873 0 -0.5934278
vn -0.7877379 0.2164009 -0.5767493
vn -0.7923782 0.1779446 -0.5821877
vn -0.7970185 0.1394883 -0.5876261
vn -0.8423536 0 0.5389252
vn -0.7990385 -0.1388705 -0.5850235
vn -0.7924032 -0.177768 -0.5821774
vn -0.7857679 -0.2166656 -0.5793314
vn 0 -0.9986294 -0.05233859
vn 0 0.9986294 0.05233859
vn 0 -0.05232814 0.9986299
vn 0 0.05232814 -0.9986299
vn 0 0.09291637 -0.995674
vn 0 0.1846638 -0.9828018
vn 0 -0.1865187 0.9824514
vn 0 -0.09390541 0.9955812
vn 0 0.3616118 -0.9323288
vn 0 -0.3648604 0.9310622
vn 0 0.5239981 -0.8517195
vn 0 -0.5279559 0.8492718
vn 0 0.6665428 -0.7454668
vn 0 -0.6704137 0.7419876
vn 0 0.7856697 -0.6186462
vn 0 -0.7887893 0.6146637
vn 0 0.8792546 -0.4763522
vn 0 -0.8813186 0.4725225
vn 0 0.9463263 -0.3232129
vn 0 -0.9473507 0.3201976
vn 0 0.9865863 -0.1632404
vn 0 -0.9868584 0.1615875
vn 0 0.986586 0.163242
vn 0 -0.986859 -0.161584
vn 0 0.9463289 0.3232051
vn 0 -0.9704735 -0.241208
vn 0 0.9162754 0.400549
vn 0 -0.917808 -0.3970246
vn 0 -0.4566653 0.8896385
vn 0 0.1044352 -0.9945317
vn 0 0.2090339 -0.9779084
vn 0 0.3137724 -0.9494982
vn 0 0.4183773 -0.9082733
vn 0 0.5221689 -0.8528421
vn 0 0.6237332 -0.7816373
vn 0 0.720857 -0.6930839
vn 0 0.8102592 -0.5860717
vn 0 0.8876241 -0.4605685
vn 0 0.9480281 -0.3181867
vn 0 0.9866757 -0.1626989
vn 0 0.9966308 -0.08201862
vn 0 0.7039886 0.7102113
vn 0 -0.8163577 0.5775467
vn -2.11494E-07 0.7069951 -0.7072185
vn 0.06459838 -0.5548755 0.8245755
vn 0.06459838 -0.4503405 0.8707461
vn 0 -0.2968407 0.954927
vn 0 -0.4688639 0.868026
vn -0.06459838 -0.4503405 0.8707461
vn -0.06459838 -0.5548755 0.8245755
vn 0 -0.5059107 0.8625858
vn 0 0.9531635 -0.3024556
vn 0.8165095 0.4082339 -0.4082367
vn 0.7617482 0.4471589 -0.4609706
vn 0.7069868 0.4860838 -0.5137045
vn -0.7071214 0.499988 -0.4999914
vn -0.7579557 0.4498681 -0.4656692
vn -0.80879 0.3997482 -0.431347
vn 0.7091111 0.4974798 0.4996647
vn 0.7111804 0.4981228 0.4960598
vn 0.7085571 0.5004373 0.497473
vn 0.7058671 0.4995872 0.5021597
vn 0.7088341 0.4989585 0.4985688
vn 0.7071085 0.5000014 0.4999962
vn -7.072535E-06 -0.7071102 -0.7071034
vn -0.7091111 0.4974798 0.4996647
vn -0.7071085 0.5000014 0.4999962
vn -0.7087919 0.4989472 0.4986395
vn -0.7056983 0.4995375 0.5024464
vn -0.7084727 0.5004146 0.4976141
vn -0.7111804 0.4981249 0.4960576
vn -0.7071068 0 0.7071068
vn 0.7072417 0 -0.7069718
vn 0.7071068 0 0.7071068
vn -0.7072417 0 -0.7069718
vn 0.7071068 0 -0.7071068
vn -0.7072417 0 0.7069718
vn -0.7071068 0 -0.7071068
vn 0.7072417 0 0.7069718
vn 0 0.5499493 -0.8351981
vn 0.001027895 0.5461987 -0.8376424
vn 0.002055789 0.5424482 -0.8400868
vn 0.485656 -0.01064485 -0.8725449
vn 0.5198246 -6.634331E-07 -0.8542731
vn 0.5165185 -0.01596727 -0.8559702
vn 0.4685718 -0.01596694 -0.8816809
vn 0.4239311 0 -0.9056945
vn 0.3813237 0.3813631 -0.8421131
vn 0.3816317 0.3727233 -0.8457904
vn 0.3804674 0.3626929 -0.8507047
vn 0.3817857 0.3684033 -0.847629
vn 0.3822139 0.3777384 -0.8433332
vn 0.7576809 0.3138337 -0.5722134
vn -0.3892083 0.3895682 -0.8347176
vn -0.389223 0.3901486 -0.8344396
vn -0.3892711 0.3893113 -0.8348082
vn -0.4239311 0 -0.9056945
vn -0.4830893 -0.02135451 -0.8724136
vn -0.5468278 -0.02140707 -0.8366842
vn -0.551408 -0.0001051142 -0.8342357
vn -0.5058622 -0.01427138 -0.8596876
vn -0.7895329 0.3270269 -0.519318
vn 0.5350488 0 0.8448212
vn 0.657149 -0.05059353 0.7316564
vn 0.7792492 -0.1011871 0.6184916
vn -0.855876 0 0.5171811
vn -0.694819 -0.03465503 0.6799853
vn -0.533762 -0.06931007 0.8427895
vn 0.9240354 0.3823049 0.0006390427
vn 0.9243402 0.3815646 0.001917128
vn 0.923883 0.3826751 0
vn -0.923883 0.3826751 0
vn -0.9241116 0.3821199 0.0009585641
vn -0.9243402 0.3815646 0.001917128

usemtl ProBuilderDefault
f 23/113/6 32/116/6 36/114/6
f 31/109/6 32/116/6 23/113/6
f 27/111/6 31/109/6 23/113/6
f 27/111/6 28/110/6 31/109/6
f 27/111/6 23/113/6 24/112/6
f 32/116/6 35/115/6 36/114/6
f 38/123/5 37/122/5 34/121/5
f 26/117/5 25/124/5 29/118/5
f 33/120/5 30/119/5 29/118/5
f 25/124/5 33/120/5 29/118/5
f 25/124/5 34/121/5 33/120/5
f 38/123/5 34/121/5 25/124/5
f 41/127/5 40/126/5 39/125/5
f 44/130/6 43/129/6 42/128/6
f 41/154/2 48/153/2 47/152/2
f 41/154/2 47/152/2 44/151/2
f 44/151/2 42/156/2 41/154/2
f 42/156/2 40/155/2 41/154/2
f 51/127/6 50/126/6 49/125/6
f 54/130/5 53/129/5 52/128/5
f 51/154/4 58/153/4 57/152/4
f 51/154/4 57/152/4 54/151/4
f 54/151/4 52/156/4 51/154/4
f 52/156/4 50/155/4 51/154/4
f 80/218/1 85/158/1 84/217/1
f 84/217/1 83/157/1 81/219/1
f 80/218/1 84/217/1 81/219/1
f 79/223/2 87/222/2 86/221/2
f 86/221/2 85/220/2 80/224/2
f 79/223/2 86/221/2 80/224/2
f 82/226/3 88/225/3 79/227/3
f 82/226/3 89/166/3 88/225/3
f 88/225/3 87/165/3 79/227/3
f 81/231/4 90/229/4 82/232/4
f 81/231/4 83/230/4 90/229/4
f 90/229/4 89/228/4 82/232/4
f 69/516/2 219/515/2 216/514/2
f 65/519/4 217/518/4 218/517/4
f 69/522/2 221/521/2 219/520/2
f 65/525/4 218/524/4 220/523/4
f 69/528/2 223/527/2 221/526/2
f 65/531/4 220/530/4 222/529/4
f 69/534/2 225/533/2 223/532/2
f 65/537/4 222/536/4 224/535/4
f 69/540/2 227/539/2 225/538/2
f 65/543/4 224/542/4 226/541/4
f 69/546/2 229/545/2 227/544/2
f 65/549/4 226/548/4 228/547/4
f 69/552/2 231/551/2 229/550/2
f 65/555/4 228/554/4 230/553/4
f 69/558/2 233/557/2 231/556/2
f 65/561/4 230/560/4 232/559/4
f 69/564/2 235/563/2 233/562/2
f 65/567/4 232/566/4 234/565/4
f 69/570/2 237/569/2 235/568/2
f 65/573/4 234/572/4 236/571/4
f 69/576/2 239/575/2 237/574/2
f 65/579/4 236/578/4 238/577/4
f 69/582/2 241/581/2 239/580/2
f 65/585/4 238/584/4 240/583/4
f 63/516/2 245/515/2 242/514/2
f 70/519/4 243/518/4 244/517/4
f 63/522/2 247/521/2 245/520/2
f 70/525/4 244/524/4 246/523/4
f 63/528/2 249/527/2 247/526/2
f 70/531/4 246/530/4 248/529/4
f 63/534/2 251/533/2 249/532/2
f 70/537/4 248/536/4 250/535/4
f 63/540/2 253/539/2 251/538/2
f 70/543/4 250/542/4 252/541/4
f 63/546/2 255/545/2 253/544/2
f 70/549/4 252/548/4 254/547/4
f 63/552/2 257/551/2 255/550/2
f 70/555/4 254/554/4 256/553/4
f 63/558/2 259/557/2 257/556/2
f 70/561/4 256/560/4 258/559/4
f 63/564/2 261/563/2 259/562/2
f 70/567/4 258/566/4 260/565/4
f 63/570/2 263/569/2 261/568/2
f 70/573/4 260/572/4 262/571/4
f 63/576/2 265/575/2 263/574/2
f 70/579/4 262/578/4 264/577/4
f 63/582/2 267/581/2 265/580/2
f 70/585/4 264/584/4 266/583/4
f 271/589/80 270/588/80 269/587/80
f 269/587/80 268/586/80 272/590/80
f 271/589/80 269/587/80 272/590/80
f 276/594/2 275/593/2 274/592/2
f 274/592/2 273/591/2 277/595/2
f 276/594/2 274/592/2 277/595/2
f 281/599/4 279/597/4 282/600/4
f 281/599/4 280/598/4 279/597/4
f 279/597/4 278/596/4 282/600/4
f 285/609/10 290/614/82 286/610/82
f 289/613/82 288/612/10 287/611/10
f 289/613/82 287/611/10 286/610/82
f 290/614/82 289/613/82 286/610/82
f 284/618/86 280/616/84 268/615/83
f 284/618/86 279/617/85 280/616/84
f 269/622/89 284/618/86 268/615/83
f 284/618/86 269/622/89 270/621/88
f 284/618/86 270/621/88 273/620/87
f 273/620/87 274/619/85 284/618/86
f 281/639/101 289/638/100 290/637/99
f 281/639/101 290/637/99 272/636/98
f 272/636/98 268/635/97 281/639/101
f 268/635/97 280/640/102 281/639/101
f 283/644/103 276/642/103 287/641/103
f 283/644/103 275/643/103 276/642/103
f 283/644/103 287/641/103 288/647/103
f 283/644/103 288/647/103 282/646/103
f 282/646/103 278/645/103 283/644/103
f 277/650/106 273/649/105 270/648/104
f 277/650/106 270/648/104 271/653/109
f 271/653/109 285/652/108 277/650/106
f 285/652/108 286/651/107 277/650/106
f 347/790/3 346/789/3 348/791/3
f 346/789/3 345/788/3 348/791/3
f 343/786/3 348/791/3 345/788/3
f 343/786/3 345/788/3 344/787/3
f 333/796/121 343/799/124 344/798/123
f 333/796/121 331/800/125 343/799/124
f 333/796/121 344/798/123 349/797/122
f 340/805/130 345/802/127 337/801/126
f 340/805/130 349/804/129 345/802/127
f 344/803/128 345/802/127 349/804/129
f 349/808/131 340/807/131 333/806/131
f 346/812/132 341/809/132 338/813/134
f 341/809/132 346/812/132 350/810/133
f 347/811/133 350/810/133 346/812/132
f 350/817/138 347/816/137 330/818/139
f 348/815/136 328/814/135 330/818/139
f 347/816/137 348/815/136 330/818/139
f 354/823/1 353/822/1 352/821/1
f 354/823/1 352/821/1 351/820/1
f 339/819/1 335/826/1 351/820/1
f 351/820/1 335/826/1 336/825/1
f 354/823/1 351/820/1 336/825/1
f 336/825/1 342/824/1 354/823/1
f 330/827/140 341/828/140 350/829/140
f 327/838/6 332/841/6 352/840/6
f 332/841/6 327/838/6 331/842/6
f 328/845/6 331/842/6 327/838/6
f 343/843/6 331/842/6 328/845/6
f 328/845/6 348/844/6 343/843/6
f 327/838/6 352/840/6 353/839/6
f 339/848/147 334/846/147 340/849/149
f 339/848/147 351/847/148 334/846/147
f 334/846/147 333/850/149 340/849/149
f 341/852/150 330/851/150 329/855/151
f 329/855/151 354/854/152 342/853/151
f 341/852/150 329/855/151 342/853/151
f 4/4/1 2/2/1 1/1/1
f 1/1/1 3/3/1 4/4/1
f 6/8/2 5/6/2 2/5/2
f 2/5/2 4/7/2 6/8/2
f 8/12/3 7/10/3 5/9/3
f 5/9/3 6/11/3 8/12/3
f 3/16/4 1/14/4 7/13/4
f 7/13/4 8/15/4 3/16/4
f 12/20/5 10/18/5 9/17/5
f 9/17/5 11/19/5 12/20/5
f 2/24/6 5/22/6 7/21/6
f 7/21/6 1/23/6 2/24/6
f 10/27/7 4/25/7 3/26/7
f 3/26/7 9/28/7 10/27/7
f 9/31/8 3/29/8 8/30/8
f 8/30/8 11/32/8 9/31/8
f 12/35/9 6/33/9 4/34/9
f 4/34/9 10/36/9 12/35/9
f 11/39/10 8/37/10 6/38/10
f 6/38/10 12/40/10 11/39/10
f 2/42/11 14/4/11 13/3/11
f 13/3/11 1/41/11 2/42/11
f 16/46/2 15/44/2 14/43/2
f 14/43/2 2/45/2 16/46/2
f 18/48/12 17/12/12 15/11/12
f 15/11/12 16/47/12 18/48/12
f 1/52/4 13/50/4 17/49/4
f 17/49/4 18/51/4 1/52/4
f 16/56/13 2/54/13 1/53/13
f 1/53/13 18/55/13 16/56/13
f 22/60/14 20/58/14 19/57/14
f 19/57/14 21/59/14 22/60/14
f 20/63/15 15/61/15 17/62/15
f 17/62/15 19/64/15 20/63/15
f 19/67/16 17/65/16 13/66/16
f 13/66/16 21/68/16 19/67/16
f 22/71/17 14/69/17 15/70/17
f 15/70/17 20/72/17 22/71/17
f 21/75/18 13/73/18 14/74/18
f 14/74/18 22/76/18 21/75/18
f 26/80/1 24/78/1 23/77/1
f 23/77/1 25/79/1 26/80/1
f 30/84/2 28/82/2 27/81/2
f 27/81/2 29/83/2 30/84/2
f 34/88/3 32/86/3 31/85/3
f 31/85/3 33/87/3 34/88/3
f 38/92/4 36/90/4 35/89/4
f 35/89/4 37/91/4 38/92/4
f 27/95/19 24/93/19 26/94/19
f 26/94/19 29/96/19 27/95/19
f 35/99/20 32/97/20 34/98/20
f 34/98/20 37/100/20 35/99/20
f 38/103/21 25/101/21 23/102/21
f 23/102/21 36/104/21 38/103/21
f 31/107/22 28/105/22 30/106/22
f 30/106/22 33/108/22 31/107/22
f 47/133/23 48/134/23 46/132/23
f 46/132/23 45/131/23 47/133/23
f 40/136/1 42/138/1 43/137/1
f 43/137/1 39/135/1 40/136/1
f 48/141/25 41/139/24 39/140/25
f 39/140/25 46/142/26 48/141/25
f 45/145/28 43/143/27 44/144/28
f 44/144/28 47/146/29 45/145/28
f 43/149/30 45/147/30 46/148/30
f 46/148/30 39/150/30 43/149/30
f 57/133/31 58/134/31 56/132/31
f 56/132/31 55/131/31 57/133/31
f 50/136/1 52/138/1 53/137/1
f 53/137/1 49/135/1 50/136/1
f 55/145/33 53/143/32 54/144/33
f 54/144/33 57/146/34 55/145/33
f 53/149/35 55/147/35 56/148/35
f 56/148/35 49/150/35 53/149/35
f 58/141/37 51/139/36 49/140/37
f 49/140/37 56/142/38 58/141/37
f 62/160/1 60/158/1 59/157/1
f 59/157/1 61/159/1 62/160/1
f 64/164/2 63/162/2 60/161/2
f 60/161/2 62/163/2 64/164/2
f 66/168/3 65/166/3 63/165/3
f 63/165/3 64/167/3 66/168/3
f 61/172/4 59/170/4 65/169/4
f 65/169/4 66/171/4 61/172/4
f 64/176/5 62/174/5 61/173/5
f 61/173/5 66/175/5 64/176/5
f 60/180/6 63/178/6 65/177/6
f 65/177/6 59/179/6 60/180/6
f 70/184/39 68/182/39 67/181/39
f 67/181/39 69/183/39 70/184/39
f 72/164/2 71/162/2 68/161/2
f 68/161/2 70/163/2 72/164/2
f 74/188/40 73/186/40 71/185/40
f 71/185/40 72/187/40 74/188/40
f 69/172/4 67/170/4 73/169/4
f 73/169/4 74/171/4 69/172/4
f 72/192/41 70/190/41 69/189/41
f 69/189/41 74/191/41 72/192/41
f 68/196/42 71/194/42 73/193/42
f 73/193/42 67/195/42 68/196/42
f 78/200/5 76/198/5 75/197/5
f 75/197/5 77/199/5 78/200/5
f 78/203/9 79/201/9 80/202/9
f 80/202/9 76/204/9 78/203/9
f 76/207/7 80/205/7 81/206/7
f 81/206/7 75/208/7 76/207/7
f 75/211/8 81/209/8 82/210/8
f 82/210/8 77/212/8 75/211/8
f 77/215/10 82/213/10 79/214/10
f 79/214/10 78/216/10 77/215/10
f 90/236/6 91/235/6 88/234/6
f 88/234/6 89/233/6 90/236/6
f 91/235/6 86/238/6 87/237/6
f 87/237/6 88/234/6 91/235/6
f 91/235/6 84/240/6 85/239/6
f 85/239/6 86/238/6 91/235/6
f 90/236/6 83/241/6 84/240/6
f 84/240/6 91/235/6 90/236/6
f 93/245/41 69/243/41 65/242/41
f 65/242/41 92/244/41 93/245/41
f 94/249/2 67/247/2 69/246/2
f 69/246/2 93/248/2 94/249/2
f 96/253/42 95/251/42 67/250/42
f 67/250/42 94/252/42 96/253/42
f 92/257/4 65/255/4 95/254/4
f 95/254/4 96/256/4 92/257/4
f 94/261/40 93/259/40 92/258/40
f 92/258/40 96/260/40 94/261/40
f 69/265/39 67/263/39 95/262/39
f 95/262/39 65/264/39 69/265/39
f 98/245/41 63/243/41 70/242/41
f 70/242/41 97/244/41 98/245/41
f 100/249/2 99/247/2 63/246/2
f 63/246/2 98/248/2 100/249/2
f 101/253/42 68/251/42 99/250/42
f 99/250/42 100/252/42 101/253/42
f 97/257/4 70/255/4 68/254/4
f 68/254/4 101/256/4 97/257/4
f 100/261/40 98/259/40 97/258/40
f 97/258/40 101/260/40 100/261/40
f 63/265/39 99/263/39 68/262/39
f 68/262/39 70/264/39 63/265/39
f 105/269/1 103/267/1 102/266/1
f 102/266/1 104/268/1 105/269/1
f 107/8/2 106/271/2 103/270/2
f 103/270/2 105/7/2 107/8/2
f 109/275/3 108/273/3 106/272/3
f 106/272/3 107/274/3 109/275/3
f 104/16/4 102/277/4 108/276/4
f 108/276/4 109/15/4 104/16/4
f 113/281/5 111/279/5 110/278/5
f 110/278/5 112/280/5 113/281/5
f 103/285/6 106/283/6 108/282/6
f 108/282/6 102/284/6 103/285/6
f 110/288/8 104/286/8 109/287/8
f 109/287/8 112/289/8 110/288/8
f 111/292/7 105/290/7 104/291/7
f 104/291/7 110/293/7 111/292/7
f 113/296/9 107/294/9 105/295/9
f 105/295/9 111/297/9 113/296/9
f 112/300/10 109/298/10 107/299/10
f 107/299/10 113/301/10 112/300/10
f 116/305/6 40/303/6 114/302/6
f 114/302/6 115/304/6 116/305/6
f 118/309/44 117/307/44 115/306/43
f 115/306/43 114/308/43 118/309/44
f 40/313/46 116/311/46 119/310/45
f 119/310/45 120/312/45 40/313/46
f 122/317/47 121/315/47 117/314/44
f 117/314/44 118/316/44 122/317/47
f 120/321/45 119/319/45 123/318/48
f 123/318/48 124/320/48 120/321/45
f 126/325/49 125/323/49 121/322/47
f 121/322/47 122/324/47 126/325/49
f 124/329/48 123/327/48 127/326/50
f 127/326/50 128/328/50 124/329/48
f 130/333/51 129/331/51 125/330/49
f 125/330/49 126/332/49 130/333/51
f 128/337/50 127/335/50 131/334/52
f 131/334/52 132/336/52 128/337/50
f 134/341/53 133/339/53 129/338/51
f 129/338/51 130/340/51 134/341/53
f 132/345/52 131/343/52 135/342/54
f 135/342/54 136/344/54 132/345/52
f 138/349/55 137/347/55 133/346/53
f 133/346/53 134/348/53 138/349/55
f 136/353/54 135/351/54 139/350/56
f 139/350/56 140/352/56 136/353/54
f 142/357/57 141/355/57 137/354/55
f 137/354/55 138/356/55 142/357/57
f 140/361/56 139/359/56 143/358/58
f 143/358/58 144/360/58 140/361/56
f 146/365/59 145/363/59 141/362/57
f 141/362/57 142/364/57 146/365/59
f 144/369/58 143/367/58 147/366/60
f 147/366/60 148/368/60 144/369/58
f 150/373/5 149/371/5 145/370/59
f 145/370/59 146/372/59 150/373/5
f 148/377/60 147/375/60 151/374/6
f 151/374/6 152/376/6 148/377/60
f 154/381/61 153/379/61 149/378/5
f 149/378/5 150/380/5 154/381/61
f 152/385/6 151/383/6 155/382/62
f 155/382/62 156/384/62 152/385/6
f 158/389/63 157/387/63 153/386/61
f 153/386/61 154/388/61 158/389/63
f 156/393/62 155/391/62 159/390/64
f 159/390/64 160/392/64 156/393/62
f 162/397/65 161/395/65 157/394/63
f 157/394/63 158/396/63 162/397/65
f 160/401/66 159/399/66 163/398/66
f 163/398/66 164/400/66 160/401/66
f 161/405/67 162/403/67 164/402/67
f 164/402/67 163/404/67 161/405/67
f 120/409/2 118/407/2 114/406/2
f 114/406/2 40/408/2 120/409/2
f 116/413/4 115/411/4 117/410/4
f 117/410/4 119/412/4 116/413/4
f 124/415/2 122/414/2 118/407/2
f 118/407/2 120/409/2 124/415/2
f 119/412/4 117/410/4 121/416/4
f 121/416/4 123/417/4 119/412/4
f 128/419/2 126/418/2 122/414/2
f 122/414/2 124/415/2 128/419/2
f 123/417/4 121/416/4 125/420/4
f 125/420/4 127/421/4 123/417/4
f 132/423/2 130/422/2 126/418/2
f 126/418/2 128/419/2 132/423/2
f 127/421/4 125/420/4 129/424/4
f 129/424/4 131/425/4 127/421/4
f 136/427/2 134/426/2 130/422/2
f 130/422/2 132/423/2 136/427/2
f 131/425/4 129/424/4 133/428/4
f 133/428/4 135/429/4 131/425/4
f 140/431/2 138/430/2 134/426/2
f 134/426/2 136/427/2 140/431/2
f 135/429/4 133/428/4 137/432/4
f 137/432/4 139/433/4 135/429/4
f 144/435/2 142/434/2 138/430/2
f 138/430/2 140/431/2 144/435/2
f 139/433/4 137/432/4 141/436/4
f 141/436/4 143/437/4 139/433/4
f 148/439/2 146/438/2 142/434/2
f 142/434/2 144/435/2 148/439/2
f 143/437/4 141/436/4 145/440/4
f 145/440/4 147/441/4 143/437/4
f 152/443/2 150/442/2 146/438/2
f 146/438/2 148/439/2 152/443/2
f 147/441/4 145/440/4 149/444/4
f 149/444/4 151/445/4 147/441/4
f 156/447/2 154/446/2 150/442/2
f 150/442/2 152/443/2 156/447/2
f 151/445/4 149/444/4 153/448/4
f 153/448/4 155/449/4 151/445/4
f 160/451/2 158/450/2 154/446/2
f 154/446/2 156/447/2 160/451/2
f 155/449/4 153/448/4 157/452/4
f 157/452/4 159/453/4 155/449/4
f 164/455/2 162/454/2 158/450/2
f 158/450/2 160/451/2 164/455/2
f 159/453/4 157/452/4 161/456/4
f 161/456/4 163/457/4 159/453/4
f 52/305/6 166/303/6 165/302/6
f 165/302/6 167/304/6 52/305/6
f 169/309/44 168/307/44 167/306/43
f 167/306/43 165/308/43 169/309/44
f 166/313/46 52/311/46 170/310/45
f 170/310/45 171/312/45 166/313/46
f 173/317/47 172/315/47 168/314/44
f 168/314/44 169/316/44 173/317/47
f 171/321/45 170/319/45 174/318/48
f 174/318/48 175/320/48 171/321/45
f 177/325/49 176/323/49 172/322/47
f 172/322/47 173/324/47 177/325/49
f 175/329/48 174/327/48 178/326/50
f 178/326/50 179/328/50 175/329/48
f 181/333/51 180/331/51 176/330/49
f 176/330/49 177/332/49 181/333/51
f 179/337/50 178/335/50 182/334/52
f 182/334/52 183/336/52 179/337/50
f 185/341/53 184/339/53 180/338/51
f 180/338/51 181/340/51 185/341/53
f 183/345/52 182/343/52 186/342/54
f 186/342/54 187/344/54 183/345/52
f 189/349/55 188/347/55 184/346/53
f 184/346/53 185/348/53 189/349/55
f 187/353/54 186/351/54 190/350/56
f 190/350/56 191/352/56 187/353/54
f 193/357/57 192/355/57 188/354/55
f 188/354/55 189/356/55 193/357/57
f 191/361/56 190/359/56 194/358/58
f 194/358/58 195/360/58 191/361/56
f 197/365/59 196/363/59 192/362/57
f 192/362/57 193/364/57 197/365/59
f 195/369/58 194/367/58 198/366/60
f 198/366/60 199/368/60 195/369/58
f 201/373/5 200/371/5 196/370/59
f 196/370/59 197/372/59 201/373/5
f 199/377/60 198/375/60 202/374/6
f 202/374/6 203/376/6 199/377/60
f 205/381/61 204/379/61 200/378/5
f 200/378/5 201/380/5 205/381/61
f 203/385/6 202/383/6 206/382/62
f 206/382/62 207/384/62 203/385/6
f 209/389/63 208/387/63 204/386/61
f 204/386/61 205/388/61 209/389/63
f 207/393/62 206/391/62 210/390/64
f 210/390/64 211/392/64 207/393/62
f 213/397/65 212/395/65 208/394/63
f 208/394/63 209/396/63 213/397/65
f 211/401/66 210/399/66 214/398/66
f 214/398/66 215/400/66 211/401/66
f 212/405/67 213/403/67 215/402/67
f 215/402/67 214/404/67 212/405/67
f 171/409/2 169/407/2 165/406/2
f 165/406/2 166/408/2 171/409/2
f 52/413/4 167/411/4 168/410/4
f 168/410/4 170/412/4 52/413/4
f 175/415/2 173/414/2 169/407/2
f 169/407/2 171/409/2 175/415/2
f 170/412/4 168/410/4 172/416/4
f 172/416/4 174/417/4 170/412/4
f 179/419/2 177/418/2 173/414/2
f 173/414/2 175/415/2 179/419/2
f 174/417/4 172/416/4 176/420/4
f 176/420/4 178/421/4 174/417/4
f 183/423/2 181/422/2 177/418/2
f 177/418/2 179/419/2 183/423/2
f 178/421/4 176/420/4 180/424/4
f 180/424/4 182/425/4 178/421/4
f 187/427/2 185/426/2 181/422/2
f 181/422/2 183/423/2 187/427/2
f 182/425/4 180/424/4 184/428/4
f 184/428/4 186/429/4 182/425/4
f 191/431/2 189/430/2 185/426/2
f 185/426/2 187/427/2 191/431/2
f 186/429/4 184/428/4 188/432/4
f 188/432/4 190/433/4 186/429/4
f 195/435/2 193/434/2 189/430/2
f 189/430/2 191/431/2 195/435/2
f 190/433/4 188/432/4 192/436/4
f 192/436/4 194/437/4 190/433/4
f 199/439/2 197/438/2 193/434/2
f 193/434/2 195/435/2 199/439/2
f 194/437/4 192/436/4 196/440/4
f 196/440/4 198/441/4 194/437/4
f 203/443/2 201/442/2 197/438/2
f 197/438/2 199/439/2 203/443/2
f 198/441/4 196/440/4 200/444/4
f 200/444/4 202/445/4 198/441/4
f 207/447/2 205/446/2 201/442/2
f 201/442/2 203/443/2 207/447/2
f 202/445/4 200/444/4 204/448/4
f 204/448/4 206/449/4 202/445/4
f 211/451/2 209/450/2 205/446/2
f 205/446/2 207/447/2 211/451/2
f 206/449/4 204/448/4 208/452/4
f 208/452/4 210/453/4 206/449/4
f 215/455/2 213/454/2 209/450/2
f 209/450/2 211/451/2 215/455/2
f 210/453/4 208/452/4 212/456/4
f 212/456/4 214/457/4 210/453/4
f 65/461/6 69/459/6 216/458/6
f 216/458/6 217/460/6 65/461/6
f 219/465/68 218/463/68 217/462/42
f 217/462/42 216/464/42 219/465/68
f 221/469/69 220/467/69 218/466/68
f 218/466/68 219/468/68 221/469/69
f 223/473/70 222/471/70 220/470/69
f 220/470/69 221/472/69 223/473/70
f 225/477/71 224/475/71 222/474/70
f 222/474/70 223/476/70 225/477/71
f 227/481/72 226/479/72 224/478/71
f 224/478/71 225/480/71 227/481/72
f 229/485/73 228/483/73 226/482/72
f 226/482/72 227/484/72 229/485/73
f 231/489/74 230/487/74 228/486/73
f 228/486/73 229/488/73 231/489/74
f 233/493/75 232/491/75 230/490/74
f 230/490/74 231/492/74 233/493/75
f 235/497/76 234/495/76 232/494/75
f 232/494/75 233/496/75 235/497/76
f 237/501/77 236/499/77 234/498/76
f 234/498/76 235/500/76 237/501/77
f 239/505/78 238/503/78 236/502/77
f 236/502/77 237/504/77 239/505/78
f 241/509/79 240/507/79 238/506/78
f 238/506/78 239/508/78 241/509/79
f 240/513/1 241/511/1 69/510/1
f 69/510/1 65/512/1 240/513/1
f 70/461/6 63/459/6 242/458/6
f 242/458/6 243/460/6 70/461/6
f 245/465/68 244/463/68 243/462/42
f 243/462/42 242/464/42 245/465/68
f 247/469/69 246/467/69 244/466/68
f 244/466/68 245/468/68 247/469/69
f 249/473/70 248/471/70 246/470/69
f 246/470/69 247/472/69 249/473/70
f 251/477/71 250/475/71 248/474/70
f 248/474/70 249/476/70 251/477/71
f 253/481/72 252/479/72 250/478/71
f 250/478/71 251/480/71 253/481/72
f 255/485/73 254/483/73 252/482/72
f 252/482/72 253/484/72 255/485/73
f 257/489/74 256/487/74 254/486/73
f 254/486/73 255/488/73 257/489/74
f 259/493/75 258/491/75 256/490/74
f 256/490/74 257/492/74 259/493/75
f 261/497/76 260/495/76 258/494/75
f 258/494/75 259/496/75 261/497/76
f 263/501/77 262/499/77 260/498/76
f 260/498/76 261/500/76 263/501/77
f 265/505/78 264/503/78 262/502/77
f 262/502/77 263/504/77 265/505/78
f 267/509/79 266/507/79 264/506/78
f 264/506/78 265/508/78 267/509/79
f 266/513/1 267/511/1 63/510/1
f 63/510/1 70/512/1 266/513/1
f 278/601/81 279/604/81 284/603/81
f 284/603/81 283/602/81 278/601/81
f 284/608/81 274/607/81 275/606/81
f 275/606/81 283/605/81 284/608/81
f 285/625/90 271/623/90 272/624/90
f 272/624/90 290/626/90 285/625/90
f 289/629/92 281/627/91 282/628/92
f 282/628/92 288/630/93 289/629/92
f 287/633/95 276/631/94 277/632/95
f 277/632/95 286/634/96 287/633/95
f 294/657/2 292/655/2 291/654/110
f 291/654/110 293/656/110 294/657/2
f 298/661/111 296/659/111 295/658/4
f 295/658/4 297/660/4 298/661/111
f 293/665/110 291/663/110 299/662/1
f 299/662/1 300/664/1 293/665/110
f 302/669/3 301/667/3 296/666/111
f 296/666/111 298/668/111 302/669/3
f 300/673/1 299/671/1 303/670/112
f 303/670/112 304/672/112 300/673/1
f 306/677/113 305/675/113 301/674/3
f 301/674/3 302/676/3 306/677/113
f 304/681/112 303/679/112 307/678/4
f 307/678/4 308/680/4 304/681/112
f 310/685/2 309/683/2 305/682/113
f 305/682/113 306/684/113 310/685/2
f 308/689/4 307/687/4 311/686/114
f 311/686/114 312/688/114 308/689/4
f 314/693/115 313/691/115 309/690/2
f 309/690/2 310/692/2 314/693/115
f 312/697/114 311/695/114 315/694/3
f 315/694/3 316/696/3 312/697/114
f 318/701/1 317/699/1 313/698/115
f 313/698/115 314/700/115 318/701/1
f 316/705/3 315/703/3 319/702/116
f 319/702/116 320/704/116 316/705/3
f 322/709/117 321/707/117 317/706/1
f 317/706/1 318/708/1 322/709/117
f 320/713/116 319/711/116 292/710/2
f 292/710/2 294/712/2 320/713/116
f 297/717/4 295/715/4 321/714/117
f 321/714/117 322/716/117 297/717/4
f 296/721/6 291/719/6 292/718/6
f 292/718/6 295/720/6 296/721/6
f 297/725/5 294/723/5 293/722/5
f 293/722/5 298/724/5 297/725/5
f 301/727/6 299/726/6 291/719/6
f 291/719/6 296/721/6 301/727/6
f 298/724/5 293/722/5 300/728/5
f 300/728/5 302/729/5 298/724/5
f 305/731/6 303/730/6 299/726/6
f 299/726/6 301/727/6 305/731/6
f 302/729/5 300/728/5 304/732/5
f 304/732/5 306/733/5 302/729/5
f 309/735/6 307/734/6 303/730/6
f 303/730/6 305/731/6 309/735/6
f 306/733/5 304/732/5 308/736/5
f 308/736/5 310/737/5 306/733/5
f 313/739/6 311/738/6 307/734/6
f 307/734/6 309/735/6 313/739/6
f 310/737/5 308/736/5 312/740/5
f 312/740/5 314/741/5 310/737/5
f 317/743/6 315/742/6 311/738/6
f 311/738/6 313/739/6 317/743/6
f 314/741/5 312/740/5 316/744/5
f 316/744/5 318/745/5 314/741/5
f 321/747/6 319/746/6 315/742/6
f 315/742/6 317/743/6 321/747/6
f 318/745/5 316/744/5 320/748/5
f 320/748/5 322/749/5 318/745/5
f 295/720/6 292/718/6 319/746/6
f 319/746/6 321/747/6 295/720/6
f 322/749/5 320/748/5 294/723/5
f 294/723/5 297/725/5 322/749/5
f 64/160/1 63/158/1 65/157/1
f 65/157/1 66/159/1 64/160/1
f 324/753/2 323/751/2 63/750/2
f 63/750/2 64/752/2 324/753/2
f 326/168/3 325/166/3 323/165/3
f 323/165/3 324/167/3 326/168/3
f 66/757/4 65/755/4 325/754/4
f 325/754/4 326/756/4 66/757/4
f 324/761/5 64/759/5 66/758/5
f 66/758/5 326/760/5 324/761/5
f 63/765/6 323/763/6 325/762/6
f 325/762/6 65/764/6 63/765/6
f 330/769/2 328/767/2 327/766/2
f 327/766/2 329/768/2 330/769/2
f 334/773/4 332/771/4 331/770/4
f 331/770/4 333/772/4 334/773/4
f 338/777/5 336/775/5 335/774/5
f 335/774/5 337/776/5 338/777/5
f 335/780/8 339/778/8 340/779/8
f 340/779/8 337/781/8 335/780/8
f 338/784/9 341/782/9 342/783/9
f 342/783/9 336/785/9 338/784/9
f 346/794/119 338/792/118 337/793/119
f 337/793/119 345/795/120 346/794/119
f 352/832/142 332/830/141 334/831/142
f 334/831/142 351/833/143 352/832/142
f 354/836/145 329/834/144 327/835/145
f 327/835/145 353/837/146 354/836/145

