# ProBuilder 5.2.0
# https://unity3d.com/unity/features/worldbuilding/probuilder
# 11/13/2023 4:03:37 PM

mtllib ./Plane.mtl
o Plane

g Plane
v 0.05345154 0.0001 -99.91801
v 0.05345154 0.0001 -49.91801
v -49.94655 0.0001 -99.91801
v -49.94655 0.0001 -49.91801
v 0.05345154 0.0001 0.0819931
v -49.94655 0.0001 0.0819931
v -99.94655 0.0001 -99.91801
v -99.94655 0.0001 -49.91801
v -99.94655 0.0001 0.0819931

vt -0.05345154 -99.91801
vt -0.05345154 -49.91801
vt 49.94655 -99.91801
vt 49.94655 -49.91801
vt -0.05345154 0.0819931
vt 49.94655 0.0819931
vt 99.94655 -99.91801
vt 99.94655 -49.91801
vt 99.94655 0.0819931

vn 0 1 0

usemtl FarmGround
f 3/3/1 4/4/1 2/2/1 1/1/1
f 4/4/1 6/6/1 5/5/1 2/2/1
f 7/7/1 8/8/1 4/4/1 3/3/1
f 8/8/1 9/9/1 6/6/1 4/4/1

