# ProBuilder 5.2.0
# https://unity3d.com/unity/features/worldbuilding/probuilder
# 11/13/2023 12:06:34 PM

mtllib ./Tractor.mtl
o Tractor

g Tractor
v 0.6267441 0.07632122 -0.8313263
v 0.02674407 0.07632122 -0.8313263
v 0.6267441 0.1263212 -0.8313263
v 0.02674407 0.1263212 -0.8313263
v 0.02674407 0.07632122 -1.231326
v 0.02674407 0.1263212 -1.231326
v 0.6267441 0.07632122 -1.231326
v 0.6267441 0.1263212 -1.231326
v 0.5767441 0.07632065 -1.231323
v 0.6267471 1.07495 -1.178989
v 0.5767441 1.07495 -1.178989
v 0.5767441 0.07893753 -1.281258
v 0.5767441 1.077567 -1.22892
v 0.6267471 0.07893753 -1.281258
v 0.6267471 1.077567 -1.22892
v 0.07674408 0.07632065 -1.231323
v 0.07674408 1.07495 -1.178989
v 0.02674103 1.07495 -1.178989
v 0.02674103 0.07893753 -1.281258
v 0.02674103 1.077567 -1.22892
v 0.07674408 0.07893753 -1.281258
v 0.07674408 1.077567 -1.22892
v 0.02674103 0.0763216 -1.898819
v 0.02674103 0.0763216 -2.730309
v 0.02674103 0.426321 -1.898819
v 0.02674103 0.426321 -2.730309
v 0.6267471 0.0763216 -2.730309
v 0.6267471 0.0763216 -1.898819
v 0.6267471 0.426321 -2.730309
v 0.6267471 0.426321 -1.898819
v 0.476738 0.5763216 -1.840942
v 0.1767502 0.5763216 -1.840942
v 0.476738 0.5763216 -2.698643
v 0.1767502 0.5763216 -2.698643
v 0.5913925 0.5116768 -1.840942
v 0.5913925 0.5116768 -2.730309
v 0.5620956 0.5409679 -1.840942
v 0.5620956 0.5409679 -2.730309
v 0.06209564 0.5116768 -2.730309
v 0.06209564 0.5116768 -1.840942
v 0.09139252 0.5409679 -2.730309
v 0.09139252 0.5409679 -1.840942
v 0.526741 0.0763216 -2.777119
v 0.5498199 0.4472251 -2.777119
v 0.4957504 0.5039444 -2.777119
v 0.1560364 0.5052319 -2.777119
v 0.09755707 0.446928 -2.777119
v 0.1267471 0.0763216 -2.777119
v 0.5970383 0.465085 -2.748386
v 0.05484009 0.4646587 -2.748886
v 0.5353622 0.0763216 -1.840942
v 0.591774 0.5107527 -1.840942
v 0.06171417 0.5107527 -1.840942
v 0.1181259 0.0763216 -1.840942
v 0.5123901 0.542809 -2.75198
v 0.14048 0.5429921 -2.752258
v 0.5065918 0.5482578 -2.748459
v 0.146637 0.5486512 -2.748531
v 0.1305542 0.5571885 -2.730309
v 0.522934 0.5571885 -2.730309
v 0.5217438 0.5077958 -1.66077
v 0.3267441 0.5077958 -1.66077
v 0.1317444 0.5077958 -1.66077
v 0.1317444 0.6944094 -1.845749
v 0.5217438 0.6944094 -1.845749
v 0.03174591 0.4370852 -1.73148
v 0.03174591 0.3310204 -1.76445
v 0.03174591 0.1542425 -2.014324
v 0.03174591 0.3377924 -2.197872
v 0.03174591 0.620635 -1.915031
v 0.6217422 0.1542425 -2.014324
v 0.6217422 0.3310204 -1.76445
v 0.6217422 0.4370852 -1.73148
v 0.6217422 0.620635 -1.915031
v 0.6217422 0.3377924 -2.197872
v 0.3267441 0.1542425 -2.014324
v 0.3267441 0.3310204 -1.76445
v 0.06103516 0.6699276 -1.922901
v 0.06032562 0.6694279 -1.923401
v 0.07216644 0.3663745 -2.226456
v 0.5813217 0.3663745 -2.226456
v 0.5931625 0.6694279 -1.923401
v 0.592453 0.6699281 -1.922901
v 0.07543945 0.2055359 -2.43364
v 0.06811523 0.2055359 -2.451317
v 0.07543945 1.205536 -2.43364
v 0.06811523 1.205536 -2.451317
v 0.08811951 0.2055359 -2.451317
v 0.08958435 0.2055359 -2.447781
v 0.08811951 1.205536 -2.451317
v 0.08958435 1.205536 -2.447781
v 0.09311676 0.2055359 -2.426315
v 0.09311676 1.205536 -2.426315
v 0.09311676 0.2055359 -2.446316
v 0.09311676 1.205536 -2.446316
v 0.1107941 0.2055359 -2.43364
v 0.1107941 1.205536 -2.43364
v 0.09664917 0.2055359 -2.447781
v 0.09664917 1.205536 -2.447781
v 0.1181183 0.2055359 -2.451317
v 0.1181183 1.205536 -2.451317
v 0.09811401 0.2055359 -2.451317
v 0.09811401 1.205536 -2.451317
v 0.1107941 0.2055359 -2.468994
v 0.1107941 1.205536 -2.468994
v 0.09664917 0.2055359 -2.454853
v 0.09664917 1.205536 -2.454853
v 0.09311676 0.2055359 -2.476318
v 0.09311676 1.205536 -2.476318
v 0.09311676 0.2055359 -2.456318
v 0.09311676 1.205536 -2.456318
v 0.07543945 0.2055359 -2.468994
v 0.07543945 1.205536 -2.468994
v 0.08958435 0.2055359 -2.454853
v 0.08958435 1.205536 -2.454853
v 0.02674103 0.07632113 -2.031326
v 0.02674103 0.1263213 -2.031326
v 0.6267471 0.07632113 -2.031326
v 0.6267471 0.1263213 -2.031326
v 0.07674408 0.4783897 -1.260319
v 0.07674408 0.4757729 -1.210388
v 0.5767441 0.4783897 -1.260319
v 0.5767441 0.4757729 -1.210388
v 0.5967407 1.12495 -1.096321
v 0.05674744 1.12495 -1.096321
v 0.5967407 1.12495 -1.936317
v 0.05674744 1.12495 -1.936317
v 0.02674103 1.09495 -1.96632
v 0.02674103 1.09495 -1.066319
v 0.6267471 1.09495 -1.066319
v 0.6267471 1.09495 -1.96632
v 0.6267471 1.07495 -1.066319
v 0.3267441 1.07495 -1.066319
v 0.02674103 1.07495 -1.066319
v 0.02674103 1.07495 -1.516319
v 0.02674103 1.07495 -1.96632
v 0.3267441 1.07495 -1.96632
v 0.6267471 1.07495 -1.96632
v 0.6267471 1.07495 -1.516319
v 0.3267441 1.07495 -1.516319
v 0.4739151 0.1219368 -1.290627
v 0.173912 0.1219368 -1.290627
v 0.4739151 0.171937 -1.290627
v 0.173912 0.171937 -1.290627
v 0.173912 0.1219368 -1.59063
v 0.173912 0.171937 -1.59063
v 0.4739151 0.1219368 -1.59063
v 0.4739151 0.171937 -1.59063
v 0.423912 0.2219372 -1.34063
v 0.2239151 0.2219372 -1.34063
v 0.423912 0.2219372 -1.540627
v 0.2239151 0.2219372 -1.540627
v 0.5239105 0.388937 -1.290627
v 0.1239166 0.388937 -1.290627
v 0.5239105 0.3989372 -1.290627
v 0.1239166 0.3989372 -1.290627
v 0.1239166 0.388937 -1.59063
v 0.1239166 0.3989372 -1.59063
v 0.5239105 0.388937 -1.59063
v 0.5239105 0.3989372 -1.59063
v 0.513916 0.4089375 -1.300629
v 0.1339111 0.4089375 -1.300629
v 0.513916 0.4089375 -1.580627
v 0.1339111 0.4089375 -1.580627
v 0.5239105 0.3898091 -1.300591
v 0.1239166 0.3898091 -1.300591
v 0.1239166 0.7882872 -1.265724
v 0.1239166 0.7874155 -1.255764
v 0.5239105 0.7882872 -1.265724
v 0.5239105 0.7874155 -1.255764
v 0.513916 0.7791967 -1.276558
v 0.1339111 0.7791967 -1.276558
v 0.513916 0.4006429 -1.309677
v 0.1339111 0.4006429 -1.309677
v 0.3639145 0.09793711 -1.390629
v 0.2839127 0.09793711 -1.390629
v 0.3639145 0.3979373 -1.390629
v 0.2839127 0.3979373 -1.390629
v 0.2739105 0.09793711 -1.400627
v 0.2739105 0.09793711 -1.480629
v 0.2739105 0.3979373 -1.400627
v 0.2739105 0.3979373 -1.480629
v 0.2839127 0.09793711 -1.490627
v 0.3639145 0.09793711 -1.490627
v 0.2839127 0.3979373 -1.490627
v 0.3639145 0.3979373 -1.490627
v 0.3739166 0.09793711 -1.480629
v 0.3739166 0.09793711 -1.400627
v 0.3739166 0.3979373 -1.480629
v 0.3739166 0.3979373 -1.400627
v 0.8307495 0.147191 -1.638496
v 0.626709 0.147191 -1.638496
v 0.6266479 0.147191 -1.917263
v 0.626709 0.07632113 -1.638496
v 0.8307495 0.07632113 -1.638496
v 0.6266479 0.07632065 -1.917263
v 0.8325653 0.09049511 -1.641335
v 0.8325653 0.1330171 -1.641335
v 0.6266479 0.09049511 -1.920628
v 0.6266479 0.1330171 -1.920628
v -0.1772995 0.07632113 -1.638496
v 0.02674103 0.07632113 -1.638496
v 0.02680206 0.07632113 -1.917263
v 0.02674103 0.147191 -1.638496
v -0.1772995 0.147191 -1.638496
v 0.02680206 0.1471915 -1.917263
v -0.1791153 0.1330171 -1.641335
v -0.1791153 0.09049511 -1.641335
v 0.02680206 0.1330175 -1.920628
v 0.02680206 0.09049511 -1.920628
v 0.626709 0.1471915 -1.665161
v 0.876709 0.1471915 -1.665161
v 0.876709 0.1471915 -1.638493
v 0.876709 0.2340155 -1.657059
v 0.626709 0.2340155 -1.657059
v 0.876709 0.228806 -1.630795
v 0.626709 0.228806 -1.630795
v 0.876709 0.3182015 -1.632996
v 0.626709 0.3182015 -1.632996
v 0.876709 0.307941 -1.607937
v 0.626709 0.307941 -1.607937
v 0.876709 0.3971915 -1.593704
v 0.626709 0.3971915 -1.593704
v 0.876709 0.3821917 -1.570614
v 0.626709 0.3821917 -1.570614
v 0.876709 0.4685855 -1.540382
v 0.626709 0.4685855 -1.540382
v 0.876709 0.4493017 -1.519955
v 0.626709 0.4493017 -1.519955
v 0.876709 0.5302138 -1.474648
v 0.626709 0.5302138 -1.474648
v 0.876709 0.5072327 -1.457504
v 0.626709 0.5072327 -1.457504
v 0.876709 0.580204 -1.398491
v 0.626709 0.580204 -1.398491
v 0.876709 0.5542235 -1.385159
v 0.626709 0.5542235 -1.385159
v 0.876709 0.6170378 -1.314236
v 0.626709 0.6170378 -1.314236
v 0.876709 0.5888472 -1.305115
v 0.626709 0.5888472 -1.305115
v 0.876709 0.6395955 -1.224438
v 0.626709 0.6395955 -1.224438
v 0.876709 0.6100512 -1.219807
v 0.626709 0.6100512 -1.219807
v 0.876709 0.6471915 -1.131824
v 0.626709 0.6471915 -1.131824
v 0.876709 0.6171913 -1.131824
v 0.626709 0.6171913 -1.131824
v 0.876709 0.6395955 -1.039215
v 0.626709 0.6395955 -1.039215
v 0.876709 0.6100512 -1.043846
v 0.626709 0.6100512 -1.043846
v 0.876709 0.6170378 -0.9494171
v 0.626709 0.6170378 -0.9494171
v 0.876709 0.5888472 -0.9585342
v 0.626709 0.5888472 -0.9585342
v 0.876709 0.580204 -0.8651581
v 0.626709 0.580204 -0.8651581
v 0.876709 0.5542235 -0.8784943
v 0.626709 0.5542235 -0.8784943
v -0.223259 0.147191 -1.665161
v -0.223259 0.147191 -1.638496
v 0.02674103 0.147191 -1.665161
v 0.02674103 0.234015 -1.657059
v -0.223259 0.234015 -1.657059
v 0.02674103 0.2288055 -1.630798
v -0.223259 0.2288055 -1.630798
v 0.02674103 0.3182011 -1.632996
v -0.223259 0.3182011 -1.632996
v 0.02674103 0.3079405 -1.607941
v -0.223259 0.3079405 -1.607941
v 0.02674103 0.397191 -1.593708
v -0.223259 0.397191 -1.593708
v 0.02674103 0.3821912 -1.570614
v -0.223259 0.3821912 -1.570614
v 0.02674103 0.468585 -1.540386
v -0.223259 0.468585 -1.540386
v 0.02674103 0.4493012 -1.519958
v -0.223259 0.4493012 -1.519958
v 0.02674103 0.5302134 -1.474648
v -0.223259 0.5302134 -1.474648
v 0.02674103 0.5072317 -1.457508
v -0.223259 0.5072317 -1.457508
v 0.02674103 0.580204 -1.398495
v -0.223259 0.580204 -1.398495
v 0.02674103 0.5542231 -1.385162
v -0.223259 0.5542231 -1.385162
v 0.02674103 0.6170373 -1.31424
v -0.223259 0.6170373 -1.31424
v 0.02674103 0.5888467 -1.305119
v -0.223259 0.5888467 -1.305119
v 0.02674103 0.639595 -1.224442
v -0.223259 0.639595 -1.224442
v 0.02674103 0.6100507 -1.21981
v -0.223259 0.6100507 -1.21981
v 0.02674103 0.647191 -1.131828
v -0.223259 0.647191 -1.131828
v 0.02674103 0.6171913 -1.131828
v -0.223259 0.6171913 -1.131828
v 0.02674103 0.639595 -1.039215
v -0.223259 0.639595 -1.039215
v 0.02674103 0.6100507 -1.043846
v -0.223259 0.6100507 -1.043846
v 0.02674103 0.6170373 -0.9494171
v -0.223259 0.6170373 -0.9494171
v 0.02674103 0.5888467 -0.9585381
v -0.223259 0.5888467 -0.9585381
v 0.02674103 0.580204 -0.8651619
v -0.223259 0.580204 -0.8651619
v 0.02674103 0.5542231 -0.8784943
v -0.223259 0.5542231 -0.8784943
v 0.5767441 0.07629824 -1.656212
v 0.6267471 0.07629824 -1.656212
v 0.6267471 0.1459336 -1.652576
v 0.5767441 0.1459336 -1.652576
v 0.6267471 0.2143774 -1.641735
v 0.5767441 0.2143774 -1.641735
v 0.6267471 0.2804585 -1.623867
v 0.5767441 0.2804585 -1.623867
v 0.6267471 0.3430467 -1.599285
v 0.5767441 0.3430467 -1.599285
v 0.6267471 0.4010706 -1.568405
v 0.5767441 0.4010706 -1.568405
v 0.6267471 0.4535375 -1.531757
v 0.5767441 0.4535375 -1.531757
v 0.6267471 0.4995494 -1.489971
v 0.5767441 0.4995494 -1.489971
v 0.6267471 0.5383201 -1.443756
v 0.5767441 0.5383201 -1.443756
v 0.6267471 0.5691848 -1.393906
v 0.5767441 0.5691848 -1.393906
v 0.6267471 0.5916166 -1.341274
v 0.5767441 0.5916166 -1.341274
v 0.6267471 0.6052308 -1.286762
v 0.5767441 0.6052308 -1.286762
v 0.6267471 0.6097951 -1.2313
v 0.5767441 0.6097951 -1.2313
v 0.02674103 0.07632113 -1.656235
v 0.07674408 0.07632113 -1.656235
v 0.07674408 0.1459565 -1.652599
v 0.02674103 0.1459565 -1.652599
v 0.07674408 0.2144003 -1.641758
v 0.02674103 0.2144003 -1.641758
v 0.07674408 0.2804813 -1.62389
v 0.02674103 0.2804813 -1.62389
v 0.07674408 0.3430696 -1.599308
v 0.02674103 0.3430696 -1.599308
v 0.07674408 0.4010935 -1.568428
v 0.02674103 0.4010935 -1.568428
v 0.07674408 0.4535604 -1.53178
v 0.02674103 0.4535604 -1.53178
v 0.07674408 0.4995723 -1.489994
v 0.02674103 0.4995723 -1.489994
v 0.07674408 0.538343 -1.443779
v 0.02674103 0.538343 -1.443779
v 0.07674408 0.5692077 -1.393929
v 0.02674103 0.5692077 -1.393929
v 0.07674408 0.5916395 -1.341297
v 0.02674103 0.5916395 -1.341297
v 0.07674408 0.6052537 -1.286785
v 0.02674103 0.6052537 -1.286785
v 0.07674408 0.609818 -1.231323
v 0.02674103 0.609818 -1.231323

vt 0.6267441 0.07632122
vt 0.02674407 0.07632122
vt 0.6267441 0.1263212
vt 0.02674407 0.1263212
vt -0.8313263 0.07632122
vt -1.231326 0.07632122
vt -0.8313263 0.1263212
vt -1.231326 0.1263212
vt -0.02674407 0.07632122
vt -0.6267441 0.07632122
vt -0.02674407 0.1263212
vt -0.6267441 0.1263212
vt 1.231326 0.07632122
vt 0.8313263 0.07632122
vt 1.231326 0.1263212
vt 0.8313263 0.1263212
vt -0.6267441 -0.8313263
vt -0.02674407 -0.8313263
vt -0.6267441 -1.231326
vt -0.02674407 -1.231326
vt 0.6267441 -1.231326
vt 0.02674407 -1.231326
vt 0.6267441 -0.8313263
vt 0.02674407 -0.8313263
vt 0.3517441 -0.3986788
vt 0.3017441 -0.3986788
vt 0.3517441 0.6013212
vt 0.3017441 0.6013212
vt -1.006325 -0.3986787
vt -1.056326 -0.3986786
vt -1.006326 0.6013212
vt -1.056324 0.6013215
vt -0.3017441 -0.3986788
vt -0.3517441 -0.3986788
vt -0.3017441 0.6013213
vt -0.3517441 0.6013213
vt 1.056326 -0.3986786
vt 1.006325 -0.3986787
vt 1.056324 0.6013215
vt 1.006326 0.6013212
vt -0.3517441 -1.006326
vt -0.3017441 -1.006326
vt -0.3517441 -1.056326
vt -0.3017441 -1.056326
vt 0.3517441 -1.056326
vt 0.3017441 -1.056326
vt 0.3517441 -1.006326
vt 0.3017441 -1.006326
vt -0.3291045 0.02019763
vt -2.137717 0.02019763
vt -0.3291045 0.3701976
vt -2.137717 0.3701976
vt 2.137717 0.02019763
vt 0.3291045 0.02019763
vt 2.137717 0.3701976
vt 0.3291045 0.3701976
vt -0.5810684 -0.2377167
vt -0.2810684 -0.2377167
vt -0.5810684 -2.087717
vt -0.2810684 -2.087717
vt -0.169819 -0.2377167
vt -0.169819 -2.137717
vt -0.1283976 -0.2377167
vt -0.1283976 -2.137717
vt -0.439804 -2.137717
vt -0.439804 -0.2377167
vt -0.4812253 -2.137717
vt -0.4812253 -0.2377167
vt -0.6310684 0.02019763
vt -0.6541474 0.3911014
vt -0.6000721 0.4478203
vt -0.260357 0.4491079
vt -0.2018826 0.3908046
vt -0.2310684 0.02019763
vt 1.115177 0.4148705
vt 1.16378 0.453701
vt 1.241035 0.435968
vt 1.25634 0.06476702
vt 1.115177 0.06496134
vt 1.771918 -0.1650573
vt 1.7837 -0.07342367
vt 1.818227 -0.1234424
vt -1.709097 0.05809959
vt -1.850096 0.05777869
vt -1.831114 0.428877
vt -1.757513 0.4464002
vt -1.709097 0.4079486
vt -2.081616 0.1587443
vt -2.092021 0.2505445
vt -2.127807 0.1999761
vt -5.261478 2.093274
vt -5.242531 2.443987
vt -5.39034 2.100236
vt -5.310048 2.532485
vt -108.0055 2.453337
vt -108.0293 2.099636
vt -107.9013 2.532045
vt -107.8884 2.090165
vt 0.1310684 -0.3291045
vt 0.2224562 -0.2377167
vt 0.6396806 -0.2377167
vt 0.7310684 -0.3291045
vt 0.7310684 -2.137717
vt 0.6310684 -2.237717
vt 0.2310684 -2.237717
vt 0.1310684 -2.137717
vt 0.3291045 0.06225033
vt 0.2377167 0.1536382
vt 0.2377167 0.1546383
vt 2.137717 0.1546383
vt 2.137717 0.06225033
vt -2.137717 0.3921757
vt -2.137717 0.4845637
vt -0.2377167 0.4845637
vt -0.2377167 0.4835635
vt -0.3291045 0.3921757
vt 1.121921 -0.7736291
vt 1.083006 -0.8416426
vt 1.006407 -0.8204712
vt 0.9836591 -0.7641103
vt 1.004736 -0.7284546
vt 1.066221 -0.7200689
vt 0.6957131 0.455553
vt 0.6960958 0.454629
vt 0.6396806 0.02019763
vt 0.2224562 0.02019763
vt 0.166041 0.454629
vt 0.1664238 0.455553
vt 0.1957131 0.4848423
vt 0.2810684 0.5201976
vt 0.5810684 0.5201976
vt 0.6664237 0.4848423
vt -1.626738 -0.4340329
vt -1.649604 -0.4916087
vt -1.722439 -0.5133488
vt -1.763862 -0.4419158
vt -1.708733 -0.3893961
vt -1.647487 -0.3981827
vt -0.260357 -1.563606
vt -0.6000721 -1.564352
vt -0.6188912 -1.489407
vt -0.6118186 -1.480339
vt -0.2500884 -1.480158
vt -0.2426779 -1.489546
vt 89.2912 -77.14285
vt 88.99297 -77.11995
vt 89.31285 -77.2531
vt 88.95499 -77.22587
vt 81.49844 -81.32259
vt 81.59083 -81.32259
vt 81.59083 -82.72685
vt 81.54844 -82.72685
vt 81.49844 -82.67685
vt 81.5902 -58.30266
vt 81.54456 -58.34279
vt 81.5363 -58.33658
vt 81.54694 -58.30428
vt 83.20895 -82.67683
vt 83.15895 -82.72684
vt 83.11656 -82.72684
vt 83.11656 -81.32258
vt 83.20895 -81.32258
vt 83.11645 -88.10503
vt 83.15408 -88.09926
vt 83.17017 -88.1349
vt 83.16467 -88.14314
vt 88.98596 -76.12638
vt 89.02575 -76.20787
vt 89.03238 -76.17439
vt 89.00861 -78.83604
vt 88.98434 -78.91808
vt 88.96213 -78.89272
vt 0.5194094 0.05018064
vt 0.3244095 0.05018064
vt 0.1294095 0.05018064
vt 0.1294095 0.2501807
vt 0.5194094 0.2501807
vt -0.6526905 0.05018064
vt -0.8026905 0.05018064
vt -1.052691 0.05018064
vt -1.052691 0.3097593
vt -0.6526905 0.3097593
vt 1.052691 0.05018064
vt 0.8026905 0.05018064
vt 0.6526905 0.05018064
vt 0.6526905 0.3097593
vt 1.052691 0.3097593
vt 0.6194094 -1.053708
vt 0.3244095 -1.053708
vt 0.3244095 -0.7506384
vt 0.6194094 -0.7506384
vt 0.3244013 -1.05517
vt 0.02790858 -1.053701
vt 0.02941766 -0.7491765
vt 0.3259104 -0.7506458
vt -0.05869882 -0.6234012
vt -0.05799171 -0.6241083
vt -0.06983084 -1.052691
vt -0.5789881 -1.052691
vt -0.5908272 -0.6241083
vt -0.5901201 -0.6234011
vt 0.5217519 -0.5530712
vt 0.6202856 -0.6515356
vt 0.6183445 -0.7602598
vt 0.322576 -0.7549795
vt 0.02680749 -0.7496992
vt 0.02874854 -0.6409751
vt 0.130734 -0.5460904
vt 0.326243 -0.5495808
vt -0.1294085 -0.6336737
vt -0.5194105 -0.6336737
vt -0.0586988 -0.7146161
vt -0.5901201 -0.7146159
vt 0.6452991 -0.1103327
vt 1.045299 -0.110334
vt 0.6167157 -0.06082928
vt 1.0453 -0.05399246
vt -0.2344865 -1.045953
vt -0.2344871 -0.6459535
vt -0.291651 -1.045954
vt -0.2832773 -0.6173696
vt 0.7586739 0.06907892
vt 0.7577701 0.3318447
vt 0.8585893 0.3691477
vt 0.859591 0.3691478
vt 0.9000295 0.3287497
vt 0.900111 0.06915927
vt -0.06983024 0.3501807
vt -0.02940947 0.3097584
vt -0.02940953 0.05018055
vt -0.3244095 0.05018055
vt -0.6194094 0.05018055
vt -0.6194094 0.3097584
vt -0.5789887 0.3501807
vt -0.3014035 0.06876242
vt -0.4428229 0.06876296
vt -0.4428225 0.3283439
vt -0.4024017 0.3687634
vt -0.4014002 0.3687636
vt -0.3005818 0.3315191
vt -0.3462002 0.8079691
vt -0.3653343 0.8079691
vt -0.3462002 1.807969
vt -0.3653343 1.807969
vt 0.3576823 0.8079691
vt 0.3538555 0.8079691
vt 0.3576823 1.807969
vt 0.3538555 1.807969
vt 0.08067989 0.8079691
vt 0.06154573 0.8079691
vt 0.08067989 1.807969
vt 0.06154573 1.807969
vt -0.06920135 0.8079691
vt -0.07302821 0.8079691
vt -0.06920135 1.807969
vt -0.07302821 1.807969
vt 0.4659039 0.8079691
vt 0.4467698 0.8079691
vt 0.4659039 1.807969
vt 0.4467698 1.807969
vt -0.4544222 0.8079691
vt -0.458249 0.8079691
vt -0.4544222 1.807969
vt -0.458249 1.807969
vt 0.5838115 0.8079691
vt 0.5646775 0.8079691
vt 0.5838115 1.807969
vt 0.5646775 1.807969
vt -0.5723308 0.8079691
vt -0.5761575 0.8079691
vt -0.5723308 1.807969
vt -0.5761575 1.807969
vt 0.3653343 0.8079691
vt 0.3462002 0.8079691
vt 0.3653343 1.807969
vt 0.3462002 1.807969
vt -0.3538542 0.8079691
vt -0.3576808 0.8079691
vt -0.3538542 1.807969
vt -0.3576808 1.807969
vt -0.06154662 0.8079691
vt -0.08068073 0.8079691
vt -0.06154662 1.807969
vt -0.08068073 1.807969
vt 0.07302409 0.8079691
vt 0.06919724 0.8079691
vt 0.07302409 1.807969
vt 0.06919724 1.807969
vt -0.4467692 0.8079691
vt -0.4659034 0.8079691
vt -0.4467692 1.807969
vt -0.4659034 1.807969
vt 0.4582517 0.8079691
vt 0.454425 0.8079691
vt 0.4582517 1.807969
vt 0.454425 1.807969
vt -0.5646774 0.8079691
vt -0.5838116 0.8079691
vt -0.5646774 1.807969
vt -0.5838116 1.807969
vt 0.5761577 0.8079691
vt 0.5723311 0.8079691
vt 0.5761577 1.807969
vt 0.5723311 1.807969
vt 0.2604538 -0.5033188
vt 0.2677764 -0.485641
vt 0.2804537 -0.5033188
vt 0.2819183 -0.4997823
vt -0.2677764 -0.485641
vt -0.2604538 -0.5033188
vt -0.2819183 -0.4997823
vt -0.2804537 -0.5033188
vt 0.2854538 -0.4783188
vt 0.2854538 -0.4983183
vt -0.2854538 -0.4783188
vt -0.2854538 -0.4983183
vt 0.3031315 -0.4856428
vt 0.2889863 -0.4997832
vt -0.3031315 -0.4856428
vt -0.2889863 -0.4997832
vt 0.3104538 -0.5033188
vt 0.2904539 -0.5033188
vt -0.3104538 -0.5033188
vt -0.2904539 -0.5033188
vt 0.3031312 -0.5209966
vt 0.2889893 -0.5068552
vt -0.3031312 -0.5209966
vt -0.2889893 -0.5068552
vt 0.2854538 -0.5283186
vt 0.2854538 -0.5083191
vt -0.2854538 -0.5283186
vt -0.2854538 -0.5083191
vt 0.2677761 -0.5209947
vt 0.2819213 -0.5068543
vt -0.2677761 -0.5209947
vt -0.2819213 -0.5068543
vt -0.6313263 0.07632121
vt -1.431327 0.07632121
vt -0.6313263 0.1263212
vt -1.431327 0.1263212
vt 1.431327 0.07632121
vt 0.6313263 0.07632121
vt 1.431327 0.1263212
vt 0.6313263 0.1263212
vt -0.626744 -0.6313263
vt -0.02674407 -0.6313263
vt -0.626744 -1.431327
vt -0.02674407 -1.431327
vt 0.626744 -1.431327
vt 0.02674407 -1.431327
vt 0.626744 -0.6313263
vt 0.02674407 -0.6313263
vt 0.5767441 0.07632256
vt 0.07674408 0.07632256
vt 0.5767441 0.1263225
vt 0.07674408 0.1263225
vt -0.07674408 0.07632256
vt -0.5767441 0.07632256
vt -0.07674408 0.1263225
vt -0.5767441 0.1263225
vt -0.5767441 -0.8313267
vt -0.07674408 -0.8313268
vt -0.5767441 -1.231327
vt -0.07674408 -1.231327
vt 0.5767441 -1.231327
vt 0.07674408 -1.231327
vt 0.5767441 -0.8313267
vt 0.07674408 -0.8313267
vt -0.5967441 -0.6113263
vt -0.05674407 -0.6113263
vt -0.5967441 -1.451326
vt -0.05674407 -1.451326
vt -0.08702028 -1.481326
vt -0.08702016 -0.5813262
vt -0.1294468 -1.451324
vt -0.1294467 -0.6113288
vt 0.02674407 0.4791689
vt 0.626744 0.4791689
vt 0.05675018 0.5215955
vt 0.596738 0.5215955
vt -0.3750654 -0.5813262
vt -0.3750655 -1.481326
vt -0.3326389 -0.6113288
vt -0.332639 -1.451324
vt -0.626744 -0.9793459
vt -0.02674407 -0.979346
vt -0.596738 -0.9369195
vt -0.05675018 -0.9369196
vt 0.3267441 0.07632122
vt 0.02674407 0.09632123
vt 0.6267441 0.09632123
vt -0.5813263 0.07632122
vt -1.031326 0.07632122
vt -1.481326 0.07632122
vt -1.481326 0.09632123
vt -0.5813263 0.09632123
vt -0.3267441 0.07632122
vt -0.6267441 0.09632123
vt -0.02674407 0.09632123
vt 1.481326 0.07632122
vt 1.031326 0.07632122
vt 0.5813263 0.07632122
vt 0.5813263 0.09632123
vt 1.481326 0.09632123
vt 0.6267441 -1.481326
vt 0.326744 -1.481326
vt 0.3267441 -1.031326
vt 0.6267442 -1.031326
vt 0.02674396 -1.481326
vt 0.02674405 -1.031326
vt 0.02674407 -0.5813262
vt 0.3267441 -0.5813262
vt 0.6267442 -0.5813262
vt 0.4739212 0.0293705
vt 0.1739212 0.0293705
vt 0.4739212 0.0793705
vt 0.1739212 0.0793705
vt -0.4781967 0.0293705
vt -0.7781967 0.0293705
vt -0.4781967 0.0793705
vt -0.7781967 0.0793705
vt -0.1739212 0.0293705
vt -0.4739212 0.0293705
vt -0.1739212 0.0793705
vt -0.4739212 0.0793705
vt 0.7781967 0.0293705
vt 0.4781967 0.0293705
vt 0.7781967 0.0793705
vt 0.4781967 0.0793705
vt -0.4239212 -0.5281967
vt -0.2239212 -0.5281967
vt -0.4239212 -0.7281967
vt -0.2239212 -0.7281967
vt 0.4739212 -0.7781967
vt 0.1739212 -0.7781967
vt 0.4739212 -0.4781967
vt 0.1739212 -0.4781967
vt -0.2789896 -0.4781967
vt -0.2789896 -0.7781967
vt -0.2082788 -0.5281993
vt -0.2082788 -0.7281941
vt 0.1739212 0.3942594
vt 0.4739212 0.3942594
vt 0.2239237 0.4649702
vt 0.4239187 0.4649702
vt -0.1791043 -0.7781967
vt -0.1791042 -0.4781967
vt -0.249815 -0.7281941
vt -0.2498149 -0.5281993
vt -0.4739212 -0.4941449
vt -0.1739212 -0.4941449
vt -0.4239187 -0.4234341
vt -0.2239237 -0.4234341
vt 0.5239212 0.0693705
vt 0.1239212 0.0693705
vt 0.5239212 0.0793705
vt 0.1239212 0.0793705
vt -0.4781967 0.0693705
vt -0.7781967 0.0693705
vt -0.1239212 0.0693705
vt -0.5239212 0.0693705
vt -0.1239212 0.0793705
vt -0.5239212 0.0793705
vt 0.7781967 0.0693705
vt 0.4781967 0.0693705
vt -0.5139212 -0.4881967
vt -0.1339212 -0.4881967
vt -0.5139212 -0.7681967
vt -0.1339212 -0.7681967
vt 0.5239212 -0.7781967
vt 0.1239212 -0.7781967
vt 0.5239212 -0.4781967
vt 0.1239212 -0.4781967
vt 0.1239212 0.3942595
vt 0.5239212 0.3942595
vt 0.1339158 0.4084016
vt 0.5139266 0.4084016
vt -0.3143446 -0.4781967
vt -0.3143486 -0.7781966
vt -0.3001989 -0.4881988
vt -0.3002025 -0.7681948
vt -0.143749 -0.7781968
vt -0.1437452 -0.4781969
vt -0.1578947 -0.7681946
vt -0.1578912 -0.4881986
vt -0.5239212 -0.4941446
vt -0.1239212 -0.4941447
vt -0.5139266 -0.4800023
vt -0.1339159 -0.4800024
vt 0.5239212 0.0893705
vt 0.1239212 0.0893705
vt -0.4281967 0.0793705
vt -0.8281967 0.0793705
vt -0.4281967 0.0893705
vt -0.8281967 0.0893705
vt -0.1239212 0.0893705
vt -0.5239212 0.0893705
vt 0.8281967 0.0793705
vt 0.4281967 0.0793705
vt 0.8281967 0.0893705
vt 0.4281967 0.0893705
vt -0.5239213 -0.4281967
vt -0.1239212 -0.4281967
vt -0.5239213 -0.8281966
vt -0.1239212 -0.8281966
vt 0.5139212 -0.8181967
vt 0.1339212 -0.8181967
vt 0.5139212 -0.4381967
vt 0.1339212 -0.4381967
vt -0.1239212 0.6417468
vt -0.5239212 0.6417468
vt -0.1339159 0.6276045
vt -0.5139266 0.6276045
vt 0.4262564 -0.8286136
vt 0.4262534 -0.4286134
vt 0.4121143 -0.8186131
vt 0.4121142 -0.4386136
vt 0.03184402 -0.4286129
vt 0.03183722 -0.8286133
vt 0.04597932 -0.4386136
vt 0.04597563 -0.8186134
vt 0.5239212 -0.2466574
vt 0.1239212 -0.2466574
vt 0.5139266 -0.2607994
vt 0.1339158 -0.2607994
vt 0.3639212 -0.07062951
vt 0.2839212 -0.07062951
vt 0.3639212 0.2293705
vt 0.2839212 0.2293705
vt -0.5881967 -0.07062951
vt -0.6681967 -0.07062951
vt -0.5881967 0.2293705
vt -0.6681967 0.2293705
vt -0.2839212 -0.07062951
vt -0.3639212 -0.07062951
vt -0.2839212 0.2293705
vt -0.3639212 0.2293705
vt 0.6681967 -0.07062951
vt 0.5881967 -0.07062951
vt 0.6681967 0.2293705
vt 0.5881967 0.2293705
vt -0.2080842 -0.07062951
vt -0.2080842 0.2293705
vt -0.2222263 -0.07062951
vt -0.2222263 0.2293705
vt 0.2222264 -0.07062951
vt 0.2222264 0.2293705
vt 0.2080842 -0.07062951
vt 0.2080842 0.2293705
vt 0.666178 0.2293705
vt 0.666178 -0.07062951
vt 0.68032 0.2293705
vt 0.68032 -0.07062951
vt -0.6661779 -0.07062951
vt -0.6661779 0.2293705
vt -0.68032 -0.07062951
vt -0.68032 0.2293705
vt 0.2839227 -0.6781968
vt 0.2739212 -0.6681982
vt 0.2739212 -0.5881952
vt 0.2839227 -0.5781966
vt 0.3639197 -0.5781966
vt 0.3739212 -0.5881952
vt 0.3739212 -0.6681982
vt 0.3639197 -0.6781968
vt -0.2839227 -0.5781966
vt -0.2739212 -0.5881952
vt -0.2739212 -0.6681982
vt -0.2839227 -0.6781968
vt -0.3639197 -0.6781968
vt -0.3739212 -0.6681982
vt -0.3739212 -0.5881952
vt -0.3639197 -0.5781966
vt -0.01 -1.430511E-06
vt -0.5313416 -1.430511E-06
vt -0.5314981 0.8289754
vt 0.5313416 -1.610582E-06
vt 0.01 -1.610582E-06
vt 0.5314981 0.8289753
vt -0.6436534 0.009998791
vt -0.6736534 0.009998791
vt -0.6436532 0.9931627
vt -0.6736534 0.9931627
vt 0.01 -0.6836534
vt 0.5313416 -0.6836534
vt 0.01 -0.6336534
vt 0.5313416 -0.6336534
vt -0.888123 0.7634689
vt -0.5828071 -0.1670944
vt -0.8523991 0.7832887
vt -0.5453329 -0.1511674
vt -0.4161329 0.1747453
vt -0.07405066 1.093149
vt -0.453414 0.1923157
vt -0.1091883 1.114454
vt -0.642662 0.005535245
vt -0.67173 0.01074008
vt -0.6358871 -0.01247752
vt -0.6843338 -0.003802806
vt 0.6336532 0.8290708
vt 0.6436534 0.8390758
vt 0.6736536 0.8390758
vt 0.6836534 0.8290708
vt 0.6836534 9.894371E-05
vt 0.6336536 9.894371E-05
vt 0.2684723 -0.4629136
vt 0.295139 -0.4629136
vt 0.2684723 -0.7129136
vt 0.295139 -0.7129136
vt -0.7129137 0.1714625
vt -0.7129137 0.2586638
vt -0.4629137 0.1714625
vt -0.4629137 0.2586638
vt 0.7129137 0.2561928
vt 0.7129137 0.174216
vt 0.4629137 0.2561928
vt 0.4629137 0.174216
vt -0.7129137 0.3009742
vt -0.7129137 0.3885313
vt -0.4629137 0.3009742
vt -0.4629137 0.3885313
vt 0.7129137 0.3861923
vt 0.7129137 0.3038222
vt 0.4629137 0.3861923
vt 0.4629137 0.3038222
vt -0.7129137 0.4187576
vt -0.7129137 0.5069792
vt -0.4629137 0.4187576
vt -0.4629137 0.5069792
vt 0.7129137 0.5044847
vt 0.7129137 0.4213805
vt 0.4629137 0.5044847
vt 0.4629137 0.4213805
vt -0.7129137 0.5216098
vt -0.7129137 0.6107189
vt -0.4629137 0.5216098
vt -0.4629137 0.6107189
vt 0.7129137 0.6078032
vt 0.7129137 0.5237205
vt 0.4629137 0.6078032
vt 0.4629137 0.5237205
vt -0.6073481 -0.7129137
vt -0.6974559 -0.7129137
vt -0.6073481 -0.4629137
vt -0.6974559 -0.4629137
vt 0.6939992 -0.7129137
vt 0.6088172 -0.7129137
vt 0.6939992 -0.4629137
vt 0.6088172 -0.4629137
vt -0.6746442 -0.7129138
vt -0.7657398 -0.7129138
vt -0.6746442 -0.4629137
vt -0.7657398 -0.4629137
vt 0.7618334 -0.7129137
vt 0.675566 -0.7129137
vt 0.7618334 -0.4629137
vt 0.675566 -0.4629137
vt -0.7227234 -0.7129137
vt -0.8146787 -0.7129137
vt -0.7227234 -0.4629137
vt -0.8146787 -0.4629137
vt 0.8106236 -0.7129137
vt 0.7234131 -0.7129137
vt 0.8106236 -0.4629137
vt 0.7234131 -0.4629137
vt -0.7510525 -0.7129137
vt -0.8436407 -0.7129137
vt -0.7510525 -0.4629137
vt -0.8436407 -0.4629137
vt 0.8398917 -0.7129137
vt 0.7519875 -0.7129137
vt 0.8398917 -0.4629137
vt 0.7519875 -0.4629137
vt -0.759101 -0.7129137
vt -0.8520246 -0.7129137
vt -0.759101 -0.4629137
vt -0.8520246 -0.4629137
vt 0.8491006 -0.7129137
vt 0.7608296 -0.7129137
vt 0.8491006 -0.4629137
vt 0.7608296 -0.4629137
vt -0.7462198 -0.7129137
vt -0.839143 -0.7129137
vt -0.7462198 -0.4629137
vt -0.839143 -0.4629137
vt 0.8375264 -0.7129137
vt 0.7492554 -0.7129137
vt 0.8375264 -0.4629137
vt 0.7492554 -0.4629137
vt -0.7116498 -0.7129137
vt -0.804238 -0.7129137
vt -0.7116498 -0.4629137
vt -0.804238 -0.4629137
vt 0.8042707 -0.7129137
vt 0.7163664 -0.7129137
vt 0.8042707 -0.4629137
vt 0.7163664 -0.4629137
vt -0.6546637 -0.7129137
vt -0.746619 -0.7129137
vt -0.6546637 -0.4629137
vt -0.746619 -0.4629137
vt 0.7484034 -0.7129137
vt 0.6611928 -0.7129137
vt 0.7484034 -0.4629137
vt 0.6611928 -0.4629137
vt 0.4629137 0.9748063
vt 0.4629137 1.004009
vt 0.7129137 0.9748063
vt 0.7129137 1.004009
vt 0.2684723 0.1471534
vt 0.2765741 0.2339775
vt 0.2951388 0.1471534
vt 0.3028363 0.228768
vt -0.2765741 0.2339775
vt -0.2684723 0.1471534
vt -0.3028363 0.228768
vt -0.2951388 0.1471534
vt 0.3006369 0.3181635
vt 0.3256947 0.3079029
vt -0.3006369 0.3181635
vt -0.3256947 0.3079029
vt 0.3399286 0.3971534
vt 0.3630195 0.3821535
vt -0.3399286 0.3971534
vt -0.3630195 0.3821535
vt 0.3932484 0.4685472
vt 0.4136765 0.4492634
vt -0.3932484 0.4685472
vt -0.4136765 0.4492634
vt 0.4589834 0.5301756
vt 0.4761266 0.5071944
vt -0.4589834 0.5301756
vt -0.4761266 0.5071944
vt 0.5351402 0.5801661
vt 0.5484722 0.5541855
vt -0.5351402 0.5801661
vt -0.5484722 0.5541855
vt 0.6193944 0.6169997
vt 0.6285154 0.588809
vt -0.6193944 0.6169997
vt -0.6285154 0.588809
vt 0.7091929 0.6395572
vt 0.7138239 0.6100129
vt -0.7091929 0.6395572
vt -0.7138239 0.6100129
vt 0.8018057 0.6471534
vt 0.8018057 0.6171532
vt -0.8018057 0.6471534
vt -0.8018057 0.6171532
vt 0.894418 0.6395574
vt 0.8897868 0.610013
vt -0.894418 0.6395574
vt -0.8897868 0.610013
vt 0.9842165 0.6169995
vt 0.9750993 0.5888089
vt -0.9842165 0.6169995
vt -0.9750993 0.5888089
vt 1.068472 0.5801659
vt 1.055136 0.5541853
vt -1.068472 0.5801659
vt -1.055136 0.5541853
vt 0.1684723 -0.5629137
vt 1.168472 -0.5629139
vt 0.1684723 -0.6129136
vt 1.168472 -0.6129138
vt -0.6129137 -0.09160783
vt -0.6129137 0.03919842
vt -0.5629138 -0.09160783
vt -0.5629138 0.03919842
vt -0.6129137 0.0616841
vt -0.6129137 0.1924904
vt -0.5629138 0.0616841
vt -0.5629138 0.1924904
vt -0.6129137 0.2128014
vt -0.6129137 0.3436077
vt -0.5629138 0.2128014
vt -0.5629138 0.3436077
vt -0.6129137 0.3591587
vt -0.6129137 0.4899649
vt -0.5629138 0.3591587
vt -0.5629138 0.4899649
vt -0.6129137 0.4982515
vt -0.6129137 0.6290578
vt -0.5629138 0.4982515
vt -0.5629138 0.6290578
vt -0.6129137 0.6277001
vt -0.6129137 0.7585063
vt -0.5629138 0.6277001
vt -0.5629138 0.7585063
vt -0.7452894 -0.6129137
vt -0.8760957 -0.6129137
vt -0.7452894 -0.5629138
vt -0.8760957 -0.5629138
vt -0.8490077 -0.6129137
vt -0.9798139 -0.6129137
vt -0.8490077 -0.5629138
vt -0.9798139 -0.5629138
vt -0.93708 -0.6129138
vt -1.067886 -0.6129138
vt -0.93708 -0.5629137
vt -1.067886 -0.5629137
vt -1.007999 -0.6129138
vt -1.138806 -0.6129138
vt -1.007999 -0.5629137
vt -1.138806 -0.5629137
vt -1.060553 -0.6129138
vt -1.19136 -0.6129138
vt -1.060553 -0.5629137
vt -1.19136 -0.5629137
vt -1.093841 -0.6129138
vt -1.224647 -0.6129138
vt -1.093841 -0.5629137
vt -1.224647 -0.5629137
vt 0.5629138 -0.1028465
vt 0.5629138 0.8971536
vt 0.6129137 -0.1028465
vt 0.6129137 0.8971536
vt 0.1676924 -0.09624685
vt 0.1779828 0.03425626
vt 1.167516 -0.1095371
vt -0.1779828 0.03425623
vt -0.1676924 -0.0962469
vt -1.167516 -0.109537
vt 0.1752691 0.0470548
vt 0.2051694 0.1553683
vt 1.165937 -0.1032482
vt -0.2051694 0.1553683
vt -0.1752691 0.04705486
vt -1.165937 -0.1032482
vt 0.1999199 0.1763834
vt 0.2491252 0.2782204
vt 1.164486 -0.1039243
vt -0.2491252 0.2782204
vt -0.1999199 0.1763836
vt -1.164486 -0.1039243
vt 0.2413249 0.2996331
vt 0.3091414 0.3941576
vt 1.163371 -0.1048504
vt -0.3091412 0.3941576
vt -0.2413249 0.299633
vt -1.163371 -0.1048503
vt 0.29882 0.4153807
vt 0.3843267 0.5013461
vt 1.162709 -0.1059135
vt -0.3843265 0.5013462
vt -0.29882 0.4153807
vt -1.16271 -0.1059136
vt 0.3714542 0.5219787
vt 0.4734581 0.5981488
vt 1.162574 -0.1069668
vt -0.4734581 0.5981486
vt -0.3714542 0.5219786
vt -1.162574 -0.1069668
vt 0.4579918 0.6177995
vt 0.575 0.6831559
vt 1.162987 -0.1078285
vt -0.575 0.6831558
vt -0.4579918 0.6177994
vt -1.162987 -0.1078284
vt 0.5569217 0.7013517
vt 0.6870842 0.7551926
vt 1.1639 -0.1082962
vt -0.6870844 0.7551926
vt -0.556922 0.7013517
vt -1.1639 -0.1082962
vt 0.6664689 0.7713481
vt 0.807451 0.8132797
vt 1.165164 -0.1081895
vt -0.807451 0.8132797
vt -0.6664689 0.7713481
vt -1.165164 -0.1081895
vt 0.7846224 0.8266684
vt 0.9334185 0.8565843
vt 1.166534 -0.1073934
vt -0.9334188 0.8565843
vt -0.7846227 0.8266684
vt -1.166534 -0.1073934
vt 0.9091945 0.8663709
vt 1.061544 0.8843489
vt 1.167706 -0.105916
vt -1.061544 0.8843489
vt -0.9091947 0.8663709
vt -1.167706 -0.105916
vt 1.037893 0.8896862
vt 1.185039 0.89579
vt 1.168383 -0.1039324
vt -1.185039 0.89579
vt -1.037893 0.8896862
vt -1.168383 -0.1039324

vn 0 0 1
vn -1 0 0
vn 0 0 -1
vn 1 0 0
vn 0 1 0
vn 0 -1 0
vn 0 -0.05233384 0.9986296
vn 0 0.05233764 -0.9986295
vn 0 0.9986295 0.05233859
vn 0 -0.9986296 -0.0523346
vn 0.7070377 0.7071759 0
vn -0.7070377 0.7071759 0
vn 0.485656 -0.01064485 -0.8725449
vn 0.5198246 -6.634331E-07 -0.8542731
vn 0.5165185 -0.01596727 -0.8559702
vn 0.4685718 -0.01596694 -0.8816809
vn 0.4239311 0 -0.9056945
vn 0.7576809 0.3138337 -0.5722134
vn -0.4239311 0 -0.9056945
vn -0.4830893 -0.02135451 -0.8724136
vn -0.5468278 -0.02140707 -0.8366842
vn -0.551408 -0.0001051142 -0.8342357
vn -0.5058622 -0.01427138 -0.8596876
vn -0.7895329 0.3270269 -0.519318
vn 0.5350488 0 0.8448212
vn 0.657149 -0.05059353 0.7316564
vn 0.7792492 -0.1011871 0.6184916
vn -0.855876 0 0.5171811
vn -0.694819 -0.03465503 0.6799853
vn -0.533762 -0.06931007 0.8427895
vn 0.9240354 0.3823049 0.0006390427
vn 0.9243402 0.3815646 0.001917128
vn 0.923883 0.3826751 0
vn -0.923883 0.3826751 0
vn -0.9241116 0.3821199 0.0009585641
vn -0.9243402 0.3815646 0.001917128
vn 0.3931437 0.374777 -0.839631
vn 0.3847853 0.372742 -0.8443385
vn 0.3780022 0.3724914 -0.8475592
vn 0.380433 0.3778195 -0.8441007
vn 0.3812886 0.3813631 -0.842129
vn 0.3826092 0.3752807 -0.8442196
vn -0.3894788 0.3897201 -0.8345205
vn -0.3896658 0.3898118 -0.8343904
vn -0.3885102 0.3896795 -0.8349909
vn -0.3893189 0.389395 -0.8347469
vn 0.001099266 0.5500768 -0.8351127
vn 0.001069781 0.5453903 -0.8381713
vn 0.0003616154 0.5430075 -0.8397278
vn 0.0005620401 0.5429729 -0.8397501
vn 0.000986999 0.5476973 -0.8366659
vn 0.0001132694 0.5499285 -0.8352117
vn 0 0.8744957 -0.4850332
vn 0.000525609 0.8730123 -0.4876882
vn 0.001051218 0.8715288 -0.4903433
vn -0.382659 0.9238897 0
vn -0.303114 0.7318148 -0.6103843
vn 0.3826623 0.9238883 1.021805E-05
vn 0.29893 0.7217133 -0.6243163
vn 0.2990381 0.721656 -0.6243308
vn -0.05136839 0.8861709 -0.4605023
vn 0.0418918 0.8810222 -0.4712164
vn 0 0.7039886 0.7102113
vn 0 -0.8163577 0.5775467
vn -6.344819E-07 0.7071072 -0.7071064
vn -2.11494E-07 0.7069951 -0.7072185
vn 0.06459838 -0.5548755 0.8245755
vn 0.06459838 -0.4503405 0.8707461
vn 0 -0.2968407 0.954927
vn 0 -0.4688639 0.868026
vn -0.06459838 -0.4503405 0.8707461
vn -0.06459838 -0.5548755 0.8245755
vn 0 -0.5059107 0.8625858
vn 0 0.9531635 -0.3024556
vn 0.8165095 0.4082339 -0.4082367
vn 0.7617482 0.4471589 -0.4609706
vn 0.7069868 0.4860838 -0.5137045
vn -0.7071214 0.499988 -0.4999914
vn -0.7579557 0.4498681 -0.4656692
vn -0.80879 0.3997482 -0.431347
vn 0.7091111 0.4974798 0.4996647
vn 0.7111804 0.4981228 0.4960598
vn 0.7085571 0.5004373 0.497473
vn 0.7058671 0.4995872 0.5021597
vn 0.7088341 0.4989585 0.4985688
vn 0.7071085 0.5000014 0.4999962
vn -7.072535E-06 -0.7071102 -0.7071034
vn -0.7091111 0.4974798 0.4996647
vn -0.7071085 0.5000014 0.4999962
vn -0.7087919 0.4989472 0.4986395
vn -0.7056983 0.4995375 0.5024464
vn -0.7084727 0.5004146 0.4976141
vn -0.7111804 0.4981249 0.4960576
vn -0.7071068 0 0.7071068
vn 0.7072417 0 -0.7069718
vn 0.7071068 0 0.7071068
vn -0.7072417 0 -0.7069718
vn 0.7071068 0 -0.7071068
vn -0.7072417 0 0.7069718
vn -0.7071068 0 -0.7071068
vn 0.7072417 0 0.7069718
vn 0 0.7071349 0.7070787
vn 0.7073091 0.7069044 0
vn -0.7073091 0.7069044 0
vn 0 -0.9961954 -0.08714803
vn 0 0.9961925 0.08718115
vn 0 -0.08715626 0.9961947
vn 0 0.08715583 -0.9961947
vn 0 0.7660502 -0.6427808
vn 0.7073057 0.06161813 -0.7042172
vn -0.7071722 0.06162978 -0.7043504
vn 0 -0.6426225 -0.766183
vn -0.7069719 0 0.7072417
vn 0.7069719 0 -0.7072417
vn 0.7069719 0 0.7072417
vn -0.7069719 0 -0.7072417
vn 0.8048873 0 -0.5934278
vn 0.7990385 0.1388705 -0.5850235
vn 0.7924032 0.177768 -0.5821774
vn 0.7857679 0.2166656 -0.5793314
vn 0.7877379 -0.2164009 -0.5767493
vn 0.7923784 -0.1779423 -0.582188
vn 0.7970189 -0.1394837 -0.5876266
vn 0.8423536 0 0.5389252
vn -0.8048873 0 -0.5934278
vn -0.7877379 0.2164009 -0.5767493
vn -0.7923782 0.1779446 -0.5821877
vn -0.7970185 0.1394883 -0.5876261
vn -0.8423536 0 0.5389252
vn -0.7990385 -0.1388705 -0.5850235
vn -0.7924032 -0.177768 -0.5821774
vn -0.7857679 -0.2166656 -0.5793314
vn 0 0.09291637 -0.995674
vn 0 0.1846638 -0.9828018
vn 0 -0.1865187 0.9824514
vn 0 -0.09390541 0.9955812
vn 0 0.3616118 -0.9323288
vn 0 -0.3648604 0.9310622
vn 0 0.5239981 -0.8517195
vn 0 -0.5279559 0.8492718
vn 0 0.6665428 -0.7454668
vn 0 -0.6704137 0.7419876
vn 0 0.7856697 -0.6186462
vn 0 -0.7887893 0.6146637
vn 0 0.8792546 -0.4763522
vn 0 -0.8813186 0.4725225
vn 0 0.9463263 -0.3232129
vn 0 -0.9473507 0.3201976
vn 0 0.9865863 -0.1632404
vn 0 -0.9868584 0.1615875
vn 0 0.986586 0.163242
vn 0 -0.986859 -0.161584
vn 0 0.9463289 0.3232051
vn 0 -0.9704735 -0.241208
vn 0 0.9162754 0.400549
vn 0 -0.917808 -0.3970246
vn 0 -0.4566653 0.8896385
vn 0 0.1044352 -0.9945317
vn 0 0.2090339 -0.9779084
vn 0 0.3137724 -0.9494982
vn 0 0.4183773 -0.9082733
vn 0 0.5221689 -0.8528421
vn 0 0.6237332 -0.7816373
vn 0 0.720857 -0.6930839
vn 0 0.8102592 -0.5860717
vn 0 0.8876241 -0.4605685
vn 0 0.9480281 -0.3181867
vn 0 0.9866757 -0.1626989
vn 0 0.9966308 -0.08201862

usemtl Verde_JD
f 47/73/3 46/72/3 48/74/3
f 46/72/3 45/71/3 48/74/3
f 43/69/3 48/74/3 45/71/3
f 43/69/3 45/71/3 44/70/3
f 29/75/13 43/78/16 44/77/15
f 29/75/13 27/79/17 43/78/16
f 29/75/13 44/77/15 49/76/14
f 49/82/18 36/81/18 29/80/18
f 50/86/22 47/85/21 26/87/23
f 48/84/20 24/83/19 26/87/23
f 47/85/21 48/84/20 26/87/23
f 26/88/24 39/89/24 50/90/24
f 23/99/6 28/102/6 51/101/6
f 28/102/6 23/99/6 27/103/6
f 24/106/6 27/103/6 23/99/6
f 43/104/6 27/103/6 24/106/6
f 24/106/6 48/105/6 43/104/6
f 23/99/6 51/101/6 54/100/6
f 35/109/31 30/107/31 36/110/33
f 35/109/31 52/108/32 30/107/31
f 30/107/31 29/111/33 36/110/33
f 39/113/34 26/112/34 25/116/35
f 25/116/35 53/115/36 40/114/35
f 39/113/34 25/116/35 40/114/35
f 44/118/38 45/117/37 55/122/42
f 44/118/38 55/122/42 49/119/39
f 49/119/39 55/122/42 36/120/40
f 38/121/41 36/120/40 55/122/42
f 35/123/1 37/132/1 52/124/1
f 52/124/1 37/132/1 31/131/1
f 51/125/1 52/124/1 31/131/1
f 31/131/1 32/130/1 51/125/1
f 32/130/1 54/126/1 51/125/1
f 32/130/1 53/127/1 54/126/1
f 53/127/1 32/130/1 42/129/1
f 42/129/1 40/128/1 53/127/1
f 41/138/46 56/137/43 39/133/43
f 39/133/43 56/137/43 47/135/43
f 50/134/44 39/133/43 47/135/43
f 56/137/43 46/136/45 47/135/43
f 34/153/56 59/152/56 41/151/56
f 41/151/56 42/150/56 34/153/56
f 42/150/56 32/149/56 34/153/56
f 33/158/58 38/160/58 60/159/58
f 33/158/58 37/161/58 38/160/58
f 37/161/58 33/158/58 31/162/58
f 34/167/61 58/168/61 59/169/61
f 60/172/62 57/171/62 33/170/62
f 69/181/2 68/180/2 67/179/2
f 67/179/2 66/178/2 70/182/2
f 69/181/2 67/179/2 70/182/2
f 74/186/4 72/184/4 75/187/4
f 74/186/4 73/185/4 72/184/4
f 72/184/4 71/183/4 75/187/4
f 78/196/65 83/201/66 79/197/66
f 82/200/66 81/199/65 80/198/65
f 82/200/66 80/198/65 79/197/66
f 83/201/66 82/200/66 79/197/66
f 76/231/87 69/229/87 80/228/87
f 76/231/87 68/230/87 69/229/87
f 76/231/87 80/228/87 81/234/87
f 76/231/87 81/234/87 75/233/87
f 75/233/87 71/232/87 76/231/87
f 129/390/1 134/2/1 133/389/1
f 133/389/1 132/1/1 130/391/1
f 129/390/1 133/389/1 130/391/1
f 128/395/2 136/394/2 135/393/2
f 135/393/2 134/392/2 129/396/2
f 128/395/2 135/393/2 129/396/2
f 131/398/3 137/397/3 128/399/3
f 131/398/3 138/10/3 137/397/3
f 137/397/3 136/9/3 128/399/3
f 130/403/4 139/401/4 131/404/4
f 130/403/4 132/402/4 139/401/4
f 139/401/4 138/400/4 131/404/4
f 193/576/5 192/575/5 191/574/5
f 196/579/6 195/578/6 194/577/6
f 193/603/2 200/602/2 199/601/2
f 193/603/2 199/601/2 196/600/2
f 196/600/2 194/605/2 193/603/2
f 194/605/2 192/604/2 193/603/2
f 203/576/6 202/575/6 201/574/6
f 206/579/5 205/578/5 204/577/5
f 203/603/4 210/602/4 209/601/4
f 203/603/4 209/601/4 206/600/4
f 206/600/4 204/605/4 203/603/4
f 204/605/4 202/604/4 203/603/4
f 9/820/2 316/819/2 313/818/2
f 7/823/4 314/822/4 315/821/4
f 9/826/2 318/825/2 316/824/2
f 7/829/4 315/828/4 317/827/4
f 9/832/2 320/831/2 318/830/2
f 7/835/4 317/834/4 319/833/4
f 9/838/2 322/837/2 320/836/2
f 7/841/4 319/840/4 321/839/4
f 9/844/2 324/843/2 322/842/2
f 7/847/4 321/846/4 323/845/4
f 9/850/2 326/849/2 324/848/2
f 7/853/4 323/852/4 325/851/4
f 9/856/2 328/855/2 326/854/2
f 7/859/4 325/858/4 327/857/4
f 9/862/2 330/861/2 328/860/2
f 7/865/4 327/864/4 329/863/4
f 9/868/2 332/867/2 330/866/2
f 7/871/4 329/870/4 331/869/4
f 9/874/2 334/873/2 332/872/2
f 7/877/4 331/876/4 333/875/4
f 9/880/2 336/879/2 334/878/2
f 7/883/4 333/882/4 335/881/4
f 9/886/2 338/885/2 336/884/2
f 7/889/4 335/888/4 337/887/4
f 5/820/2 342/819/2 339/818/2
f 16/823/4 340/822/4 341/821/4
f 5/826/2 344/825/2 342/824/2
f 16/829/4 341/828/4 343/827/4
f 5/832/2 346/831/2 344/830/2
f 16/835/4 343/834/4 345/833/4
f 5/838/2 348/837/2 346/836/2
f 16/841/4 345/840/4 347/839/4
f 5/844/2 350/843/2 348/842/2
f 16/847/4 347/846/4 349/845/4
f 5/850/2 352/849/2 350/848/2
f 16/853/4 349/852/4 351/851/4
f 5/856/2 354/855/2 352/854/2
f 16/859/4 351/858/4 353/857/4
f 5/862/2 356/861/2 354/860/2
f 16/865/4 353/864/4 355/863/4
f 5/868/2 358/867/2 356/866/2
f 16/871/4 355/870/4 357/869/4
f 5/874/2 360/873/2 358/872/2
f 16/877/4 357/876/4 359/875/4
f 5/880/2 362/879/2 360/878/2
f 16/883/4 359/882/4 361/881/4
f 5/886/2 364/885/2 362/884/2
f 16/889/4 361/888/4 363/887/4
f 4/4/1 2/2/1 1/1/1
f 1/1/1 3/3/1 4/4/1
f 6/8/2 5/6/2 2/5/2
f 2/5/2 4/7/2 6/8/2
f 8/12/3 7/10/3 5/9/3
f 5/9/3 6/11/3 8/12/3
f 3/16/4 1/14/4 7/13/4
f 7/13/4 8/15/4 3/16/4
f 6/20/5 4/18/5 3/17/5
f 3/17/5 8/19/5 6/20/5
f 2/24/6 5/22/6 7/21/6
f 7/21/6 1/23/6 2/24/6
f 26/52/2 24/50/2 23/49/2
f 23/49/2 25/51/2 26/52/2
f 30/56/4 28/54/4 27/53/4
f 27/53/4 29/55/4 30/56/4
f 34/60/5 32/58/5 31/57/5
f 31/57/5 33/59/5 34/60/5
f 51/93/26 28/91/25 30/92/26
f 30/92/26 52/94/27 51/93/26
f 53/97/29 25/95/28 23/96/29
f 23/96/29 54/98/30 53/97/29
f 58/147/54 34/145/53 33/146/54
f 33/146/54 57/148/55 58/147/54
f 71/188/64 72/191/64 77/190/64
f 77/190/64 76/189/64 71/188/64
f 77/195/64 67/194/64 68/193/64
f 68/193/64 76/192/64 77/195/64
f 82/216/76 74/214/75 75/215/76
f 75/215/76 81/217/77 82/216/76
f 80/220/79 69/218/78 70/219/79
f 70/219/79 79/221/80 80/220/79
f 6/4/1 5/2/1 7/1/1
f 7/1/1 8/3/1 6/4/1
f 117/340/2 116/338/2 5/337/2
f 5/337/2 6/339/2 117/340/2
f 119/12/3 118/10/3 116/9/3
f 116/9/3 117/11/3 119/12/3
f 8/344/4 7/342/4 118/341/4
f 118/341/4 119/343/4 8/344/4
f 117/348/5 6/346/5 8/345/5
f 8/345/5 119/347/5 117/348/5
f 5/352/6 116/350/6 118/349/6
f 118/349/6 7/351/6 5/352/6
f 16/356/10 21/354/10 12/353/10
f 12/353/10 9/355/10 16/356/10
f 121/8/2 120/6/2 21/5/2
f 21/5/2 16/7/2 121/8/2
f 123/360/9 122/358/9 120/357/9
f 120/357/9 121/359/9 123/360/9
f 9/16/4 12/14/4 122/13/4
f 122/13/4 123/15/4 9/16/4
f 121/364/7 16/362/7 9/361/7
f 9/361/7 123/363/7 121/364/7
f 21/368/8 120/366/8 122/365/8
f 122/365/8 12/367/8 21/368/8
f 127/372/5 125/370/5 124/369/5
f 124/369/5 126/371/5 127/372/5
f 127/375/12 128/373/12 129/374/12
f 129/374/12 125/376/12 127/375/12
f 125/379/102 129/377/102 130/378/102
f 130/378/102 124/380/102 125/379/102
f 124/383/11 130/381/11 131/382/11
f 131/382/11 126/384/11 124/383/11
f 126/387/65 131/385/65 128/386/65
f 128/386/65 127/388/65 126/387/65
f 139/408/6 140/407/6 137/406/6
f 137/406/6 138/405/6 139/408/6
f 140/407/6 135/410/6 136/409/6
f 136/409/6 137/406/6 140/407/6
f 140/407/6 133/412/6 134/411/6
f 134/411/6 135/410/6 140/407/6
f 139/408/6 132/413/6 133/412/6
f 133/412/6 140/407/6 139/408/6
f 199/582/117 200/583/117 198/581/117
f 198/581/117 197/580/117 199/582/117
f 192/585/1 194/587/1 195/586/1
f 195/586/1 191/584/1 192/585/1
f 200/590/119 193/588/118 191/589/119
f 191/589/119 198/591/120 200/590/119
f 197/594/122 195/592/121 196/593/122
f 196/593/122 199/595/123 197/594/122
f 195/598/124 197/596/124 198/597/124
f 198/597/124 191/599/124 195/598/124
f 209/582/125 210/583/125 208/581/125
f 208/581/125 207/580/125 209/582/125
f 202/585/1 204/587/1 205/586/1
f 205/586/1 201/584/1 202/585/1
f 207/594/127 205/592/126 206/593/127
f 206/593/127 209/595/128 207/594/127
f 205/598/129 207/596/129 208/597/129
f 208/597/129 201/599/129 205/598/129
f 210/590/131 203/588/130 201/589/131
f 201/589/131 208/591/132 210/590/131
f 213/609/6 192/607/6 211/606/6
f 211/606/6 212/608/6 213/609/6
f 215/613/134 214/611/134 212/610/133
f 212/610/133 211/612/133 215/613/134
f 192/617/136 213/615/136 216/614/135
f 216/614/135 217/616/135 192/617/136
f 219/621/137 218/619/137 214/618/134
f 214/618/134 215/620/134 219/621/137
f 217/625/135 216/623/135 220/622/138
f 220/622/138 221/624/138 217/625/135
f 223/629/139 222/627/139 218/626/137
f 218/626/137 219/628/137 223/629/139
f 221/633/138 220/631/138 224/630/140
f 224/630/140 225/632/140 221/633/138
f 227/637/141 226/635/141 222/634/139
f 222/634/139 223/636/139 227/637/141
f 225/641/140 224/639/140 228/638/142
f 228/638/142 229/640/142 225/641/140
f 231/645/143 230/643/143 226/642/141
f 226/642/141 227/644/141 231/645/143
f 229/649/142 228/647/142 232/646/144
f 232/646/144 233/648/144 229/649/142
f 235/653/145 234/651/145 230/650/143
f 230/650/143 231/652/143 235/653/145
f 233/657/144 232/655/144 236/654/146
f 236/654/146 237/656/146 233/657/144
f 239/661/147 238/659/147 234/658/145
f 234/658/145 235/660/145 239/661/147
f 237/665/146 236/663/146 240/662/148
f 240/662/148 241/664/148 237/665/146
f 243/669/149 242/667/149 238/666/147
f 238/666/147 239/668/147 243/669/149
f 241/673/148 240/671/148 244/670/150
f 244/670/150 245/672/150 241/673/148
f 247/677/5 246/675/5 242/674/149
f 242/674/149 243/676/149 247/677/5
f 245/681/150 244/679/150 248/678/6
f 248/678/6 249/680/6 245/681/150
f 251/685/151 250/683/151 246/682/5
f 246/682/5 247/684/5 251/685/151
f 249/689/6 248/687/6 252/686/152
f 252/686/152 253/688/152 249/689/6
f 255/693/153 254/691/153 250/690/151
f 250/690/151 251/692/151 255/693/153
f 253/697/152 252/695/152 256/694/154
f 256/694/154 257/696/154 253/697/152
f 259/701/155 258/699/155 254/698/153
f 254/698/153 255/700/153 259/701/155
f 257/705/156 256/703/156 260/702/156
f 260/702/156 261/704/156 257/705/156
f 258/709/157 259/707/157 261/706/157
f 261/706/157 260/708/157 258/709/157
f 217/713/2 215/711/2 211/710/2
f 211/710/2 192/712/2 217/713/2
f 213/717/4 212/715/4 214/714/4
f 214/714/4 216/716/4 213/717/4
f 221/719/2 219/718/2 215/711/2
f 215/711/2 217/713/2 221/719/2
f 216/716/4 214/714/4 218/720/4
f 218/720/4 220/721/4 216/716/4
f 225/723/2 223/722/2 219/718/2
f 219/718/2 221/719/2 225/723/2
f 220/721/4 218/720/4 222/724/4
f 222/724/4 224/725/4 220/721/4
f 229/727/2 227/726/2 223/722/2
f 223/722/2 225/723/2 229/727/2
f 224/725/4 222/724/4 226/728/4
f 226/728/4 228/729/4 224/725/4
f 233/731/2 231/730/2 227/726/2
f 227/726/2 229/727/2 233/731/2
f 228/729/4 226/728/4 230/732/4
f 230/732/4 232/733/4 228/729/4
f 237/735/2 235/734/2 231/730/2
f 231/730/2 233/731/2 237/735/2
f 232/733/4 230/732/4 234/736/4
f 234/736/4 236/737/4 232/733/4
f 241/739/2 239/738/2 235/734/2
f 235/734/2 237/735/2 241/739/2
f 236/737/4 234/736/4 238/740/4
f 238/740/4 240/741/4 236/737/4
f 245/743/2 243/742/2 239/738/2
f 239/738/2 241/739/2 245/743/2
f 240/741/4 238/740/4 242/744/4
f 242/744/4 244/745/4 240/741/4
f 249/747/2 247/746/2 243/742/2
f 243/742/2 245/743/2 249/747/2
f 244/745/4 242/744/4 246/748/4
f 246/748/4 248/749/4 244/745/4
f 253/751/2 251/750/2 247/746/2
f 247/746/2 249/747/2 253/751/2
f 248/749/4 246/748/4 250/752/4
f 250/752/4 252/753/4 248/749/4
f 257/755/2 255/754/2 251/750/2
f 251/750/2 253/751/2 257/755/2
f 252/753/4 250/752/4 254/756/4
f 254/756/4 256/757/4 252/753/4
f 261/759/2 259/758/2 255/754/2
f 255/754/2 257/755/2 261/759/2
f 256/757/4 254/756/4 258/760/4
f 258/760/4 260/761/4 256/757/4
f 204/609/6 263/607/6 262/606/6
f 262/606/6 264/608/6 204/609/6
f 266/613/134 265/611/134 264/610/133
f 264/610/133 262/612/133 266/613/134
f 263/617/136 204/615/136 267/614/135
f 267/614/135 268/616/135 263/617/136
f 270/621/137 269/619/137 265/618/134
f 265/618/134 266/620/134 270/621/137
f 268/625/135 267/623/135 271/622/138
f 271/622/138 272/624/138 268/625/135
f 274/629/139 273/627/139 269/626/137
f 269/626/137 270/628/137 274/629/139
f 272/633/138 271/631/138 275/630/140
f 275/630/140 276/632/140 272/633/138
f 278/637/141 277/635/141 273/634/139
f 273/634/139 274/636/139 278/637/141
f 276/641/140 275/639/140 279/638/142
f 279/638/142 280/640/142 276/641/140
f 282/645/143 281/643/143 277/642/141
f 277/642/141 278/644/141 282/645/143
f 280/649/142 279/647/142 283/646/144
f 283/646/144 284/648/144 280/649/142
f 286/653/145 285/651/145 281/650/143
f 281/650/143 282/652/143 286/653/145
f 284/657/144 283/655/144 287/654/146
f 287/654/146 288/656/146 284/657/144
f 290/661/147 289/659/147 285/658/145
f 285/658/145 286/660/145 290/661/147
f 288/665/146 287/663/146 291/662/148
f 291/662/148 292/664/148 288/665/146
f 294/669/149 293/667/149 289/666/147
f 289/666/147 290/668/147 294/669/149
f 292/673/148 291/671/148 295/670/150
f 295/670/150 296/672/150 292/673/148
f 298/677/5 297/675/5 293/674/149
f 293/674/149 294/676/149 298/677/5
f 296/681/150 295/679/150 299/678/6
f 299/678/6 300/680/6 296/681/150
f 302/685/151 301/683/151 297/682/5
f 297/682/5 298/684/5 302/685/151
f 300/689/6 299/687/6 303/686/152
f 303/686/152 304/688/152 300/689/6
f 306/693/153 305/691/153 301/690/151
f 301/690/151 302/692/151 306/693/153
f 304/697/152 303/695/152 307/694/154
f 307/694/154 308/696/154 304/697/152
f 310/701/155 309/699/155 305/698/153
f 305/698/153 306/700/153 310/701/155
f 308/705/156 307/703/156 311/702/156
f 311/702/156 312/704/156 308/705/156
f 309/709/157 310/707/157 312/706/157
f 312/706/157 311/708/157 309/709/157
f 268/713/2 266/711/2 262/710/2
f 262/710/2 263/712/2 268/713/2
f 204/717/4 264/715/4 265/714/4
f 265/714/4 267/716/4 204/717/4
f 272/719/2 270/718/2 266/711/2
f 266/711/2 268/713/2 272/719/2
f 267/716/4 265/714/4 269/720/4
f 269/720/4 271/721/4 267/716/4
f 276/723/2 274/722/2 270/718/2
f 270/718/2 272/719/2 276/723/2
f 271/721/4 269/720/4 273/724/4
f 273/724/4 275/725/4 271/721/4
f 280/727/2 278/726/2 274/722/2
f 274/722/2 276/723/2 280/727/2
f 275/725/4 273/724/4 277/728/4
f 277/728/4 279/729/4 275/725/4
f 284/731/2 282/730/2 278/726/2
f 278/726/2 280/727/2 284/731/2
f 279/729/4 277/728/4 281/732/4
f 281/732/4 283/733/4 279/729/4
f 288/735/2 286/734/2 282/730/2
f 282/730/2 284/731/2 288/735/2
f 283/733/4 281/732/4 285/736/4
f 285/736/4 287/737/4 283/733/4
f 292/739/2 290/738/2 286/734/2
f 286/734/2 288/735/2 292/739/2
f 287/737/4 285/736/4 289/740/4
f 289/740/4 291/741/4 287/737/4
f 296/743/2 294/742/2 290/738/2
f 290/738/2 292/739/2 296/743/2
f 291/741/4 289/740/4 293/744/4
f 293/744/4 295/745/4 291/741/4
f 300/747/2 298/746/2 294/742/2
f 294/742/2 296/743/2 300/747/2
f 295/745/4 293/744/4 297/748/4
f 297/748/4 299/749/4 295/745/4
f 304/751/2 302/750/2 298/746/2
f 298/746/2 300/747/2 304/751/2
f 299/749/4 297/748/4 301/752/4
f 301/752/4 303/753/4 299/749/4
f 308/755/2 306/754/2 302/750/2
f 302/750/2 304/751/2 308/755/2
f 303/753/4 301/752/4 305/756/4
f 305/756/4 307/757/4 303/753/4
f 312/759/2 310/758/2 306/754/2
f 306/754/2 308/755/2 312/759/2
f 307/757/4 305/756/4 309/760/4
f 309/760/4 311/761/4 307/757/4
f 7/765/6 9/763/6 313/762/6
f 313/762/6 314/764/6 7/765/6
f 316/769/158 315/767/158 314/766/8
f 314/766/8 313/768/8 316/769/158
f 318/773/159 317/771/159 315/770/158
f 315/770/158 316/772/158 318/773/159
f 320/777/160 319/775/160 317/774/159
f 317/774/159 318/776/159 320/777/160
f 322/781/161 321/779/161 319/778/160
f 319/778/160 320/780/160 322/781/161
f 324/785/162 323/783/162 321/782/161
f 321/782/161 322/784/161 324/785/162
f 326/789/163 325/787/163 323/786/162
f 323/786/162 324/788/162 326/789/163
f 328/793/164 327/791/164 325/790/163
f 325/790/163 326/792/163 328/793/164
f 330/797/165 329/795/165 327/794/164
f 327/794/164 328/796/164 330/797/165
f 332/801/166 331/799/166 329/798/165
f 329/798/165 330/800/165 332/801/166
f 334/805/167 333/803/167 331/802/166
f 331/802/166 332/804/166 334/805/167
f 336/809/168 335/807/168 333/806/167
f 333/806/167 334/808/167 336/809/168
f 338/813/169 337/811/169 335/810/168
f 335/810/168 336/812/168 338/813/169
f 337/817/1 338/815/1 9/814/1
f 9/814/1 7/816/1 337/817/1
f 16/765/6 5/763/6 339/762/6
f 339/762/6 340/764/6 16/765/6
f 342/769/158 341/767/158 340/766/8
f 340/766/8 339/768/8 342/769/158
f 344/773/159 343/771/159 341/770/158
f 341/770/158 342/772/158 344/773/159
f 346/777/160 345/775/160 343/774/159
f 343/774/159 344/776/159 346/777/160
f 348/781/161 347/779/161 345/778/160
f 345/778/160 346/780/160 348/781/161
f 350/785/162 349/783/162 347/782/161
f 347/782/161 348/784/161 350/785/162
f 352/789/163 351/787/163 349/786/162
f 349/786/162 350/788/162 352/789/163
f 354/793/164 353/791/164 351/790/163
f 351/790/163 352/792/163 354/793/164
f 356/797/165 355/795/165 353/794/164
f 353/794/164 354/796/164 356/797/165
f 358/801/166 357/799/166 355/798/165
f 355/798/165 356/800/165 358/801/166
f 360/805/167 359/803/167 357/802/166
f 357/802/166 358/804/166 360/805/167
f 362/809/168 361/807/168 359/806/167
f 359/806/167 360/808/167 362/809/168
f 364/813/169 363/811/169 361/810/168
f 361/810/168 362/812/168 364/813/169
f 363/817/1 364/815/1 5/814/1
f 5/814/1 16/816/1 363/817/1

usemtl Negro_JD
f 64/176/63 63/175/63 62/174/63
f 62/174/63 61/173/63 65/177/63
f 64/176/63 62/174/63 65/177/63
f 77/205/70 73/203/68 61/202/67
f 77/205/70 72/204/69 73/203/68
f 62/209/73 77/205/70 61/202/67
f 77/205/70 62/209/73 63/208/72
f 77/205/70 63/208/72 66/207/71
f 66/207/71 67/206/69 77/205/70
f 74/226/85 82/225/84 83/224/83
f 74/226/85 83/224/83 65/223/82
f 65/223/82 61/222/81 74/226/85
f 61/222/81 73/227/86 74/226/85
f 70/237/90 66/236/89 63/235/88
f 70/237/90 63/235/88 64/240/93
f 64/240/93 78/239/92 70/237/90
f 78/239/92 79/238/91 70/237/90
f 175/562/6 184/565/6 188/563/6
f 183/558/6 184/565/6 175/562/6
f 179/560/6 183/558/6 175/562/6
f 179/560/6 180/559/6 183/558/6
f 179/560/6 175/562/6 176/561/6
f 184/565/6 187/564/6 188/563/6
f 190/572/5 189/571/5 186/570/5
f 178/566/5 177/573/5 181/567/5
f 185/569/5 182/568/5 181/567/5
f 177/573/5 185/569/5 181/567/5
f 177/573/5 186/570/5 185/569/5
f 190/572/5 186/570/5 177/573/5
f 11/28/7 9/26/7 7/25/7
f 7/25/7 10/27/7 11/28/7
f 13/32/2 12/30/2 9/29/2
f 9/29/2 11/31/2 13/32/2
f 15/36/8 14/34/8 12/33/8
f 12/33/8 13/35/8 15/36/8
f 10/40/4 7/38/4 14/37/4
f 14/37/4 15/39/4 10/40/4
f 13/44/9 11/42/9 10/41/9
f 10/41/9 15/43/9 13/44/9
f 9/48/10 12/46/10 14/45/10
f 14/45/10 7/47/10 9/48/10
f 18/28/7 5/26/7 16/25/7
f 16/25/7 17/27/7 18/28/7
f 20/32/2 19/30/2 5/29/2
f 5/29/2 18/31/2 20/32/2
f 22/36/8 21/34/8 19/33/8
f 19/33/8 20/35/8 22/36/8
f 17/40/4 16/38/4 21/37/4
f 21/37/4 22/39/4 17/40/4
f 20/44/9 18/42/9 17/41/9
f 17/41/9 22/43/9 20/44/9
f 5/48/10 19/46/10 21/45/10
f 21/45/10 16/47/10 5/48/10
f 78/212/74 64/210/74 65/211/74
f 65/211/74 83/213/74 78/212/74
f 87/244/2 85/242/2 84/241/94
f 84/241/94 86/243/94 87/244/2
f 91/248/95 89/246/95 88/245/4
f 88/245/4 90/247/4 91/248/95
f 86/252/94 84/250/94 92/249/1
f 92/249/1 93/251/1 86/252/94
f 95/256/3 94/254/3 89/253/95
f 89/253/95 91/255/95 95/256/3
f 93/260/1 92/258/1 96/257/96
f 96/257/96 97/259/96 93/260/1
f 99/264/97 98/262/97 94/261/3
f 94/261/3 95/263/3 99/264/97
f 97/268/96 96/266/96 100/265/4
f 100/265/4 101/267/4 97/268/96
f 103/272/2 102/270/2 98/269/97
f 98/269/97 99/271/97 103/272/2
f 101/276/4 100/274/4 104/273/98
f 104/273/98 105/275/98 101/276/4
f 107/280/99 106/278/99 102/277/2
f 102/277/2 103/279/2 107/280/99
f 105/284/98 104/282/98 108/281/3
f 108/281/3 109/283/3 105/284/98
f 111/288/1 110/286/1 106/285/99
f 106/285/99 107/287/99 111/288/1
f 109/292/3 108/290/3 112/289/100
f 112/289/100 113/291/100 109/292/3
f 115/296/101 114/294/101 110/293/1
f 110/293/1 111/295/1 115/296/101
f 113/300/100 112/298/100 85/297/2
f 85/297/2 87/299/2 113/300/100
f 90/304/4 88/302/4 114/301/101
f 114/301/101 115/303/101 90/304/4
f 89/308/6 84/306/6 85/305/6
f 85/305/6 88/307/6 89/308/6
f 90/312/5 87/310/5 86/309/5
f 86/309/5 91/311/5 90/312/5
f 94/314/6 92/313/6 84/306/6
f 84/306/6 89/308/6 94/314/6
f 91/311/5 86/309/5 93/315/5
f 93/315/5 95/316/5 91/311/5
f 98/318/6 96/317/6 92/313/6
f 92/313/6 94/314/6 98/318/6
f 95/316/5 93/315/5 97/319/5
f 97/319/5 99/320/5 95/316/5
f 102/322/6 100/321/6 96/317/6
f 96/317/6 98/318/6 102/322/6
f 99/320/5 97/319/5 101/323/5
f 101/323/5 103/324/5 99/320/5
f 106/326/6 104/325/6 100/321/6
f 100/321/6 102/322/6 106/326/6
f 103/324/5 101/323/5 105/327/5
f 105/327/5 107/328/5 103/324/5
f 110/330/6 108/329/6 104/325/6
f 104/325/6 106/326/6 110/330/6
f 107/328/5 105/327/5 109/331/5
f 109/331/5 111/332/5 107/328/5
f 114/334/6 112/333/6 108/329/6
f 108/329/6 110/330/6 114/334/6
f 111/332/5 109/331/5 113/335/5
f 113/335/5 115/336/5 111/332/5
f 88/307/6 85/305/6 112/333/6
f 112/333/6 114/334/6 88/307/6
f 115/336/5 113/335/5 87/310/5
f 87/310/5 90/312/5 115/336/5
f 178/529/1 176/527/1 175/526/1
f 175/526/1 177/528/1 178/529/1
f 182/533/2 180/531/2 179/530/2
f 179/530/2 181/532/2 182/533/2
f 186/537/3 184/535/3 183/534/3
f 183/534/3 185/536/3 186/537/3
f 190/541/4 188/539/4 187/538/4
f 187/538/4 189/540/4 190/541/4
f 179/544/113 176/542/113 178/543/113
f 178/543/113 181/545/113 179/544/113
f 187/548/114 184/546/114 186/547/114
f 186/547/114 189/549/114 187/548/114
f 190/552/115 177/550/115 175/551/115
f 175/551/115 188/553/115 190/552/115
f 183/556/116 180/554/116 182/555/116
f 182/555/116 185/557/116 183/556/116

usemtl Amarillo_JD
f 58/143/51 46/139/47 56/144/52
f 58/143/51 45/140/48 46/139/47
f 58/143/51 57/142/50 45/140/48
f 57/142/50 55/141/49 45/140/48
f 37/63/11 35/61/11 36/62/11
f 36/62/11 38/64/11 37/63/11
f 41/67/12 39/65/12 40/66/12
f 40/66/12 42/68/12 41/67/12
f 56/155/57 41/154/57 59/157/57
f 59/157/57 58/156/57 56/155/57
f 38/163/59 55/166/59 57/165/60
f 57/165/60 60/164/59 38/163/59
f 144/417/1 142/415/1 141/414/1
f 141/414/1 143/416/1 144/417/1
f 146/421/2 145/419/2 142/418/2
f 142/418/2 144/420/2 146/421/2
f 148/425/3 147/423/3 145/422/3
f 145/422/3 146/424/3 148/425/3
f 143/429/4 141/427/4 147/426/4
f 147/426/4 148/428/4 143/429/4
f 152/433/5 150/431/5 149/430/5
f 149/430/5 151/432/5 152/433/5
f 142/437/6 145/435/6 147/434/6
f 147/434/6 141/436/6 142/437/6
f 149/440/11 143/438/11 148/439/11
f 148/439/11 151/441/11 149/440/11
f 150/444/102 144/442/102 143/443/102
f 143/443/102 149/445/102 150/444/102
f 152/448/12 146/446/12 144/447/12
f 144/447/12 150/449/12 152/448/12
f 151/452/65 148/450/65 146/451/65
f 146/451/65 152/453/65 151/452/65
f 156/457/1 154/455/1 153/454/1
f 153/454/1 155/456/1 156/457/1
f 158/421/2 157/459/2 154/458/2
f 154/458/2 156/420/2 158/421/2
f 160/463/3 159/461/3 157/460/3
f 157/460/3 158/462/3 160/463/3
f 155/429/4 153/465/4 159/464/4
f 159/464/4 160/428/4 155/429/4
f 164/469/5 162/467/5 161/466/5
f 161/466/5 163/468/5 164/469/5
f 154/473/6 157/471/6 159/470/6
f 159/470/6 153/472/6 154/473/6
f 162/476/102 156/474/102 155/475/102
f 155/475/102 161/477/102 162/476/102
f 161/480/103 155/478/103 160/479/103
f 160/479/103 163/481/103 161/480/103
f 164/484/104 158/482/104 156/483/104
f 156/483/104 162/485/104 164/484/104
f 163/488/65 160/486/65 158/487/65
f 158/487/65 164/489/65 163/488/65
f 154/491/105 166/457/105 165/456/105
f 165/456/105 153/490/105 154/491/105
f 168/495/2 167/493/2 166/492/2
f 166/492/2 154/494/2 168/495/2
f 170/497/106 169/463/106 167/462/106
f 167/462/106 168/496/106 170/497/106
f 153/501/4 165/499/4 169/498/4
f 169/498/4 170/500/4 153/501/4
f 168/505/107 154/503/107 153/502/107
f 153/502/107 170/504/107 168/505/107
f 174/509/108 172/507/108 171/506/108
f 171/506/108 173/508/108 174/509/108
f 172/512/109 167/510/109 169/511/109
f 169/511/109 171/513/109 172/512/109
f 171/516/110 169/514/110 165/515/110
f 165/515/110 173/517/110 171/516/110
f 174/520/111 166/518/111 167/519/111
f 167/519/111 172/521/111 174/520/111
f 173/524/112 165/522/112 166/523/112
f 166/523/112 174/525/112 173/524/112

