# ProBuilder 5.2.0
# https://unity3d.com/unity/features/worldbuilding/probuilder
# 11/30/2023 1:12:26 AM

mtllib ./Cube.mtl
o Cube

g Cube
v 2.680737 2.153169 1.28483
v 2.671809 1.923794 0.9034585
v 3.139898 1.294737 1.283147
v 3.010522 2.120428 1.68147
v 2.89649 2.028981 2.362614
v 2.895875 1.489502 2.349808
v 1.891953 1.217266 2.675817
v 2.151351 2.035482 2.669115
v 2.975889 1.344872 2.319122
v 2.998371 0.8761517 2.294006
v 2.625088 0.4512763 2.294006
v 1.851891 1.069835 2.671131
v 2.625088 -0.0487237 2.294006
v 1.707495 -0.0487237 2.294006
v 1.30071 1.860171 2.700462
v 1.644278 2.097662 2.700462
v 1.993991 2.042483 2.700462
v 1.763589 1.261333 2.700462
v 3.162788 1.050847 1.330005
v 2.758914 -0.0487237 1.33075
v 3.074954 2.108041 1.851588
v 3.179224 1.221781 1.433586
v 3.077356 1.07055 2.196744
v 3.067019 1.453297 2.274183
v 3.064726 2.098554 2.204711
v 1.841915 2.387232 1.512768
v 2.53801 2.387232 1.498528
v 2.806747 2.387232 1.797878
v 2.776981 2.387232 2.223686
v 2.162102 2.387232 2.51931
v 1.84193 2.387232 2.485256
v 1.627892 1.888209 0.1455994
v 1.336052 1.848611 0.1272736
v 1.748093 1.326669 -0.114296
v 1.939034 1.826747 0.117157
v 1.760849 -0.01097438 -0.04744137
v 2.69328 -0.01066196 0.2698677
v 2.704593 0.4535466 0.2706486
v 1.895008 1.005981 -0.048701
v 2.736348 0.5092559 0.2833072
v 2.751024 0.9061751 0.2920287
v 2.592053 1.330539 0.2678352
v 1.902996 1.076317 -0.04564058
v 2.470175 1.485991 0.2309829
v 2.450588 1.85232 0.2806026
v 2.187982 1.866067 0.2570947
v 1.914166 1.237275 -0.01528936
v 1.71097 1.992632 0.4616411
v 2.128116 1.961826 0.3489508
v 2.487654 1.962529 0.454358
v 2.601744 2.014437 0.8604532
v 2.549775 2.164384 1.214651
v 1.711935 2.177151 1.209581
v 0.7547337 1.951276 2.326358
v 0.6405119 1.951276 1.692627
v 0.694701 1.967633 1.379575
v 1.541061 2.17606 1.380955
v 1.546709 2.160594 2.613514
v 1.136447 1.984035 2.644871
v 1.553733 0.02719706 2.318798
v 0.6527066 0.01406446 2.296083
v 0.3064567 0.3976007 2.297244
v 0.3493793 0.8875977 2.332509
v 1.700914 1.0323 2.654544
v 1.110516 1.883699 2.655244
v 1.660893 1.174787 2.679652
v 0.2715643 1.04343 2.315443
v 0.246008 1.426477 2.301912
v 0.6457799 1.885884 2.35021
v 1.021711 1.956771 0.3173665
v 1.539439 1.99081 0.4620698
v 1.540538 2.158145 1.209153
v 0.7099052 1.970443 1.207245
v 0.637831 1.951276 0.7949452
v 0.6993008 1.951276 0.3800238
v 1.075755 1.886858 0.2649463
v 0.6250877 1.86432 0.2940063
v 0.6250877 1.551276 0.2940063
v 0.7240203 1.044826 -0.03302354
v 1.634073 1.177011 -0.05527449
v 1.539515 0.05023008 -0.09168243
v 1.678655 1.004551 -0.09168243
v 0.724046 0.8656729 -0.09168243
v 0.6439791 0.4494757 -0.09168243
v 0.7090189 0.04997683 -0.09168243
v 0.5610865 1.874444 2.194845
v 0.24457 1.494475 2.198993
v 0.2239702 1.208006 1.433616
v 0.5790389 1.872893 1.847888
v 0.1805687 1.319103 2.199323
v 0.1805687 0.9530185 2.275421
v 0.1805687 0.6048448 2.209564
v 0.1805687 1.072231 1.472807
v 0.04493332 0.4248143 2.156937
v 0.3646965 0.03052399 2.1464
v 0.3646965 0.03052399 1.458885
v 0.022686 0.8682373 1.446671
v 0.5912507 0.04499004 1.194037
v 0.6175129 0.05059921 0.105904
v 0.5791765 0.4327081 0.0873453
v 0.2439823 0.9602358 1.205713
v 0.5746086 0.6300368 0.07858834
v 0.614672 1.010677 0.04040115
v 0.5917597 1.34346 0.3170397
v 0.2468949 1.086556 1.119148
v 0.5895386 1.882729 0.8339924
v 0.2214503 1.172963 1.248022
v 0.6182564 1.938104 1.292731
v 0.589406 1.882473 1.654581
v 1.704201 -0.3348898 2.046913
v 2.357977 -0.3348898 1.976787
v 2.525062 -0.3348898 1.286457
v 2.443067 -0.3348898 0.5118655
v 1.709948 -0.3348898 0.2141906
v 1.00497 -0.3348898 0.3058119
v 0.8475806 -0.3348898 1.341315
v 0.9196339 -0.3348898 1.907176
v 3.015409 2.151777 2.273771
v 3.035854 2.15396 1.783834
v 2.63127 1.874763 0.3734894
v 2.64406 1.453166 0.3065185
v 2.772061 1.041333 0.3566511
v 3.123739 1.190308 1.166663
v 3.121262 1.211275 1.176813
v 2.660601 1.89031 0.7505787
v 2.987728 0.7761419 0.4198456
v 2.977798 0.4648046 0.39534
v 2.976929 0.09604299 0.4205627
v 2.986809 0.09438592 1.160378
v 3.288673 0.938658 1.166786
v 3.288551 0.9423005 1.162292
v 3.165422 1.154941 1.28072
v 3.165736 1.158998 1.29509
v 3.165554 1.159798 1.294517
v 2.642532 1.452654 0.305746
v 2.606764 1.896572 0.3508333
v 2.765665 0.9062559 0.3068306
v 3.156677 1.108245 1.241027
v 3.163076 1.22281 1.327694
v 3.166344 1.118142 1.272751
v 3.167763 1.094446 1.294402
v 3.147448 1.222155 1.270543
v 3.155244 1.05048 1.259578
v 2.777659 0.8419237 0.3276711
v 3.155396 1.045908 1.26521
v 2.776508 -0.01379396 1.257175
v 2.748303 -0.02831831 0.3077256
v 2.764423 0.4516569 0.2965458
v 2.764106 -0.01171405 0.3285714
v 2.765198 0.4511433 0.2969155
v 3.170697 1.085618 1.317987
v 3.164161 1.069205 1.301901
v 0.6741534 0.9487531 -0.06088837
v 0.6407021 0.4524291 -0.08558784
v 1.834217 1.053006 -0.06642124
v 1.686824 -0.03062196 -0.06547506
v 0.67637 0.01158273 -0.05278284
v 1.626187 1.937857 0.2877957
v 1.282739 1.891257 0.266228
v 1.625958 1.945648 0.3093298
v 1.109314 1.931656 0.2849257
v 1.767639 1.277021 -0.01805705
v 1.992346 1.865527 0.2543193
v 2.058118 1.909515 0.2816127
v 2.508958 1.908836 0.3409894
v 2.170839 1.890903 0.2718248
v 2.606222 1.897264 0.3513111
v 2.645126 1.932261 0.8006829
v 1.772935 1.152011 -0.04817818
v 0.6250877 -0.0487237 1.394006
v 0.7248958 -0.0487237 0.002124661
v 0.2183636 0.947485 1.379475
v 0.6488305 1.922055 2.295381
v 0.6026837 1.913141 1.768874
v 0.2253116 0.4511034 2.266428
v 0.2019829 0.954847 2.284949
v 0.2225383 1.074579 1.309797
v 1.712026 2.197978 1.379184
v 2.595543 2.197978 1.36111
v 1.712043 2.197978 2.613506
v 1.685163 2.182359 2.643372
v 2.115772 2.186368 2.662842
v 2.118424 2.197978 2.656731
v 2.936639 2.197978 1.741055
v 2.898856 2.197978 2.28151
v 2.92391 2.168408 2.298875
v 1.150568 1.95095 2.663143
v 1.575594 2.157909 2.642358
v 3.014894 2.151288 2.274476
v 3.042991 1.446668 2.286654
v 1.62639 2.177333 1.294718
v 0.6250877 -0.0487237 2.211599
v 0.2448224 0.4201663 2.224128
v 1.773848 1.151104 2.676322
v 1.705305 -0.2567926 2.127622
v 2.488022 -0.264901 2.121138
v 2.609744 -0.2544811 1.300891
v 0.8665567 -0.264285 0.1654579
v 0.7745269 -0.2548509 1.355235
v 2.708988 -0.07695987 0.2981308
v 1.719242 -0.07845809 -0.0358302
v 2.579505 -0.2607332 0.4024151
v 1.715873 -0.2567984 0.1067812
v 0.782269 -0.2655299 2.050364
v 1.879239 1.099964 -0.05122621
v 1.842013 1.089606 -0.05699669
v 1.681801 -0.0487237 -0.05724953
v 2.729973 -0.0487237 0.3201686
v 1.870695 1.064975 -0.05379714
v 1.712179 -0.04219453 -0.05149904
v 2.720136 -0.04116596 0.2989732

vt -1.593174 2.05586
vt -1.203259 1.818135
vt -1.621565 1.190998
vt -1.991008 2.012375
vt 2.785552 2.223157
vt 2.788977 1.682869
vt 1.783113 1.436989
vt 2.044115 2.25135
vt 2.874395 1.537092
vt 2.90106 1.068805
vt 2.528133 0.6441191
vt 1.742524 1.286523
vt 2.625088 0.4512763
vt 2.625088 -0.0487237
vt 1.707495 -0.0487237
vt 1.856105 1.066463
vt 1.30071 1.860171
vt 1.644278 2.097662
vt 1.993991 2.042483
vt 1.763589 1.261333
vt -1.677639 0.9287347
vt -1.633183 -0.1465426
vt -2.574173 -0.1374508
vt -2.574173 0.3621927
vt -2.61333 0.7458726
vt -2.185583 1.998294
vt -1.784614 1.107836
vt -2.525307 0.9643714
vt -2.603469 1.347022
vt -2.534177 1.991316
vt -1.886004 1.538557
vt -2.766391 1.514926
vt -3.10548 1.890386
vt -3.068364 2.429834
vt -2.290501 2.808999
vt -1.886032 2.768391
vt -1.614365 1.960955
vt -1.272596 1.90674
vt -1.767097 1.246336
vt -1.981024 1.884713
vt -1.759372 -0.0392881
vt -2.702245 0.009331966
vt -2.71196 0.4665664
vt -1.895972 0.9513463
vt -2.745014 0.469109
vt -2.761813 0.8572119
vt -2.600779 1.272776
vt -1.874683 0.9849399
vt -2.472803 1.423778
vt -2.461475 1.793314
vt -2.20166 1.809803
vt -1.888461 1.151502
vt -1.919109 0.6513113
vt -2.329244 0.5305421
vt -2.685957 0.6306425
vt -2.806908 1.048362
vt -2.771218 1.403112
vt -1.94001 1.412297
vt -1.205075 2.258857
vt -1.092665 1.62273
vt -1.149057 1.310026
vt -2.020557 1.31147
vt -2.02056 2.543676
vt -1.583232 2.577755
vt 1.794916 0.1563612
vt 0.8967775 0.1454555
vt 0.552601 0.5303532
vt 0.600269 1.021501
vt 1.976154 1.173626
vt 1.38138 2.029719
vt 1.939346 1.320019
vt 0.5205532 1.176767
vt 0.49392 1.557027
vt 0.9104823 2.018379
vt -1.35895 0.389336
vt -1.876067 0.5337827
vt -1.908093 1.28282
vt -1.057496 1.280685
vt -0.9832779 0.8687876
vt -1.044756 0.4536283
vt -1.065503 1.900156
vt -0.6138154 1.878999
vt -0.6138154 1.583535
vt -0.7246811 1.013363
vt -1.634488 1.138082
vt -1.542287 0.0425774
vt -1.680415 0.9581293
vt -0.7269319 0.8146884
vt -0.6475477 0.4154707
vt -0.7114859 0.03456061
vt 2.151416 1.956371
vt 2.175998 1.55359
vt 1.416387 1.250625
vt 1.801434 1.960846
vt 2.181562 1.35526
vt 2.25702 0.997438
vt 2.190758 0.6554167
vt 1.457801 1.104227
vt 2.198826 0.4472097
vt 2.162916 0.08673143
vt 1.347701 0.07693198
vt 1.361752 0.9714698
vt 1.131898 0.1399395
vt 0.04718001 0.1274885
vt 0.03591285 0.4995046
vt 1.173618 0.9838918
vt 0.02778127 0.6975621
vt -0.01775583 1.077419
vt 0.2613603 1.406864
vt 1.084415 1.121147
vt 0.2500999 1.640987
vt 0.2500999 1.946447
vt 0.7924565 1.964136
vt 1.228347 1.210864
vt 1.246608 2.030523
vt 1.607743 1.972358
vt 1.707393 2.277579
vt 2.53924 2.203793
vt 2.734302 1.328397
vt 2.643412 0.3496045
vt 1.715209 -0.01581566
vt 0.8170546 0.0901515
vt 0.6386359 1.394928
vt 0.7144024 2.119732
vt -2.04244 -0.4747445
vt -1.689262 -0.4622437
vt -2.11397 -0.4046184
vt -1.623654 -0.3996964
vt -1.150234 1.840633
vt -1.08861 1.416918
vt -1.174418 1.0081
vt -2.05056 1.156271
vt -2.058127 1.175919
vt -1.517726 1.854459
vt -1.148656 0.8062456
vt -1.115458 0.4155898
vt -1.146898 -0.04705436
vt -2.033162 -0.04335137
vt -2.156344 1.008718
vt -2.152469 1.012258
vt -1.503518 0.606982
vt -1.517874 0.6111015
vt -1.51729 0.611913
vt -2.513109 1.394479
vt -2.503784 1.838868
vt -2.514821 1.394991
vt -2.532385 1.819916
vt -1.980397 0.5131906
vt -1.989475 0.5347864
vt -2.101518 0.4767636
vt -2.11482 0.4823568
vt -1.475449 0.7753819
vt -2.358358 0.9252563
vt -1.427471 0.6394889
vt -2.439589 0.8438817
vt -1.754572 0.8077605
vt -1.893526 0.8709788
vt -1.78641 0.8720132
vt -1.753978 0.8085654
vt -1.392025 1.059347
vt -1.377652 1.055287
vt -1.369716 1.01847
vt -1.3914 0.9947625
vt -2.017839 0.8060185
vt -2.115144 0.8170187
vt -2.125073 0.8904039
vt -2.070287 0.8919628
vt -2.060138 0.8186077
vt -2.119387 0.81927
vt -2.120325 0.7318928
vt -2.061076 0.7312272
vt -2.088999 0.6678921
vt -2.148812 0.7035893
vt -2.120648 0.7668181
vt -2.023347 0.7557863
vt -2.282466 1.378708
vt -1.277367 1.168247
vt -2.265584 1.436999
vt -1.25365 1.231466
vt -1.739717 1.489813
vt -1.734129 1.494442
vt -1.770474 1.538956
vt -1.748866 1.562666
vt -1.596363 2.03069
vt -1.562467 0.8597832
vt -1.531174 2.025431
vt -1.490672 0.9007785
vt -1.894162 -0.01037341
vt -1.897556 0.467962
vt -1.92032 0.006231502
vt -1.895641 0.4692473
vt -2.220296 0.9108651
vt -2.098906 0.9463832
vt -2.179882 0.863969
vt -2.213034 0.8739084
vt -1.950733 1.640392
vt -1.845382 1.845477
vt -1.075652 1.996372
vt -0.9616904 1.859167
vt -0.9745038 1.823852
vt -1.63994 1.061184
vt -1.639482 0.9965985
vt -1.663248 0.9877655
vt -1.779076 1.124
vt -2.038325 1.335341
vt -2.020789 1.393439
vt -2.053936 1.403394
vt -2.185672 1.003417
vt -2.162419 1.06804
vt -2.141599 1.067958
vt -1.646077 1.552014
vt -1.683571 1.575678
vt -1.676575 1.601318
vt -1.890649 1.628134
vt -1.897296 1.602402
vt -1.914352 1.619134
vt -1.712232 1.823297
vt -1.695442 1.806297
vt -1.72314 1.787283
vt -1.629321 1.681128
vt -1.601482 1.699934
vt -1.564116 1.676069
vt -0.6947439 0.8809671
vt -0.6222107 0.463391
vt -0.6365054 0.9643225
vt -0.6289923 0.4593837
vt -1.797212 1.061461
vt -1.652057 -0.02246857
vt -1.639616 1.012994
vt -1.50244 0.05838865
vt -0.3518686 0.3645519
vt -0.3789901 -0.03929701
vt -0.3449627 0.3675375
vt -0.3336627 -0.07262908
vt -1.833304 0.8621755
vt -1.486796 0.8392479
vt -1.83395 0.8850675
vt -1.322334 0.8763056
vt -1.750349 1.088144
vt -2.008502 1.724052
vt -1.895996 1.045197
vt -2.202844 1.715976
vt -1.997883 1.7148
vt -1.632634 1.798574
vt -2.064292 1.765748
vt -1.632592 1.796012
vt -2.337407 1.350897
vt -2.340558 1.721076
vt -2.525218 1.317209
vt -2.511785 1.76456
vt -2.465942 1.326487
vt -2.202587 1.345141
vt -2.532019 1.403179
vt -2.187942 1.374249
vt -2.339083 1.279686
vt -2.275987 1.158301
vt -2.420033 0.7282935
vt -2.440519 0.7288459
vt -2.474362 0.8675475
vt -2.340778 1.280162
vt -0.73557 0.0987731
vt -0.7353456 0.09824912
vt -0.7614004 0.0684111
vt -1.13865 0.09676886
vt -1.185682 0.1439725
vt -1.66284 0.9216279
vt -1.760759 1.073079
vt -1.621839 1.098756
vt -1.621477 1.093762
vt -1.760387 1.068029
vt -1.75797 1.196703
vt -1.75972 1.200919
vt -1.76244 1.072251
vt -1.905954 1.16001
vt -2.468683 1.230918
vt -2.342518 1.387316
vt -2.530356 1.353776
vt 1.178089 -0.1980385
vt 0.08964133 -0.1919612
vt 1.3771 -0.2995743
vt -0.01692379 -0.3238991
vt -0.09970203 -0.01773392
vt -0.1048509 0.366707
vt -0.2688973 -0.05698852
vt -0.2883892 0.3860631
vt 1.379741 -0.2931694
vt 1.37427 0.7829521
vt 1.180575 -0.1919382
vt 1.199981 0.7865338
vt -0.07360224 0.4125023
vt 1.093777 0.9403412
vt -0.0807852 0.6099474
vt 1.009688 1.067299
vt -0.1714192 0.658498
vt -0.222953 1.039674
vt -0.3481491 0.4806407
vt -0.3398865 0.9784265
vt 9.608973E-05 1.611239
vt -0.3379487 1.102364
vt 0.03512116 1.402427
vt -0.2249754 1.061775
vt 0.07890344 1.407681
vt 0.9515598 1.149262
vt 0.04528533 1.616724
vt 1.08082 1.237693
vt -1.570399 2.211319
vt -1.525903 1.68605
vt -1.470766 2.110589
vt -1.485155 1.764972
vt 2.159258 1.569508
vt 1.40068 1.264791
vt 2.166559 1.382965
vt 1.444367 1.123897
vt 1.886302 0.4346496
vt 1.87725 0.9371878
vt 1.813973 0.5884038
vt 1.864597 0.936007
vt -0.724765 1.01116
vt -0.676362 0.9105273
vt -0.7277396 0.8229908
vt -1.681142 0.9695159
vt -1.634785 1.144975
vt 0.01840137 -0.3878989
vt -0.09939061 -0.5231442
vt -0.1469631 -0.4410266
vt -0.1141183 0.4112769
vt -0.2976687 0.4310113
vt -0.1208088 0.6087394
vt 1.155727 0.93826
vt 1.261846 1.052743
vt 1.331365 0.9254935
vt 1.280642 0.8836688
vt 1.212143 1.011471
vt 1.380469 1.00911
vt 1.383068 1.167745
vt 1.214743 1.170159
vt 1.334401 1.307337
vt 1.436612 1.207541
vt 1.312785 1.074114
vt 1.251001 1.172498
vt 1.207658 1.131701
vt 1.268744 1.032882
vt 1.076549 1.044911
vt 1.077218 1.058058
vt 1.269414 1.046055
vt 1.16342 0.9314566
vt -0.42755 1.098184
vt -0.5397048 1.027095
vt -0.5578479 1.137386
vt 2.291195 1.234114
vt 2.191121 1.306247
vt 2.175603 1.120208
vt -1.94025 1.645257
vt -1.919067 0.8751832
vt -1.767802 1.644816
vt -1.74837 0.8796437
vt -1.727333 1.016919
vt -2.14421 0.899141
vt -1.641936 0.8577312
vt -2.073784 0.8196711
vt -1.633666 1.73612
vt -1.983879 1.869273
vt -1.691214 1.638693
vt -2.016688 1.750478
vt -1.692208 1.005071
vt -1.782504 1.420368
vt -1.825742 0.8996896
vt -1.850773 1.348725
vt -1.655518 2.600785
vt -1.734847 2.162785
vt -1.530197 2.520186
vt -1.635481 2.153384
vt -1.717542 1.636279
vt -2.601056 1.618069
vt -1.717399 1.465402
vt -2.555204 1.468621
vt -2.154649 2.613501
vt -2.154632 1.379179
vt -1.98514 2.613508
vt -1.983043 1.380949
vt -1.503992 1.093099
vt -1.934712 1.078018
vt -1.529527 1.058366
vt -1.934589 1.07883
vt -1.32512 2.822241
vt -1.032723 2.396028
vt -1.220603 2.886269
vt -0.936992 2.463329
vt -1.827687 1.652478
vt -1.792986 2.193139
vt -1.936222 1.695272
vt -1.918308 2.185301
vt 0.9104658 0.8274548
vt 1.79494 0.8218373
vt 0.9152904 0.8399416
vt 1.780251 0.855149
vt -1.270309 2.239724
vt -1.160645 1.605189
vt -1.160459 2.208708
vt -1.113661 1.682649
vt 1.595497 2.054555
vt 1.278064 2.075585
vt 1.564385 1.966094
vt 1.201844 1.997909
vt -1.14503 1.388741
vt -2.016677 1.39012
vt -1.160465 1.216408
vt -2.011885 1.218229
vt 1.786044 0.8976359
vt 2.18407 1.140404
vt 1.767766 0.9336042
vt 2.156797 1.148574
vt -0.8506051 1.247612
vt -1.363525 1.412091
vt -0.940035 1.210737
vt -1.45359 1.259842
vt 0.6928894 2.054101
vt 0.2734395 2.054101
vt 0.7385923 1.973684
vt 0.1992265 1.935002
vt -1.038863 1.444163
vt -1.357003 1.362364
vt -0.9502197 1.331867
vt -1.397591 1.27175
vt -1.307395 1.186917
vt -1.23299 0.774586
vt -1.210214 1.27241
vt -1.165173 0.81424
vt -2.191031 1.71735
vt -2.174074 1.746335
vt -2.061484 1.768057
vt -1.995376 1.71672
vt -2.623635 1.335267
vt -2.623201 1.336168
vt -2.525871 1.351252
vt -2.456439 1.277585
vt -1.702014 0.7673781
vt -1.596075 0.7719234
vt -1.553436 0.7209149
vt -2.103473 -0.02208006
vt -2.210244 0.06011052
vt -2.470753 1.482513
vt -2.365303 1.449878
vt -2.010594 0.5948425
vt -2.05945 0.5222458
vt -2.166081 0.5237124
vt -2.546 1.432783
vt 0.2665209 2.043438
vt 0.2672533 2.043852
vt 0.3517179 1.990883
vt 0.300854 1.344541
vt 0.2811007 1.339565
vt 2.164116 0.6617526
vt 2.071684 0.7433597
vt 2.211197 1.217806
vt 2.340554 1.27557
vt 2.388069 1.230121
vt 1.419116 1.202382
vt 1.233943 1.165577
vt 1.619635 1.975083
vt 1.733024 2.011388
vt 1.813219 1.966856
vt -1.276811 1.849675
vt -1.103028 1.892704
vt -1.069901 1.843369
vt -1.634877 1.06946
vt -1.767624 1.177129
vt -1.940901 1.423045
vt -1.855895 1.50872
vt -1.768453 1.422614
vt -1.786584 1.403846
vt -1.874111 1.489866
vt -1.789237 1.57656
vt -1.807533 1.591121
vt -1.89232 1.504343
vt -1.979897 1.58934
vt -1.961746 1.60837
vt -1.87426 1.52328
vt -1.959174 1.437513
vt -1.733528 1.012514
vt -1.561988 1.012962
vt -1.647987 0.8534037
vt -1.94459 1.667646
vt -1.879539 1.578545
vt -1.993471 1.565594
vt -2.132853 1.353784
vt -2.162659 1.230087
vt -2.260505 1.241349
vt -1.362935 0.3661416
vt -1.313038 0.2675638
vt -1.419073 0.2574065
vt -2.077191 2.014745
vt -1.947429 1.941508
vt -1.983662 2.09435
vt -1.357081 2.853533
vt -1.252787 2.917923
vt -1.359905 2.964151
vt -1.502777 1.289871
vt -1.394373 1.254127
vt -1.37645 1.317393
vt 1.62239 2.027176
vt 1.70195 1.978505
vt 1.589489 1.939365
vt -1.331395 1.403778
vt -1.249455 1.316924
vt -1.346634 1.231428
vt -0.9398298 1.947539
vt -1.032088 1.918455
vt -1.003089 1.866577
vt 0.8540036 2.09956
vt 0.8613285 1.559978
vt 1.001592 2.22189
vt 1.016428 1.517926
vt 0.9708483 1.600334
vt 1.776561 1.59378
vt 0.9403501 1.752458
vt 1.826217 1.738243
vt 2.00683 1.573272
vt 0.9513258 1.300938
vt 2.092438 1.42859
vt 0.9147872 1.153101
vt 1.400389 1.35442
vt 1.657033 2.173531
vt 1.269697 1.398536
vt 1.496623 2.180695
vt 1.599479 0.8130862
vt 0.6981792 0.7990984
vt 1.752718 0.7322217
vt 0.6688879 0.7112566
vt 2.085048 0.6386328
vt 1.84102 1.09409
vt 2.005781 0.5640706
vt 1.745737 1.10871
vt 1.718767 0.6827791
vt 1.865018 1.862973
vt 1.565128 0.7628832
vt 1.713961 1.822345
vt 1.144459 0.4657075
vt 1.197465 0.9559864
vt 1.057679 0.5192409
vt 1.042984 1.023573
vt 0.8785129 0.9066984
vt 2.267884 1.051406
vt 0.7988601 1.062537
vt 2.234742 1.194182
vt 1.370722 0.2730914
vt 1.718739 0.2080715
vt 1.417024 0.3728952
vt 1.84363 0.3436458
vt 2.079354 1.486869
vt 1.61992 2.088354
vt 1.974888 1.39994
vt 1.425635 2.109743
vt 1.644368 1.359297
vt 1.984956 1.601043
vt 1.490623 1.451703
vt 1.909231 1.669303
vt 1.815405 -0.5799024
vt 1.814647 -0.5805542
vt 1.72167 -0.5577104
vt 1.705959 -0.5182538
vt 0.2361721 1.559926
vt 0.3049614 1.663209
vt 0.330226 1.670388
vt 0.3950596 1.285764
vt 0.2698789 1.091998
vt 2.152084 0.4360287
vt 2.201044 0.2735758
vt 2.156164 0.2404038
vt 1.326663 0.7917777
vt 1.424846 0.9178777
vt 1.980894 0.964726
vt 1.913707 0.8741038
vt 1.892918 0.8716038
vt 1.833373 1.239931
vt 1.954394 1.346306
vt -1.985118 1.969674
vt -2.154626 1.969666
vt -2.124964 2.000948
vt -2.0127 1.999887
vt 2.496985 1.079448
vt 2.519248 1.047357
vt 2.482479 0.9796501
vt 1.927691 0.9650731
vt 2.000489 1.062478
vt 1.977383 0.8052819
vt 2.117921 0.9356518
vt 2.023933 0.9539005
vt 1.709643 1.397329
vt 1.869737 1.354479
vt 1.795246 1.252644
vt 1.576794 1.761782
vt 1.543176 1.913246
vt 1.416342 1.76881
vt 1.781725 1.174538
vt 1.703574 1.255869
vt 1.821652 1.322081
vt 1.55776 1.774647
vt 1.440446 1.707092
vt 1.427369 1.819642
vt 1.808584 1.806862
vt 1.818437 1.693984
vt 1.705554 1.718236
vt 1.682072 1.624898
vt 1.794997 1.600841
vt 1.721892 1.480161
vt 1.896871 1.36301
vt 1.971244 1.482913
vt 2.04867 1.400892
vt -0.00828382 2.346944
vt -0.07054168 2.270931
vt -0.1050843 2.314908
vt 1.106177 1.016854
vt 0.9513552 1.084237
vt 1.02712 1.172996
vt 2.094229 0.2599057
vt 2.124419 0.3657037
vt 2.016385 0.3351623
vt 1.883924 1.808714
vt 1.68843 1.832247
vt 1.729226 1.899515
vt 2.613529 2.780995
vt 1.379208 2.780995
vt 2.485281 3.010533
vt 1.512793 3.010532
vt 2.387541 0.3151038
vt 1.978868 0.3151038
vt 2.416439 0.5512689
vt 2.094462 0.551268
vt -1.68346 2.609913
vt -2.567162 2.609913
vt -1.81059 2.843088
vt -2.50683 2.843088
vt -2.746763 1.198668
vt -3.257355 1.198668
vt -2.810584 1.430911
vt -3.212866 1.430913
vt -1.532021 0.1441505
vt -2.073795 0.1441505
vt -1.597764 0.3712961
vt -2.024611 0.3712954
vt 1.623989 0.3162737
vt 0.7580416 0.3162737
vt 1.539205 0.5326657
vt 0.8569514 0.5326666
vt -1.83465 0.8446552
vt -1.488137 0.8218169
vt -1.830736 0.6940818
vt -1.536292 0.6746762
vt 0.05410753 0.793433
vt -0.3052404 0.04236595
vt -0.09166656 0.7412864
vt -0.3970203 0.1030735
vt -0.5260735 1.61125
vt -0.8543277 2.21397
vt -0.4284853 1.662098
vt -0.707419 2.174253
vt -1.660381 0.9425185
vt -1.287323 0.9779039
vt -1.61413 0.7975343
vt -1.297125 0.827599
vt -2.351852 2.014775
vt -2.107474 1.01738
vt -2.519473 1.910653
vt -2.324776 1.116031
vt -2.661234 0.7904701
vt -2.637082 0.3990276
vt -2.890604 0.7245769
vt -2.871359 0.412712
vt 0.4444014 -0.919183
vt 0.4492359 -0.9137718
vt 0.5955293 -1.04612
vt 0.5993859 -1.041807
vt 1.791854 0.4311056
vt 2.117222 1.508476
vt 2.022511 0.5410891
vt 2.281732 1.399438
vt -2.630779 0.5069221
vt -2.643195 0.04314845
vt -2.865056 0.5206105
vt -2.874949 0.1511187
vt 2.456803 0.3387762
vt 2.466905 1.26741
vt 2.69535 0.4307706
vt 2.703397 1.170609
vt 0.9536138 0.96489
vt 1.309215 0.4768691
vt 0.7427382 0.9697276
vt 1.041761 0.5593502
vt 0.6121925 2.211599
vt 0.6121925 1.394006
vt 0.3400091 2.1464
vt 0.3400091 1.458885
vt -0.2126741 -0.2397812
vt 0.1739575 0.7645014
vt 0.05548754 -0.1598912
vt 0.3806038 0.6846106
vt -0.3901605 0.7038786
vt -0.3184433 1.697388
vt -0.1831867 0.7829167
vt -0.1228777 1.618356
vt 1.707495 1.394632
vt 2.625088 1.394632
vt 1.705305 1.128217
vt 2.488022 1.117835
vt -1.910945 1.692285
vt -0.9384366 1.692285
vt -1.758583 1.423605
vt -0.9293895 1.436555
vt -0.04972795 -0.4582816
vt 1.345728 -0.4582816
vt 0.1030549 -0.7226102
vt 1.296367 -0.7110409
vt -2.661482 0.2947521
vt -1.616913 0.2928672
vt -2.572289 0.06354146
vt -1.659464 0.06849246
vt 1.394006 -0.4063488
vt 2.211599 -0.4063488
vt 1.355235 -0.6609474
vt 2.050364 -0.6741377
vt 0.7911749 1.306301
vt 1.876715 1.306301
vt 0.9356627 1.029117
vt 1.8619 1.04029
vt 1.660598 1.123263
vt 2.310891 1.026
vt 1.669747 1.235202
vt 2.447458 1.169026
vt 2.039944 1.852347
vt 2.193761 1.15894
vt 2.186995 1.997341
vt 2.30312 1.177164
vt 1.733985 0.2740369
vt 1.032178 0.3874196
vt 1.732484 0.1411163
vt 0.8876979 0.2403236
vt 1.054572 0.2991059
vt 0.9106172 1.336562
vt 0.8994312 0.1584871
vt 0.8114427 1.347777
vt 1.582404 1.429469
vt 1.52346 0.6527831
vt 1.699175 1.443942
vt 1.673091 0.5466759
vt 2.343132 0.7790356
vt 1.621945 0.4535167
vt 2.490674 0.6593474
vt 1.641805 0.3246387
vt 1.437633 -0.7020673
vt 2.008063 -0.7020673
vt 1.442213 -0.5929077
vt 2.132753 -0.5462544
vt 0.9417568 1.661405
vt 1.724203 1.812569
vt 0.7996665 1.816302
vt 1.719565 1.916913
vt -1.819984 1.023825
vt -1.690579 0.006252984
vt -1.756684 1.070878
vt -1.614402 -0.01343256
vt -2.614491 0.4523619
vt -1.744197 1.004797
vt -2.648676 0.5080712
vt -1.752751 1.075133
vt -1.651616 0.1979037
vt -2.636559 0.1982359
vt -1.615971 0.1261442
vt -2.660537 0.1285121
vt -2.376038 0.005361499
vt -2.38582 0.4696055
vt -2.442827 -0.0122962
vt -2.44983 0.4678688
vt -2.503509 1.244425
vt -2.376703 1.400211
vt -1.768922 1.150797
vt -1.723072 1.012103
vt -1.747191 0.988192
vt -1.761795 1.073301
vt -1.829828 1.009149
vt -1.867418 1.019797
vt -1.905375 1.160952
vt -1.761882 1.073678
vt -1.664151 0.9221054
vt -1.821328 0.9719111
vt -1.82992 1.009533
vt -0.6778662 0.02489015
vt -0.7243142 -0.05669379
vt -1.682766 -0.04358788
vt -1.688092 -0.02406273
vt -1.541861 0.06082221
vt -0.7119406 0.07770088
vt -0.7233728 -0.06740362
vt -0.8546467 -0.3430472
vt -1.705966 -0.3334737
vt -1.718161 -0.1054257
vt -1.682118 -0.06740362
vt -2.251487 0.4807243
vt -2.281364 0.4229831
vt -2.282191 0.4224654
vt -2.311769 0.8134533
vt -2.268286 0.8775244
vt -1.391888 1.590935
vt -1.318723 1.630434
vt -0.3900739 1.637055
vt -0.3688812 1.614579
vt -0.3809127 1.587101
vt -0.3981874 1.550368
vt -0.3755579 1.515565
vt -0.4760928 1.289056
vt -1.375066 1.296763
vt -1.409183 1.550368
vt -1.784396 0.974799
vt -1.75971 1.033858
vt -1.721114 1.021876
vt -1.747731 0.9297165
vt -1.786265 0.9419002
vt -1.757788 0.9669733
vt -1.814966 1.076746
vt -1.84381 1.052097
vt -1.852635 1.087111
vt -1.811667 1.093583
vt -1.802754 1.058591
vt -1.83607 1.069934
vt -1.836489 1.068687
vt -1.803174 1.057343
vt -1.828 0.9983428
vt -1.566768 0.2056479
vt -1.595345 0.193178
vt -1.642549 0.2268189
vt -1.662355 0.1830966
vt -1.614769 0.1499986
vt -1.626277 0.1115538
vt -1.650094 0.09273718
vt -1.639181 0.131355
vt -1.608356 0.124402
vt -1.59186 0.2067447
vt -1.622594 0.2140906
vt -1.594263 0.2271109
vt -2.589988 0.467973
vt -2.624159 0.5236909
vt -2.655183 0.466083
vt -2.283539 0.1868323
vt -2.292693 0.2231972
vt -2.25347 0.2541878
vt -2.504314 0.3948736
vt -2.541696 0.3616853
vt -2.570673 0.3756635
vt 2.275536 1.015746
vt 2.244959 1.005742
vt 2.248986 1.029969
vt -1.63065 0.5073797
vt -1.607365 0.5151865
vt -1.601111 0.4782127

vn 0.7836783 0.4200206 -0.4306688
vn 0.8432859 0.4516306 -0.2913738
vn 0.7240707 0.3884106 -0.5699638
vn 0.380147 -0.02238243 0.9246553
vn 0.3556551 -0.05984175 0.9315993
vn 0.3311633 -0.09730107 0.9385433
vn 0.306734 -0.03625079 0.9511047
vn 0.287185 -0.1356939 0.9427465
vn 0.267636 -0.235137 0.9343883
vn 0.09132586 -0.1675999 0.9621362
vn 0 0 1
vn 0.1826517 -0.3351997 0.9242724
vn 0.8240267 -0.4946035 0.1520017
vn 0.9436606 -0.1646043 0.2165456
vn 0.9904866 0 0.1376096
vn 0.8795133 -0.3297357 0.1472043
vn 0.7512187 -0.6599984 0.008521831
vn 0.9954711 0.03450385 0.07215022
vn 0.9912988 0.03115958 0.1237394
vn 0.9912085 -3.114534E-07 0.1323094
vn 0.9940503 0.02300246 0.09220327
vn 0.9995532 0.006688228 0.02913092
vn 0 1 0
vn 4.099648E-06 0.4200222 -0.9075139
vn 0.3307198 -0.02609061 -0.9431143
vn 0.3221553 -0.006258377 -0.9466662
vn 0.3392842 -0.04592285 -0.9395623
vn 0.3710828 0.006682498 -0.9285758
vn 0.3776311 0.04911173 -0.9236424
vn 0.3841794 0.09154096 -0.9187091
vn 0.1898846 0.2064019 -0.9522164
vn 0.09549679 0.1386245 -0.98573
vn 0.2842724 0.2741794 -0.9187028
vn 0.006992299 0.9708654 -0.2395236
vn 0.0490918 0.9787306 -0.1905219
vn 0.03831073 0.9897911 -0.1372803
vn 0.0522242 0.9623145 -0.2399323
vn 0.0163895 0.921617 -0.3877546
vn 0.04178472 0.956006 -0.2740134
vn -0.1004836 0.9947739 0.01811086
vn -0.1850869 0.9796669 0.03542767
vn -0.2391221 0.9709446 0.009339894
vn -0.2830619 0.9543551 0.03383632
vn -0.3944087 0.9188383 0.0133368
vn -0.2368491 0.9622982 0.03675998
vn -0.06530698 -0.1632595 0.9735398
vn -0.02482361 -0.02543514 0.9993683
vn -0.1190068 -0.1255647 0.9732731
vn -0.2264066 -0.05017518 0.9727397
vn -0.1660985 -0.1756295 0.9602256
vn -0.3973917 0.08677745 0.8600187
vn -0.2697689 -0.08568286 0.953371
vn -0.2550577 0.01713191 0.9667741
vn -0.3499471 0.06356227 0.8956038
vn -0.5103034 0.3620525 0.7800695
vn -0.06271363 0.9845915 -0.1148554
vn -0.003069073 0.975818 -0.2185632
vn -0.1303306 0.9764394 -0.1162606
vn -0.2203971 0.9753864 -0.006815164
vn -0.1351563 0.9844477 -0.04427269
vn -0.01754623 0.9998427 -0.002599438
vn -0.1510743 0.1189 -0.9698412
vn -0.06434854 0 -0.9979275
vn -0.1330886 0.2547473 -0.9281095
vn -0.09711719 0.5264419 -0.8446462
vn -0.1674586 0.382121 -0.8932005
vn 0 0 -1
vn -0.7678772 0.6391798 -0.04258998
vn -0.7913824 0.5944405 -0.1132011
vn -0.8148876 0.5497012 -0.1838121
vn -1 0 0
vn -0.8409716 -0.501223 -0.1021191
vn -0.7766899 -0.6298832 0
vn -0.9052534 -0.3725629 -0.2042382
vn -0.9620233 -0.226099 -0.06871563
vn -0.9945865 -0.1009766 -0.02452504
vn -0.92946 -0.3512213 -0.1129062
vn -0.9429687 0.06652778 -0.3261657
vn -0.9318981 0.1381857 -0.3274317
vn -0.9208276 0.2098437 -0.3286978
vn -0.9543985 0.1610548 -0.1616895
vn -0.99784 0 -0.06569128
vn -0.910957 0.3221096 -0.2576877
vn -0.887723 0.4603781 -3.429255E-08
vn 0 -1 0
vn 0.7579356 0.6511356 0.03944753
vn 0.7468817 0.6637322 0.03658355
vn 0.7358278 0.6763287 0.03371958
vn 0.9959371 0.042799 -0.07923117
vn 0.9011023 0.2266731 -0.3178723
vn 0.8788833 0.2217509 -0.4223632
vn 0.8745129 0.2579723 -0.4088568
vn 0.8647944 0.3210713 -0.3849475
vn 0.9276917 0.1953739 -0.2268879
vn 0.9268127 -1.572009E-06 -0.3755239
vn 0.9491479 -0.1455557 -0.1966967
vn 0.9999054 -0.003272213 -0.01336085
vn 0.9640359 -0.1669174 -0.09217271
vn 0.9349368 -0.2894745 -0.198951
vn 0.93426 -0.1241939 -0.3012206
vn 0.9823765 0.1731591 -0.0703736
vn 0.4141502 0.1249416 -0.9015926
vn 0.5732932 0.1266852 -0.7851027
vn 0.7324362 0.1284289 -0.6686129
vn 0.9334964 0.2394894 -0.2668884
vn 0.9147153 0.3278578 -0.2109965
vn 0.8959343 0.4162262 -0.1551046
vn 0.9042636 0.1094055 -0.4127202
vn 0.9126363 0.06320741 -0.4009451
vn 0.9210089 0.01700932 -0.38917
vn 0.9819539 0.1168913 -0.1486706
vn 0.9990226 0.03170896 -0.03079524
vn 0.9480035 0.1475761 -0.2819765
vn 0.9539909 0.1448237 -0.2625407
vn 0.9491785 0.1750446 -0.2615712
vn 0.944702 0.1654563 -0.2831296
vn 0.9285198 -0.1342102 -0.346177
vn 0.9233521 -0.04529021 -0.3699602
vn 0.9181844 0.04362974 -0.3937435
vn 0.9757212 -0.1563904 -0.1533303
vn 0.9743354 -0.1388655 -0.1749577
vn 0.9729495 -0.1213406 -0.1965851
vn 0.9356164 -0.343708 -0.08054077
vn 0.9375473 -0.3400519 -0.007795878
vn 0.9394783 -0.3363959 0.06494901
vn 0.8116215 -0.04083209 -0.5827549
vn 0.6034247 -0.05221868 -0.7495666
vn 0.3952279 -0.06360528 -0.9163783
vn 0.94412 0.09218633 -0.3164477
vn 0.9382526 -0.3311798 0.10001
vn 0.9604998 -0.2432567 0.1002042
vn 0.979009 -0.1653275 0.1174837
vn 0.975271 -0.1753214 0.1345692
vn 0.9654236 -0.2206116 0.1116592
vn 0.9932455 0.03238565 -0.1114203
vn 0.9599002 -0.1070267 -0.2591078
vn 0.7080168 -0.094706 -0.6998164
vn 0.9768878 -0.1756119 -0.1218635
vn 0.9618586 -0.1944299 -0.1924187
vn 0.9575815 -0.2604333 -0.1233374
vn 0.9715991 -0.2170311 -0.09430109
vn -0.4220772 0.08119809 -0.9029162
vn -0.6412308 0.08210506 -0.702878
vn -0.8603843 0.08301204 -0.5028398
vn 0.1674102 -0.02363139 -0.9856041
vn 0.1649501 -0.02366121 -0.986015
vn 0.1624899 -0.02369102 -0.9864258
vn -0.8991185 -0.1463798 -0.4125031
vn -0.8024019 -0.1277847 -0.5562822
vn -0.7056853 -0.1091896 -0.7000613
vn -0.1055221 0.9347453 -0.3392877
vn -0.03941522 0.7233536 -0.5989406
vn 0.02669168 0.5119619 -0.8585933
vn 0.1200964 0.3788489 -0.9176331
vn 0.06602786 0.3859624 -0.9185306
vn 0.01195936 0.3930759 -0.9194282
vn 0.02075045 0.5045315 -0.8631439
vn 0.03875657 0.7217818 -0.6011279
vn 0.05676268 0.9390321 -0.3391119
vn 0.4170915 0.1438562 -0.8974074
vn 0.3973626 0.133744 -0.9075359
vn 0.3776336 0.1236317 -0.9176645
vn 0.1007336 0.6759714 -0.7300106
vn 0.1178747 0.6243544 -0.7692771
vn 0.1350158 0.5727372 -0.8085436
vn 0.420265 0.1060459 -0.9011835
vn 0.5412114 0.1268881 -0.8153006
vn 0.6928667 0.2204129 -0.6865523
vn 0.6320791 0.1650102 -0.7437566
vn 0.4653845 0.0801253 -0.8796744
vn 0.7719628 0.6106939 -0.1130253
vn 0.728515 0.6699123 -0.1431203
vn 0.7172605 0.6865649 -0.1135146
vn 0.7936867 0.5810847 -0.09797771
vn 0.8813676 0.4589519 -0.1120466
vn 0.09060246 0.2280757 -0.9694187
vn 0.09208181 0.236936 -0.9671516
vn 0.08250409 0.2367495 -0.9680614
vn 0.4133319 0.1097677 -0.9039401
vn -0.9226446 -0.3848881 -0.02425224
vn -0.8133277 -0.5466404 -0.03736747
vn -0.7040108 -0.7083927 -0.0504827
vn -0.9404125 -0.1099778 -0.3217595
vn -0.9370177 -0.1055453 -0.3327259
vn -0.933623 -0.1011128 -0.3436923
vn -0.9255104 -0.3781607 -0.02061459
vn -0.9244258 -0.363219 -0.09115269
vn -0.9233413 -0.3482772 -0.1616908
vn -0.9616745 -0.03433358 -0.2720355
vn -0.9609801 -0.08832714 -0.256014
vn -0.9602856 -0.1423207 -0.2399925
vn -0.9051846 0.05296601 -0.4217055
vn -0.870706 0.06814971 -0.4818599
vn -0.8362273 0.08333341 -0.5420142
vn -0.9006509 0.09750482 -0.4234629
vn -0.7432003 0.2956944 -0.5330474
vn -0.5857497 0.4938841 -0.642632
vn -0.9253995 0.1081492 -0.3632348
vn -0.9269779 0.1522598 -0.3391151
vn -0.9285562 0.1963704 -0.3149953
vn -0.5025464 0.8640497 0.02941715
vn -0.7012098 0.6487482 -0.00954131
vn -0.8998731 0.4334468 -0.04849977
vn -0.9345191 0.3408565 -0.1024251
vn -0.9451811 0.309554 -0.09848772
vn -0.9558432 0.2782516 -0.09455037
vn -0.8553376 -0.05853632 0.5147536
vn -0.6217906 -0.1149054 0.7101272
vn -0.3882436 -0.1712745 0.9055009
vn -0.05517923 0.2715521 -0.9590893
vn -0.06827232 0.3104329 -0.9481404
vn -0.05674724 0.3106382 -0.9487625
vn -0.04863268 0.2521117 -0.9645637
vn -0.05204321 0.1933798 -0.9797427
vn -0.7271566 -0.6787272 -0.1028237
vn -0.9401784 -0.03679393 -0.3386898
vn -0.9875697 -0.0493721 -0.1492264
vn -0.962688 -0.1050936 -0.2493733
vn -0.9427379 0.2322579 -0.2393773
vn -0.9998993 -0.002264745 0.01400364
vn -0.9868095 -0.09377082 -0.1319619
vn -0.9891961 -0.06666482 -0.1305641
vn -0.5860952 0.491122 -0.6444312
vn -0.9133397 0.3337588 0.2332718
vn -0.1064559 0.965406 -0.2380304
vn -0.05868338 0.9705865 -0.2282853
vn -0.01091081 0.975767 -0.2185403
vn -0.007884788 0.9567695 -0.2907406
vn 0.00836177 0.8668437 -0.4599307
vn 0.02460833 0.7769179 -0.6291209
vn 0.1776222 0.7714404 -0.6110073
vn 0.1079337 0.8386509 -0.5164258
vn 0.03824519 0.9058613 -0.4218442
vn 0.3256032 0.9220422 -0.2093341
vn 0.5837811 0.7247053 -0.1616486
vn 0.841959 0.5273684 -0.1139632
vn 0.3324533 0.8047439 -0.4917948
vn 0.5724606 0.6874075 -0.3069605
vn 0.8124679 0.5700711 -0.1221262
vn -0.00249336 0.992541 -0.1218858
vn 0.006860644 0.9829923 -0.1751191
vn 0.01621465 0.9734436 -0.2283523
vn -0.2205497 0.9753758 3.024659E-06
vn -0.1737858 0.9835951 0.006515187
vn -0.1270219 0.9918144 0.01302735
vn -0.02837445 0.8960371 0.4430715
vn -0.06057372 0.6881472 0.6576396
vn -0.09277299 0.4802572 0.8722076
vn 0.5170197 0.7737792 -0.3660006
vn 0.3942526 0.8524251 -0.3048635
vn 0.2714854 0.931071 -0.2437263
vn 0.3954111 0.9180883 0.02764246
vn 0.3824853 0.9235446 0.02360173
vn 0.3695596 0.9290011 0.01956099
vn 0.390107 0.3574906 0.8485382
vn 0.356381 0.5124819 0.7598183
vn 0.3226551 0.6674733 0.6710985
vn -0.2793031 0.9588825 0.05034077
vn -0.4708396 0.8533386 0.04786744
vn -0.6623762 0.7477948 0.0453941
vn -0.7712438 0.6285303 -0.100661
vn -0.6131785 0.7566797 -0.0004570074
vn -0.4551131 0.8848291 0.09974699
vn -0.2391068 0.970979 -0.005265012
vn -0.2290938 0.9707463 -0.05289932
vn -0.2190807 0.9705136 -0.1005336
vn -0.1623849 0.4230138 0.8914541
vn -0.2478344 0.6353701 0.6520532
vn -0.333284 0.8477263 0.4126523
vn 0.07524583 0.8765406 -0.4754099
vn 0.0315112 0.9167618 -0.3826485
vn -0.01222343 0.9569829 -0.289887
vn -0.8432004 0.5228848 -0.1249184
vn -0.7830702 0.6050678 -0.09797055
vn -0.72294 0.6872508 -0.07102271
vn -0.1377749 0.7534972 -0.6428531
vn -0.1094636 0.6552464 -0.7346971
vn -0.08115232 0.5569956 -0.8265411
vn -0.3224479 0.9465064 0.01236689
vn -0.5722124 0.7578829 -0.002446101
vn -0.8219769 0.5692593 -0.01725909
vn 0.01073273 0.5155636 -0.8567841
vn 0.156028 0.6414233 -0.7511534
vn 0.8428898 0.4520079 -0.2567592
vn 0.8375127 0.5177084 -0.1747868
vn 0.8495443 0.4983529 -0.1714297
vn 0.8455783 0.4191577 -0.2977454
vn 0.8295807 0.359318 -0.4274184
vn 0.9004089 0.2952296 -0.3195361
vn 0.924628 0.2588855 -0.2632681
vn 0.9644382 0.2210316 -0.1449279
vn 0.945971 0.234153 -0.2050653
vn 0.9047228 0.2778127 -0.3224381
vn 0.6991741 0.02900233 0.6749757
vn 0.8106589 -0.008489342 0.5854571
vn 0.8222051 0.02677168 0.5670509
vn 0.6434315 0.04774816 0.719735
vn 0.453112 0.03346362 0.8908252
vn -0.7133088 0.5913776 0.3751806
vn -0.7023152 0.5893897 0.3992155
vn -0.7169733 0.5920404 0.367169
vn -0.7243022 0.5933658 0.3511457
vn -0.8703204 0.48873 -0.05243425
vn -0.8648236 0.4953691 -0.08178993
vn -0.874145 0.4828288 -0.04293865
vn -0.881794 0.4710264 -0.02394746
vn -0.8788056 0.4765586 -0.02351302
vn -0.015095 0.4041599 -0.914373
vn -0.003048164 0.4092126 -0.912434
vn -0.02111842 0.4016336 -0.9153426
vn -0.03918866 0.3940543 -0.9182513
vn -0.1092434 0.9876981 -0.1118857
vn -0.1184594 0.9876413 -0.102626
vn -0.1275082 0.9855378 -0.1116107
vn -0.1182883 0.9855832 -0.1209694
vn -0.01089023 0.9572073 -0.2891982
vn 0.06742995 0.7527421 -0.654853
vn 0.150023 0.9041424 -0.4000245
vn 0.8168071 0.5523449 -0.1665576
vn 0.232843 0.9295182 -0.2859721
vn 0.5069161 0.7741808 -0.3790516
vn -0.3630706 0.7869217 0.4989328
vn -0.7798321 0.6213426 -0.07612623
vn -0.3452598 0.9383847 -0.01516199
vn -0.1690212 0.5042866 -0.8468334
vn 0.6098806 -0.01950111 0.7922534
vn 0.5059834 0.006173246 0.8536506
vn 0.4020862 0.0318476 0.9150478
vn 0.3782635 0.1273126 0.9169015
vn 0.3868251 0.2218737 0.8895941
vn 0.3953867 0.3164347 0.8622867
vn 0.3153189 -0.02682078 0.9486067
vn 0.3190984 -0.07220013 0.9438577
vn 0.3228779 -0.1175795 0.9391086
vn 0.172851 -0.04674051 0.9838383
vn 0.1827366 -0.05177737 0.9817326
vn 0.1926223 -0.05681423 0.9796269
vn -0.01864629 -0.3442875 0.9386791
vn -0.03237369 -0.569387 0.7721043
vn -0.04610108 -0.7944865 0.6055294
vn -0.5954172 -0.5393347 0.5954801
vn -0.6487291 -0.5598551 0.5040787
vn -0.7020411 -0.5803756 0.4126774
vn -0.00466556 -0.3189389 0.9477638
vn -0.01554291 -0.316089 0.9485352
vn -0.02642027 -0.3132392 0.9493067
vn -0.3742786 -0.0339082 0.9266962
vn -0.3507509 -0.04187756 0.9351639
vn -0.3272231 -0.04984692 0.9436315
vn -0.2308905 -0.008742034 0.9729404
vn -0.2286079 -0.1195413 0.9596826
vn -0.2263254 -0.2303406 0.9464248
vn 0.08346205 0.5289677 0.8445278
vn 0.01876709 0.4089319 0.900393
vn -0.04592787 0.2888961 0.9562582
vn -0.1212552 -0.09372581 0.9881865
vn -0.1840854 -0.1262548 0.9720631
vn -0.2469155 -0.1587838 0.9559395
vn -0.1291242 0.1867988 0.9738753
vn -0.1748757 0.3608997 0.8947054
vn -0.2206272 0.5350005 0.8155355
vn 0.3078207 0.6620705 0.6833075
vn 0.6040958 -0.05651497 0.7748854
vn 0.4659483 -0.02504328 0.8844575
vn 0.5195336 -0.08632623 0.8452629
vn 0.6731694 -0.07225082 0.7200994
vn 0.7732199 0.00310754 0.6341304
vn -0.9401547 -0.2904595 -0.1627007
vn -0.924406 -0.3358728 -0.1807292
vn -0.9480291 -0.2677529 -0.1536865
vn -0.9716522 -0.1996331 -0.1266439
vn -0.5890207 0.04730872 0.7680556
vn -0.4068546 0.005124179 0.9134786
vn -0.4707998 0.08855022 0.8704033
vn -0.6801037 0.06840099 0.6953441
vn -0.8254624 -0.03517426 0.5633601
vn -0.2105504 0.9312122 0.2975103
vn -0.5841407 0.2311215 0.7753592
vn -0.5342503 0.2223828 0.8155504
vn -0.504901 0.4113228 0.69468
vn -0.3464217 0.7717254 0.5333217
vn -0.4902264 0.5057929 0.6342447
vn 0.3032269 0.3462214 0.8877974
vn 0.4011044 0.02763856 0.9156153
vn 0.1983597 0.08735709 0.9762286
vn 0.02601359 -0.03881257 0.9989079
vn 0.1173312 -0.2020255 0.9723266
vn -0.01636027 -0.2153595 0.9763978
vn -0.007799769 -0.1756586 0.9844202
vn -0.07496238 -0.1350824 0.9879946
vn -0.599703 -0.7520612 0.2734231
vn -0.3323462 -0.06289568 0.941058
vn -0.1410106 0.5992521 0.7880438
vn -0.2286832 0.02188077 0.973255
vn -0.8244935 0.5658714 1.130726E-05
vn -0.08475903 0.5981833 0.7968642
vn -0.01659977 0.5841636 -0.8114662
vn 0.6063809 0.5796149 -0.5443792
vn 0.8311509 0.5530028 0.05810423
vn 0.8311542 0.5529982 0.05810179
vn 0.3789636 0.4848732 0.7882161
vn -0.10666 0.938323 -0.3288977
vn -0.806935 -0.5754758 -0.13298
vn 0.9291605 -0.2158905 -0.300087
vn 0.1547399 0.9333092 -0.3240208
vn 0.4180261 0.8356121 -0.3563799
vn 0.4163341 0.05813501 -0.9073513
vn 0.7363819 0.5349111 0.4142606
vn 0.7363774 0.5350759 0.4140555
vn 0.7363729 0.5352408 0.4138504
vn 0.4863045 -0.1803575 0.8549731
vn 0.4226093 -0.06283226 -0.9041314
vn 0.454479 -0.8907209 -0.008064668
vn -0.3119186 -0.2772454 0.9087583
vn -0.2911555 -0.9566758 0
vn -0.275916 -0.1265475 -0.9528148
vn -0.1575458 0.8354464 0.526506
vn 0 -0.6245338 0.7809978
vn 0.7969355 -0.5938309 0.1107193
vn -0.8134162 -0.5787504 -0.05832786
vn 0.2549409 -0.6068315 -0.7528351
vn -0.8096162 -0.5869597 0
vn -0.05937795 -0.6230578 0.7799187
vn 0.07432684 -0.7171572 0.6929366
vn 0.03433727 -0.8074737 0.566662
vn -0.005652282 -0.8977901 0.4403874
vn 0.3887981 -0.9165046 0.09410332
vn 0.5331371 -0.8231828 0.09268346
vn 0.6774761 -0.729861 0.0912636
vn -0.0765594 -0.8044367 -0.5890843
vn -0.04922754 -0.8530301 -0.5105257
vn -0.02189568 -0.9016235 -0.4319671
vn -0.403496 -0.9129238 -0.06132855
vn -0.5727949 -0.790596 -0.0567155
vn -0.7420937 -0.6682682 -0.05210245
vn 0.6932666 -0.716935 -0.07338648
vn 0.5823728 -0.7993793 -0.04155901
vn 0.471479 -0.8818236 -0.009731543
vn 0.1643119 -0.8995798 -0.4046701
vn 0.1779345 -0.8492107 -0.4874482
vn 0.1915572 -0.7988416 -0.5702263
vn -0.7273545 -0.6799835 0.09261695
vn -0.5925822 -0.7844962 0.04202919
vn -0.45781 -0.8890089 -0.008558569
vn -0.06793038 -0.9219104 0.3814009
vn -0.05964837 -0.8196238 0.5381154
vn -0.05136636 -0.7173373 0.69483
vn 0.2547685 -0.03480657 -0.9663755
vn 0.2499399 -0.03449605 -0.9676337
vn 0.2451112 -0.03418554 -0.968892
vn 0.3678844 0.001593151 -0.9298702
vn 0.3671859 0.0002255102 -0.9301463
vn 0.3664874 -0.001142131 -0.9304224
vn 0.3030662 -0.3400266 -0.8902431
vn 0.3036381 -0.3258492 -0.8952096
vn 0.30421 -0.3116717 -0.9001761
vn 0.5640907 -0.01235795 -0.8256204
vn 0.4800791 -0.02351613 -0.8715934
vn 0.3960674 -0.0346743 -0.9175665
vn 0.3695824 0.1117711 -0.9217116
vn 0.3754516 0.07536733 -0.9237726
vn 0.367626 0.1239057 -0.9210245
vn 0.3637134 0.1481749 -0.9196503
vn 0.08570585 0.2318 -0.9689806
vn 0.08530413 0.2313746 -0.9691176
vn -0.04470701 -0.6919903 -0.7205212
vn -0.03375255 -0.5936053 -0.7867233
vn -0.05676065 -0.3999335 -0.9147849
vn -0.03777041 -0.4962531 -0.8514779
vn -0.02224847 -0.6904413 -0.7226925
vn -0.04843031 -0.623242 -0.7805279
vn 0.5763192 0.01320063 -0.7923934
vn 0.4328032 0.003765239 -0.9014806
vn 0.4708356 0.02758418 -0.8803946
vn 0.6480771 0.01791832 -0.7378498
vn 0.7872862 -0.01556648 -0.6163912
vn 0.8707426 -0.4911065 -0.02493665
vn 0.8035358 -0.5838175 -0.01814285
vn 0.7368217 -0.6758741 -0.01623187
vn 0.7373143 -0.6752198 -0.0211147
vn 0.781462 -0.6142849 -0.01913346
vn 0.8109956 -0.584591 -0.02322567
vn 0.3128762 0.04699848 -0.9486305
vn 0.2659695 0.1868611 -0.9456972
vn 0.1427917 0.03779977 -0.9890307
vn 0.2406658 0.01253786 -0.9705271
vn 0.2398456 0.01499445 -0.9706953
vn 0.3118048 -0.372474 -0.8740943
vn 0.2878865 -0.3320467 -0.8982574
vn 0.245473 -0.3438191 -0.9063837
vn 0.2594206 -0.4582778 -0.8501073
vn 0.3966998 -0.01757904 -0.91778
vn 0.6242627 -0.1765153 -0.7610115
vn 0.4318202 -0.3939845 -0.8113615
vn 0.4831732 -0.7293728 -0.4843129
vn 0.8409208 -0.2506157 -0.4796291

usemtl Gris_JD
f 11/24/16 19/21/13 10/25/17
f 11/24/16 20/22/14 19/21/13
f 11/24/16 13/23/15 20/22/14
f 24/29/21 22/27/19 21/26/18
f 24/29/21 23/28/20 22/27/19
f 25/30/22 24/29/21 21/26/18
f 30/35/23 26/31/23 31/36/23
f 28/33/23 27/32/23 26/31/23
f 26/31/23 30/35/23 28/33/23
f 30/35/23 29/34/23 28/33/23
f 49/54/35 48/53/34 53/58/39
f 51/56/37 50/55/36 49/54/35
f 53/58/39 51/56/37 49/54/35
f 53/58/39 52/57/38 51/56/37
f 59/64/45 55/60/41 54/59/40
f 57/62/43 56/61/42 55/60/41
f 55/60/41 59/64/45 57/62/43
f 59/64/45 58/63/44 57/62/43
f 62/67/48 61/66/47 60/65/46
f 64/69/50 62/67/48 60/65/46
f 64/69/50 63/68/49 62/67/48
f 68/73/54 67/72/53 66/71/52
f 66/71/52 65/70/51 68/73/54
f 65/70/51 69/74/55 68/73/54
f 72/77/58 71/76/57 70/75/56
f 70/75/56 75/80/61 74/79/60
f 72/77/58 70/75/56 74/79/60
f 72/77/58 74/79/60 73/78/59
f 78/83/64 77/82/63 76/81/62
f 78/83/64 76/81/62 80/85/66
f 80/85/66 79/84/65 78/83/64
f 84/89/67 83/88/67 82/87/67
f 81/86/67 84/89/67 82/87/67
f 81/86/67 85/90/67 84/89/67
f 112/119/85 111/118/85 110/117/85
f 112/119/85 110/117/85 116/123/85
f 116/123/85 114/121/85 112/119/85
f 116/123/85 115/122/85 114/121/85
f 114/121/85 113/120/85 112/119/85
f 117/124/85 116/123/85 110/117/85
f 120/129/89 125/134/94 121/130/90
f 121/130/90 125/134/94 124/133/93
f 123/132/92 121/130/90 124/133/93
f 123/132/92 122/131/91 121/130/90
f 126/135/95 131/140/100 127/136/96
f 127/136/96 131/140/100 130/139/99
f 129/138/98 127/136/96 130/139/99
f 129/138/98 128/137/97 127/136/96
f 134/143/101 133/142/101 132/141/101
f 3/166/113 142/165/113 124/164/113
f 139/169/114 142/168/114 3/167/114
f 134/172/115 142/171/115 139/170/115
f 124/175/116 142/174/116 134/173/116
f 22/198/132 19/200/134 151/199/133
f 23/197/131 19/200/134 22/198/132
f 10/196/130 19/200/134 23/197/131
f 143/205/136 138/206/136 140/207/136
f 41/210/137 137/209/137 144/208/137
f 141/213/138 152/212/138 145/211/138
f 151/216/139 152/215/139 141/214/139
f 19/219/140 152/218/140 151/217/140
f 145/222/141 152/221/141 19/220/141
f 42/256/167 135/255/166 121/260/170
f 42/256/167 121/260/170 122/259/169
f 41/257/168 42/256/167 122/259/169
f 137/258/168 41/257/168 122/259/169
f 167/261/171 120/263/173 136/262/172
f 125/264/174 120/263/173 167/261/171
f 168/265/175 125/264/174 167/261/171
f 80/268/176 169/267/176 82/266/176
f 162/271/177 169/270/177 80/269/177
f 47/274/178 169/273/178 162/272/178
f 42/275/179 44/276/179 135/277/179
f 83/320/212 153/319/211 79/318/210
f 82/321/213 83/320/212 79/318/210
f 82/321/213 79/318/210 80/322/214
f 157/325/215 171/324/215 99/323/215
f 102/328/216 154/327/216 100/326/216
f 172/331/217 177/330/217 101/329/217
f 93/334/218 177/333/218 172/332/218
f 88/337/219 177/336/219 93/335/219
f 107/340/220 177/339/220 88/338/220
f 105/343/221 177/342/221 107/341/221
f 101/346/222 177/345/222 105/344/222
f 79/349/223 153/348/223 103/347/223
f 68/350/224 87/351/224 90/352/224
f 2/437/284 125/439/286 168/438/285
f 124/440/287 125/439/286 2/437/284
f 124/440/287 2/437/284 3/441/288
f 22/446/292 3/444/291 4/443/290
f 22/446/292 139/445/291 3/444/291
f 21/447/293 22/446/292 4/443/290
f 21/447/293 4/443/290 119/442/289
f 189/448/294 25/450/296 118/449/295
f 189/448/294 24/451/297 25/450/296
f 189/448/294 190/452/298 24/451/297
f 173/456/302 86/455/301 69/457/302
f 69/457/302 86/455/301 68/453/299
f 87/454/300 68/453/299 86/455/301
f 174/461/306 109/460/305 89/462/307
f 109/460/305 88/458/303 89/462/307
f 107/459/304 88/458/303 109/460/305
f 159/463/308 76/465/309 161/464/309
f 80/466/310 76/465/309 159/463/308
f 80/466/310 159/463/308 162/467/311
f 72/470/312 191/469/312 53/468/312
f 57/473/313 191/472/313 72/471/313
f 178/476/314 191/475/314 57/474/314
f 53/479/315 191/478/315 178/477/315
f 160/482/316 71/481/316 48/480/316
f 166/485/317 164/484/317 49/483/317
f 167/488/318 165/487/318 50/486/318
f 2/491/319 168/490/319 51/489/319
f 1/492/320 52/493/320 179/494/320
f 4/495/321 184/496/321 119/497/321
f 54/498/322 173/499/322 69/500/322
f 109/503/323 174/502/323 55/501/323
f 73/506/324 108/505/324 56/504/324
f 70/507/325 161/508/325 76/509/325
f 23/565/366 24/564/365 9/562/363
f 9/562/363 10/566/367 23/565/366
f 9/562/363 24/564/365 190/563/364
f 92/567/368 193/569/369 175/568/369
f 92/567/368 172/570/370 193/569/369
f 93/571/371 172/570/370 92/567/368
f 67/572/372 91/574/374 176/573/373
f 67/572/372 90/575/375 91/574/374
f 68/576/376 90/575/375 67/572/372
f 59/581/378 65/583/380 187/582/379
f 54/585/382 65/583/380 59/581/378
f 54/585/382 69/584/381 65/583/380
f 5/586/383 189/587/383 186/588/383
f 9/591/384 190/590/384 6/589/384
f 8/592/385 182/593/385 17/594/385
f 7/597/386 194/596/386 12/595/386
f 18/600/387 194/599/387 7/598/387
f 66/603/388 194/602/388 18/601/388
f 64/606/389 194/605/389 66/604/389
f 12/609/390 194/608/390 64/607/390
f 175/612/391 193/611/391 62/610/391
f 67/615/392 176/614/392 63/613/392
f 16/616/393 181/617/393 188/618/393
f 187/621/394 65/620/394 15/619/394
f 47/776/462 43/778/463 205/777/463
f 43/778/463 47/776/462 42/774/460
f 42/774/460 47/776/462 44/775/461
f 171/788/467 157/787/466 85/792/470
f 81/791/469 171/788/467 85/792/470
f 207/789/468 171/788/467 81/791/469
f 156/790/468 207/789/468 81/791/469
f 207/797/471 198/794/471 171/793/471
f 203/795/471 198/794/471 207/797/471
f 201/796/471 203/795/471 207/797/471
f 144/801/475 40/798/472 41/802/476
f 150/800/474 40/798/472 144/801/475
f 150/800/474 148/799/473 40/798/472
f 149/805/479 208/807/481 147/806/480
f 146/804/478 208/807/481 149/805/479
f 20/803/477 208/807/481 146/804/478
f 202/810/482 200/809/482 208/808/482
f 202/810/482 208/808/482 20/812/482
f 197/811/482 202/810/482 20/812/482
f 155/815/483 209/814/483 39/813/483
f 206/818/484 209/817/484 155/816/484
f 205/821/485 209/820/485 206/819/485
f 43/824/486 209/823/486 205/822/486
f 39/827/487 209/826/487 43/825/487
f 36/830/488 210/829/488 156/828/488
f 201/833/489 210/832/489 36/831/489
f 207/836/490 210/835/490 201/834/490
f 156/839/491 210/838/491 207/837/491
f 38/840/492 40/841/492 148/842/492
f 37/845/493 211/844/493 200/843/493
f 147/848/494 211/847/494 37/846/494
f 208/851/495 211/850/495 147/849/495
f 200/854/496 211/853/496 208/852/496
f 4/4/3 3/3/1 2/2/2
f 2/2/2 1/1/1 4/4/3
f 7/7/6 6/6/5 5/5/4
f 5/5/4 8/8/5 7/7/6
f 9/9/7 12/12/8 11/11/9
f 11/11/9 10/10/8 9/9/7
f 14/15/10 13/14/11 11/13/10
f 11/13/10 12/16/12 14/15/10
f 15/17/11 18/20/11 17/19/11
f 17/19/11 16/18/11 15/17/11
f 34/39/24 33/38/24 32/37/24
f 32/37/24 35/40/24 34/39/24
f 37/42/26 36/41/25 39/44/27
f 39/44/27 38/43/25 37/42/26
f 43/48/29 42/47/30 41/46/29
f 41/46/29 40/45/28 43/48/29
f 44/49/31 47/52/33 46/51/31
f 46/51/31 45/50/32 44/49/31
f 88/93/70 87/92/69 86/91/68
f 86/91/68 89/94/69 88/93/70
f 90/95/71 93/98/71 92/97/71
f 92/97/71 91/96/71 90/95/71
f 96/101/72 95/100/73 94/99/72
f 94/99/72 97/102/74 96/101/72
f 100/105/75 99/104/76 98/103/75
f 98/103/75 101/106/77 100/105/75
f 104/109/80 103/108/79 102/107/78
f 102/107/78 105/110/79 104/109/80
f 78/111/81 107/114/83 106/113/81
f 106/113/81 77/112/82 78/111/81
f 107/114/84 109/116/84 108/115/84
f 108/115/84 106/113/84 107/114/84
f 118/127/87 25/125/86 21/126/87
f 21/126/87 119/128/88 118/127/87
f 121/146/103 135/144/102 136/145/103
f 136/145/103 120/147/104 121/146/103
f 132/150/106 123/148/105 124/149/106
f 124/149/106 134/151/107 132/150/106
f 137/154/109 122/152/108 123/153/109
f 123/153/109 138/155/110 137/154/109
f 22/157/111 133/156/111 134/159/111
f 134/159/111 139/158/111 22/157/111
f 140/162/112 132/161/112 133/160/112
f 133/160/112 141/163/112 140/162/112
f 138/178/118 143/176/117 144/177/118
f 144/177/118 137/179/119 138/178/118
f 141/182/121 145/180/120 143/181/121
f 143/181/121 140/183/122 141/182/121
f 145/186/124 19/184/123 20/185/124
f 20/185/124 146/187/125 145/186/124
f 149/190/127 147/188/126 148/189/127
f 148/189/127 150/191/128 149/190/127
f 138/194/129 123/193/129 132/192/129
f 132/192/129 140/195/129 138/194/129
f 151/203/135 141/202/135 133/201/135
f 133/201/135 22/204/135 151/203/135
f 153/225/143 83/223/142 84/224/143
f 84/224/143 154/226/144 153/225/143
f 82/229/146 155/227/145 156/228/146
f 156/228/146 81/230/147 82/229/146
f 154/233/149 84/231/148 85/232/149
f 85/232/149 157/234/150 154/233/149
f 160/237/152 158/235/151 159/236/152
f 159/236/152 161/238/153 160/237/152
f 47/241/155 162/239/154 163/240/155
f 163/240/155 46/242/156 47/241/155
f 164/245/158 163/243/157 158/244/158
f 158/244/158 160/246/159 164/245/158
f 135/249/161 44/247/160 45/248/161
f 45/248/161 136/250/162 135/249/161
f 165/253/164 45/251/163 46/252/164
f 46/252/164 166/254/165 165/253/164
f 170/280/181 98/278/180 99/279/181
f 99/279/181 171/281/182 170/280/181
f 157/284/184 99/282/183 100/283/184
f 100/283/184 154/285/185 157/284/184
f 98/288/187 170/286/186 172/287/187
f 172/287/187 101/289/188 98/288/187
f 102/292/190 100/290/189 101/291/190
f 101/291/190 105/293/191 102/292/190
f 154/296/193 102/294/192 103/295/193
f 103/295/193 153/297/194 154/296/193
f 104/300/196 78/298/195 79/299/196
f 79/299/196 103/301/197 104/300/196
f 78/304/199 104/302/198 105/303/199
f 105/303/199 107/305/200 78/304/199
f 86/308/202 173/306/201 174/307/202
f 174/307/202 89/309/203 86/308/202
f 90/312/205 87/310/204 88/311/205
f 88/311/205 93/313/206 90/312/205
f 92/316/208 175/314/207 176/315/208
f 176/315/208 91/317/209 92/316/208
f 72/355/226 53/353/225 48/354/226
f 48/354/226 71/356/227 72/355/226
f 160/359/229 48/357/228 49/358/229
f 49/358/229 164/360/230 160/359/229
f 166/363/232 49/361/231 50/362/232
f 50/362/232 165/364/233 166/363/232
f 167/367/235 50/365/234 51/366/235
f 51/366/235 168/368/236 167/367/235
f 52/371/238 1/369/237 2/370/238
f 2/370/238 51/372/239 52/371/238
f 53/375/241 178/373/240 179/374/241
f 179/374/241 52/376/242 53/375/241
f 58/379/244 180/377/243 178/378/244
f 178/378/244 57/380/245 58/379/244
f 180/383/247 181/381/246 182/382/247
f 182/382/247 183/384/248 180/383/247
f 184/387/250 4/385/249 1/386/250
f 1/386/250 179/388/251 184/387/250
f 119/391/253 184/389/252 185/390/253
f 185/390/253 118/392/254 119/391/253
f 183/395/256 182/393/255 186/394/256
f 186/394/256 185/396/257 183/395/256
f 173/399/259 54/397/258 55/398/259
f 55/398/259 174/400/260 173/399/259
f 109/403/262 55/401/261 56/402/262
f 56/402/262 108/404/263 109/403/262
f 73/407/265 56/405/264 57/406/265
f 57/406/265 72/408/266 73/407/265
f 59/411/268 187/409/267 188/410/268
f 188/410/268 58/412/269 59/411/268
f 161/415/271 70/413/270 71/414/271
f 71/414/271 160/416/272 161/415/271
f 106/419/274 74/417/273 75/418/274
f 75/418/274 77/420/275 106/419/274
f 77/423/277 75/421/276 70/422/277
f 70/422/277 76/424/278 77/423/277
f 108/427/280 73/425/279 74/426/280
f 74/426/280 106/428/281 108/427/280
f 46/429/282 163/432/282 164/431/282
f 164/431/282 166/430/282 46/429/282
f 136/433/283 45/436/283 165/435/283
f 165/435/283 167/434/283 136/433/283
f 189/512/327 5/510/326 6/511/327
f 6/511/327 190/513/328 189/512/327
f 182/516/330 8/514/329 5/515/330
f 5/515/330 186/517/331 182/516/330
f 9/520/333 6/518/332 7/519/333
f 7/519/333 12/521/334 9/520/333
f 18/524/336 7/522/335 8/523/336
f 8/523/336 17/525/337 18/524/336
f 14/528/339 60/526/338 61/527/339
f 61/527/339 192/529/340 14/528/339
f 192/532/342 61/530/341 62/531/342
f 62/531/342 193/533/343 192/532/342
f 60/536/345 14/534/344 12/535/345
f 12/535/345 64/537/346 60/536/345
f 175/540/348 62/538/347 63/539/348
f 63/539/348 176/541/349 175/540/348
f 67/544/351 63/542/350 64/543/351
f 64/543/351 66/545/352 67/544/351
f 181/548/354 16/546/353 17/547/354
f 17/547/354 182/549/355 181/548/354
f 66/552/357 18/550/356 15/551/357
f 15/551/357 65/553/358 66/552/357
f 187/556/360 15/554/359 16/555/360
f 16/555/360 188/557/361 187/556/360
f 185/561/362 186/560/362 189/559/362
f 189/559/362 118/558/362 185/561/362
f 58/577/377 188/580/377 181/579/377
f 181/579/377 180/578/377 58/577/377
f 26/625/395 178/623/395 180/622/395
f 180/622/395 31/624/395 26/625/395
f 31/629/396 180/627/396 183/626/396
f 183/626/396 30/628/396 31/629/396
f 27/633/397 179/631/397 178/630/397
f 178/630/397 26/632/397 27/633/397
f 28/637/398 184/635/398 179/634/398
f 179/634/398 27/636/398 28/637/398
f 29/641/400 185/639/399 184/638/399
f 184/638/399 28/640/399 29/641/400
f 30/645/401 183/643/401 185/642/401
f 185/642/401 29/644/401 30/645/401
f 33/649/402 159/647/402 158/646/402
f 158/646/402 32/648/402 33/649/402
f 34/653/403 162/651/403 159/650/403
f 159/650/403 33/652/403 34/653/403
f 35/657/404 163/655/404 162/654/404
f 162/654/404 34/656/404 35/657/404
f 32/661/405 158/659/405 163/658/405
f 163/658/405 35/660/405 32/661/405
f 126/665/406 144/663/406 143/662/406
f 143/662/406 131/664/406 126/665/406
f 127/669/407 150/667/407 144/666/407
f 144/666/407 126/668/407 127/669/407
f 131/673/410 143/671/409 145/670/408
f 145/670/408 130/672/409 131/673/410
f 130/677/411 145/675/411 146/674/411
f 146/674/411 129/676/411 130/677/411
f 128/681/412 149/679/412 150/678/412
f 150/678/412 127/680/412 128/681/412
f 129/685/413 146/683/413 149/682/413
f 149/682/413 128/684/413 129/685/413
f 95/689/414 192/687/414 193/686/414
f 193/686/414 94/688/414 95/689/414
f 96/693/415 170/691/415 192/690/415
f 192/690/415 95/692/415 96/693/415
f 97/697/416 172/695/416 170/694/416
f 170/694/416 96/696/416 97/697/416
f 94/701/417 193/699/417 172/698/417
f 172/698/417 97/700/417 94/701/417
f 196/705/418 13/703/418 14/702/418
f 14/702/418 195/704/418 196/705/418
f 197/709/419 20/707/419 13/706/419
f 13/706/419 196/708/419 197/709/419
f 199/713/420 170/711/420 171/710/420
f 171/710/420 198/712/420 199/713/420
f 203/717/421 201/715/421 200/714/421
f 200/714/421 202/716/421 203/717/421
f 204/721/422 192/719/422 170/718/422
f 170/718/422 199/720/422 204/721/422
f 195/725/423 14/723/423 192/722/423
f 192/722/423 204/724/423 195/725/423
f 195/728/425 110/726/424 111/727/425
f 111/727/425 196/729/426 195/728/425
f 196/732/428 111/730/427 112/731/428
f 112/731/428 197/733/429 196/732/428
f 203/736/431 114/734/430 115/735/431
f 115/735/431 198/737/432 203/736/431
f 198/740/434 115/738/433 116/739/434
f 116/739/434 199/741/435 198/740/434
f 197/744/437 112/742/436 113/743/437
f 113/743/437 202/745/438 197/744/437
f 202/748/440 113/746/439 114/747/440
f 114/747/440 203/749/441 202/748/440
f 199/752/443 116/750/442 117/751/443
f 117/751/443 204/753/444 199/752/443
f 204/756/446 117/754/445 110/755/446
f 110/755/446 195/757/447 204/756/446
f 155/760/449 39/758/448 36/759/449
f 36/759/449 156/761/450 155/760/449
f 40/764/452 38/762/451 39/763/452
f 39/763/452 43/765/453 40/764/452
f 201/768/455 36/766/454 37/767/455
f 37/767/455 200/769/456 201/768/455
f 147/772/458 37/770/457 38/771/458
f 38/771/458 148/773/459 147/772/458
f 206/780/464 169/779/464 47/782/464
f 47/782/464 205/781/464 206/780/464
f 155/785/465 82/784/465 169/783/465
f 169/783/465 206/786/465 155/785/465

