# ProBuilder 5.2.0
# https://unity3d.com/unity/features/worldbuilding/probuilder
# 11/23/2023 5:54:34 PM

mtllib ./LlantaAdelanteAfuera.mtl
o LlantaAdelanteAfuera

g LlantaAdelanteAfuera
v 0.357765 0.5131043 -0.9029084
v 0.357765 0.9131042 -0.9029084
v 0.3713947 0.5131043 -0.7993808
v 0.3713947 0.9131042 -0.7993808
v 0.4113549 0.5131043 -0.7029084
v 0.4113549 0.9131042 -0.7029084
v 0.4749223 0.5131043 -0.6200657
v 0.4749223 0.9131042 -0.6200657
v 0.5577651 0.5131043 -0.5564982
v 0.5577651 0.9131042 -0.5564982
v 0.6542374 0.5131043 -0.516538
v 0.6542374 0.9131042 -0.516538
v 0.7577651 0.5131043 -0.5029083
v 0.7577651 0.9131042 -0.5029083
v 0.8612927 0.5131043 -0.516538
v 0.8612927 0.9131042 -0.516538
v 0.9577651 0.5131043 -0.5564982
v 0.9577651 0.9131042 -0.5564982
v 1.040608 0.5131043 -0.6200657
v 1.040608 0.9131042 -0.6200657
v 1.104175 0.5131043 -0.7029083
v 1.104175 0.9131042 -0.7029083
v 1.144135 0.5131043 -0.7993807
v 1.144135 0.9131042 -0.7993807
v 1.157765 0.5131043 -0.9029084
v 1.157765 0.9131042 -0.9029084
v 1.144135 0.5131043 -1.006436
v 1.144135 0.9131042 -1.006436
v 1.104175 0.5131043 -1.102908
v 1.104175 0.9131042 -1.102908
v 1.040608 0.5131043 -1.185751
v 1.040608 0.9131042 -1.185751
v 0.957765 0.5131043 -1.249319
v 0.957765 0.9131042 -1.249319
v 0.8612927 0.5131043 -1.289279
v 0.8612927 0.9131042 -1.289279
v 0.7577651 0.5131043 -1.302908
v 0.7577651 0.9131042 -1.302908
v 0.6542374 0.5131043 -1.289279
v 0.6542374 0.9131042 -1.289279
v 0.5577651 0.5131043 -1.249319
v 0.5577651 0.9131042 -1.249319
v 0.4749224 0.5131043 -1.185751
v 0.4749224 0.9131042 -1.185751
v 0.4113549 0.5131043 -1.102908
v 0.4113549 0.9131042 -1.102908
v 0.3713948 0.5131043 -1.006436
v 0.3713948 0.9131042 -1.006436
v 0.7577651 0.5131043 -0.9029084
v 0.7577651 0.9131042 -0.9029084
v 0.007760919 0.4911079 -0.9029084
v 0.007760919 0.8911095 -0.9029084
v 0.03331998 0.4911079 -0.7087944
v 0.03331998 0.8911095 -0.7087944
v 0.1082406 0.4911079 -0.5279084
v 0.1082406 0.8911095 -0.5279084
v 0.2274326 0.4911079 -0.3725784
v 0.2274326 0.8911095 -0.3725784
v 0.3827585 0.4911079 -0.2533894
v 0.3827585 0.8911095 -0.2533894
v 0.5636435 0.4911079 -0.178464
v 0.5636435 0.8911095 -0.178464
v 0.7577651 0.4911079 -0.1529084
v 0.7577651 0.8911095 -0.1529084
v 0.9518777 0.4911079 -0.178464
v 0.9518777 0.8911095 -0.178464
v 1.132763 0.4911079 -0.2533896
v 1.132763 0.8911095 -0.2533896
v 1.288089 0.4911079 -0.3725784
v 1.288089 0.8911095 -0.3725784
v 1.407281 0.4911079 -0.5279084
v 1.407281 0.8911095 -0.5279084
v 1.48221 0.4911079 -0.7087942
v 1.48221 0.8911095 -0.7087942
v 1.50776 0.4911079 -0.9029086
v 1.50776 0.8911095 -0.9029086
v 1.48221 0.4911079 -1.097023
v 1.48221 0.8911095 -1.097023
v 1.407281 0.4911079 -1.277909
v 1.407281 0.8911095 -1.277909
v 1.288089 0.4911079 -1.433239
v 1.288089 0.8911096 -1.433239
v 1.132763 0.4911079 -1.552428
v 1.132763 0.8911095 -1.552428
v 0.9518777 0.4911079 -1.627353
v 0.9518777 0.8911096 -1.627353
v 0.7577651 0.4911079 -1.652909
v 0.7577651 0.8911095 -1.652909
v 0.5636435 0.4911079 -1.627353
v 0.5636435 0.8911096 -1.627353
v 0.3827585 0.4911079 -1.552428
v 0.3827585 0.8911095 -1.552428
v 0.2274326 0.4911079 -1.433239
v 0.2274326 0.8911095 -1.433239
v 0.1082406 0.4911079 -1.277909
v 0.1082406 0.8911095 -1.277909
v 0.03331998 0.4911079 -1.097023
v 0.03331998 0.8911095 -1.097023
v 0.7577651 0.4911079 -0.9029084
v 0.7577651 0.8911095 -0.9029084

vt -0.8484862 0.5131043
vt -0.8484862 0.9131042
vt -0.7440652 0.5131043
vt -0.7440652 0.9131042
vt -0.5964049 0.5131043
vt -0.5964049 0.9131042
vt -0.491984 0.5131043
vt -0.491984 0.9131042
vt -0.3072378 0.5131043
vt -0.3072378 0.9131042
vt -0.2028168 0.5131043
vt -0.2028168 0.9131042
vt -0.0006911673 0.5131043
vt -0.0006911673 0.9131042
vt 0.1037298 0.5131043
vt 0.1037298 0.9131042
vt 0.3023453 0.5131043
vt 0.3023453 0.9131042
vt 0.4067662 0.5131043
vt 0.4067662 0.9131042
vt 0.5812186 0.5131043
vt 0.5812186 0.9131042
vt 0.6856396 0.5131043
vt 0.6856396 0.9131042
vt 0.816925 0.5131043
vt 0.816925 0.9131042
vt 0.921346 0.5131043
vt 0.921346 0.9131042
vt 0.9934012 0.5131043
vt 0.9934012 0.9131042
vt 1.097822 0.5131043
vt 1.097822 0.9131042
vt 1.098621 0.5131043
vt 1.098621 0.9131042
vt 1.203042 0.5131043
vt 1.203042 0.9131042
vt 1.125413 0.5131043
vt 1.125413 0.9131042
vt 1.229834 0.5131043
vt 1.229834 0.9131042
vt 1.071952 0.5131043
vt 1.071952 0.9131042
vt 1.176373 0.5131043
vt 1.176373 0.9131042
vt 0.9418815 0.5131043
vt 0.9418815 0.9131042
vt 1.046303 0.5131043
vt 1.046303 0.9131042
vt 0.7440651 0.5131043
vt 0.7440651 0.9131042
vt 0.848486 0.5131043
vt 0.848486 0.9131042
vt 0.4919843 0.5131043
vt 0.4919843 0.9131042
vt 0.5964053 0.5131043
vt 0.5964053 0.9131042
vt 0.2028173 0.5131043
vt 0.2028173 0.9131042
vt 0.3072382 0.5131043
vt 0.3072382 0.9131042
vt -0.1037299 0.5131043
vt -0.1037299 0.9131042
vt 0.0006911818 0.5131043
vt 0.0006911818 0.9131042
vt -0.4067664 0.5131043
vt -0.4067664 0.9131042
vt -0.3023454 0.5131043
vt -0.3023454 0.9131042
vt -0.6856394 0.5131043
vt -0.6856394 0.9131042
vt -0.5812185 0.5131043
vt -0.5812185 0.9131042
vt -0.9213461 0.5131043
vt -0.9213461 0.9131042
vt -0.8169251 0.5131043
vt -0.8169251 0.9131042
vt -1.097822 0.5131043
vt -1.097822 0.9131042
vt -0.9934011 0.5131043
vt -0.9934011 0.9131042
vt -1.203042 0.5131043
vt -1.203042 0.9131042
vt -1.098621 0.5131043
vt -1.098621 0.9131042
vt -1.229834 0.5131043
vt -1.229834 0.9131042
vt -1.125413 0.5131043
vt -1.125413 0.9131042
vt -1.176373 0.5131043
vt -1.176373 0.9131042
vt -1.071952 0.5131043
vt -1.071952 0.9131042
vt -1.046303 0.5131043
vt -1.046303 0.9131042
vt -0.9418817 0.5131043
vt -0.9418817 0.9131042
vt 0.357765 -0.9029084
vt 0.7577651 -0.9029084
vt 0.3713947 -0.7993808
vt -0.357765 -0.9029084
vt -0.7577651 -0.9029084
vt -0.3713947 -0.7993808
vt 0.4113549 -0.7029084
vt -0.4113549 -0.7029084
vt 0.4749223 -0.6200657
vt -0.4749223 -0.6200657
vt 0.5577651 -0.5564982
vt -0.5577651 -0.5564982
vt 0.6542374 -0.516538
vt -0.6542374 -0.516538
vt 0.7577651 -0.5029083
vt -0.7577651 -0.5029083
vt 0.8612927 -0.516538
vt -0.8612927 -0.516538
vt 0.9577651 -0.5564982
vt -0.9577651 -0.5564982
vt 1.040608 -0.6200657
vt -1.040608 -0.6200657
vt 1.104175 -0.7029083
vt -1.104175 -0.7029083
vt 1.144135 -0.7993807
vt -1.144135 -0.7993807
vt 1.157765 -0.9029084
vt -1.157765 -0.9029084
vt 1.144135 -1.006436
vt -1.144135 -1.006436
vt 1.104175 -1.102908
vt -1.104175 -1.102908
vt 1.040608 -1.185751
vt -1.040608 -1.185751
vt 0.957765 -1.249319
vt -0.957765 -1.249319
vt 0.8612927 -1.289279
vt -0.8612927 -1.289279
vt 0.7577651 -1.302908
vt -0.7577651 -1.302908
vt 0.6542374 -1.289279
vt -0.6542374 -1.289279
vt 0.5577651 -1.249319
vt -0.5577651 -1.249319
vt 0.4749224 -1.185751
vt -0.4749224 -1.185751
vt 0.4113549 -1.102908
vt -0.4113549 -1.102908
vt 0.3713948 -1.006436
vt -0.3713948 -1.006436
vt -0.8941711 0.5131043
vt -0.8941711 0.9131042
vt -0.6983818 0.5131043
vt -0.6983818 0.9131042
vt -0.6420913 0.5131043
vt -0.6420913 0.9131042
vt -0.446302 0.5131043
vt -0.446302 0.9131042
vt -0.3529254 0.5131043
vt -0.3529254 0.9131042
vt -0.1571361 0.5131043
vt -0.1571361 0.9131042
vt -0.04637977 0.5131043
vt -0.04637977 0.9131042
vt 0.1494096 0.5131043
vt 0.1494096 0.9131042
vt 0.2566554 0.5131043
vt 0.2566554 0.9131042
vt 0.4524446 0.5131043
vt 0.4524446 0.9131042
vt 0.5355285 0.5131043
vt 0.5355285 0.9131042
vt 0.7313179 0.5131043
vt 0.7313179 0.9131042
vt 0.771235 0.5131043
vt 0.771235 0.9131042
vt 0.9670243 0.5131043
vt 0.9670243 0.9131042
vt 0.9477115 0.5131043
vt 0.9477115 0.9131042
vt 1.143501 0.5131043
vt 1.143501 0.9131042
vt 1.052932 0.5131043
vt 1.052932 0.9131042
vt 1.248721 0.5131043
vt 1.248721 0.9131042
vt 1.079725 0.5131043
vt 1.079725 0.9131042
vt 1.275514 0.5131043
vt 1.275514 0.9131042
vt 1.026266 0.5131043
vt 1.026266 0.9131042
vt 1.222056 0.5131043
vt 1.222056 0.9131042
vt 0.8961963 0.5131043
vt 0.8961963 0.9131042
vt 1.091986 0.5131043
vt 1.091986 0.9131042
vt 0.6983819 0.5131043
vt 0.6983819 0.9131042
vt 0.8941712 0.5131043
vt 0.8941712 0.9131042
vt 0.446301 0.5131043
vt 0.446301 0.9131042
vt 0.6420903 0.5131043
vt 0.6420903 0.9131042
vt 0.1571375 0.5131043
vt 0.1571375 0.9131041
vt 0.3529266 0.5131043
vt 0.3529266 0.9131042
vt -0.1494097 0.5131043
vt -0.1494097 0.9131042
vt 0.04637968 0.5131043
vt 0.04637968 0.9131041
vt -0.452445 0.5131043
vt -0.452445 0.9131041
vt -0.2566557 0.5131043
vt -0.2566557 0.9131042
vt -0.7313179 0.5131043
vt -0.7313179 0.9131042
vt -0.5355287 0.5131043
vt -0.5355287 0.9131041
vt -0.9670241 0.5131043
vt -0.9670241 0.9131041
vt -0.7712348 0.5131043
vt -0.7712348 0.9131042
vt -1.143501 0.5131043
vt -1.143501 0.9131042
vt -0.9477116 0.5131043
vt -0.9477116 0.9131041
vt -1.248721 0.5131043
vt -1.248721 0.9131042
vt -1.052932 0.5131043
vt -1.052932 0.9131042
vt -1.275514 0.5131043
vt -1.275514 0.9131042
vt -1.079725 0.5131043
vt -1.079725 0.9131042
vt -1.222055 0.5131043
vt -1.222055 0.9131042
vt -1.026266 0.5131043
vt -1.026266 0.9131042
vt -1.091986 0.5131043
vt -1.091986 0.9131042
vt -0.8961967 0.5131043
vt -0.8961967 0.9131042
vt 0.007759064 -0.9029084
vt 0.03331798 -0.7087941
vt -0.007759064 -0.9029084
vt -0.03331798 -0.7087941
vt 0.1082353 -0.5279083
vt -0.1082353 -0.5279083
vt 0.227431 -0.3725783
vt -0.227431 -0.3725783
vt 0.3827542 -0.2533892
vt -0.3827542 -0.2533892
vt 0.563641 -0.1784639
vt -0.5636409 -0.1784639
vt 0.7577592 -0.1529084
vt -0.7577592 -0.1529083
vt 0.9518734 -0.1784639
vt -0.9518734 -0.1784639
vt 1.132759 -0.2533895
vt -1.132759 -0.2533895
vt 1.288089 -0.3725782
vt -1.288089 -0.3725781
vt 1.407278 -0.5279084
vt -1.407278 -0.5279083
vt 1.482203 -0.7087941
vt -1.482203 -0.708794
vt 1.507759 -0.9029086
vt -1.507759 -0.9029084
vt 1.482209 -1.097023
vt -1.482209 -1.097023
vt 1.407274 -1.277908
vt -1.407274 -1.277908
vt 1.288085 -1.433238
vt -1.288085 -1.433238
vt 1.132761 -1.552427
vt -1.132761 -1.552427
vt 0.9518729 -1.627353
vt -0.9518729 -1.627353
vt 0.7577591 -1.652908
vt -0.757759 -1.652908
vt 0.5636448 -1.627353
vt -0.5636448 -1.627353
vt 0.3827592 -1.552427
vt -0.3827591 -1.552427
vt 0.2274291 -1.433239
vt -0.2274291 -1.433239
vt 0.1082402 -1.277908
vt -0.1082402 -1.277909
vt 0.03331479 -1.097023
vt -0.03331479 -1.097023

vn -1 0 -6.011897E-08
vn -0.9659258 0 0.2588191
vn -0.8660254 0 0.5
vn -0.7071069 0 0.7071066
vn -0.5000001 0 0.8660253
vn -0.258819 0 0.9659258
vn 0 0 1
vn 0.2588191 0 0.9659258
vn 0.5000001 0 0.8660253
vn 0.7071068 0 0.7071067
vn 0.8660254 0 0.4999999
vn 0.9659259 0 0.2588189
vn 1 0 -1.127231E-07
vn 0.9659258 0 -0.258819
vn 0.8660256 0 -0.4999998
vn 0.7071069 0 -0.7071066
vn 0.5 0 -0.8660254
vn 0.258819 0 -0.9659258
vn 0 0 -1
vn -0.258819 0 -0.9659258
vn -0.4999998 0 -0.8660256
vn -0.7071067 0 -0.7071069
vn -0.8660253 0 -0.5000001
vn -0.9659258 0 -0.2588191
vn 0 -1 0
vn 0 1 0
vn 0.8660173 0 0.5000141
vn 0.8660173 0 -0.5000141
vn 0.5000063 0 -0.8660217
vn -0.5000061 0 -0.8660219
vn -0.8660279 0 -0.4999957

usemtl Amarillo_JD
f 1/97/25 49/98/25 3/99/25
f 3/99/25 49/98/25 5/103/25
f 5/103/25 49/98/25 7/105/25
f 7/105/25 49/98/25 9/107/25
f 9/107/25 49/98/25 11/109/25
f 11/109/25 49/98/25 13/111/25
f 13/111/25 49/98/25 15/113/25
f 15/113/25 49/98/25 17/115/25
f 17/115/25 49/98/25 19/117/25
f 19/117/25 49/98/25 21/119/25
f 21/119/25 49/98/25 23/121/25
f 23/121/25 49/98/25 25/123/25
f 25/123/25 49/98/25 27/125/25
f 27/125/25 49/98/25 29/127/25
f 29/127/25 49/98/25 31/129/25
f 31/129/25 49/98/25 33/131/25
f 33/131/25 49/98/25 35/133/25
f 35/133/25 49/98/25 37/135/25
f 37/135/25 49/98/25 39/137/25
f 39/137/25 49/98/25 41/139/25
f 41/139/25 49/98/25 43/141/25
f 43/141/25 49/98/25 45/143/25
f 45/143/25 49/98/25 47/145/25
f 47/145/25 49/98/25 1/97/25
f 4/102/26 50/101/26 2/100/26
f 6/104/26 50/101/26 4/102/26
f 8/106/26 50/101/26 6/104/26
f 10/108/26 50/101/26 8/106/26
f 12/110/26 50/101/26 10/108/26
f 14/112/26 50/101/26 12/110/26
f 16/114/26 50/101/26 14/112/26
f 18/116/26 50/101/26 16/114/26
f 20/118/26 50/101/26 18/116/26
f 22/120/26 50/101/26 20/118/26
f 24/122/26 50/101/26 22/120/26
f 26/124/26 50/101/26 24/122/26
f 28/126/26 50/101/26 26/124/26
f 30/128/26 50/101/26 28/126/26
f 32/130/26 50/101/26 30/128/26
f 34/132/26 50/101/26 32/130/26
f 36/134/26 50/101/26 34/132/26
f 38/136/26 50/101/26 36/134/26
f 40/138/26 50/101/26 38/136/26
f 42/140/26 50/101/26 40/138/26
f 44/142/26 50/101/26 42/140/26
f 46/144/26 50/101/26 44/142/26
f 48/146/26 50/101/26 46/144/26
f 2/100/26 50/101/26 48/146/26
f 4/4/2 2/2/1 1/1/1
f 1/1/1 3/3/2 4/4/2
f 6/8/3 4/6/2 3/5/2
f 3/5/2 5/7/3 6/8/3
f 8/12/4 6/10/3 5/9/3
f 5/9/3 7/11/4 8/12/4
f 10/16/5 8/14/4 7/13/4
f 7/13/4 9/15/5 10/16/5
f 12/20/6 10/18/5 9/17/5
f 9/17/5 11/19/6 12/20/6
f 14/24/7 12/22/6 11/21/6
f 11/21/6 13/23/7 14/24/7
f 16/28/8 14/26/7 13/25/7
f 13/25/7 15/27/8 16/28/8
f 18/32/9 16/30/8 15/29/8
f 15/29/8 17/31/9 18/32/9
f 20/36/10 18/34/9 17/33/9
f 17/33/9 19/35/10 20/36/10
f 22/40/11 20/38/10 19/37/10
f 19/37/10 21/39/11 22/40/11
f 24/44/12 22/42/11 21/41/11
f 21/41/11 23/43/12 24/44/12
f 26/48/13 24/46/12 23/45/12
f 23/45/12 25/47/13 26/48/13
f 28/52/14 26/50/13 25/49/13
f 25/49/13 27/51/14 28/52/14
f 30/56/15 28/54/14 27/53/14
f 27/53/14 29/55/15 30/56/15
f 32/60/16 30/58/15 29/57/15
f 29/57/15 31/59/16 32/60/16
f 34/64/17 32/62/16 31/61/16
f 31/61/16 33/63/17 34/64/17
f 36/68/18 34/66/17 33/65/17
f 33/65/17 35/67/18 36/68/18
f 38/72/19 36/70/18 35/69/18
f 35/69/18 37/71/19 38/72/19
f 40/76/20 38/74/19 37/73/19
f 37/73/19 39/75/20 40/76/20
f 42/80/21 40/78/20 39/77/20
f 39/77/20 41/79/21 42/80/21
f 44/84/22 42/82/21 41/81/21
f 41/81/21 43/83/22 44/84/22
f 46/88/23 44/86/22 43/85/22
f 43/85/22 45/87/23 46/88/23
f 48/92/24 46/90/23 45/89/23
f 45/89/23 47/91/24 48/92/24
f 2/96/1 48/94/24 47/93/24
f 47/93/24 1/95/1 2/96/1

usemtl Negro_JD
f 51/243/25 99/98/25 53/244/25
f 53/244/25 99/98/25 55/247/25
f 55/247/25 99/98/25 57/249/25
f 57/249/25 99/98/25 59/251/25
f 59/251/25 99/98/25 61/253/25
f 61/253/25 99/98/25 63/255/25
f 63/255/25 99/98/25 65/257/25
f 65/257/25 99/98/25 67/259/25
f 67/259/25 99/98/25 69/261/25
f 69/261/25 99/98/25 71/263/25
f 71/263/25 99/98/25 73/265/25
f 73/265/25 99/98/25 75/267/25
f 75/267/25 99/98/25 77/269/25
f 77/269/25 99/98/25 79/271/25
f 79/271/25 99/98/25 81/273/25
f 81/273/25 99/98/25 83/275/25
f 83/275/25 99/98/25 85/277/25
f 85/277/25 99/98/25 87/279/25
f 87/279/25 99/98/25 89/281/25
f 89/281/25 99/98/25 91/283/25
f 91/283/25 99/98/25 93/285/25
f 93/285/25 99/98/25 95/287/25
f 95/287/25 99/98/25 97/289/25
f 97/289/25 99/98/25 51/243/25
f 54/246/26 100/101/26 52/245/26
f 56/248/26 100/101/26 54/246/26
f 58/250/26 100/101/26 56/248/26
f 60/252/26 100/101/26 58/250/26
f 62/254/26 100/101/26 60/252/26
f 64/256/26 100/101/26 62/254/26
f 66/258/26 100/101/26 64/256/26
f 68/260/26 100/101/26 66/258/26
f 70/262/26 100/101/26 68/260/26
f 72/264/26 100/101/26 70/262/26
f 74/266/26 100/101/26 72/264/26
f 76/268/26 100/101/26 74/266/26
f 78/270/26 100/101/26 76/268/26
f 80/272/26 100/101/26 78/270/26
f 82/274/26 100/101/26 80/272/26
f 84/276/26 100/101/26 82/274/26
f 86/278/26 100/101/26 84/276/26
f 88/280/26 100/101/26 86/278/26
f 90/282/26 100/101/26 88/280/26
f 92/284/26 100/101/26 90/282/26
f 94/286/26 100/101/26 92/284/26
f 96/288/26 100/101/26 94/286/26
f 98/290/26 100/101/26 96/288/26
f 52/245/26 100/101/26 98/290/26
f 54/150/2 52/148/1 51/147/1
f 51/147/1 53/149/2 54/150/2
f 56/154/3 54/152/2 53/151/2
f 53/151/2 55/153/3 56/154/3
f 58/158/4 56/156/3 55/155/3
f 55/155/3 57/157/4 58/158/4
f 60/162/5 58/160/4 57/159/4
f 57/159/4 59/161/5 60/162/5
f 62/166/6 60/164/5 59/163/5
f 59/163/5 61/165/6 62/166/6
f 64/170/7 62/168/6 61/167/6
f 61/167/6 63/169/7 64/170/7
f 66/174/8 64/172/7 63/171/7
f 63/171/7 65/173/8 66/174/8
f 68/178/9 66/176/8 65/175/8
f 65/175/8 67/177/9 68/178/9
f 70/182/10 68/180/9 67/179/9
f 67/179/9 69/181/10 70/182/10
f 72/186/27 70/184/10 69/183/10
f 69/183/10 71/185/27 72/186/27
f 74/190/12 72/188/27 71/187/27
f 71/187/27 73/189/12 74/190/12
f 76/194/13 74/192/12 73/191/12
f 73/191/12 75/193/13 76/194/13
f 78/198/14 76/196/13 75/195/13
f 75/195/13 77/197/14 78/198/14
f 80/202/28 78/200/14 77/199/14
f 77/199/14 79/201/28 80/202/28
f 82/206/16 80/204/28 79/203/28
f 79/203/28 81/205/16 82/206/16
f 84/210/29 82/208/16 81/207/16
f 81/207/16 83/209/29 84/210/29
f 86/214/18 84/212/29 83/211/29
f 83/211/29 85/213/18 86/214/18
f 88/218/19 86/216/18 85/215/18
f 85/215/18 87/217/19 88/218/19
f 90/222/20 88/220/19 87/219/19
f 87/219/19 89/221/20 90/222/20
f 92/226/30 90/224/20 89/223/20
f 89/223/20 91/225/30 92/226/30
f 94/230/22 92/228/30 91/227/30
f 91/227/30 93/229/22 94/230/22
f 96/234/31 94/232/22 93/231/22
f 93/231/22 95/233/31 96/234/31
f 98/238/24 96/236/31 95/235/31
f 95/235/31 97/237/24 98/238/24
f 52/242/1 98/240/24 97/239/24
f 97/239/24 51/241/1 52/242/1

