# ProBuilder 5.2.0
# https://unity3d.com/unity/features/worldbuilding/probuilder
# 11/23/2023 5:55:13 PM

mtllib ./LlantaAtrasCosechadora.mtl
o LlantaAtrasCosechadora

g LlantaAtrasCosechadora
v 0.4577561 0.4131042 -0.9029084
v 0.4577561 1.013104 -0.9029084
v 0.4679784 0.4131042 -0.8252627
v 0.4679784 1.013104 -0.8252627
v 0.4979485 0.4131042 -0.7529083
v 0.4979485 1.013104 -0.7529083
v 0.5456241 0.4131042 -0.6907763
v 0.5456241 1.013104 -0.6907763
v 0.6077561 0.4131042 -0.6431007
v 0.6077561 1.013104 -0.6431007
v 0.6801104 0.4131042 -0.6131306
v 0.6801104 1.013104 -0.6131306
v 0.7577561 0.4131042 -0.6029084
v 0.7577561 1.013104 -0.6029084
v 0.8354018 0.4131042 -0.6131306
v 0.8354018 1.013104 -0.6131306
v 0.9077561 0.4131042 -0.6431007
v 0.9077561 1.013104 -0.6431007
v 0.9698882 0.4131042 -0.6907763
v 0.9698882 1.013104 -0.6907763
v 1.017564 0.4131042 -0.7529083
v 1.017564 1.013104 -0.7529083
v 1.047534 0.4131042 -0.8252627
v 1.047534 1.013104 -0.8252627
v 1.057756 0.4131042 -0.9029084
v 1.057756 1.013104 -0.9029084
v 1.047534 0.4131042 -0.9805541
v 1.047534 1.013104 -0.9805541
v 1.017564 0.4131042 -1.052908
v 1.017564 1.013104 -1.052908
v 0.9698882 0.4131042 -1.11504
v 0.9698882 1.013104 -1.11504
v 0.9077561 0.4131042 -1.162716
v 0.9077561 1.013104 -1.162716
v 0.8354018 0.4131042 -1.192686
v 0.8354018 1.013104 -1.192686
v 0.7577561 0.4131042 -1.202908
v 0.7577561 1.013104 -1.202908
v 0.6801104 0.4131042 -1.192686
v 0.6801104 1.013104 -1.192686
v 0.6077561 0.4131042 -1.162716
v 0.6077561 1.013104 -1.162716
v 0.5456241 0.4131042 -1.11504
v 0.5456241 1.013104 -1.11504
v 0.4979485 0.4131042 -1.052908
v 0.4979485 1.013104 -1.052908
v 0.4679784 0.4131042 -0.9805542
v 0.4679784 1.013104 -0.9805542
v 0.7577561 0.4131042 -0.9029084
v 0.7577561 1.013104 -0.9029084
v 0.1077567 0.3951035 -0.9029084
v 0.1077567 0.9951019 -0.9029084
v 0.1299013 0.3951035 -0.734676
v 0.1299013 0.9951019 -0.734676
v 0.1948385 0.3951035 -0.5779085
v 0.1948385 0.9951019 -0.5779085
v 0.2981322 0.3951035 -0.4432891
v 0.2981322 0.9951019 -0.4432891
v 0.4327564 0.3951035 -0.3399918
v 0.4327564 0.9951019 -0.3399918
v 0.5895252 0.3951035 -0.2750567
v 0.5895252 0.9951019 -0.2750567
v 0.7577561 0.3951035 -0.2529085
v 0.7577561 0.9951019 -0.2529085
v 0.925987 0.3951035 -0.2750567
v 0.925987 0.9951019 -0.2750567
v 1.082756 0.3951035 -0.3399919
v 1.082756 0.9951019 -0.3399919
v 1.217371 0.3951035 -0.4432891
v 1.217371 0.9951019 -0.4432891
v 1.320665 0.3951035 -0.5779085
v 1.320665 0.9951019 -0.5779085
v 1.385602 0.3951035 -0.734676
v 1.385602 0.9951019 -0.734676
v 1.407755 0.3951035 -0.9029084
v 1.407755 0.9951019 -0.9029084
v 1.385602 0.3951035 -1.071141
v 1.385602 0.9951019 -1.071141
v 1.320665 0.3951035 -1.227908
v 1.320665 0.9951019 -1.227908
v 1.217371 0.3951035 -1.362528
v 1.217371 0.9951019 -1.362528
v 1.082756 0.3951035 -1.465825
v 1.082756 0.995102 -1.465825
v 0.925987 0.3951035 -1.53076
v 0.925987 0.9951018 -1.53076
v 0.7577561 0.3951035 -1.552908
v 0.7577561 0.9951018 -1.552908
v 0.5895252 0.3951035 -1.53076
v 0.5895252 0.9951018 -1.53076
v 0.4327564 0.3951035 -1.465825
v 0.4327564 0.995102 -1.465825
v 0.2981322 0.3951035 -1.362528
v 0.2981322 0.9951018 -1.362528
v 0.1948385 0.3951035 -1.227908
v 0.1948385 0.9951019 -1.227908
v 0.1299013 0.3951035 -1.071141
v 0.1299013 0.9951019 -1.071141
v 0.7577561 0.3951035 -0.9029084
v 0.7577561 0.9951019 -0.9029084

vt -0.8354347 0.4131042
vt -0.8354347 1.013104
vt -0.757119 0.4131042
vt -0.757119 1.013104
vt -0.5833557 0.4131042
vt -0.5833557 1.013104
vt -0.5050399 0.4131042
vt -0.5050399 1.013104
vt -0.2941904 0.4131042
vt -0.2941904 1.013104
vt -0.2158747 0.4131042
vt -0.2158747 1.013104
vt 0.01235463 0.4131042
vt 0.01235463 1.013104
vt 0.09067038 0.4131042
vt 0.09067038 1.013104
vt 0.3153895 0.4131042
vt 0.3153895 1.013104
vt 0.3937052 0.4131042
vt 0.3937052 1.013104
vt 0.5942624 0.4131042
vt 0.5942624 1.013104
vt 0.6725781 0.4131042
vt 0.6725781 1.013104
vt 0.8299688 0.4131042
vt 0.8299688 1.013104
vt 0.9082845 0.4131042
vt 0.9082845 1.013104
vt 1.006446 0.4131042
vt 1.006446 1.013104
vt 1.084761 0.4131042
vt 1.084761 1.013104
vt 1.111666 0.4131042
vt 1.111666 1.013104
vt 1.189982 0.4131042
vt 1.189982 1.013104
vt 1.13846 0.4131042
vt 1.13846 1.013104
vt 1.216776 0.4131042
vt 1.216776 1.013104
vt 1.085002 0.4131042
vt 1.085002 1.013104
vt 1.163317 0.4131042
vt 1.163317 1.013104
vt 0.9549338 0.4131042
vt 0.9549338 1.013104
vt 1.033249 0.4131042
vt 1.033249 1.013104
vt 0.757118 0.4131042
vt 0.757118 1.013104
vt 0.8354338 0.4131042
vt 0.8354338 1.013104
vt 0.5050395 0.4131042
vt 0.5050395 1.013104
vt 0.5833553 0.4131042
vt 0.5833553 1.013104
vt 0.215875 0.4131042
vt 0.215875 1.013104
vt 0.2941907 0.4131042
vt 0.2941907 1.013104
vt -0.09067032 0.4131042
vt -0.09067032 1.013104
vt -0.01235456 0.4131042
vt -0.01235456 1.013104
vt -0.3937042 0.4131042
vt -0.3937042 1.013104
vt -0.3153885 0.4131042
vt -0.3153885 1.013104
vt -0.672579 0.4131042
vt -0.672579 1.013104
vt -0.5942633 0.4131042
vt -0.5942633 1.013104
vt -0.9082853 0.4131042
vt -0.9082853 1.013104
vt -0.8299696 0.4131042
vt -0.8299696 1.013104
vt -1.084761 0.4131042
vt -1.084761 1.013104
vt -1.006445 0.4131042
vt -1.006445 1.013104
vt -1.189982 0.4131042
vt -1.189982 1.013104
vt -1.111667 0.4131042
vt -1.111667 1.013104
vt -1.216776 0.4131042
vt -1.216776 1.013104
vt -1.13846 0.4131042
vt -1.13846 1.013104
vt -1.163317 0.4131042
vt -1.163317 1.013104
vt -1.085002 0.4131042
vt -1.085002 1.013104
vt -1.033249 0.4131042
vt -1.033249 1.013104
vt -0.9549332 0.4131042
vt -0.9549332 1.013104
vt 0.4577561 -0.9029084
vt 0.7577561 -0.9029084
vt 0.4679784 -0.8252627
vt -0.4577561 -0.9029084
vt -0.7577561 -0.9029084
vt -0.4679784 -0.8252627
vt 0.4979485 -0.7529083
vt -0.4979485 -0.7529083
vt 0.5456241 -0.6907763
vt -0.5456241 -0.6907763
vt 0.6077561 -0.6431007
vt -0.6077561 -0.6431007
vt 0.6801104 -0.6131306
vt -0.6801104 -0.6131306
vt 0.7577561 -0.6029084
vt -0.7577561 -0.6029084
vt 0.8354018 -0.6131306
vt -0.8354018 -0.6131306
vt 0.9077561 -0.6431007
vt -0.9077561 -0.6431007
vt 0.9698882 -0.6907763
vt -0.9698882 -0.6907763
vt 1.017564 -0.7529083
vt -1.017564 -0.7529083
vt 1.047534 -0.8252627
vt -1.047534 -0.8252627
vt 1.057756 -0.9029084
vt -1.057756 -0.9029084
vt 1.047534 -0.9805541
vt -1.047534 -0.9805541
vt 1.017564 -1.052908
vt -1.017564 -1.052908
vt 0.9698882 -1.11504
vt -0.9698882 -1.11504
vt 0.9077561 -1.162716
vt -0.9077561 -1.162716
vt 0.8354018 -1.192686
vt -0.8354018 -1.192686
vt 0.7577561 -1.202908
vt -0.7577561 -1.202908
vt 0.6801104 -1.192686
vt -0.6801104 -1.192686
vt 0.6077561 -1.162716
vt -0.6077561 -1.162716
vt 0.5456241 -1.11504
vt -0.5456241 -1.11504
vt 0.4979485 -1.052908
vt -0.4979485 -1.052908
vt 0.4679784 -0.9805542
vt -0.4679784 -0.9805542
vt -0.8811189 0.4131043
vt -0.8811189 1.013104
vt -0.7114348 0.4131043
vt -0.7114348 1.013104
vt -0.6290398 0.4131043
vt -0.6290398 1.013104
vt -0.4593557 0.4131043
vt -0.4593557 1.013104
vt -0.3398747 0.4131043
vt -0.3398747 1.013104
vt -0.1701907 0.4131043
vt -0.1701907 1.013104
vt -0.03332958 0.4131043
vt -0.03332958 1.013104
vt 0.1363545 0.4131043
vt 0.1363545 1.013104
vt 0.2697052 0.4131043
vt 0.2697052 1.013104
vt 0.4393893 0.4131043
vt 0.4393893 1.013104
vt 0.5485783 0.4131043
vt 0.5485783 1.013104
vt 0.7182622 0.4131043
vt 0.7182622 1.013104
vt 0.7842845 0.4131043
vt 0.7842845 1.013104
vt 0.9539685 0.4131043
vt 0.9539685 1.013104
vt 0.9607613 0.4131043
vt 0.9607613 1.013104
vt 1.130445 0.4131043
vt 1.130445 1.013104
vt 1.065982 0.4131043
vt 1.065982 1.013104
vt 1.235666 0.4131043
vt 1.235666 1.013104
vt 1.092776 0.4131043
vt 1.092776 1.013104
vt 1.26246 0.4131043
vt 1.26246 1.013104
vt 1.039318 0.4131043
vt 1.039318 1.013104
vt 1.209002 0.4131043
vt 1.209002 1.013104
vt 0.9092481 0.4131043
vt 0.9092481 1.013104
vt 1.078932 0.4131043
vt 1.078932 1.013104
vt 0.7114356 0.4131043
vt 0.7114356 1.013104
vt 0.8811195 0.4131043
vt 0.8811195 1.013104
vt 0.4593542 0.4131043
vt 0.4593542 1.013104
vt 0.6290383 0.4131043
vt 0.6290383 1.013104
vt 0.1701913 0.4131043
vt 0.1701913 1.013104
vt 0.3398753 0.4131043
vt 0.3398753 1.013104
vt -0.1363549 0.4131043
vt -0.1363549 1.013104
vt 0.03332922 0.4131043
vt 0.03332922 1.013104
vt -0.4393886 0.4131043
vt -0.4393886 1.013104
vt -0.2697046 0.4131043
vt -0.2697046 1.013104
vt -0.7182618 0.4131042
vt -0.7182618 1.013104
vt -0.5485778 0.4131042
vt -0.5485778 1.013104
vt -0.953969 0.4131042
vt -0.953969 1.013104
vt -0.7842851 0.4131042
vt -0.7842851 1.013104
vt -1.130446 0.4131043
vt -1.130446 1.013104
vt -0.9607618 0.4131043
vt -0.9607618 1.013104
vt -1.235666 0.4131043
vt -1.235666 1.013104
vt -1.065982 0.4131043
vt -1.065982 1.013104
vt -1.26246 0.4131043
vt -1.26246 1.013104
vt -1.092776 0.4131043
vt -1.092776 1.013104
vt -1.209002 0.4131043
vt -1.209002 1.013104
vt -1.039318 0.4131043
vt -1.039318 1.013104
vt -1.078933 0.4131043
vt -1.078933 1.013104
vt -0.9092489 0.4131043
vt -0.9092489 1.013104
vt 0.1077562 -0.9029084
vt 0.1299008 -0.734676
vt -0.1077562 -0.9029084
vt -0.1299008 -0.734676
vt 0.1948412 -0.5779084
vt -0.1948412 -0.5779084
vt 0.2981331 -0.443289
vt -0.2981331 -0.443289
vt 0.4327596 -0.3399919
vt -0.4327596 -0.3399919
vt 0.5895251 -0.2750566
vt -0.589525 -0.2750566
vt 0.7577561 -0.2529083
vt -0.7577561 -0.2529083
vt 0.9259886 -0.2750566
vt -0.9259886 -0.2750566
vt 1.082756 -0.3399918
vt -1.082756 -0.3399918
vt 1.217376 -0.4432891
vt -1.217376 -0.443289
vt 1.320673 -0.5779084
vt -1.320673 -0.5779083
vt 1.385608 -0.734676
vt -1.385608 -0.7346759
vt 1.407756 -0.9029084
vt -1.407756 -0.9029084
vt 1.385602 -1.071141
vt -1.385602 -1.071141
vt 1.32067 -1.227908
vt -1.32067 -1.227908
vt 1.217377 -1.362528
vt -1.217377 -1.362528
vt 1.082759 -1.465825
vt -1.082759 -1.465825
vt 0.9259871 -1.53076
vt -0.9259871 -1.53076
vt 0.7577561 -1.552908
vt -0.7577561 -1.552908
vt 0.5895239 -1.53076
vt -0.5895239 -1.53076
vt 0.4327562 -1.465825
vt -0.4327562 -1.465825
vt 0.2981369 -1.362528
vt -0.2981368 -1.362528
vt 0.1948397 -1.227908
vt -0.1948397 -1.227908
vt 0.1299044 -1.071141
vt -0.1299044 -1.071141

vn -1 0 -1.427826E-07
vn -0.9659258 0 0.258819
vn -0.8660253 0 0.5000001
vn -0.7071068 0 0.7071068
vn -0.5 0 0.8660254
vn -0.258819 0 0.9659258
vn 0 0 1
vn 0.2588189 0 0.9659259
vn 0.5000001 0 0.8660253
vn 0.707107 0 0.7071065
vn 0.8660253 0 0.5000001
vn 0.9659256 0 0.2588196
vn 1 0 0
vn 0.9659256 0 -0.2588196
vn 0.8660253 0 -0.5000001
vn 0.7071068 0 -0.7071067
vn 0.5000003 0 -0.8660253
vn 0.258819 0 -0.9659258
vn -7.59002E-07 0 -1
vn -0.2588191 0 -0.9659258
vn -0.4999999 0 -0.8660254
vn -0.7071067 0 -0.7071069
vn -0.8660252 0 -0.5000003
vn -0.9659258 0 -0.2588192
vn 0 -1 0
vn 0 1 0
vn -0.8660267 0 0.4999978
vn 0.8660267 0 0.4999977
vn 0.8660266 0 -0.4999978
vn -0.8660267 0 -0.4999977

usemtl Amarillo_JD
f 1/97/25 49/98/25 3/99/25
f 3/99/25 49/98/25 5/103/25
f 5/103/25 49/98/25 7/105/25
f 7/105/25 49/98/25 9/107/25
f 9/107/25 49/98/25 11/109/25
f 11/109/25 49/98/25 13/111/25
f 13/111/25 49/98/25 15/113/25
f 15/113/25 49/98/25 17/115/25
f 17/115/25 49/98/25 19/117/25
f 19/117/25 49/98/25 21/119/25
f 21/119/25 49/98/25 23/121/25
f 23/121/25 49/98/25 25/123/25
f 25/123/25 49/98/25 27/125/25
f 27/125/25 49/98/25 29/127/25
f 29/127/25 49/98/25 31/129/25
f 31/129/25 49/98/25 33/131/25
f 33/131/25 49/98/25 35/133/25
f 35/133/25 49/98/25 37/135/25
f 37/135/25 49/98/25 39/137/25
f 39/137/25 49/98/25 41/139/25
f 41/139/25 49/98/25 43/141/25
f 43/141/25 49/98/25 45/143/25
f 45/143/25 49/98/25 47/145/25
f 47/145/25 49/98/25 1/97/25
f 4/102/26 50/101/26 2/100/26
f 6/104/26 50/101/26 4/102/26
f 8/106/26 50/101/26 6/104/26
f 10/108/26 50/101/26 8/106/26
f 12/110/26 50/101/26 10/108/26
f 14/112/26 50/101/26 12/110/26
f 16/114/26 50/101/26 14/112/26
f 18/116/26 50/101/26 16/114/26
f 20/118/26 50/101/26 18/116/26
f 22/120/26 50/101/26 20/118/26
f 24/122/26 50/101/26 22/120/26
f 26/124/26 50/101/26 24/122/26
f 28/126/26 50/101/26 26/124/26
f 30/128/26 50/101/26 28/126/26
f 32/130/26 50/101/26 30/128/26
f 34/132/26 50/101/26 32/130/26
f 36/134/26 50/101/26 34/132/26
f 38/136/26 50/101/26 36/134/26
f 40/138/26 50/101/26 38/136/26
f 42/140/26 50/101/26 40/138/26
f 44/142/26 50/101/26 42/140/26
f 46/144/26 50/101/26 44/142/26
f 48/146/26 50/101/26 46/144/26
f 2/100/26 50/101/26 48/146/26
f 4/4/2 2/2/1 1/1/1
f 1/1/1 3/3/2 4/4/2
f 6/8/3 4/6/2 3/5/2
f 3/5/2 5/7/3 6/8/3
f 8/12/4 6/10/3 5/9/3
f 5/9/3 7/11/4 8/12/4
f 10/16/5 8/14/4 7/13/4
f 7/13/4 9/15/5 10/16/5
f 12/20/6 10/18/5 9/17/5
f 9/17/5 11/19/6 12/20/6
f 14/24/7 12/22/6 11/21/6
f 11/21/6 13/23/7 14/24/7
f 16/28/8 14/26/7 13/25/7
f 13/25/7 15/27/8 16/28/8
f 18/32/9 16/30/8 15/29/8
f 15/29/8 17/31/9 18/32/9
f 20/36/10 18/34/9 17/33/9
f 17/33/9 19/35/10 20/36/10
f 22/40/11 20/38/10 19/37/10
f 19/37/10 21/39/11 22/40/11
f 24/44/12 22/42/11 21/41/11
f 21/41/11 23/43/12 24/44/12
f 26/48/13 24/46/12 23/45/12
f 23/45/12 25/47/13 26/48/13
f 28/52/14 26/50/13 25/49/13
f 25/49/13 27/51/14 28/52/14
f 30/56/15 28/54/14 27/53/14
f 27/53/14 29/55/15 30/56/15
f 32/60/16 30/58/15 29/57/15
f 29/57/15 31/59/16 32/60/16
f 34/64/17 32/62/16 31/61/16
f 31/61/16 33/63/17 34/64/17
f 36/68/18 34/66/17 33/65/17
f 33/65/17 35/67/18 36/68/18
f 38/72/19 36/70/18 35/69/18
f 35/69/18 37/71/19 38/72/19
f 40/76/20 38/74/19 37/73/19
f 37/73/19 39/75/20 40/76/20
f 42/80/21 40/78/20 39/77/20
f 39/77/20 41/79/21 42/80/21
f 44/84/22 42/82/21 41/81/21
f 41/81/21 43/83/22 44/84/22
f 46/88/23 44/86/22 43/85/22
f 43/85/22 45/87/23 46/88/23
f 48/92/24 46/90/23 45/89/23
f 45/89/23 47/91/24 48/92/24
f 2/96/1 48/94/24 47/93/24
f 47/93/24 1/95/1 2/96/1

usemtl Negro_JD
f 51/243/25 99/98/25 53/244/25
f 53/244/25 99/98/25 55/247/25
f 55/247/25 99/98/25 57/249/25
f 57/249/25 99/98/25 59/251/25
f 59/251/25 99/98/25 61/253/25
f 61/253/25 99/98/25 63/255/25
f 63/255/25 99/98/25 65/257/25
f 65/257/25 99/98/25 67/259/25
f 67/259/25 99/98/25 69/261/25
f 69/261/25 99/98/25 71/263/25
f 71/263/25 99/98/25 73/265/25
f 73/265/25 99/98/25 75/267/25
f 75/267/25 99/98/25 77/269/25
f 77/269/25 99/98/25 79/271/25
f 79/271/25 99/98/25 81/273/25
f 81/273/25 99/98/25 83/275/25
f 83/275/25 99/98/25 85/277/25
f 85/277/25 99/98/25 87/279/25
f 87/279/25 99/98/25 89/281/25
f 89/281/25 99/98/25 91/283/25
f 91/283/25 99/98/25 93/285/25
f 93/285/25 99/98/25 95/287/25
f 95/287/25 99/98/25 97/289/25
f 97/289/25 99/98/25 51/243/25
f 54/246/26 100/101/26 52/245/26
f 56/248/26 100/101/26 54/246/26
f 58/250/26 100/101/26 56/248/26
f 60/252/26 100/101/26 58/250/26
f 62/254/26 100/101/26 60/252/26
f 64/256/26 100/101/26 62/254/26
f 66/258/26 100/101/26 64/256/26
f 68/260/26 100/101/26 66/258/26
f 70/262/26 100/101/26 68/260/26
f 72/264/26 100/101/26 70/262/26
f 74/266/26 100/101/26 72/264/26
f 76/268/26 100/101/26 74/266/26
f 78/270/26 100/101/26 76/268/26
f 80/272/26 100/101/26 78/270/26
f 82/274/26 100/101/26 80/272/26
f 84/276/26 100/101/26 82/274/26
f 86/278/26 100/101/26 84/276/26
f 88/280/26 100/101/26 86/278/26
f 90/282/26 100/101/26 88/280/26
f 92/284/26 100/101/26 90/282/26
f 94/286/26 100/101/26 92/284/26
f 96/288/26 100/101/26 94/286/26
f 98/290/26 100/101/26 96/288/26
f 52/245/26 100/101/26 98/290/26
f 54/150/2 52/148/1 51/147/1
f 51/147/1 53/149/2 54/150/2
f 56/154/27 54/152/2 53/151/2
f 53/151/2 55/153/27 56/154/27
f 58/158/4 56/156/27 55/155/27
f 55/155/27 57/157/4 58/158/4
f 60/162/5 58/160/4 57/159/4
f 57/159/4 59/161/5 60/162/5
f 62/166/6 60/164/5 59/163/5
f 59/163/5 61/165/6 62/166/6
f 64/170/7 62/168/6 61/167/6
f 61/167/6 63/169/7 64/170/7
f 66/174/8 64/172/7 63/171/7
f 63/171/7 65/173/8 66/174/8
f 68/178/9 66/176/8 65/175/8
f 65/175/8 67/177/9 68/178/9
f 70/182/10 68/180/9 67/179/9
f 67/179/9 69/181/10 70/182/10
f 72/186/28 70/184/10 69/183/10
f 69/183/10 71/185/28 72/186/28
f 74/190/12 72/188/28 71/187/28
f 71/187/28 73/189/12 74/190/12
f 76/194/13 74/192/12 73/191/12
f 73/191/12 75/193/13 76/194/13
f 78/198/14 76/196/13 75/195/13
f 75/195/13 77/197/14 78/198/14
f 80/202/29 78/200/14 77/199/14
f 77/199/14 79/201/29 80/202/29
f 82/206/16 80/204/29 79/203/29
f 79/203/29 81/205/16 82/206/16
f 84/210/17 82/208/16 81/207/16
f 81/207/16 83/209/17 84/210/17
f 86/214/18 84/212/17 83/211/17
f 83/211/17 85/213/18 86/214/18
f 88/218/19 86/216/18 85/215/18
f 85/215/18 87/217/19 88/218/19
f 90/222/20 88/220/19 87/219/19
f 87/219/19 89/221/20 90/222/20
f 92/226/21 90/224/20 89/223/20
f 89/223/20 91/225/21 92/226/21
f 94/230/22 92/228/21 91/227/21
f 91/227/21 93/229/22 94/230/22
f 96/234/30 94/232/22 93/231/22
f 93/231/22 95/233/30 96/234/30
f 98/238/24 96/236/30 95/235/30
f 95/235/30 97/237/24 98/238/24
f 52/242/1 98/240/24 97/239/24
f 97/239/24 51/241/1 52/242/1

