# ProBuilder 5.2.0
# https://unity3d.com/unity/features/worldbuilding/probuilder
# 11/30/2023 3:57:34 AM

mtllib ./Pino.mtl
o Pino

g Pino
v 0.3018913 1.182915 0.7765274
v 0.5518913 1.182915 1.20954
v 0.8018913 2.182915 0.7765274
v 0.8018913 1.182915 0.7765274
v 1.051891 1.182915 1.20954
v 1.301891 1.182915 0.7765274
v 1.051891 1.182915 0.3435147
v 0.5518914 1.182915 0.3435147
v 0.3018913 -6.2599 0.7765312
v 0.8018913 -6.2599 1.276531
v 0.8018913 -0.5803237 0.7765312
v 0.8018913 -6.2599 0.7765312
v 1.301891 -6.2599 0.7765312
v 0.8018913 -6.2599 0.276535
v 1.603779 -3.33 0.7765274
v 1.202835 -3.33 1.44902
v 0.8018913 -1.707566 0.7765274
v 0.8018913 -3.33 0.7765274
v 0.4009476 -3.33 1.44902
v 3.814697E-06 -3.33 0.7765274
v 0.4009476 -3.33 0.1040344
v 1.202835 -3.33 0.1040344
v -0.1981087 -2.81 0.7765274
v 0.3018913 -2.81 1.642551
v 0.8018913 -1.397222 0.7765274
v 0.8018913 -2.81 0.7765274
v 1.301891 -2.81 1.642551
v 1.801891 -2.81 0.7765274
v 1.301891 -2.81 -0.08950043
v 0.3018913 -2.81 -0.08950043
v -0.6981087 -2.397086 0.7765274
v 0.05189133 -2.397086 2.075565
v 0.8018913 -0.3970857 0.7765274
v 0.8018913 -2.397086 0.7765274
v 1.551891 -2.397086 2.075565
v 2.301891 -2.397086 0.7765274
v 1.551891 -2.397086 -0.5225143
v 0.05189133 -2.397086 -0.5225143
v -0.4481087 -1.647085 0.7765274
v 0.1768913 -1.647085 1.859058
v 0.8018913 0.3529148 0.7765274
v 0.8018913 -1.647085 0.7765274
v 1.426891 -1.647085 1.859058
v 2.051891 -1.647085 0.7765274
v 1.426891 -1.647085 -0.3060074
v 0.1768913 -1.647085 -0.3060074
v -0.4481087 -0.9770856 0.7765274
v 0.1768913 -0.9770856 1.859058
v 0.8018913 1.022914 0.7765274
v 0.8018913 -0.9770856 0.7765274
v 1.426891 -0.9770856 1.859058
v 2.051891 -0.9770856 0.7765274
v 1.426891 -0.9770856 -0.3060074
v 0.1768913 -0.9770856 -0.3060074
v -0.1981087 -0.1470857 0.7765274
v 0.3018913 -0.1470857 1.642551
v 0.8018913 1.652915 0.7765274
v 0.8018913 -0.1470857 0.7765274
v 1.301891 -0.1470857 1.642551
v 1.801891 -0.1470857 0.7765274
v 1.301891 -0.1470857 -0.08950043
v 0.3018913 -0.1470857 -0.08950043

vt 0 0
vt 1 5.960464E-08
vt 0.5 1.322876
vt 0.3018913 0.7765274
vt 0.5518913 1.20954
vt 0.8018913 0.7765274
vt 1.051891 1.20954
vt 1.301891 0.7765274
vt 1.051891 0.3435147
vt 0.5518914 0.3435147
vt 1.414214 0
vt 0.7071068 2.881866
vt 0.5415001 0.8055382
vt 1.0415 1.305538
vt 1.0415 0.8055382
vt 1.5415 0.8055382
vt 1.0415 0.3055382
vt 1.553055 0
vt 0.7765276 3.624609
vt 1.603781 0.7765274
vt 1.202836 1.44902
vt 0.4009466 1.44902
vt 1.847744E-06 0.7765274
vt 0.4009466 0.1040349
vt 1.202836 0.1040348
vt 2 0
vt 1 3.785341
vt -0.1979592 0.7762686
vt 0.3017419 1.642639
vt 0.8020407 0.7766137
vt 1.301891 1.642553
vt 1.801891 0.7765273
vt 1.301891 -0.08949804
vt 0.3018914 -0.08949804
vt -0.1981086 0.7765276
vt 3 2.384186E-07
vt 1.5 3.278719
vt -0.6981088 0.7765275
vt 0.05189144 2.075566
vt 1.551891 2.075566
vt 2.301891 0.7765273
vt 1.551891 -0.5225108
vt 0.05189145 -0.5225108
vt 2.5 0
vt 1.25 2.947457
vt -0.4481088 0.7765275
vt 0.1768914 1.859059
vt 1.426891 1.859059
vt 2.051891 0.7765273
vt 1.426891 -0.3060044
vt 0.1768914 -0.3060044
vt 1 2.497999

vn -0.8944272 0.4472136 -5.031211E-08
vn -0.4472136 0.4472136 0.7745966
vn 0 1 -2.500029E-08
vn 0 -1 0
vn 0.4472136 0.4472136 0.7745966
vn 0.8944272 0.4472136 0
vn 0.4472136 0.4472136 -0.7745966
vn -0.4472136 0.4472136 -0.7745966
vn -0.9961473 0.08769557 -1.935028E-06
vn 0 0.08769557 0.9961473
vn 0.9961473 0.08769557 -1.935028E-06
vn 0 0.08769491 -0.9961474
vn 0.8964797 0.4430848 0
vn 0.4440521 0.4345287 0.7835832
vn -0.4440521 0.4345287 0.7835832
vn -0.8964797 0.4430848 0
vn -0.4440521 0.4345287 -0.7835832
vn 0.4440521 0.4345287 -0.7835832
vn -0.8162201 0.5777411 8.401148E-07
vn -0.4081099 0.5777406 0.7068678
vn 0.4081099 0.5777406 0.7068678
vn 0.8162201 0.5777411 8.401148E-07
vn 0.4081103 0.5777419 -0.7068665
vn -0.4081103 0.5777419 -0.7068665
vn -0.8 0.6 5.744842E-07
vn -0.4 0.6 0.6928203
vn 0.4 0.6 0.6928203
vn 0.8 0.6 5.744842E-07
vn 0.4000003 0.6000009 -0.6928195
vn -0.4000003 0.6000009 -0.6928195
vn -0.8479983 0.529999 6.968313E-07
vn -0.4239991 0.5299987 0.7343883
vn 0.4239991 0.5299987 0.7343883
vn 0.8479983 0.529999 6.968313E-07
vn 0.4239994 0.5299997 -0.7343873
vn -0.4239994 0.5299997 -0.7343873
vn -0.8741572 0.4856429 8.846446E-07
vn -0.4370785 0.4856425 0.7570428
vn 0.4370785 0.4856425 0.7570428
vn 0.8741572 0.4856429 8.846446E-07
vn 0.437079 0.4856437 -0.7570418
vn -0.437079 0.4856437 -0.7570418

usemtl Pino
f 1/1/1 2/2/2 3/3/3
f 4/6/4 2/5/4 1/4/4
f 2/1/2 5/2/5 3/3/3
f 4/6/4 5/7/4 2/5/4
f 5/1/5 6/2/6 3/3/3
f 4/6/4 6/8/4 5/7/4
f 6/1/6 7/2/7 3/3/3
f 4/6/4 7/9/4 6/8/4
f 7/1/7 8/2/8 3/3/3
f 4/6/4 8/10/4 7/9/4
f 8/1/8 1/2/1 3/3/3
f 4/6/4 1/4/4 8/10/4
f 17/19/3 16/1/14 15/18/13
f 15/20/4 16/21/4 18/6/4
f 17/19/3 19/1/15 16/18/14
f 16/21/4 19/22/4 18/6/4
f 17/19/3 20/1/16 19/18/15
f 19/22/4 20/23/4 18/6/4
f 17/19/3 21/1/17 20/18/16
f 20/23/4 21/24/4 18/6/4
f 17/19/3 22/1/18 21/18/17
f 21/24/4 22/25/4 18/6/4
f 17/19/3 15/1/13 22/18/18
f 22/25/4 15/20/4 18/6/4
f 23/1/19 24/26/20 25/27/3
f 26/30/4 24/29/4 23/28/4
f 24/1/20 27/26/21 25/27/3
f 26/6/4 27/31/4 24/29/4
f 27/1/21 28/26/22 25/27/3
f 26/6/4 28/32/4 27/31/4
f 28/1/22 29/26/23 25/27/3
f 26/6/4 29/33/4 28/32/4
f 29/1/23 30/26/24 25/27/3
f 26/6/4 30/34/4 29/33/4
f 30/1/24 23/26/19 25/27/3
f 26/6/4 23/35/4 30/34/4
f 31/1/25 32/36/26 33/37/3
f 34/6/4 32/39/4 31/38/4
f 32/1/26 35/36/27 33/37/3
f 34/6/4 35/40/4 32/39/4
f 35/1/27 36/36/28 33/37/3
f 34/6/4 36/41/4 35/40/4
f 36/1/28 37/36/29 33/37/3
f 34/6/4 37/42/4 36/41/4
f 37/1/29 38/36/30 33/37/3
f 34/6/4 38/43/4 37/42/4
f 38/1/30 31/36/25 33/37/3
f 34/6/4 31/38/4 38/43/4
f 39/1/31 40/44/32 41/45/3
f 42/6/4 40/47/4 39/46/4
f 40/1/32 43/44/33 41/45/3
f 42/6/4 43/48/4 40/47/4
f 43/1/33 44/44/34 41/45/3
f 42/6/4 44/49/4 43/48/4
f 44/1/34 45/44/35 41/45/3
f 42/6/4 45/50/4 44/49/4
f 45/1/35 46/44/36 41/45/3
f 42/6/4 46/51/4 45/50/4
f 46/1/36 39/44/31 41/45/3
f 42/6/4 39/46/4 46/51/4
f 47/1/31 48/44/32 49/45/3
f 50/6/4 48/47/4 47/46/4
f 48/1/32 51/44/33 49/45/3
f 50/6/4 51/48/4 48/47/4
f 51/1/33 52/44/34 49/45/3
f 50/6/4 52/49/4 51/48/4
f 52/1/34 53/44/35 49/45/3
f 50/6/4 53/50/4 52/49/4
f 53/1/35 54/44/36 49/45/3
f 50/6/4 54/51/4 53/50/4
f 54/1/36 47/44/31 49/45/3
f 50/6/4 47/46/4 54/51/4
f 55/1/37 56/26/38 57/52/3
f 58/30/4 56/29/4 55/28/4
f 56/1/38 59/26/39 57/52/3
f 58/6/4 59/31/4 56/29/4
f 59/1/39 60/26/40 57/52/3
f 58/6/4 60/32/4 59/31/4
f 60/1/40 61/26/41 57/52/3
f 58/6/4 61/33/4 60/32/4
f 61/1/41 62/26/42 57/52/3
f 58/6/4 62/34/4 61/33/4
f 62/1/42 55/26/37 57/52/3
f 58/6/4 55/35/4 62/34/4

usemtl TroncoPino
f 9/1/9 10/11/10 11/12/3
f 12/15/4 10/14/4 9/13/4
f 10/1/10 13/11/11 11/12/3
f 12/15/4 13/16/4 10/14/4
f 13/1/11 14/11/12 11/12/3
f 12/15/4 14/17/4 13/16/4
f 14/1/12 9/11/9 11/12/3
f 12/15/4 9/13/4 14/17/4

