# ProBuilder 5.2.0
# https://unity3d.com/unity/features/worldbuilding/probuilder
# 11/29/2023 12:20:43 PM

mtllib ./Suelo.mtl
o Suelo

g Suelo
v 1.509945 9.952317E-05 -2.231308
v 1.509945 9.952317E-05 -1.731308
v 1.009945 9.952317E-05 -2.231308
v 1.009945 9.952317E-05 -1.731308
v 1.509945 9.952317E-05 -1.231308
v 1.009945 9.952317E-05 -1.231308
v 0.5099449 9.952317E-05 -2.231308
v 0.5099449 9.952317E-05 -1.731308
v 0.5099449 9.952317E-05 -1.231308

vt -1.509945 -2.231308
vt -1.509945 -1.731308
vt -1.009945 -2.231308
vt -1.009945 -1.731308
vt -1.509945 -1.231308
vt -1.009945 -1.231308
vt -0.5099449 -2.231308
vt -0.5099449 -1.731308
vt -0.5099449 -1.231308

vn 0 1 0

usemtl FarmGround
f 3/3/1 4/4/1 2/2/1 1/1/1
f 4/4/1 6/6/1 5/5/1 2/2/1
f 7/7/1 8/8/1 4/4/1 3/3/1
f 8/8/1 9/9/1 6/6/1 4/4/1

