# ProBuilder 5.2.0
# https://unity3d.com/unity/features/worldbuilding/probuilder
# 11/13/2023 11:26:03 AM

mtllib ./LlantaAtras.mtl
o LlantaAtras

g LlantaAtras
v 0.3077591 0.6131042 -0.9029083
v 0.3077591 0.8131043 -0.9029083
v 0.3230925 0.6131042 -0.7864398
v 0.3230925 0.8131043 -0.7864398
v 0.3680477 0.6131042 -0.6779083
v 0.3680477 0.8131043 -0.6779083
v 0.4395611 0.6131042 -0.5847103
v 0.4395611 0.8131043 -0.5847103
v 0.5327591 0.6131042 -0.5131969
v 0.5327591 0.8131043 -0.5131969
v 0.6412905 0.6131042 -0.4682417
v 0.6412905 0.8131043 -0.4682417
v 0.7577591 0.6131042 -0.4529083
v 0.7577591 0.8131043 -0.4529083
v 0.8742276 0.6131042 -0.4682417
v 0.8742276 0.8131043 -0.4682417
v 0.9827591 0.6131042 -0.5131969
v 0.9827591 0.8131043 -0.5131969
v 1.075957 0.6131042 -0.5847103
v 1.075957 0.8131043 -0.5847103
v 1.14747 0.6131042 -0.6779083
v 1.14747 0.8131043 -0.6779083
v 1.192426 0.6131042 -0.7864397
v 1.192426 0.8131043 -0.7864397
v 1.207759 0.6131042 -0.9029084
v 1.207759 0.8131043 -0.9029084
v 1.192426 0.6131042 -1.019377
v 1.192426 0.8131043 -1.019377
v 1.14747 0.6131042 -1.127908
v 1.14747 0.8131043 -1.127908
v 1.075957 0.6131042 -1.221106
v 1.075957 0.8131043 -1.221106
v 0.9827591 0.6131042 -1.29262
v 0.9827591 0.8131043 -1.29262
v 0.8742276 0.6131042 -1.337575
v 0.8742276 0.8131043 -1.337575
v 0.7577591 0.6131042 -1.352908
v 0.7577591 0.8131043 -1.352908
v 0.6412905 0.6131042 -1.337575
v 0.6412905 0.8131043 -1.337575
v 0.5327591 0.6131042 -1.29262
v 0.5327591 0.8131043 -1.29262
v 0.4395611 0.6131042 -1.221106
v 0.4395611 0.8131043 -1.221106
v 0.3680477 0.6131042 -1.127908
v 0.3680477 0.8131043 -1.127908
v 0.3230925 0.6131042 -1.019377
v 0.3230925 0.8131043 -1.019377
v 0.7577591 0.6131042 -0.9029083
v 0.7577591 0.8131043 -0.9029083
v 0.4077606 0.6311035 -0.9029086
v 0.4077606 0.8311005 -0.9029086
v 0.4196854 0.6311035 -0.8123219
v 0.4196854 0.8311005 -0.8123219
v 0.4546509 0.6311035 -0.7279086
v 0.4546509 0.8311005 -0.7279086
v 0.510273 0.6311035 -0.6554213
v 0.510273 0.8311005 -0.6554213
v 0.5827599 0.6311035 -0.5997996
v 0.5827599 0.8311005 -0.5997996
v 0.6671715 0.6311035 -0.5648346
v 0.6671715 0.8311005 -0.5648346
v 0.7577591 0.6311035 -0.5529087
v 0.7577591 0.8311005 -0.5529087
v 0.8483467 0.6311035 -0.5648346
v 0.8483467 0.8311005 -0.5648346
v 0.9327583 0.6311035 -0.5997996
v 0.9327583 0.8311005 -0.5997996
v 1.005245 0.6311035 -0.6554213
v 1.005245 0.8311005 -0.6554213
v 1.060867 0.6311035 -0.7279086
v 1.060867 0.8311005 -0.7279086
v 1.095833 0.6311035 -0.8123219
v 1.095833 0.8311005 -0.8123219
v 1.107758 0.6311035 -0.9029086
v 1.107758 0.8311005 -0.9029086
v 1.095833 0.6311035 -0.9934952
v 1.095833 0.8311005 -0.9934952
v 1.060867 0.6311035 -1.077909
v 1.060867 0.8311005 -1.077909
v 1.005245 0.6311035 -1.150396
v 1.005245 0.8311005 -1.150396
v 0.9327583 0.6311035 -1.206018
v 0.9327583 0.8311005 -1.206018
v 0.8483467 0.6311035 -1.240983
v 0.8483467 0.8311005 -1.240983
v 0.7577591 0.6311035 -1.252908
v 0.7577591 0.8311005 -1.252908
v 0.6671715 0.6311035 -1.240982
v 0.6671715 0.8311005 -1.240982
v 0.5827599 0.6311035 -1.206018
v 0.5827599 0.8311005 -1.206018
v 0.510273 0.6311035 -1.150396
v 0.510273 0.8311005 -1.150396
v 0.4546509 0.6311035 -1.077909
v 0.4546509 0.8311005 -1.077909
v 0.4196854 0.6311035 -0.9934952
v 0.4196854 0.8311005 -0.9934952
v 0.7577591 0.6311035 -0.9029086
v 0.7577591 0.8311005 -0.9029086

vt -0.8550132 0.6131042
vt -0.8550132 0.8131043
vt -0.7375396 0.6131042
vt -0.7375396 0.8131043
vt -0.6029336 0.6131042
vt -0.6029336 0.8131043
vt -0.48546 0.6131042
vt -0.48546 0.8131043
vt -0.3137674 0.6131042
vt -0.3137674 0.8131043
vt -0.1962939 0.6131042
vt -0.1962939 0.8131043
vt -0.007221976 0.6131042
vt -0.007221976 0.8131043
vt 0.1102516 0.6131042
vt 0.1102516 0.8131043
vt 0.2958134 0.6131042
vt 0.2958134 0.8131043
vt 0.413287 0.6131042
vt 0.413287 0.8131043
vt 0.5746864 0.6131042
vt 0.5746864 0.8131043
vt 0.69216 0.6131042
vt 0.69216 0.8131043
vt 0.8103928 0.6131042
vt 0.8103928 0.8131043
vt 0.9278664 0.6131042
vt 0.9278664 0.8131043
vt 0.9868694 0.6131042
vt 0.9868694 0.8131043
vt 1.104343 0.6131042
vt 1.104343 0.8131043
vt 1.09209 0.6131042
vt 1.09209 0.8131043
vt 1.209563 0.6131042
vt 1.209563 0.8131043
vt 1.118883 0.6131042
vt 1.118883 0.8131043
vt 1.236357 0.6131042
vt 1.236357 0.8131043
vt 1.065424 0.6131042
vt 1.065424 0.8131043
vt 1.182898 0.6131042
vt 1.182898 0.8131043
vt 0.9353546 0.6131042
vt 0.9353546 0.8131043
vt 1.052828 0.6131042
vt 1.052828 0.8131043
vt 0.7375392 0.6131042
vt 0.7375392 0.8131043
vt 0.8550127 0.6131042
vt 0.8550127 0.8131043
vt 0.4854593 0.6131042
vt 0.4854593 0.8131043
vt 0.6029329 0.6131042
vt 0.6029329 0.8131043
vt 0.1962941 0.6131042
vt 0.1962941 0.8131043
vt 0.3137675 0.6131042
vt 0.3137675 0.8131043
vt -0.110252 0.6131042
vt -0.110252 0.8131043
vt 0.007221665 0.6131042
vt 0.007221665 0.8131043
vt -0.4132859 0.6131042
vt -0.4132859 0.8131043
vt -0.2958124 0.6131042
vt -0.2958124 0.8131043
vt -0.6921595 0.6131042
vt -0.6921595 0.8131043
vt -0.5746859 0.6131042
vt -0.5746859 0.8131043
vt -0.9278668 0.6131042
vt -0.9278668 0.8131043
vt -0.8103932 0.6131042
vt -0.8103932 0.8131043
vt -1.104344 0.6131042
vt -1.104344 0.8131043
vt -0.98687 0.6131042
vt -0.98687 0.8131043
vt -1.209563 0.6131042
vt -1.209563 0.8131043
vt -1.092089 0.6131042
vt -1.092089 0.8131043
vt -1.236357 0.6131042
vt -1.236357 0.8131043
vt -1.118883 0.6131042
vt -1.118883 0.8131043
vt -1.182897 0.6131042
vt -1.182897 0.8131043
vt -1.065424 0.6131042
vt -1.065424 0.8131043
vt -1.052828 0.6131042
vt -1.052828 0.8131043
vt -0.9353545 0.6131042
vt -0.9353545 0.8131043
vt 0.3077591 -0.9029083
vt 0.7577591 -0.9029083
vt 0.3230925 -0.7864398
vt -0.3077591 -0.9029083
vt -0.7577591 -0.9029083
vt -0.3230925 -0.7864398
vt 0.3680477 -0.6779083
vt -0.3680477 -0.6779083
vt 0.4395611 -0.5847103
vt -0.4395611 -0.5847103
vt 0.5327591 -0.5131969
vt -0.5327591 -0.5131969
vt 0.6412905 -0.4682417
vt -0.6412905 -0.4682417
vt 0.7577591 -0.4529083
vt -0.7577591 -0.4529083
vt 0.8742276 -0.4682417
vt -0.8742276 -0.4682417
vt 0.9827591 -0.5131969
vt -0.9827591 -0.5131969
vt 1.075957 -0.5847103
vt -1.075957 -0.5847103
vt 1.14747 -0.6779083
vt -1.14747 -0.6779083
vt 1.192426 -0.7864397
vt -1.192426 -0.7864397
vt 1.207759 -0.9029084
vt -1.207759 -0.9029084
vt 1.192426 -1.019377
vt -1.192426 -1.019377
vt 1.14747 -1.127908
vt -1.14747 -1.127908
vt 1.075957 -1.221106
vt -1.075957 -1.221106
vt 0.9827591 -1.29262
vt -0.9827591 -1.29262
vt 0.8742276 -1.337575
vt -0.8742276 -1.337575
vt 0.7577591 -1.352908
vt -0.7577591 -1.352908
vt 0.6412905 -1.337575
vt -0.6412905 -1.337575
vt 0.5327591 -1.29262
vt -0.5327591 -1.29262
vt 0.4395611 -1.221106
vt -0.4395611 -1.221106
vt 0.3680477 -1.127908
vt -0.3680477 -1.127908
vt 0.3230925 -1.019377
vt -0.3230925 -1.019377
vt -0.8419608 0.6131042
vt -0.8419608 0.8131043
vt -0.7505925 0.6131042
vt -0.7505925 0.8131043
vt -0.589881 0.6131042
vt -0.589881 0.8131043
vt -0.4985127 0.6131042
vt -0.4985127 0.8131043
vt -0.3007152 0.6131042
vt -0.3007152 0.8131043
vt -0.2093469 0.6131042
vt -0.2093469 0.8131043
vt 0.005830515 0.6131042
vt 0.005830515 0.8131043
vt 0.0971989 0.6131042
vt 0.0971989 0.8131043
vt 0.3088661 0.6131042
vt 0.3088661 0.8131043
vt 0.4002343 0.6131042
vt 0.4002343 0.8131043
vt 0.5877388 0.6131042
vt 0.5877388 0.8131043
vt 0.6791071 0.6131042
vt 0.6791071 0.8131043
vt 0.8234456 0.6131042
vt 0.8234456 0.8131043
vt 0.9148139 0.6131042
vt 0.9148139 0.8131043
vt 0.9999221 0.6131042
vt 0.9999221 0.8131043
vt 1.09129 0.6131042
vt 1.09129 0.8131043
vt 1.105142 0.6131042
vt 1.105142 0.8131043
vt 1.196511 0.6131042
vt 1.196511 0.8131043
vt 1.131936 0.6131042
vt 1.131936 0.8131043
vt 1.223305 0.6131042
vt 1.223305 0.8131043
vt 1.078476 0.6131042
vt 1.078476 0.8131043
vt 1.169844 0.6131042
vt 1.169844 0.8131043
vt 0.9484082 0.6131042
vt 0.9484082 0.8131043
vt 1.039777 0.6131042
vt 1.039777 0.8131043
vt 0.7505912 0.6131042
vt 0.7505912 0.8131043
vt 0.8419595 0.6131042
vt 0.8419595 0.8131043
vt 0.4985141 0.6131042
vt 0.4985141 0.8131043
vt 0.5898823 0.6131042
vt 0.5898823 0.8131043
vt 0.2093468 0.6131042
vt 0.2093468 0.8131043
vt 0.3007151 0.6131042
vt 0.3007151 0.8131043
vt -0.09719864 0.6131042
vt -0.09719864 0.8131043
vt -0.005830154 0.6131042
vt -0.005830154 0.8131043
vt -0.4002337 0.6131042
vt -0.4002337 0.8131043
vt -0.3088654 0.6131042
vt -0.3088654 0.8131043
vt -0.6791076 0.6131042
vt -0.6791076 0.8131043
vt -0.5877393 0.6131042
vt -0.5877393 0.8131043
vt -0.914815 0.6131042
vt -0.914815 0.8131043
vt -0.8234467 0.6131042
vt -0.8234467 0.8131043
vt -1.09129 0.6131042
vt -1.09129 0.8131043
vt -0.9999213 0.6131042
vt -0.9999213 0.8131043
vt -1.196511 0.6131042
vt -1.196511 0.8131043
vt -1.105142 0.6131042
vt -1.105142 0.8131043
vt -1.223304 0.6131042
vt -1.223304 0.8131043
vt -1.131936 0.6131042
vt -1.131936 0.8131043
vt -1.169845 0.6131042
vt -1.169845 0.8131043
vt -1.078476 0.6131042
vt -1.078476 0.8131043
vt -1.039776 0.6131042
vt -1.039776 0.8131043
vt -0.9484074 0.6131042
vt -0.9484074 0.8131043
vt 0.4077591 -0.9029086
vt 0.4196839 -0.8123219
vt -0.4077591 -0.9029086
vt -0.4196839 -0.8123219
vt 0.4546506 -0.7279086
vt -0.4546506 -0.7279086
vt 0.5102724 -0.6554212
vt -0.5102724 -0.6554212
vt 0.582759 -0.5997996
vt -0.582759 -0.5997996
vt 0.6671711 -0.5648346
vt -0.6671711 -0.5648346
vt 0.7577591 -0.5529085
vt -0.7577591 -0.5529085
vt 0.8483458 -0.5648345
vt -0.8483458 -0.5648345
vt 0.9327591 -0.5997996
vt -0.9327591 -0.5997996
vt 1.005246 -0.6554213
vt -1.005246 -0.6554213
vt 1.060868 -0.7279086
vt -1.060868 -0.7279086
vt 1.095833 -0.8123219
vt -1.095833 -0.8123219
vt 1.107759 -0.9029086
vt -1.107759 -0.9029086
vt 1.095834 -0.9934952
vt -1.095834 -0.9934952
vt 1.060868 -1.077909
vt -1.060868 -1.077909
vt 1.005246 -1.150396
vt -1.005246 -1.150396
vt 0.9327592 -1.206017
vt -0.9327592 -1.206017
vt 0.8483471 -1.240983
vt -0.8483471 -1.240983
vt 0.7577591 -1.252909
vt -0.7577591 -1.252909
vt 0.6671724 -1.240982
vt -0.6671724 -1.240982
vt 0.5827591 -1.206018
vt -0.5827591 -1.206018
vt 0.5102718 -1.150396
vt -0.5102718 -1.150396
vt 0.4546502 -1.077909
vt -0.4546502 -1.077909
vt 0.4196851 -0.9934952
vt -0.4196851 -0.9934952

vn -1 0 -6.011897E-08
vn -0.9659258 0 0.258819
vn -0.8660253 0 0.5000001
vn -0.7071068 0 0.7071068
vn -0.5 0 0.8660254
vn -0.258819 0 0.9659258
vn 0 0 1
vn 0.2588191 0 0.9659258
vn 0.5000002 0 0.8660253
vn 0.7071068 0 0.7071068
vn 0.8660251 0 0.5000005
vn 0.9659257 0 0.2588194
vn 1 0 -9.769333E-08
vn 0.9659257 0 -0.2588194
vn 0.8660253 0 -0.5000002
vn 0.7071067 0 -0.7071068
vn 0.5000002 0 -0.8660253
vn 0.2588195 0 -0.9659257
vn 0 0 -1
vn -0.2588195 0 -0.9659257
vn -0.5000001 0 -0.8660254
vn -0.7071066 0 -0.7071069
vn -0.8660253 0 -0.5000001
vn -0.9659258 0 -0.2588193
vn 0 -1 0
vn 0 1 0

usemtl Negro_JD
f 1/97/25 49/98/25 3/99/25
f 3/99/25 49/98/25 5/103/25
f 5/103/25 49/98/25 7/105/25
f 7/105/25 49/98/25 9/107/25
f 9/107/25 49/98/25 11/109/25
f 11/109/25 49/98/25 13/111/25
f 13/111/25 49/98/25 15/113/25
f 15/113/25 49/98/25 17/115/25
f 17/115/25 49/98/25 19/117/25
f 19/117/25 49/98/25 21/119/25
f 21/119/25 49/98/25 23/121/25
f 23/121/25 49/98/25 25/123/25
f 25/123/25 49/98/25 27/125/25
f 27/125/25 49/98/25 29/127/25
f 29/127/25 49/98/25 31/129/25
f 31/129/25 49/98/25 33/131/25
f 33/131/25 49/98/25 35/133/25
f 35/133/25 49/98/25 37/135/25
f 37/135/25 49/98/25 39/137/25
f 39/137/25 49/98/25 41/139/25
f 41/139/25 49/98/25 43/141/25
f 43/141/25 49/98/25 45/143/25
f 45/143/25 49/98/25 47/145/25
f 47/145/25 49/98/25 1/97/25
f 4/102/26 50/101/26 2/100/26
f 6/104/26 50/101/26 4/102/26
f 8/106/26 50/101/26 6/104/26
f 10/108/26 50/101/26 8/106/26
f 12/110/26 50/101/26 10/108/26
f 14/112/26 50/101/26 12/110/26
f 16/114/26 50/101/26 14/112/26
f 18/116/26 50/101/26 16/114/26
f 20/118/26 50/101/26 18/116/26
f 22/120/26 50/101/26 20/118/26
f 24/122/26 50/101/26 22/120/26
f 26/124/26 50/101/26 24/122/26
f 28/126/26 50/101/26 26/124/26
f 30/128/26 50/101/26 28/126/26
f 32/130/26 50/101/26 30/128/26
f 34/132/26 50/101/26 32/130/26
f 36/134/26 50/101/26 34/132/26
f 38/136/26 50/101/26 36/134/26
f 40/138/26 50/101/26 38/136/26
f 42/140/26 50/101/26 40/138/26
f 44/142/26 50/101/26 42/140/26
f 46/144/26 50/101/26 44/142/26
f 48/146/26 50/101/26 46/144/26
f 2/100/26 50/101/26 48/146/26
f 4/4/2 2/2/1 1/1/1
f 1/1/1 3/3/2 4/4/2
f 6/8/3 4/6/2 3/5/2
f 3/5/2 5/7/3 6/8/3
f 8/12/4 6/10/3 5/9/3
f 5/9/3 7/11/4 8/12/4
f 10/16/5 8/14/4 7/13/4
f 7/13/4 9/15/5 10/16/5
f 12/20/6 10/18/5 9/17/5
f 9/17/5 11/19/6 12/20/6
f 14/24/7 12/22/6 11/21/6
f 11/21/6 13/23/7 14/24/7
f 16/28/8 14/26/7 13/25/7
f 13/25/7 15/27/8 16/28/8
f 18/32/9 16/30/8 15/29/8
f 15/29/8 17/31/9 18/32/9
f 20/36/10 18/34/9 17/33/9
f 17/33/9 19/35/10 20/36/10
f 22/40/11 20/38/10 19/37/10
f 19/37/10 21/39/11 22/40/11
f 24/44/12 22/42/11 21/41/11
f 21/41/11 23/43/12 24/44/12
f 26/48/13 24/46/12 23/45/12
f 23/45/12 25/47/13 26/48/13
f 28/52/14 26/50/13 25/49/13
f 25/49/13 27/51/14 28/52/14
f 30/56/15 28/54/14 27/53/14
f 27/53/14 29/55/15 30/56/15
f 32/60/16 30/58/15 29/57/15
f 29/57/15 31/59/16 32/60/16
f 34/64/17 32/62/16 31/61/16
f 31/61/16 33/63/17 34/64/17
f 36/68/18 34/66/17 33/65/17
f 33/65/17 35/67/18 36/68/18
f 38/72/19 36/70/18 35/69/18
f 35/69/18 37/71/19 38/72/19
f 40/76/20 38/74/19 37/73/19
f 37/73/19 39/75/20 40/76/20
f 42/80/21 40/78/20 39/77/20
f 39/77/20 41/79/21 42/80/21
f 44/84/22 42/82/21 41/81/21
f 41/81/21 43/83/22 44/84/22
f 46/88/23 44/86/22 43/85/22
f 43/85/22 45/87/23 46/88/23
f 48/92/24 46/90/23 45/89/23
f 45/89/23 47/91/24 48/92/24
f 2/96/1 48/94/24 47/93/24
f 47/93/24 1/95/1 2/96/1

usemtl Amarillo_JD
f 51/243/25 99/98/25 53/244/25
f 53/244/25 99/98/25 55/247/25
f 55/247/25 99/98/25 57/249/25
f 57/249/25 99/98/25 59/251/25
f 59/251/25 99/98/25 61/253/25
f 61/253/25 99/98/25 63/255/25
f 63/255/25 99/98/25 65/257/25
f 65/257/25 99/98/25 67/259/25
f 67/259/25 99/98/25 69/261/25
f 69/261/25 99/98/25 71/263/25
f 71/263/25 99/98/25 73/265/25
f 73/265/25 99/98/25 75/267/25
f 75/267/25 99/98/25 77/269/25
f 77/269/25 99/98/25 79/271/25
f 79/271/25 99/98/25 81/273/25
f 81/273/25 99/98/25 83/275/25
f 83/275/25 99/98/25 85/277/25
f 85/277/25 99/98/25 87/279/25
f 87/279/25 99/98/25 89/281/25
f 89/281/25 99/98/25 91/283/25
f 91/283/25 99/98/25 93/285/25
f 93/285/25 99/98/25 95/287/25
f 95/287/25 99/98/25 97/289/25
f 97/289/25 99/98/25 51/243/25
f 54/246/26 100/101/26 52/245/26
f 56/248/26 100/101/26 54/246/26
f 58/250/26 100/101/26 56/248/26
f 60/252/26 100/101/26 58/250/26
f 62/254/26 100/101/26 60/252/26
f 64/256/26 100/101/26 62/254/26
f 66/258/26 100/101/26 64/256/26
f 68/260/26 100/101/26 66/258/26
f 70/262/26 100/101/26 68/260/26
f 72/264/26 100/101/26 70/262/26
f 74/266/26 100/101/26 72/264/26
f 76/268/26 100/101/26 74/266/26
f 78/270/26 100/101/26 76/268/26
f 80/272/26 100/101/26 78/270/26
f 82/274/26 100/101/26 80/272/26
f 84/276/26 100/101/26 82/274/26
f 86/278/26 100/101/26 84/276/26
f 88/280/26 100/101/26 86/278/26
f 90/282/26 100/101/26 88/280/26
f 92/284/26 100/101/26 90/282/26
f 94/286/26 100/101/26 92/284/26
f 96/288/26 100/101/26 94/286/26
f 98/290/26 100/101/26 96/288/26
f 52/245/26 100/101/26 98/290/26
f 54/150/2 52/148/1 51/147/1
f 51/147/1 53/149/2 54/150/2
f 56/154/3 54/152/2 53/151/2
f 53/151/2 55/153/3 56/154/3
f 58/158/4 56/156/3 55/155/3
f 55/155/3 57/157/4 58/158/4
f 60/162/5 58/160/4 57/159/4
f 57/159/4 59/161/5 60/162/5
f 62/166/6 60/164/5 59/163/5
f 59/163/5 61/165/6 62/166/6
f 64/170/7 62/168/6 61/167/6
f 61/167/6 63/169/7 64/170/7
f 66/174/8 64/172/7 63/171/7
f 63/171/7 65/173/8 66/174/8
f 68/178/9 66/176/8 65/175/8
f 65/175/8 67/177/9 68/178/9
f 70/182/10 68/180/9 67/179/9
f 67/179/9 69/181/10 70/182/10
f 72/186/11 70/184/10 69/183/10
f 69/183/10 71/185/11 72/186/11
f 74/190/12 72/188/11 71/187/11
f 71/187/11 73/189/12 74/190/12
f 76/194/13 74/192/12 73/191/12
f 73/191/12 75/193/13 76/194/13
f 78/198/14 76/196/13 75/195/13
f 75/195/13 77/197/14 78/198/14
f 80/202/15 78/200/14 77/199/14
f 77/199/14 79/201/15 80/202/15
f 82/206/16 80/204/15 79/203/15
f 79/203/15 81/205/16 82/206/16
f 84/210/17 82/208/16 81/207/16
f 81/207/16 83/209/17 84/210/17
f 86/214/18 84/212/17 83/211/17
f 83/211/17 85/213/18 86/214/18
f 88/218/19 86/216/18 85/215/18
f 85/215/18 87/217/19 88/218/19
f 90/222/20 88/220/19 87/219/19
f 87/219/19 89/221/20 90/222/20
f 92/226/21 90/224/20 89/223/20
f 89/223/20 91/225/21 92/226/21
f 94/230/22 92/228/21 91/227/21
f 91/227/21 93/229/22 94/230/22
f 96/234/23 94/232/22 93/231/22
f 93/231/22 95/233/23 96/234/23
f 98/238/24 96/236/23 95/235/23
f 95/235/23 97/237/24 98/238/24
f 52/242/1 98/240/24 97/239/24
f 97/239/24 51/241/1 52/242/1

