# ProBuilder 5.2.0
# https://unity3d.com/unity/features/worldbuilding/probuilder
# 11/13/2023 11:25:33 AM

mtllib ./Trailer.mtl
o Trailer

g Trailer
v 0.3767441 0.07631841 -0.5563321
v 0.2767441 0.07631841 -0.5563321
v 0.3767441 0.1263184 -0.5563321
v 0.2767441 0.1263184 -0.5563321
v 0.2767441 0.07631841 -1.506332
v 0.2767441 0.1263184 -1.506332
v 0.3767441 0.07631841 -1.506332
v 0.3767441 0.1263184 -1.506332
v 1.476755 0.07631689 -0.5563316
v 1.376749 0.07631689 -0.5563316
v 1.476755 0.1263199 -0.5563316
v 1.376749 0.1263199 -0.5563316
v 1.376749 0.07631695 -1.506332
v 1.376749 0.12632 -1.506332
v 1.476755 0.07631695 -1.506332
v 1.476755 0.12632 -1.506332
v 1.426752 -0.02367777 -0.5563316
v 1.426752 0.07632071 -0.5563316
v 1.476755 -0.02367777 -0.5563316
v 1.426752 0.07632077 -1.506331
v 1.426752 -0.02367771 -1.506331
v 1.476755 -0.02367771 -1.506331
v 0.3267457 0.07631689 -0.5563311
v 1.426744 0.07631689 -0.6063313
v 0.3267457 0.07631689 -0.6063313
v 0.3267457 -2.423683 -0.5563314
v 0.3267457 -2.423683 -0.6063316
v 1.426744 -2.423683 -0.5563314
v 1.426744 -2.423683 -0.6063316
v 0.397455 -2.352974 -0.5563314
v 0.397455 -2.352974 -0.6063316
v 0.8570727 -2.954018 -0.5563314
v 0.8570727 -2.954018 -0.6063316
v 0.9277895 -2.883305 -0.5563314
v 0.9277895 -2.883305 -0.6063316
v 0.3267457 -2.423683 -1.406332
v 0.3267457 -2.423683 -1.506332
v 0.2767427 -2.423683 -1.406332
v 0.2767427 -2.423683 -1.506332
v 0.3267457 0.07631695 -1.506331
v 0.3267457 0.07631695 -1.406332
v 0.2767427 0.07631695 -1.406332
v 0.3267457 -2.323689 -0.5563319
v 0.2767427 -2.323689 -0.5563319
v 0.2767427 -2.423687 -0.5563319
v 0.3267457 -2.323689 -1.506332
v 0.2767427 -2.323689 -1.506332
v 0.3767488 -2.423683 -0.6063321
v 0.3767488 -2.423683 -1.506332
v 0.3767488 0.07631689 -0.6063318
v 0.3267457 -0.0236854 -0.5563316
v 0.2767427 -0.0236854 -0.5563316
v 0.3267457 -0.02368534 -1.506332
v 0.2767427 -0.02368534 -1.506332
v 0.3267457 -1.67368 -0.5563316
v 0.3267457 -1.773682 -0.5563316
v 0.2767427 -1.67368 -0.5563316
v 0.2767427 -1.773682 -0.5563316
v 0.3267457 -1.773682 -1.506331
v 0.2767427 -1.773682 -1.506331
v 0.3267457 -1.67368 -1.506331
v 0.2767427 -1.67368 -1.506331
v 1.426752 0.07631695 -1.153303
v 1.426752 0.07631695 -1.253303
v 1.476755 0.07631695 -1.153303
v 1.476755 0.07631695 -1.253303
v 1.426752 -2.423683 -1.253304
v 1.476755 -2.423683 -1.253304
v 1.426752 -2.423683 -1.153303
v 1.476755 -2.423683 -1.153303
v 0.2767427 0.12632 -1.406332
v 1.47674 0.07631695 -1.406332
v 1.47674 0.12632 -1.406332
v 0.2767427 0.07631695 -1.153303
v 0.2767427 0.07631695 -1.253303
v 0.2767427 0.12632 -1.153303
v 0.2767427 0.12632 -1.253303
v 1.47674 0.12632 -1.253303
v 1.47674 0.12632 -1.153303
v 1.426752 0.07631695 -1.406331
v 1.426752 -2.423683 -1.506332
v 1.476755 -2.423683 -1.506332
v 1.426752 -2.423683 -1.406332
v 1.476755 -2.423683 -1.406332
v 1.356035 -2.352974 -0.5563314
v 1.356035 -2.352974 -0.6063316
v 0.8257082 -2.883305 -0.5563314
v 0.8257082 -2.883305 -0.6063316
v 0.8964174 -2.954018 -0.5563314
v 0.8964174 -2.954018 -0.6063316
v 0.8277834 -2.883309 -0.5563314
v 0.8277834 -2.883309 -0.6063316
v 0.8277834 -3.183312 -0.5563314
v 0.8277834 -3.183312 -0.6063316
v 0.9277819 -3.183312 -0.5563314
v 0.9277819 -3.183312 -0.6063316
v 1.426752 -2.323681 -0.5563319
v 1.476755 -2.42368 -0.5563319
v 1.476755 -2.323681 -0.5563319
v 1.426752 -2.323681 -1.506332
v 1.476755 -2.323681 -1.506332
v 1.426752 -1.77367 -0.5563316
v 1.426752 -1.673672 -0.5563316
v 1.476755 -1.77367 -0.5563316
v 1.476755 -1.673672 -0.5563316
v 1.426752 -1.673672 -1.506332
v 1.476755 -1.673672 -1.506332
v 1.426752 -1.77367 -1.506332
v 1.476755 -1.77367 -1.506332
v 1.426752 -1.249103 -0.5563317
v 1.426752 -1.149105 -0.5563317
v 1.476755 -1.249103 -0.5563317
v 1.476755 -1.149105 -0.5563317
v 1.426752 -1.149105 -1.506332
v 1.476755 -1.149105 -1.506332
v 1.426752 -1.249103 -1.506332
v 1.476755 -1.249103 -1.506332
v 0.3267457 -2.423683 -1.153303
v 0.3267457 -2.423683 -1.253304
v 0.2767427 -2.423683 -1.153303
v 0.2767427 -2.423683 -1.253304
v 0.3267457 0.07631695 -1.253303
v 0.3267457 0.07631695 -1.153303
v 0.3767412 0.02631384 -0.6063318
v 0.3767412 0.0263139 -1.506331
v 1.376741 0.0263139 -1.506331
v 1.376741 0.02631384 -0.6063318
v 1.376741 0.07631689 -0.6063318
v 1.376749 -2.423683 -1.506332
v 1.376749 -2.423683 -0.6063316
v 0.3267457 -1.098263 -0.5563317
v 0.3267457 -1.198261 -0.5563317
v 0.2767427 -1.098263 -0.5563317
v 0.2767427 -1.198261 -0.5563317
v 0.3267457 -1.198261 -1.506332
v 0.2767427 -1.198261 -1.506332
v 0.3267457 -1.098263 -1.506332
v 0.2767427 -1.098263 -1.506332
v 0.3767412 -2.373684 -0.6063321
v 0.3767412 -2.373684 -1.506332
v 1.376741 -2.373684 -1.506332
v 1.376741 -2.373684 -0.6063321

vt 0.3767441 0.07631841
vt 0.2767441 0.07631841
vt 0.3767441 0.1263184
vt 0.2767441 0.1263184
vt -0.5563321 0.07631841
vt -1.506332 0.07631841
vt -0.5563321 0.1263184
vt -1.506332 0.1263184
vt -0.2767441 0.07631841
vt -0.3767441 0.07631841
vt -0.2767441 0.1263184
vt -0.3767441 0.1263184
vt 1.506332 0.07631841
vt 0.5563321 0.07631841
vt 1.506332 0.1263184
vt 0.5563321 0.1263184
vt -0.3767441 -0.5563321
vt -0.2767441 -0.5563321
vt -0.3767441 -1.506332
vt -0.2767441 -1.506332
vt 0.3767441 -1.506332
vt 0.2767441 -1.506332
vt 0.3767441 -0.5563321
vt 0.2767441 -0.5563321
vt 0.8767439 0.07632113
vt -0.223256 0.07632124
vt 0.8767439 0.1263212
vt -0.223256 0.1263213
vt 0.2186738 0.07632113
vt -2.281326 0.07632136
vt 0.2186738 0.126321
vt -2.281326 0.1263213
vt 0.223256 0.07632113
vt -0.8767439 0.07632124
vt 0.223256 0.1263212
vt -0.8767439 0.1263213
vt 2.281326 0.07632148
vt -0.2186738 0.07632124
vt 2.281326 0.1263211
vt -0.2186738 0.126321
vt -0.876744 0.2186737
vt 0.2232559 0.2186737
vt -0.876744 -2.281326
vt 0.2232559 -2.281326
vt 0.876744 -2.281326
vt -0.2232559 -2.281326
vt 0.876744 0.2186737
vt -0.2232559 0.2186737
vt -0.6563232 0.07632113
vt -1.406323 0.07632124
vt -0.6563232 0.1263212
vt -1.406323 0.1263213
vt 1.406323 0.07632113
vt 0.6563234 0.07632124
vt 1.406323 0.1263212
vt 0.6563234 0.1263213
vt -0.3767425 -0.6563245
vt -0.2767424 -0.6563224
vt -0.3767403 -1.406324
vt -0.2767349 -1.406317
vt 0.3767452 -1.406319
vt 0.2767396 -1.406322
vt 0.3767377 -0.6563197
vt 0.2767375 -0.6563271
vt -0.3767438 0.2186661
vt -0.2767439 0.2186661
vt -0.3767443 -2.281334
vt -0.2767444 -2.281334
vt 0.376744 -2.281334
vt 0.2767441 -2.281334
vt 0.376744 0.2186661
vt 0.2767441 0.2186661
vt 0.7767441 0.07631838
vt -0.1232559 0.07631838
vt 0.7767441 0.1263183
vt -0.1232559 0.1263183
vt 0.1232559 0.07631838
vt -0.7767441 0.07631838
vt 0.1232559 0.1263183
vt -0.7767441 0.1263183
vt -0.7767438 0.2186737
vt 0.1232561 0.2186735
vt -0.7767443 -2.281326
vt 0.1232557 -2.281326
vt 0.7767441 -2.281326
vt -0.1232559 -2.281326
vt 0.7767441 0.2186737
vt -0.1232559 0.2186735
vt -0.4313339 0.07631835
vt -1.631334 0.07631835
vt -0.4313339 0.1263184
vt -1.631334 0.1263184
vt 1.631334 0.07631835
vt 0.4313339 0.07631835
vt 1.631334 0.1263184
vt 0.4313339 0.1263184
vt -0.3767442 -0.4313339
vt -0.276744 -0.4313339
vt -0.3767442 -1.631334
vt -0.276744 -1.631334
vt 0.3767442 -1.631334
vt 0.276744 -1.631334
vt 0.3767442 -0.4313339
vt 0.276744 -0.4313339
vt -0.8813338 0.07632113
vt -1.181334 0.07632136
vt -0.8813338 0.1263211
vt -1.181334 0.1263213
vt 1.181334 0.07632113
vt 0.8813338 0.07632136
vt 1.181334 0.1263211
vt 0.8813338 0.1263213
vt -0.3767441 -0.8813338
vt -0.2767441 -0.8813338
vt -0.3767441 -1.181334
vt -0.2767441 -1.181334
vt 0.3767441 -1.181334
vt 0.2767441 -1.181334
vt 0.3767441 -0.8813338
vt 0.2767441 -0.8813338
vt -0.5313263 0.07631835
vt -1.531326 0.07631835
vt -0.5313263 0.1263184
vt -1.531326 0.1263184
vt 1.531326 0.07631835
vt 0.5313263 0.07631835
vt 1.531326 0.1263184
vt 0.5313263 0.1263184
vt -0.776744 -0.5313263
vt 0.123256 -0.5313263
vt -0.776744 -1.531326
vt 0.123256 -1.531326
vt 0.7767441 -1.531326
vt -0.123256 -1.531326
vt 0.7767441 -0.5313263
vt -0.1232559 -0.5313263

vn 0 0 1
vn -1 0 0
vn 0 0 -1
vn 1 0 0
vn 0 1 0
vn 0 -1 0
vn -0.7071258 0.7070877 0
vn -0.7071093 -0.7071043 0
vn 0.7070877 -0.7071259 0
vn 0.7071042 0.7071094 0

usemtl AzullDetalles_JD
f 3/3/1 4/4/1 2/2/1 1/1/1
f 4/7/2 6/8/2 5/6/2 2/5/2
f 6/11/3 8/12/3 7/10/3 5/9/3
f 8/15/4 3/16/4 1/14/4 7/13/4
f 8/19/5 6/20/5 4/18/5 3/17/5
f 1/23/6 2/24/6 5/22/6 7/21/6
f 11/3/1 12/4/1 10/2/1 9/1/1
f 12/7/2 14/8/2 13/6/2 10/5/2
f 14/11/3 16/12/3 15/10/3 13/9/3
f 16/15/4 11/16/4 9/14/4 15/13/4
f 16/19/5 14/20/5 12/18/5 11/17/5
f 9/23/6 10/24/6 13/22/6 15/21/6
f 19/3/1 9/4/1 18/2/1 17/1/1
f 9/7/5 15/8/5 20/6/5 18/5/5
f 15/11/3 22/12/3 21/10/3 20/9/3
f 22/15/6 19/16/6 17/14/6 21/13/6
f 22/19/4 15/20/4 9/18/4 19/17/4
f 17/23/2 18/24/2 20/22/2 21/21/2
f 31/3/7 27/4/7 26/2/7 30/1/7
f 27/51/8 33/52/8 32/50/8 26/49/8
f 33/11/9 35/12/9 34/10/9 32/9/9
f 35/55/10 31/56/10 30/54/10 34/53/10
f 35/59/3 33/60/3 27/58/3 31/57/3
f 30/63/1 26/64/1 32/62/1 34/61/1
f 38/3/6 39/4/6 37/2/6 36/1/6
f 39/31/3 5/32/3 40/30/3 37/29/3
f 5/11/5 42/12/5 41/10/5 40/9/5
f 42/39/1 38/40/1 36/38/1 41/37/1
f 42/67/2 5/68/2 39/66/2 38/65/2
f 36/71/4 37/72/4 40/70/4 41/69/4
f 44/3/1 45/4/1 26/2/1 43/1/1
f 45/7/6 39/8/6 37/6/6 26/5/6
f 39/11/3 47/12/3 46/10/3 37/9/3
f 47/15/5 44/16/5 43/14/5 46/13/5
f 47/19/2 39/20/2 45/18/2 44/17/2
f 43/23/4 26/24/4 37/22/4 46/21/4
f 2/3/1 52/4/1 51/2/1 23/1/1
f 52/7/6 54/8/6 53/6/6 51/5/6
f 54/11/3 5/12/3 40/10/3 53/9/3
f 5/15/5 2/16/5 23/14/5 40/13/5
f 5/19/2 54/20/2 52/18/2 2/17/2
f 23/23/4 51/24/4 53/22/4 40/21/4
f 57/3/1 58/4/1 56/2/1 55/1/1
f 58/7/6 60/8/6 59/6/6 56/5/6
f 60/11/3 62/12/3 61/10/3 59/9/3
f 62/15/5 57/16/5 55/14/5 61/13/5
f 62/19/2 60/20/2 58/18/2 57/17/2
f 55/23/4 56/24/4 59/22/4 61/21/4
f 65/3/5 66/4/5 64/2/5 63/1/5
f 66/31/3 68/32/3 67/30/3 64/29/3
f 68/11/6 70/12/6 69/10/6 67/9/6
f 70/39/1 65/40/1 63/38/1 69/37/1
f 70/67/4 68/68/4 66/66/4 65/65/4
f 63/71/2 64/72/2 67/70/2 69/69/2
f 71/3/2 6/4/2 5/2/2 42/1/2
f 6/91/3 16/92/3 15/90/3 5/89/3
f 16/11/4 73/12/4 72/10/4 15/9/4
f 73/95/1 71/96/1 42/94/1 72/93/1
f 73/99/5 16/100/5 6/98/5 71/97/5
f 42/103/6 5/104/6 15/102/6 72/101/6
f 76/3/2 77/4/2 75/2/2 74/1/2
f 77/91/3 78/92/3 66/90/3 75/89/3
f 78/11/4 79/12/4 65/10/4 66/9/4
f 79/95/1 76/96/1 74/94/1 65/93/1
f 79/99/5 78/100/5 77/98/5 76/97/5
f 74/103/6 75/104/6 66/102/6 65/101/6
f 72/3/5 15/4/5 20/2/5 80/1/5
f 15/31/3 82/32/3 81/30/3 20/29/3
f 82/11/6 84/12/6 83/10/6 81/9/6
f 84/39/1 72/40/1 80/38/1 83/37/1
f 84/67/4 82/68/4 15/66/4 72/65/4
f 80/71/2 20/72/2 81/70/2 83/69/2
f 29/3/10 86/4/10 85/2/10 28/1/10
f 86/51/7 88/52/7 87/50/7 85/49/7
f 88/11/8 90/12/8 89/10/8 87/9/8
f 90/55/9 29/56/9 28/54/9 89/53/9
f 90/59/3 88/60/3 86/58/3 29/57/3
f 28/63/1 85/64/1 87/62/1 89/61/1
f 35/3/5 92/4/5 91/2/5 34/1/5
f 92/107/2 94/108/2 93/106/2 91/105/2
f 94/11/6 96/12/6 95/10/6 93/9/6
f 96/111/4 35/112/4 34/110/4 95/109/4
f 96/115/3 94/116/3 92/114/3 35/113/3
f 34/119/1 91/120/1 93/118/1 95/117/1
f 98/3/1 99/4/1 97/2/1 28/1/1
f 99/7/5 101/8/5 100/6/5 97/5/5
f 101/11/3 82/12/3 81/10/3 100/9/3
f 82/15/6 98/16/6 28/14/6 81/13/6
f 82/19/4 101/20/4 99/18/4 98/17/4
f 28/23/2 97/24/2 100/22/2 81/21/2
f 104/3/1 105/4/1 103/2/1 102/1/1
f 105/7/5 107/8/5 106/6/5 103/5/5
f 107/11/3 109/12/3 108/10/3 106/9/3
f 109/15/6 104/16/6 102/14/6 108/13/6
f 109/19/4 107/20/4 105/18/4 104/17/4
f 102/23/2 103/24/2 106/22/2 108/21/2
f 112/3/1 113/4/1 111/2/1 110/1/1
f 113/7/5 115/8/5 114/6/5 111/5/5
f 115/11/3 117/12/3 116/10/3 114/9/3
f 117/15/6 112/16/6 110/14/6 116/13/6
f 117/19/4 115/20/4 113/18/4 112/17/4
f 110/23/2 111/24/2 114/22/2 116/21/2
f 120/3/6 121/4/6 119/2/6 118/1/6
f 121/31/3 75/32/3 122/30/3 119/29/3
f 75/11/5 74/12/5 123/10/5 122/9/5
f 74/39/1 120/40/1 118/38/1 123/37/1
f 74/67/2 75/68/2 121/66/2 120/65/2
f 118/71/4 119/72/4 122/70/4 123/69/4
f 133/3/1 134/4/1 132/2/1 131/1/1
f 134/7/6 136/8/6 135/6/6 132/5/6
f 136/11/3 138/12/3 137/10/3 135/9/3
f 138/15/5 133/16/5 131/14/5 137/13/5
f 138/19/2 136/20/2 134/18/2 133/17/2
f 131/23/4 132/24/4 135/22/4 137/21/4

usemtl Azul_JD
f 24/27/5 25/28/5 23/26/5 18/25/5
f 25/31/2 27/32/2 26/30/2 23/29/2
f 27/35/6 29/36/6 28/34/6 26/33/6
f 29/39/4 24/40/4 18/38/4 28/37/4
f 29/43/3 27/44/3 25/42/3 24/41/3
f 18/47/1 23/48/1 26/46/1 28/45/1
f 27/75/6 37/76/6 49/74/6 48/73/6
f 37/31/3 40/32/3 7/30/3 49/29/3
f 40/79/5 25/80/5 50/78/5 7/77/5
f 25/39/1 27/40/1 48/38/1 50/37/1
f 25/83/2 40/84/2 37/82/2 27/81/2
f 48/87/4 49/88/4 7/86/4 50/85/4
f 50/75/2 7/76/2 125/74/2 124/73/2
f 7/123/3 13/124/3 126/122/3 125/121/3
f 13/79/4 128/80/4 127/78/4 126/77/4
f 128/127/1 50/128/1 124/126/1 127/125/1
f 128/131/5 13/132/5 7/130/5 50/129/5
f 124/135/6 125/136/6 126/134/6 127/133/6
f 24/75/5 20/76/5 13/74/5 128/73/5
f 20/31/3 81/32/3 129/30/3 13/29/3
f 81/79/6 29/80/6 130/78/6 129/77/6
f 29/39/1 24/40/1 128/38/1 130/37/1
f 29/83/4 81/84/4 20/82/4 24/81/4
f 128/87/2 13/88/2 129/86/2 130/85/2
f 139/75/2 140/76/2 49/74/2 48/73/2
f 140/123/3 141/124/3 129/122/3 49/121/3
f 141/79/4 142/80/4 130/78/4 129/77/4
f 142/127/1 139/128/1 48/126/1 130/125/1
f 142/131/5 141/132/5 140/130/5 139/129/5
f 48/135/6 49/136/6 129/134/6 130/133/6

