# ProBuilder 5.2.0
# https://unity3d.com/unity/features/worldbuilding/probuilder
# 11/10/2023 12:04:49 PM

mtllib ./LlantaAdelante.mtl
o LlantaAdelante

g LlantaAdelante
v 0.5077591 0.6381043 -0.9029083
v 0.5077591 0.7881042 -0.9029083
v 0.5162777 0.6381043 -0.8382035
v 0.5162777 0.7881042 -0.8382035
v 0.5412527 0.6381043 -0.7779083
v 0.5412527 0.7881042 -0.7779083
v 0.5809824 0.6381043 -0.7261316
v 0.5809824 0.7881042 -0.7261316
v 0.6327591 0.6381043 -0.686402
v 0.6327591 0.7881042 -0.686402
v 0.6930543 0.6381043 -0.6614269
v 0.6930543 0.7881042 -0.6614269
v 0.7577591 0.6381043 -0.6529083
v 0.7577591 0.7881042 -0.6529083
v 0.8224639 0.6381043 -0.6614269
v 0.8224639 0.7881042 -0.6614269
v 0.8827591 0.6381043 -0.686402
v 0.8827591 0.7881042 -0.686402
v 0.9345358 0.6381043 -0.7261316
v 0.9345358 0.7881042 -0.7261316
v 0.9742655 0.6381043 -0.7779083
v 0.9742655 0.7881042 -0.7779083
v 0.9992405 0.6381043 -0.8382035
v 0.9992405 0.7881042 -0.8382035
v 1.007759 0.6381043 -0.9029083
v 1.007759 0.7881042 -0.9029083
v 0.9992405 0.6381043 -0.9676131
v 0.9992405 0.7881042 -0.9676131
v 0.9742655 0.6381043 -1.027908
v 0.9742655 0.7881042 -1.027908
v 0.9345358 0.6381043 -1.079685
v 0.9345358 0.7881042 -1.079685
v 0.8827591 0.6381043 -1.119415
v 0.8827591 0.7881042 -1.119415
v 0.8224639 0.6381043 -1.14439
v 0.8224639 0.7881042 -1.14439
v 0.7577591 0.6381043 -1.152908
v 0.7577591 0.7881042 -1.152908
v 0.6930543 0.6381043 -1.14439
v 0.6930543 0.7881042 -1.14439
v 0.6327591 0.6381043 -1.119415
v 0.6327591 0.7881042 -1.119415
v 0.5809824 0.6381043 -1.079685
v 0.5809824 0.7881042 -1.079685
v 0.5412527 0.6381043 -1.027908
v 0.5412527 0.7881042 -1.027908
v 0.5162777 0.6381043 -0.9676132
v 0.5162777 0.7881042 -0.9676132
v 0.7577591 0.6381043 -0.9029083
v 0.7577591 0.7881042 -0.9029083

vt -0.8289077 0.6381043
vt -0.8289077 0.7881042
vt -0.7636446 0.6381043
vt -0.7636446 0.7881042
vt -0.5768287 0.6381043
vt -0.5768287 0.7881042
vt -0.5115656 0.6381043
vt -0.5115656 0.7881042
vt -0.2876625 0.6381043
vt -0.2876625 0.7881042
vt -0.2223994 0.6381043
vt -0.2223994 0.7881042
vt 0.0188835 0.6381043
vt 0.0188835 0.7881042
vt 0.0841466 0.6381043
vt 0.0841466 0.7881042
vt 0.321919 0.6381043
vt 0.321919 0.7881042
vt 0.3871821 0.6381043
vt 0.3871821 0.7881042
vt 0.6007913 0.6381043
vt 0.6007913 0.7881042
vt 0.6660544 0.6381043
vt 0.6660544 0.7881042
vt 0.8364983 0.6381043
vt 0.8364983 0.7881042
vt 0.9017614 0.6381043
vt 0.9017614 0.7881042
vt 1.012975 0.6381043
vt 1.012975 0.7881042
vt 1.078238 0.6381043
vt 1.078238 0.7881042
vt 1.118195 0.6381043
vt 1.118195 0.7881042
vt 1.183458 0.6381043
vt 1.183458 0.7881042
vt 1.144988 0.6381043
vt 1.144988 0.7881042
vt 1.210251 0.6381043
vt 1.210251 0.7881042
vt 1.091529 0.6381043
vt 1.091529 0.7881042
vt 1.156792 0.6381043
vt 1.156792 0.7881042
vt 0.9614601 0.6381043
vt 0.9614601 0.7881042
vt 1.026723 0.6381043
vt 1.026723 0.7881042
vt 0.7636443 0.6381043
vt 0.7636443 0.7881042
vt 0.8289074 0.6381043
vt 0.8289074 0.7881042
vt 0.5115659 0.6381043
vt 0.5115659 0.7881042
vt 0.576829 0.6381043
vt 0.576829 0.7881042
vt 0.2223986 0.6381043
vt 0.2223986 0.7881042
vt 0.2876617 0.6381043
vt 0.2876617 0.7881042
vt -0.08414567 0.6381043
vt -0.08414567 0.7881042
vt -0.01888252 0.6381043
vt -0.01888252 0.7881042
vt -0.3871824 0.6381043
vt -0.3871824 0.7881042
vt -0.3219193 0.6381043
vt -0.3219193 0.7881042
vt -0.6660541 0.6381043
vt -0.6660541 0.7881042
vt -0.600791 0.6381043
vt -0.600791 0.7881042
vt -0.9017617 0.6381043
vt -0.9017617 0.7881042
vt -0.8364985 0.6381043
vt -0.8364985 0.7881042
vt -1.078237 0.6381043
vt -1.078237 0.7881042
vt -1.012974 0.6381043
vt -1.012974 0.7881042
vt -1.183458 0.6381043
vt -1.183458 0.7881042
vt -1.118195 0.6381043
vt -1.118195 0.7881042
vt -1.210251 0.6381043
vt -1.210251 0.7881042
vt -1.144988 0.6381043
vt -1.144988 0.7881042
vt -1.156792 0.6381043
vt -1.156792 0.7881042
vt -1.091529 0.6381043
vt -1.091529 0.7881042
vt -1.026723 0.6381043
vt -1.026723 0.7881042
vt -0.9614598 0.6381043
vt -0.9614598 0.7881042
vt 0.5077591 -0.9029083
vt 0.7577591 -0.9029083
vt 0.5162777 -0.8382035
vt -0.5077591 -0.9029083
vt -0.7577591 -0.9029083
vt -0.5162777 -0.8382035
vt 0.5412527 -0.7779083
vt -0.5412527 -0.7779083
vt 0.5809824 -0.7261316
vt -0.5809824 -0.7261316
vt 0.6327591 -0.686402
vt -0.6327591 -0.686402
vt 0.6930543 -0.6614269
vt -0.6930543 -0.6614269
vt 0.7577591 -0.6529083
vt -0.7577591 -0.6529083
vt 0.8224639 -0.6614269
vt -0.8224639 -0.6614269
vt 0.8827591 -0.686402
vt -0.8827591 -0.686402
vt 0.9345358 -0.7261316
vt -0.9345358 -0.7261316
vt 0.9742655 -0.7779083
vt -0.9742655 -0.7779083
vt 0.9992405 -0.8382035
vt -0.9992405 -0.8382035
vt 1.007759 -0.9029083
vt -1.007759 -0.9029083
vt 0.9992405 -0.9676131
vt -0.9992405 -0.9676131
vt 0.9742655 -1.027908
vt -0.9742655 -1.027908
vt 0.9345358 -1.079685
vt -0.9345358 -1.079685
vt 0.8827591 -1.119415
vt -0.8827591 -1.119415
vt 0.8224639 -1.14439
vt -0.8224639 -1.14439
vt 0.7577591 -1.152908
vt -0.7577591 -1.152908
vt 0.6930543 -1.14439
vt -0.6930543 -1.14439
vt 0.6327591 -1.119415
vt -0.6327591 -1.119415
vt 0.5809824 -1.079685
vt -0.5809824 -1.079685
vt 0.5412527 -1.027908
vt -0.5412527 -1.027908
vt 0.5162777 -0.9676132
vt -0.5162777 -0.9676132

vn -1 0 6.011897E-08
vn -0.9659258 0 0.258819
vn -0.8660256 0 0.4999997
vn -0.7071068 0 0.7071068
vn -0.4999997 0 0.8660256
vn -0.258819 0 0.9659258
vn 0 0 1
vn 0.258819 0 0.9659258
vn 0.4999997 0 0.8660256
vn 0.7071068 0 0.7071068
vn 0.8660256 0 0.4999997
vn 0.9659258 0 0.258819
vn 1 0 0
vn 0.9659258 0 -0.258819
vn 0.8660254 0 -0.5
vn 0.7071068 0 -0.7071068
vn 0.5000001 0 -0.8660254
vn 0.258819 0 -0.9659258
vn 0 0 -1
vn -0.258819 0 -0.9659258
vn -0.4999996 0 -0.8660256
vn -0.7071066 0 -0.7071069
vn -0.8660254 0 -0.4999999
vn -0.9659258 0 -0.2588191
vn 0 -1 0
vn 0 1 0

usemtl ProBuilderDefault
f 1/97/25 49/98/25 3/99/25
f 3/99/25 49/98/25 5/103/25
f 5/103/25 49/98/25 7/105/25
f 7/105/25 49/98/25 9/107/25
f 9/107/25 49/98/25 11/109/25
f 11/109/25 49/98/25 13/111/25
f 13/111/25 49/98/25 15/113/25
f 15/113/25 49/98/25 17/115/25
f 17/115/25 49/98/25 19/117/25
f 19/117/25 49/98/25 21/119/25
f 21/119/25 49/98/25 23/121/25
f 23/121/25 49/98/25 25/123/25
f 25/123/25 49/98/25 27/125/25
f 27/125/25 49/98/25 29/127/25
f 29/127/25 49/98/25 31/129/25
f 31/129/25 49/98/25 33/131/25
f 33/131/25 49/98/25 35/133/25
f 35/133/25 49/98/25 37/135/25
f 37/135/25 49/98/25 39/137/25
f 39/137/25 49/98/25 41/139/25
f 41/139/25 49/98/25 43/141/25
f 43/141/25 49/98/25 45/143/25
f 45/143/25 49/98/25 47/145/25
f 47/145/25 49/98/25 1/97/25
f 4/102/26 50/101/26 2/100/26
f 6/104/26 50/101/26 4/102/26
f 8/106/26 50/101/26 6/104/26
f 10/108/26 50/101/26 8/106/26
f 12/110/26 50/101/26 10/108/26
f 14/112/26 50/101/26 12/110/26
f 16/114/26 50/101/26 14/112/26
f 18/116/26 50/101/26 16/114/26
f 20/118/26 50/101/26 18/116/26
f 22/120/26 50/101/26 20/118/26
f 24/122/26 50/101/26 22/120/26
f 26/124/26 50/101/26 24/122/26
f 28/126/26 50/101/26 26/124/26
f 30/128/26 50/101/26 28/126/26
f 32/130/26 50/101/26 30/128/26
f 34/132/26 50/101/26 32/130/26
f 36/134/26 50/101/26 34/132/26
f 38/136/26 50/101/26 36/134/26
f 40/138/26 50/101/26 38/136/26
f 42/140/26 50/101/26 40/138/26
f 44/142/26 50/101/26 42/140/26
f 46/144/26 50/101/26 44/142/26
f 48/146/26 50/101/26 46/144/26
f 2/100/26 50/101/26 48/146/26
f 4/4/2 2/2/1 1/1/1
f 1/1/1 3/3/2 4/4/2
f 6/8/3 4/6/2 3/5/2
f 3/5/2 5/7/3 6/8/3
f 8/12/4 6/10/3 5/9/3
f 5/9/3 7/11/4 8/12/4
f 10/16/5 8/14/4 7/13/4
f 7/13/4 9/15/5 10/16/5
f 12/20/6 10/18/5 9/17/5
f 9/17/5 11/19/6 12/20/6
f 14/24/7 12/22/6 11/21/6
f 11/21/6 13/23/7 14/24/7
f 16/28/8 14/26/7 13/25/7
f 13/25/7 15/27/8 16/28/8
f 18/32/9 16/30/8 15/29/8
f 15/29/8 17/31/9 18/32/9
f 20/36/10 18/34/9 17/33/9
f 17/33/9 19/35/10 20/36/10
f 22/40/11 20/38/10 19/37/10
f 19/37/10 21/39/11 22/40/11
f 24/44/12 22/42/11 21/41/11
f 21/41/11 23/43/12 24/44/12
f 26/48/13 24/46/12 23/45/12
f 23/45/12 25/47/13 26/48/13
f 28/52/14 26/50/13 25/49/13
f 25/49/13 27/51/14 28/52/14
f 30/56/15 28/54/14 27/53/14
f 27/53/14 29/55/15 30/56/15
f 32/60/16 30/58/15 29/57/15
f 29/57/15 31/59/16 32/60/16
f 34/64/17 32/62/16 31/61/16
f 31/61/16 33/63/17 34/64/17
f 36/68/18 34/66/17 33/65/17
f 33/65/17 35/67/18 36/68/18
f 38/72/19 36/70/18 35/69/18
f 35/69/18 37/71/19 38/72/19
f 40/76/20 38/74/19 37/73/19
f 37/73/19 39/75/20 40/76/20
f 42/80/21 40/78/20 39/77/20
f 39/77/20 41/79/21 42/80/21
f 44/84/22 42/82/21 41/81/21
f 41/81/21 43/83/22 44/84/22
f 46/88/23 44/86/22 43/85/22
f 43/85/22 45/87/23 46/88/23
f 48/92/24 46/90/23 45/89/23
f 45/89/23 47/91/24 48/92/24
f 2/96/1 48/94/24 47/93/24
f 47/93/24 1/95/1 2/96/1

