# ProBuilder 5.2.0
# https://unity3d.com/unity/features/worldbuilding/probuilder
# 11/13/2023 4:03:22 PM

mtllib ./Gramer.mtl
o Gramer

g Gramer
v 7.697762 -0.04812212 0.4213974
v -1.302238 -0.04812212 0.4213974
v 7.697762 0.3518779 0.4213974
v -1.302238 0.3518779 0.4213974
v -1.302238 -0.04812212 0.0213974
v -1.302238 0.3518779 0.0213974
v 7.697762 -0.04812212 0.0213974
v 7.697762 0.3518779 0.0213974
v 8.009311 -7.746787 2.32
v -1.595915 -7.746787 2.32
v 8.009311 -7.646787 2.32
v -1.595915 -7.646787 2.32
v -1.595915 -7.746787 -9.68
v -1.595915 -7.646787 -9.68
v 8.009311 -7.746787 -9.68
v 8.009311 -7.646787 -9.68
v -2.076176 0.3532128 2.82
v -1.307755 0.3532128 2.82
v -2.076176 0.3532128 -10.18
v -1.307755 0.3532128 -10.18
v -1.896166 1.388489 -10.18
v -1.896166 1.388489 2.82
v -1.153929 1.181434 -10.18
v -1.153929 1.181434 2.82
v -1.368403 2.353213 -10.18
v -1.368403 2.353213 2.82
v -0.7029361 1.953213 -10.18
v -0.7029361 1.953213 2.82
v -0.5288546 3.18164 -10.18
v -0.5288546 3.18164 2.82
v 0.01449519 2.615955 -10.18
v 0.01449519 2.615955 2.82
v 0.5652611 3.817315 -10.18
v 0.5652611 3.817315 2.82
v 0.9494716 3.124495 -10.18
v 0.9494716 3.124495 2.82
v 1.839387 4.216916 -10.18
v 1.839387 4.216916 2.82
v 2.038267 3.444176 -10.18
v 2.038267 3.444176 2.82
v 3.206698 4.353213 -10.18
v 3.206698 4.353213 2.82
v 3.206698 3.553214 -10.18
v 3.206698 3.553214 2.82
v 4.574009 4.216916 -10.18
v 4.574009 4.216916 2.82
v 4.375129 3.444176 -10.18
v 4.375129 3.444176 2.82
v 5.848135 3.817315 -10.18
v 5.848135 3.817315 2.82
v 5.463924 3.124494 -10.18
v 5.463924 3.124494 2.82
v 6.942258 3.18164 -10.18
v 6.942258 3.18164 2.82
v 6.398901 2.615955 -10.18
v 6.398901 2.615955 2.82
v 7.781799 2.353213 -10.18
v 7.781799 2.353213 2.82
v 7.116332 1.953213 -10.18
v 7.116332 1.953213 2.82
v 8.309562 1.388489 -10.18
v 8.309562 1.388489 2.82
v 7.567325 1.181434 -10.18
v 7.567325 1.181434 2.82
v 8.489572 0.3532128 -10.18
v 8.489572 0.3532128 2.82
v 7.721151 0.3532128 -10.18
v 7.721151 0.3532128 2.82
v 7.6251 -7.646787 2.32
v 7.625108 -7.646787 -9.68
v 7.6251 0.3532128 2.32
v 7.625108 0.3532128 -9.68
v 8.009318 0.3532128 -9.68
v 8.009311 0.3532128 2.32
v -1.595907 0.3532128 2.32
v -1.595907 0.3532128 -9.68
v -1.211704 -7.646787 -9.68
v -1.211704 0.3532128 -9.68
v -1.211704 -7.646787 2.32
v -1.211704 0.3532128 2.32
v -1.595915 -7.646787 -9.379997
v -1.595915 0.3528752 -9.379997
v -1.595915 0.3528752 -9.68
v 8.009311 -7.646787 -9.379997
v 8.009311 0.3528752 -9.68
v 8.009311 0.3528752 -9.379997
v -1.506415 0.3528752 -9.68
v 7.975154 0.3528752 -9.68
v 7.715552 1.388031 -9.68
v 7.580596 1.388031 -9.68
v 7.320994 2.352875 -9.68
v 7.017372 2.352875 -9.68
v 6.757771 2.962058 -9.68
v 6.503599 3.154454 -9.68
v 6.24942 3.154454 -9.68
v 5.989819 3.557953 -9.68
v 5.672903 3.557953 -9.68
v 5.413301 3.817719 -9.68
v 5.1537 3.817719 -9.68
v 4.894105 3.817719 -9.68
v 4.634504 3.817719 -9.68
v 4.374902 4.217133 -9.68
v 4.1153 4.217133 -9.68
v 3.855699 4.217133 -9.68
v 3.596097 4.217133 -9.68
v 3.336495 4.217133 -9.68
v 3.076901 4.217133 -9.68
v 2.817299 4.217301 -9.68
v 2.557698 4.216963 -9.68
v 2.298096 4.216963 -9.68
v 2.038494 4.217301 -9.68
v 1.778893 3.927094 -9.68
v 1.519291 3.927094 -9.68
v 1.259696 3.817719 -9.68
v 1.000095 3.817719 -9.68
v 0.7404932 3.557953 -9.68
v 0.4808915 3.557953 -9.68
v 0.2212898 3.181977 -9.68
v -0.1263383 3.181977 -9.68
v -0.3859399 2.623315 -9.68
v -0.6670499 2.623315 -9.68
v -0.9481525 2.203461 -9.68
v -1.207747 1.310883 -9.68
v -1.246814 1.310883 -9.68
v 6.503599 3.154454 -9.379997
v 6.757771 2.962058 -9.379997
v 7.017372 2.352875 -9.379997
v 7.320994 2.352875 -9.379997
v 7.580596 1.388031 -9.379997
v 7.715552 1.388031 -9.379997
v 7.975154 0.3528752 -9.379997
v -1.506415 0.3528752 -9.379997
v -1.246814 1.310883 -9.379997
v -1.207747 1.310883 -9.379997
v -0.9481525 2.203461 -9.379997
v -0.6670499 2.623315 -9.379997
v -0.3859399 2.623315 -9.379997
v -0.1263383 3.181977 -9.379997
v 0.2212898 3.181977 -9.379997
v 0.4808915 3.557953 -9.379997
v 0.7404932 3.557953 -9.379997
v 1.000095 3.817719 -9.379997
v 1.259696 3.817719 -9.379997
v 1.519291 3.927094 -9.379997
v 1.778893 3.927094 -9.379997
v 2.038494 4.217301 -9.379997
v 2.298096 4.216963 -9.379997
v 2.557698 4.216963 -9.379997
v 2.817299 4.217301 -9.379997
v 3.076901 4.217133 -9.379997
v 3.336495 4.217133 -9.379997
v 3.596097 4.217133 -9.379997
v 3.855699 4.217133 -9.379997
v 4.1153 4.217133 -9.379997
v 4.374902 4.217133 -9.379997
v 4.634504 3.817719 -9.379997
v 4.894105 3.817719 -9.379997
v 5.1537 3.817719 -9.379997
v 5.413301 3.817719 -9.379997
v 5.672903 3.557953 -9.379997
v 5.989819 3.557953 -9.379997
v 6.24942 3.154454 -9.379997
v 7.69776 -0.04812193 -7.578606
v -1.302237 -0.04812193 -7.578606
v 7.69776 0.3518777 -7.578606
v -1.302237 0.3518777 -7.578606
v -1.302237 -0.04812193 -7.9786
v -1.302237 0.3518777 -7.9786
v 7.69776 -0.04812193 -7.9786
v 7.69776 0.3518777 -7.9786
v 7.69776 -0.04812193 -5.578606
v -1.302237 -0.04812193 -5.578606
v 7.69776 0.3518777 -5.578606
v -1.302237 0.3518777 -5.578606
v -1.302237 -0.04812193 -5.9786
v -1.302237 0.3518777 -5.9786
v 7.69776 -0.04812193 -5.9786
v 7.69776 0.3518777 -5.9786
v 7.69776 -0.04812193 -3.578606
v -1.302237 -0.04812193 -3.578606
v 7.69776 0.3518777 -3.578606
v -1.302237 0.3518777 -3.578606
v -1.302237 -0.04812193 -3.9786
v -1.302237 0.3518777 -3.9786
v 7.69776 -0.04812193 -3.9786
v 7.69776 0.3518777 -3.9786
v 7.69776 -0.04812193 -1.578606
v -1.302237 -0.04812193 -1.578606
v 7.69776 0.3518777 -1.578606
v -1.302237 0.3518777 -1.578606
v -1.302237 -0.04812193 -1.9786
v -1.302237 0.3518777 -1.9786
v 7.69776 -0.04812193 -1.9786
v 7.69776 0.3518777 -1.9786

vt 7.697762 -0.04812212
vt -1.302238 -0.04812212
vt 7.697762 0.3518779
vt -1.302238 0.3518779
vt 0.4213974 -0.04812212
vt 0.0213974 -0.04812212
vt 0.4213974 0.3518779
vt 0.0213974 0.3518779
vt 1.302238 -0.04812212
vt -7.697762 -0.04812212
vt 1.302238 0.3518779
vt -7.697762 0.3518779
vt -0.0213974 -0.04812212
vt -0.4213974 -0.04812212
vt -0.0213974 0.3518779
vt -0.4213974 0.3518779
vt -7.697762 0.4213974
vt 1.302238 0.4213974
vt -7.697762 0.0213974
vt 1.302238 0.0213974
vt 7.697762 0.0213974
vt -1.302238 0.0213974
vt 7.697762 0.4213974
vt -1.302238 0.4213974
vt 8.433395 0.3980551
vt -1.566604 0.3980551
vt 8.433395 0.498055
vt -1.566604 0.498055
vt 10.76785 0.3980551
vt -1.232147 0.3980551
vt 10.76785 0.498055
vt -1.232147 0.498055
vt 1.566604 0.3980551
vt -8.433395 0.3980551
vt 1.566604 0.498055
vt -8.433395 0.498055
vt 1.232147 0.3980551
vt -10.76785 0.3980551
vt 1.232147 0.498055
vt -10.76785 0.498055
vt -8.433395 10.76785
vt 1.566604 10.76785
vt -8.433395 -1.232147
vt 1.566604 -1.232147
vt 8.433395 -1.232147
vt -1.566604 -1.232147
vt 8.433395 10.76785
vt -1.566604 10.76785
vt -0.8924484 -0.6298218
vt -0.09244835 -0.6298218
vt -0.8924484 -13.62982
vt -0.09244835 -13.62982
vt -13.62982 1.936936
vt -13.62982 2.989038
vt -0.6298218 1.936936
vt -0.6298218 2.989038
vt 13.62982 2.917243
vt 13.62982 2.073681
vt 0.6298218 2.917243
vt 0.6298218 2.073681
vt -13.62982 2.401506
vt -13.62982 3.511726
vt -0.6298218 2.401506
vt -0.6298218 3.511726
vt 13.63013 3.465812
vt 13.62982 2.557939
vt 0.6298227 3.4703
vt 0.6295094 2.562428
vt -2.728121 -13.62982
vt -3.932389 -13.62982
vt -2.728121 -0.6298218
vt -3.932389 -0.6298218
vt 3.875988 -13.62982
vt 2.877432 -13.62982
vt 3.875988 -0.6298218
vt 2.877432 -0.6298218
vt -3.043662 -13.62982
vt -4.348117 -13.62982
vt -3.043662 -0.6298218
vt -4.348117 -0.6298218
vt 4.270469 -13.62982
vt 3.172232 -13.62982
vt 4.270469 -0.6298218
vt 3.172232 -0.6298218
vt -3.392167 -13.62982
vt -4.777545 -13.62982
vt -3.392167 -0.6298218
vt -4.777545 -0.6298218
vt 4.680912 -13.62982
vt 3.503147 -13.62982
vt 4.680912 -0.6298218
vt 3.503147 -0.6298218
vt -3.740817 -13.62982
vt -5.170832 -13.62982
vt -3.740817 -0.6298218
vt -5.170832 -0.6298218
vt 5.065001 -13.62982
vt 3.843674 -13.62982
vt 5.065001 -0.6298218
vt 3.843674 -0.6298218
vt -4.00232 -13.62982
vt -5.432334 -13.62982
vt -4.00232 -0.6298218
vt -5.432334 -0.6298218
vt 5.334631 -13.62982
vt 4.113305 -13.62982
vt 5.334631 -0.6298218
vt 4.113305 -0.6298218
vt -4.045891 -13.62982
vt -5.43127 -13.62982
vt -4.045891 -0.6298218
vt -5.43127 -0.6298218
vt 5.366004 -13.62982
vt 4.188237 -13.62982
vt 5.366004 -0.6298218
vt 4.188237 -0.6298218
vt -3.698777 -13.62982
vt -5.003232 -13.62982
vt -3.698777 -0.6298218
vt -5.003232 -0.6298218
vt 4.995405 -13.62982
vt 3.89717 -13.62982
vt 4.995405 -0.6298218
vt 3.89717 -0.6298218
vt -2.755898 -13.62982
vt -3.960165 -13.62982
vt -2.755898 -0.6298218
vt -3.960165 -0.6298218
vt 4.015451 -13.62982
vt 3.016896 -13.62982
vt 4.015451 -0.6298218
vt 3.016896 -0.6298218
vt 13.62982 -1.048858
vt 13.62982 -2.159078
vt 0.6298218 -1.048858
vt 0.6298218 -2.159078
vt -13.62982 -2.227103
vt -13.62982 -1.323718
vt -0.6298218 -2.227103
vt -0.6298218 -1.323718
vt 13.62982 1.347575
vt 13.62982 0.2954719
vt 0.6298218 1.347575
vt 0.6298218 0.2954719
vt -13.62982 0.3242136
vt -13.62982 1.167777
vt -0.6298218 0.3242136
vt -0.6298218 1.167777
vt 9.307551 -0.6298218
vt 10.10755 -0.6298218
vt 9.307551 -13.62982
vt 10.10755 -13.62982
vt -0.8931475 2.132652
vt -0.6996846 3.167886
vt -0.0979681 2.127141
vt 0.06696248 2.955258
vt 0.6996846 3.167886
vt 0.8931475 2.132652
vt -0.06696248 2.955258
vt 0.0979681 2.127141
vt -0.7064903 3.177156
vt -0.1449977 4.129103
vt 0.0564692 2.957698
vt 0.5353861 3.718745
vt 0.1449978 4.129103
vt 0.7064902 3.177156
vt -0.5353861 3.718745
vt -0.05646932 2.957698
vt -0.1569762 4.143851
vt 0.7302342 4.95688
vt 0.5249456 3.728937
vt 1.282194 4.378404
vt -0.7302341 4.95688
vt 0.1569762 4.143851
vt -1.282194 4.378404
vt -0.5249456 3.728937
vt 0.7175894 4.971454
vt 1.868166 5.592452
vt 1.273588 4.391459
vt 2.256207 4.887181
vt -1.868166 5.592452
vt -0.7175893 4.971454
vt -2.256207 4.887181
vt -1.273588 4.391459
vt 1.857214 5.604158
vt 3.191755 5.992494
vt 2.250352 4.900241
vt 3.390527 5.210088
vt -3.191755 5.992494
vt -1.857214 5.604158
vt -3.390527 5.210088
vt -2.250352 4.900241
vt 3.184011 5.998097
vt 4.61061 6.129554
vt 3.388415 5.220539
vt 4.607481 5.325401
vt -4.61061 6.129555
vt -3.184011 5.998098
vt -4.607481 5.325401
vt -3.388415 5.22054
vt 4.604481 6.129552
vt 6.031093 5.998116
vt 4.607623 5.325383
vt 5.826699 5.220538
vt -6.031093 5.998115
vt -4.604482 6.129552
vt -5.826699 5.220538
vt -4.607623 5.325383
vt 6.023355 5.992495
vt 7.357889 5.604149
vt 5.824575 5.210098
vt 6.964744 4.900241
vt -7.357889 5.604149
vt -6.023355 5.992495
vt -6.964744 4.900241
vt -5.824575 5.210098
vt 7.346941 5.592453
vt 8.497515 4.971448
vt 6.958896 4.887186
vt 7.941507 4.391459
vt -8.497515 4.971448
vt -7.346941 5.592453
vt -7.941507 4.391459
vt -6.958896 4.887186
vt 8.484874 4.95688
vt 9.372079 4.143854
vt 7.932908 4.378402
vt 8.690159 3.728937
vt -9.372079 4.143854
vt -8.484874 4.95688
vt -8.690159 3.728937
vt -7.932908 4.378402
vt 9.360104 4.129103
vt 9.921593 3.177155
vt 8.679717 3.718747
vt 9.158632 2.957698
vt -9.921593 3.177154
vt -9.360104 4.129103
vt -9.158632 2.957698
vt -8.679718 3.718748
vt 9.914795 3.167883
vt 10.10825 2.132648
vt 9.14814 2.955262
vt 9.313065 2.127143
vt -10.10825 2.132648
vt -9.914795 3.167883
vt -9.313066 2.127144
vt -9.148141 2.955261
vt 8.677383 -0.4011517
vt -3.322617 -0.4011517
vt 8.677383 7.598848
vt -3.322617 7.598848
vt 0.412219 -0.4011517
vt 0.01221943 -0.4011517
vt 0.412219 7.598848
vt 0.01221943 7.598848
vt 3.322617 -0.4011517
vt -8.677383 -0.4011517
vt 3.322617 7.598848
vt -8.677383 7.598848
vt -0.01221943 -0.4011517
vt -0.412219 -0.4011517
vt -0.01221943 7.598848
vt -0.412219 7.598848
vt -8.677383 0.4122188
vt 3.322617 0.4122164
vt -8.677383 0.0122211
vt 3.322617 0.01221919
vt 8.677383 0.01221919
vt -3.322617 0.01221919
vt 8.677383 0.4122188
vt -3.322617 0.4122188
vt 0.3622208 -2.401154
vt 0.06221771 -2.401154
vt 0.3622208 5.598508
vt 0.06221771 5.598508
vt -0.06221771 -2.401154
vt -0.3622208 -2.401154
vt -0.06221771 5.598508
vt -0.3622208 5.598508
vt 7.677383 0.06221962
vt -2.322616 0.06221962
vt 7.677383 0.3622189
vt -2.322616 0.3622189
vt 2.229438 5.598508
vt 2.322616 5.598508
vt 2.322616 -2.401154
vt -7.677383 -2.401154
vt -7.677383 5.598508
vt -7.641822 5.598508
vt -7.371552 6.633665
vt -7.231048 6.633665
vt -6.960777 7.598509
vt -6.644676 7.598509
vt -6.374404 8.207691
vt -6.109787 8.400087
vt -5.845161 8.400087
vt -5.57489 8.803587
vt -5.244949 8.803587
vt -4.974678 9.063353
vt -4.704407 9.063353
vt -4.434143 9.063353
vt -4.163872 9.063353
vt -3.8936 9.462767
vt -3.623329 9.462767
vt -3.353058 9.462767
vt -3.082787 9.462767
vt -2.812515 9.462767
vt -2.542252 9.462767
vt -2.27198 9.462934
vt -2.001709 9.462597
vt -1.731438 9.462597
vt -1.461166 9.462934
vt -1.190895 9.172728
vt -0.920624 9.172728
vt -0.6503603 9.063353
vt -0.3800893 9.063353
vt -0.109818 8.803587
vt 0.1604536 8.803587
vt 0.4307246 8.42761
vt 0.7926402 8.42761
vt 1.062912 7.868949
vt 1.355575 7.868949
vt 1.648231 7.449094
vt 1.918495 6.556516
vt 1.959167 6.556516
vt 6.193355 8.389416
vt 6.45814 8.193005
vt 6.724023 7.577401
vt 7.042864 7.573897
vt 7.304815 6.600633
vt 7.446537 6.599075
vt 7.707711 5.555103
vt 7.74358 5.554709
vt 7.655172 -2.48993
vt -2.43152 -2.379082
vt -2.343113 5.665557
vt -2.249128 5.664525
vt -1.965926 6.624923
vt -1.924901 6.624472
vt -1.642431 7.519072
vt -1.342597 7.938043
vt -1.047397 7.934799
vt -0.7686083 8.493605
vt -0.4035552 8.489594
vt -0.1267858 8.864688
vt 0.1458287 8.861692
vt 0.4213138 9.119923
vt 0.6939282 9.116926
vt 0.9677435 9.223921
vt 1.240358 9.220924
vt 1.516179 9.509768
vt 1.78879 9.506433
vt 2.061405 9.503437
vt 2.334023 9.50078
vt 2.606635 9.497616
vt 2.879242 9.494619
vt 3.151856 9.491623
vt 3.424471 9.488628
vt 3.697085 9.485632
vt 3.969699 9.482635
vt 4.237901 9.07798
vt 4.510515 9.074984
vt 4.783121 9.071988
vt 5.055735 9.068993
vt 5.325479 8.80477
vt 5.658279 8.801113
vt 5.926435 8.392349

vn 0 0 1
vn -1 0 0
vn 0 0 -1
vn 1 0 0
vn 0 1 0
vn 0 -1 0
vn -0.9852179 0.1713061 0
vn -0.9439591 0.3300624 0
vn 0.9372157 -0.3487501 0
vn 0.9831858 -0.1826081 0
vn -0.7983026 0.6022565 0
vn 0.7795062 -0.6263945 0
vn -0.6071977 0.7945508 0
vn 0.5826402 -0.8127302 0
vn -0.4032992 0.9150681 0
vn 0.3819161 -0.924197 0
vn -0.2002696 0.9797409 0
vn 0.1881882 -0.982133 0
vn 0.2002696 0.9797409 0
vn -0.1881886 -0.9821329 0
vn 0.403298 0.9150687 0
vn -0.3819161 -0.924197 0
vn 0.6071983 0.7945503 0
vn -0.5826399 -0.8127304 0
vn 0.798304 0.6022547 0
vn -0.7795061 -0.6263945 0
vn 0.9439592 0.3300621 0
vn -0.8633949 -0.5045287 0
vn 0.9852179 0.1713059 0
vn -0.9831858 -0.1826079 0

usemtl WoodenFloor
f 3/3/1 4/4/1 2/2/1 1/1/1
f 4/7/2 6/8/2 5/6/2 2/5/2
f 6/11/3 8/12/3 7/10/3 5/9/3
f 8/15/4 3/16/4 1/14/4 7/13/4
f 8/19/5 6/20/5 4/18/5 3/17/5
f 1/23/6 2/24/6 5/22/6 7/21/6
f 11/27/1 12/28/1 10/26/1 9/25/1
f 12/31/2 14/32/2 13/30/2 10/29/2
f 14/35/3 16/36/3 15/34/3 13/33/3
f 16/39/4 11/40/4 9/38/4 15/37/4
f 16/43/5 14/44/5 12/42/5 11/41/5
f 9/47/6 10/48/6 13/46/6 15/45/6
f 165/3/1 166/4/1 164/2/1 163/1/1
f 166/7/2 168/8/2 167/6/2 164/5/2
f 168/11/3 170/12/3 169/10/3 167/9/3
f 170/15/4 165/16/4 163/14/4 169/13/4
f 170/19/5 168/20/5 166/18/5 165/17/5
f 163/23/6 164/24/6 167/22/6 169/21/6
f 173/3/1 174/4/1 172/2/1 171/1/1
f 174/7/2 176/8/2 175/6/2 172/5/2
f 176/11/3 178/12/3 177/10/3 175/9/3
f 178/15/4 173/16/4 171/14/4 177/13/4
f 178/19/5 176/20/5 174/18/5 173/17/5
f 171/23/6 172/24/6 175/22/6 177/21/6
f 181/3/1 182/4/1 180/2/1 179/1/1
f 182/7/2 184/8/2 183/6/2 180/5/2
f 184/11/3 186/12/3 185/10/3 183/9/3
f 186/15/4 181/16/4 179/14/4 185/13/4
f 186/19/5 184/20/5 182/18/5 181/17/5
f 179/23/6 180/24/6 183/22/6 185/21/6
f 189/3/1 190/4/1 188/2/1 187/1/1
f 190/7/2 192/8/2 191/6/2 188/5/2
f 192/11/3 194/12/3 193/10/3 191/9/3
f 194/15/4 189/16/4 187/14/4 193/13/4
f 194/19/5 192/20/5 190/18/5 189/17/5
f 187/23/6 188/24/6 191/22/6 193/21/6

usemtl Barn
f 136/342/1 135/341/1 134/340/1
f 136/342/1 134/340/1 137/343/1
f 134/340/1 133/339/1 132/338/1
f 137/343/1 134/340/1 132/338/1
f 130/332/1 129/331/1 131/333/1
f 159/365/1 158/364/1 160/366/1
f 158/364/1 157/363/1 160/366/1
f 157/363/1 156/362/1 160/366/1
f 155/361/1 154/360/1 156/362/1
f 154/360/1 153/359/1 156/362/1
f 153/359/1 152/358/1 156/362/1
f 152/358/1 151/357/1 156/362/1
f 151/357/1 150/356/1 156/362/1
f 146/352/1 145/351/1 147/353/1
f 148/354/1 147/353/1 145/351/1
f 148/354/1 145/351/1 149/355/1
f 150/356/1 149/355/1 145/351/1
f 156/362/1 150/356/1 145/351/1
f 145/351/1 144/350/1 143/349/1
f 143/349/1 142/348/1 141/347/1
f 145/351/1 143/349/1 141/347/1
f 139/345/1 138/344/1 137/343/1
f 141/347/1 140/346/1 139/345/1
f 137/343/1 141/347/1 139/345/1
f 145/351/1 141/347/1 137/343/1
f 156/362/1 145/351/1 137/343/1
f 160/366/1 156/362/1 137/343/1
f 128/330/1 127/329/1 129/331/1
f 125/327/1 162/368/1 126/328/1
f 126/328/1 162/368/1 127/329/1
f 129/331/1 127/329/1 162/368/1
f 161/367/1 160/366/1 162/368/1
f 129/331/1 162/368/1 160/366/1
f 137/343/1 129/331/1 160/366/1
f 131/333/1 129/331/1 137/343/1
f 132/338/1 131/333/1 137/343/1
f 131/333/1 84/335/1 86/334/1
f 131/333/1 132/338/1 84/335/1
f 84/335/1 132/338/1 81/336/1
f 132/338/1 82/337/1 81/336/1
f 14/287/3 83/286/3 87/285/3
f 14/287/3 87/285/3 16/288/3
f 16/288/3 87/285/3 88/290/3
f 85/289/3 16/288/3 88/290/3
f 120/322/3 88/290/3 87/285/3
f 120/322/3 90/292/3 88/290/3
f 97/299/3 90/292/3 120/322/3
f 97/299/3 95/297/3 90/292/3
f 95/297/3 97/299/3 96/298/3
f 95/297/3 92/294/3 90/292/3
f 92/294/3 95/297/3 93/295/3
f 93/295/3 95/297/3 94/296/3
f 90/292/3 92/294/3 91/293/3
f 120/322/3 101/303/3 97/299/3
f 120/322/3 112/314/3 101/303/3
f 120/322/3 116/318/3 112/314/3
f 118/320/3 116/318/3 120/322/3
f 118/320/3 117/319/3 116/318/3
f 120/322/3 119/321/3 118/320/3
f 116/318/3 114/316/3 112/314/3
f 116/318/3 115/317/3 114/316/3
f 114/316/3 113/315/3 112/314/3
f 112/314/3 107/309/3 101/303/3
f 112/314/3 108/310/3 107/309/3
f 108/310/3 112/314/3 109/311/3
f 112/314/3 110/312/3 109/311/3
f 110/312/3 112/314/3 111/313/3
f 101/303/3 107/309/3 106/308/3
f 101/303/3 106/308/3 105/307/3
f 101/303/3 105/307/3 104/306/3
f 101/303/3 104/306/3 103/305/3
f 101/303/3 103/305/3 102/304/3
f 97/299/3 101/303/3 100/302/3
f 97/299/3 100/302/3 99/301/3
f 97/299/3 99/301/3 98/300/3
f 88/290/3 90/292/3 89/291/3
f 87/285/3 123/325/3 120/322/3
f 87/285/3 124/326/3 123/325/3
f 120/322/3 123/325/3 121/323/3
f 123/325/3 122/324/3 121/323/3
f 20/52/6 18/50/6 17/49/6
f 17/49/6 19/51/6 20/52/6
f 22/56/8 21/54/8 19/53/7
f 19/53/7 17/55/7 22/56/8
f 18/60/10 20/58/10 23/57/9
f 23/57/9 24/59/9 18/60/10
f 26/64/11 25/62/11 21/61/8
f 21/61/8 22/63/8 26/64/11
f 24/68/9 23/66/9 27/65/12
f 27/65/12 28/67/12 24/68/9
f 30/72/13 29/70/13 25/69/11
f 25/69/11 26/71/11 30/72/13
f 28/76/12 27/74/12 31/73/14
f 31/73/14 32/75/14 28/76/12
f 34/80/15 33/78/15 29/77/13
f 29/77/13 30/79/13 34/80/15
f 32/84/14 31/82/14 35/81/16
f 35/81/16 36/83/16 32/84/14
f 38/88/17 37/86/17 33/85/15
f 33/85/15 34/87/15 38/88/17
f 36/92/16 35/90/16 39/89/18
f 39/89/18 40/91/18 36/92/16
f 42/96/5 41/94/5 37/93/17
f 37/93/17 38/95/17 42/96/5
f 40/100/18 39/98/18 43/97/6
f 43/97/6 44/99/6 40/100/18
f 46/104/19 45/102/19 41/101/5
f 41/101/5 42/103/5 46/104/19
f 44/108/6 43/106/6 47/105/20
f 47/105/20 48/107/20 44/108/6
f 50/112/21 49/110/21 45/109/19
f 45/109/19 46/111/19 50/112/21
f 48/116/20 47/114/20 51/113/22
f 51/113/22 52/115/22 48/116/20
f 54/120/23 53/118/23 49/117/21
f 49/117/21 50/119/21 54/120/23
f 52/124/22 51/122/22 55/121/24
f 55/121/24 56/123/24 52/124/22
f 58/128/25 57/126/25 53/125/23
f 53/125/23 54/127/23 58/128/25
f 56/132/24 55/130/24 59/129/26
f 59/129/26 60/131/26 56/132/24
f 62/136/27 61/134/27 57/133/25
f 57/133/25 58/135/25 62/136/27
f 60/140/26 59/138/26 63/137/28
f 63/137/28 64/139/28 60/140/26
f 66/144/29 65/142/29 61/141/27
f 61/141/27 62/143/27 66/144/29
f 64/148/30 63/146/30 67/145/30
f 67/145/30 68/147/30 64/148/30
f 65/152/6 66/150/6 68/149/6
f 68/149/6 67/151/6 65/152/6
f 24/156/1 22/154/1 17/153/1
f 17/153/1 18/155/1 24/156/1
f 20/160/3 19/158/3 21/157/3
f 21/157/3 23/159/3 20/160/3
f 28/164/1 26/162/1 22/161/1
f 22/161/1 24/163/1 28/164/1
f 23/168/3 21/166/3 25/165/3
f 25/165/3 27/167/3 23/168/3
f 32/172/1 30/170/1 26/169/1
f 26/169/1 28/171/1 32/172/1
f 27/176/3 25/174/3 29/173/3
f 29/173/3 31/175/3 27/176/3
f 36/180/1 34/178/1 30/177/1
f 30/177/1 32/179/1 36/180/1
f 31/184/3 29/182/3 33/181/3
f 33/181/3 35/183/3 31/184/3
f 40/188/1 38/186/1 34/185/1
f 34/185/1 36/187/1 40/188/1
f 35/192/3 33/190/3 37/189/3
f 37/189/3 39/191/3 35/192/3
f 44/196/1 42/194/1 38/193/1
f 38/193/1 40/195/1 44/196/1
f 39/200/3 37/198/3 41/197/3
f 41/197/3 43/199/3 39/200/3
f 48/204/1 46/202/1 42/201/1
f 42/201/1 44/203/1 48/204/1
f 43/208/3 41/206/3 45/205/3
f 45/205/3 47/207/3 43/208/3
f 52/212/1 50/210/1 46/209/1
f 46/209/1 48/211/1 52/212/1
f 47/216/3 45/214/3 49/213/3
f 49/213/3 51/215/3 47/216/3
f 56/220/1 54/218/1 50/217/1
f 50/217/1 52/219/1 56/220/1
f 51/224/3 49/222/3 53/221/3
f 53/221/3 55/223/3 51/224/3
f 60/228/1 58/226/1 54/225/1
f 54/225/1 56/227/1 60/228/1
f 55/232/3 53/230/3 57/229/3
f 57/229/3 59/231/3 55/232/3
f 64/236/1 62/234/1 58/233/1
f 58/233/1 60/235/1 64/236/1
f 59/240/3 57/238/3 61/237/3
f 61/237/3 63/239/3 59/240/3
f 68/244/1 66/242/1 62/241/1
f 62/241/1 64/243/1 68/244/1
f 63/248/3 61/246/3 65/245/3
f 65/245/3 67/247/3 63/248/3
f 72/252/2 70/250/2 69/249/2
f 69/249/2 71/251/2 72/252/2
f 73/256/3 16/254/3 70/253/3
f 70/253/3 72/255/3 73/256/3
f 74/260/4 11/258/4 16/257/4
f 16/257/4 73/259/4 74/260/4
f 71/264/1 69/262/1 11/261/1
f 11/261/1 74/263/1 71/264/1
f 73/268/5 72/266/5 71/265/5
f 71/265/5 74/267/5 73/268/5
f 70/272/6 16/270/6 11/269/6
f 11/269/6 69/271/6 70/272/6
f 76/252/2 14/250/2 12/249/2
f 12/249/2 75/251/2 76/252/2
f 78/256/3 77/254/3 14/253/3
f 14/253/3 76/255/3 78/256/3
f 80/260/4 79/258/4 77/257/4
f 77/257/4 78/259/4 80/260/4
f 75/264/1 12/262/1 79/261/1
f 79/261/1 80/263/1 75/264/1
f 78/268/5 76/266/5 75/265/5
f 75/265/5 80/267/5 78/268/5
f 14/272/6 77/270/6 79/269/6
f 79/269/6 12/271/6 14/272/6
f 83/276/2 14/274/2 81/273/2
f 81/273/2 82/275/2 83/276/2
f 86/280/4 84/278/4 16/277/4
f 16/277/4 85/279/4 86/280/4
f 81/284/6 14/282/6 16/281/6
f 16/281/6 84/283/6 81/284/6

