# ProBuilder 5.2.0
# https://unity3d.com/unity/features/worldbuilding/probuilder
# 11/13/2023 11:28:38 AM

mtllib ./LlantaAdelante.mtl
o LlantaAdelante

g LlantaAdelante
v 0.5077591 0.6381043 -0.9029083
v 0.5077591 0.7881042 -0.9029083
v 0.5162777 0.6381043 -0.8382035
v 0.5162777 0.7881042 -0.8382035
v 0.5412527 0.6381043 -0.7779083
v 0.5412527 0.7881042 -0.7779083
v 0.5809824 0.6381043 -0.7261316
v 0.5809824 0.7881042 -0.7261316
v 0.6327591 0.6381043 -0.686402
v 0.6327591 0.7881042 -0.686402
v 0.6930543 0.6381043 -0.6614269
v 0.6930543 0.7881042 -0.6614269
v 0.7577591 0.6381043 -0.6529083
v 0.7577591 0.7881042 -0.6529083
v 0.8224639 0.6381043 -0.6614269
v 0.8224639 0.7881042 -0.6614269
v 0.8827591 0.6381043 -0.686402
v 0.8827591 0.7881042 -0.686402
v 0.9345358 0.6381043 -0.7261316
v 0.9345358 0.7881042 -0.7261316
v 0.9742655 0.6381043 -0.7779083
v 0.9742655 0.7881042 -0.7779083
v 0.9992405 0.6381043 -0.8382035
v 0.9992405 0.7881042 -0.8382035
v 1.007759 0.6381043 -0.9029083
v 1.007759 0.7881042 -0.9029083
v 0.9992405 0.6381043 -0.9676131
v 0.9992405 0.7881042 -0.9676131
v 0.9742655 0.6381043 -1.027908
v 0.9742655 0.7881042 -1.027908
v 0.9345358 0.6381043 -1.079685
v 0.9345358 0.7881042 -1.079685
v 0.8827591 0.6381043 -1.119415
v 0.8827591 0.7881042 -1.119415
v 0.8224639 0.6381043 -1.14439
v 0.8224639 0.7881042 -1.14439
v 0.7577591 0.6381043 -1.152908
v 0.7577591 0.7881042 -1.152908
v 0.6930543 0.6381043 -1.14439
v 0.6930543 0.7881042 -1.14439
v 0.6327591 0.6381043 -1.119415
v 0.6327591 0.7881042 -1.119415
v 0.5809824 0.6381043 -1.079685
v 0.5809824 0.7881042 -1.079685
v 0.5412527 0.6381043 -1.027908
v 0.5412527 0.7881042 -1.027908
v 0.5162777 0.6381043 -0.9676132
v 0.5162777 0.7881042 -0.9676132
v 0.7577591 0.6381043 -0.9029083
v 0.7577591 0.7881042 -0.9029083
v 0.6077576 0.6581039 -0.9029083
v 0.6077576 0.8081055 -0.9029083
v 0.6128693 0.6581039 -0.8640854
v 0.6128693 0.8081055 -0.8640854
v 0.6278534 0.6581039 -0.8279083
v 0.6278534 0.8081055 -0.8279083
v 0.6516953 0.6581039 -0.7968423
v 0.6516953 0.8081055 -0.7968423
v 0.6827583 0.6581039 -0.7730045
v 0.6827583 0.8081055 -0.7730045
v 0.7189369 0.6581039 -0.7580194
v 0.7189369 0.8081055 -0.7580194
v 0.7577591 0.6581039 -0.7529082
v 0.7577591 0.8081055 -0.7529082
v 0.7965813 0.6581039 -0.7580194
v 0.7965813 0.8081055 -0.7580194
v 0.8327599 0.6581039 -0.7730045
v 0.8327599 0.8081055 -0.7730045
v 0.8638229 0.6581039 -0.7968423
v 0.8638229 0.8081055 -0.7968423
v 0.8876648 0.6581039 -0.8279083
v 0.8876648 0.8081055 -0.8279083
v 0.9026489 0.6581039 -0.8640854
v 0.9026489 0.8081055 -0.8640854
v 0.9077606 0.6581039 -0.9029083
v 0.9077606 0.8081055 -0.9029083
v 0.9026489 0.6581039 -0.9417312
v 0.9026489 0.8081055 -0.9417312
v 0.8876648 0.6581039 -0.9779081
v 0.8876648 0.8081055 -0.9779081
v 0.8638229 0.6581039 -1.008974
v 0.8638229 0.8081055 -1.008974
v 0.8327599 0.6581039 -1.032812
v 0.8327599 0.8081055 -1.032812
v 0.7965813 0.6581039 -1.047797
v 0.7965813 0.8081055 -1.047797
v 0.7577591 0.6581039 -1.052908
v 0.7577591 0.8081055 -1.052908
v 0.7189369 0.6581039 -1.047797
v 0.7189369 0.8081055 -1.047797
v 0.6827583 0.6581039 -1.032812
v 0.6827583 0.8081055 -1.032812
v 0.6516953 0.6581039 -1.008974
v 0.6516953 0.8081055 -1.008974
v 0.6278534 0.6581039 -0.9779081
v 0.6278534 0.8081055 -0.9779081
v 0.6128693 0.6581039 -0.9417312
v 0.6128693 0.8081055 -0.9417312
v 0.7577591 0.6581039 -0.9029083
v 0.7577591 0.8081055 -0.9029083

vt -0.8289077 0.6381043
vt -0.8289077 0.7881042
vt -0.7636446 0.6381043
vt -0.7636446 0.7881042
vt -0.5768287 0.6381043
vt -0.5768287 0.7881042
vt -0.5115656 0.6381043
vt -0.5115656 0.7881042
vt -0.2876625 0.6381043
vt -0.2876625 0.7881042
vt -0.2223994 0.6381043
vt -0.2223994 0.7881042
vt 0.0188835 0.6381043
vt 0.0188835 0.7881042
vt 0.0841466 0.6381043
vt 0.0841466 0.7881042
vt 0.321919 0.6381043
vt 0.321919 0.7881042
vt 0.3871821 0.6381043
vt 0.3871821 0.7881042
vt 0.6007913 0.6381043
vt 0.6007913 0.7881042
vt 0.6660544 0.6381043
vt 0.6660544 0.7881042
vt 0.8364983 0.6381043
vt 0.8364983 0.7881042
vt 0.9017614 0.6381043
vt 0.9017614 0.7881042
vt 1.012975 0.6381043
vt 1.012975 0.7881042
vt 1.078238 0.6381043
vt 1.078238 0.7881042
vt 1.118195 0.6381043
vt 1.118195 0.7881042
vt 1.183458 0.6381043
vt 1.183458 0.7881042
vt 1.144988 0.6381043
vt 1.144988 0.7881042
vt 1.210251 0.6381043
vt 1.210251 0.7881042
vt 1.091529 0.6381043
vt 1.091529 0.7881042
vt 1.156792 0.6381043
vt 1.156792 0.7881042
vt 0.9614601 0.6381043
vt 0.9614601 0.7881042
vt 1.026723 0.6381043
vt 1.026723 0.7881042
vt 0.7636443 0.6381043
vt 0.7636443 0.7881042
vt 0.8289074 0.6381043
vt 0.8289074 0.7881042
vt 0.5115659 0.6381043
vt 0.5115659 0.7881042
vt 0.576829 0.6381043
vt 0.576829 0.7881042
vt 0.2223986 0.6381043
vt 0.2223986 0.7881042
vt 0.2876617 0.6381043
vt 0.2876617 0.7881042
vt -0.08414567 0.6381043
vt -0.08414567 0.7881042
vt -0.01888252 0.6381043
vt -0.01888252 0.7881042
vt -0.3871824 0.6381043
vt -0.3871824 0.7881042
vt -0.3219193 0.6381043
vt -0.3219193 0.7881042
vt -0.6660541 0.6381043
vt -0.6660541 0.7881042
vt -0.600791 0.6381043
vt -0.600791 0.7881042
vt -0.9017617 0.6381043
vt -0.9017617 0.7881042
vt -0.8364985 0.6381043
vt -0.8364985 0.7881042
vt -1.078237 0.6381043
vt -1.078237 0.7881042
vt -1.012974 0.6381043
vt -1.012974 0.7881042
vt -1.183458 0.6381043
vt -1.183458 0.7881042
vt -1.118195 0.6381043
vt -1.118195 0.7881042
vt -1.210251 0.6381043
vt -1.210251 0.7881042
vt -1.144988 0.6381043
vt -1.144988 0.7881042
vt -1.156792 0.6381043
vt -1.156792 0.7881042
vt -1.091529 0.6381043
vt -1.091529 0.7881042
vt -1.026723 0.6381043
vt -1.026723 0.7881042
vt -0.9614598 0.6381043
vt -0.9614598 0.7881042
vt 0.5077591 -0.9029083
vt 0.7577591 -0.9029083
vt 0.5162777 -0.8382035
vt -0.5077591 -0.9029083
vt -0.7577591 -0.9029083
vt -0.5162777 -0.8382035
vt 0.5412527 -0.7779083
vt -0.5412527 -0.7779083
vt 0.5809824 -0.7261316
vt -0.5809824 -0.7261316
vt 0.6327591 -0.686402
vt -0.6327591 -0.686402
vt 0.6930543 -0.6614269
vt -0.6930543 -0.6614269
vt 0.7577591 -0.6529083
vt -0.7577591 -0.6529083
vt 0.8224639 -0.6614269
vt -0.8224639 -0.6614269
vt 0.8827591 -0.686402
vt -0.8827591 -0.686402
vt 0.9345358 -0.7261316
vt -0.9345358 -0.7261316
vt 0.9742655 -0.7779083
vt -0.9742655 -0.7779083
vt 0.9992405 -0.8382035
vt -0.9992405 -0.8382035
vt 1.007759 -0.9029083
vt -1.007759 -0.9029083
vt 0.9992405 -0.9676131
vt -0.9992405 -0.9676131
vt 0.9742655 -1.027908
vt -0.9742655 -1.027908
vt 0.9345358 -1.079685
vt -0.9345358 -1.079685
vt 0.8827591 -1.119415
vt -0.8827591 -1.119415
vt 0.8224639 -1.14439
vt -0.8224639 -1.14439
vt 0.7577591 -1.152908
vt -0.7577591 -1.152908
vt 0.6930543 -1.14439
vt -0.6930543 -1.14439
vt 0.6327591 -1.119415
vt -0.6327591 -1.119415
vt 0.5809824 -1.079685
vt -0.5809824 -1.079685
vt 0.5412527 -1.027908
vt -0.5412527 -1.027908
vt 0.5162777 -0.9676132
vt -0.5162777 -0.9676132
vt -0.8158559 0.6381043
vt -0.8158559 0.7881042
vt -0.7766979 0.6381043
vt -0.7766979 0.7881042
vt -0.5637746 0.6381043
vt -0.5637746 0.7881042
vt -0.5246169 0.6381043
vt -0.5246169 0.7881042
vt -0.2746093 0.6381043
vt -0.2746093 0.7881042
vt -0.2354515 0.6381043
vt -0.2354515 0.7881042
vt 0.03193557 0.6381043
vt 0.03193557 0.7881042
vt 0.07109341 0.6381043
vt 0.07109341 0.7881042
vt 0.3349702 0.6381043
vt 0.3349702 0.7881042
vt 0.374128 0.6381043
vt 0.374128 0.7881042
vt 0.6138449 0.6381043
vt 0.6138449 0.7881042
vt 0.6530027 0.6381043
vt 0.6530027 0.7881042
vt 0.8495501 0.6381043
vt 0.8495501 0.7881042
vt 0.8887081 0.6381043
vt 0.8887081 0.7881042
vt 1.026028 0.6381043
vt 1.026028 0.7881042
vt 1.065185 0.6381043
vt 1.065185 0.7881042
vt 1.131248 0.6381043
vt 1.131248 0.7881042
vt 1.170406 0.6381043
vt 1.170406 0.7881042
vt 1.158041 0.6381043
vt 1.158041 0.7881042
vt 1.197199 0.6381043
vt 1.197199 0.7881042
vt 1.104582 0.6381043
vt 1.104582 0.7881042
vt 1.14374 0.6381043
vt 1.14374 0.7881042
vt 0.9745116 0.6381043
vt 0.9745116 0.7881042
vt 1.013669 0.6381043
vt 1.013669 0.7881042
vt 0.7766982 0.6381043
vt 0.7766982 0.7881042
vt 0.8158561 0.6381043
vt 0.8158561 0.7881042
vt 0.5246166 0.6381043
vt 0.5246166 0.7881042
vt 0.5637744 0.6381043
vt 0.5637744 0.7881042
vt 0.2354528 0.6381043
vt 0.2354528 0.7881042
vt 0.2746107 0.6381043
vt 0.2746107 0.7881042
vt -0.07109451 0.6381043
vt -0.07109451 0.7881042
vt -0.03193662 0.6381043
vt -0.03193662 0.7881042
vt -0.3741286 0.6381043
vt -0.3741286 0.7881042
vt -0.3349706 0.6381043
vt -0.3349706 0.7881042
vt -0.6530028 0.6381043
vt -0.6530028 0.7881042
vt -0.6138449 0.6381043
vt -0.6138449 0.7881042
vt -0.8887078 0.6381043
vt -0.8887078 0.7881042
vt -0.8495501 0.6381043
vt -0.8495501 0.7881042
vt -1.065185 0.6381043
vt -1.065185 0.7881042
vt -1.026028 0.6381043
vt -1.026028 0.7881042
vt -1.170406 0.6381043
vt -1.170406 0.7881042
vt -1.131248 0.6381043
vt -1.131248 0.7881042
vt -1.197199 0.6381043
vt -1.197199 0.7881042
vt -1.158041 0.6381043
vt -1.158041 0.7881042
vt -1.143739 0.6381043
vt -1.143739 0.7881042
vt -1.104582 0.6381043
vt -1.104582 0.7881042
vt -1.01367 0.6381043
vt -1.01367 0.7881042
vt -0.9745119 0.6381043
vt -0.9745119 0.7881042
vt 0.6077591 -0.9029083
vt 0.6128708 -0.8640854
vt -0.6077591 -0.9029083
vt -0.6128708 -0.8640854
vt 0.6278542 -0.8279083
vt -0.6278542 -0.8279083
vt 0.6516968 -0.7968423
vt -0.6516968 -0.7968423
vt 0.6827568 -0.7730045
vt -0.6827568 -0.7730045
vt 0.7189373 -0.7580194
vt -0.7189373 -0.7580194
vt 0.7577591 -0.7529083
vt -0.7577591 -0.7529083
vt 0.796582 -0.7580196
vt -0.796582 -0.7580196
vt 0.8327591 -0.7730045
vt -0.8327591 -0.7730045
vt 0.8638251 -0.7968423
vt -0.8638251 -0.7968423
vt 0.8876629 -0.8279083
vt -0.8876629 -0.8279083
vt 0.902648 -0.8640854
vt -0.902648 -0.8640854
vt 0.9077591 -0.9029083
vt -0.9077591 -0.9029083
vt 0.9026474 -0.9417312
vt -0.9026474 -0.9417312
vt 0.887664 -0.9779084
vt -0.887664 -0.9779084
vt 0.8638214 -1.008974
vt -0.8638214 -1.008974
vt 0.8327614 -1.032812
vt -0.8327614 -1.032812
vt 0.7965809 -1.047797
vt -0.7965809 -1.047797
vt 0.7577592 -1.052908
vt -0.7577592 -1.052908
vt 0.7189362 -1.047797
vt -0.7189362 -1.047797
vt 0.6827591 -1.032812
vt -0.6827591 -1.032812
vt 0.6516931 -1.008974
vt -0.6516931 -1.008974
vt 0.6278553 -0.9779083
vt -0.6278553 -0.9779083
vt 0.6128702 -0.9417313
vt -0.6128702 -0.9417313

vn -1 0 6.011897E-08
vn -0.9659258 0 0.258819
vn -0.8660256 0 0.4999997
vn -0.7071068 0 0.7071068
vn -0.4999997 0 0.8660256
vn -0.258819 0 0.9659258
vn 0 0 1
vn 0.258819 0 0.9659258
vn 0.4999997 0 0.8660256
vn 0.7071068 0 0.7071068
vn 0.8660256 0 0.4999997
vn 0.9659258 0 0.258819
vn 1 0 0
vn 0.9659258 0 -0.258819
vn 0.8660254 0 -0.5
vn 0.7071068 0 -0.7071068
vn 0.5000001 0 -0.8660254
vn 0.258819 0 -0.9659258
vn 0 0 -1
vn -0.258819 0 -0.9659258
vn -0.4999996 0 -0.8660256
vn -0.7071066 0 -0.7071069
vn -0.8660254 0 -0.4999999
vn -0.9659258 0 -0.2588191
vn 0 -1 0
vn 0 1 0
vn -0.8660101 0 0.5000266
vn -0.500014 0 0.8660173
vn 0.500014 0 0.8660173
vn 0.8660101 0 0.5000266
vn 0.8660095 0 -0.5000276
vn -0.500016 0 -0.8660161
vn -0.8660095 0 -0.5000276

usemtl Negro_JD
f 1/97/25 49/98/25 3/99/25
f 3/99/25 49/98/25 5/103/25
f 5/103/25 49/98/25 7/105/25
f 7/105/25 49/98/25 9/107/25
f 9/107/25 49/98/25 11/109/25
f 11/109/25 49/98/25 13/111/25
f 13/111/25 49/98/25 15/113/25
f 15/113/25 49/98/25 17/115/25
f 17/115/25 49/98/25 19/117/25
f 19/117/25 49/98/25 21/119/25
f 21/119/25 49/98/25 23/121/25
f 23/121/25 49/98/25 25/123/25
f 25/123/25 49/98/25 27/125/25
f 27/125/25 49/98/25 29/127/25
f 29/127/25 49/98/25 31/129/25
f 31/129/25 49/98/25 33/131/25
f 33/131/25 49/98/25 35/133/25
f 35/133/25 49/98/25 37/135/25
f 37/135/25 49/98/25 39/137/25
f 39/137/25 49/98/25 41/139/25
f 41/139/25 49/98/25 43/141/25
f 43/141/25 49/98/25 45/143/25
f 45/143/25 49/98/25 47/145/25
f 47/145/25 49/98/25 1/97/25
f 4/102/26 50/101/26 2/100/26
f 6/104/26 50/101/26 4/102/26
f 8/106/26 50/101/26 6/104/26
f 10/108/26 50/101/26 8/106/26
f 12/110/26 50/101/26 10/108/26
f 14/112/26 50/101/26 12/110/26
f 16/114/26 50/101/26 14/112/26
f 18/116/26 50/101/26 16/114/26
f 20/118/26 50/101/26 18/116/26
f 22/120/26 50/101/26 20/118/26
f 24/122/26 50/101/26 22/120/26
f 26/124/26 50/101/26 24/122/26
f 28/126/26 50/101/26 26/124/26
f 30/128/26 50/101/26 28/126/26
f 32/130/26 50/101/26 30/128/26
f 34/132/26 50/101/26 32/130/26
f 36/134/26 50/101/26 34/132/26
f 38/136/26 50/101/26 36/134/26
f 40/138/26 50/101/26 38/136/26
f 42/140/26 50/101/26 40/138/26
f 44/142/26 50/101/26 42/140/26
f 46/144/26 50/101/26 44/142/26
f 48/146/26 50/101/26 46/144/26
f 2/100/26 50/101/26 48/146/26
f 4/4/2 2/2/1 1/1/1
f 1/1/1 3/3/2 4/4/2
f 6/8/3 4/6/2 3/5/2
f 3/5/2 5/7/3 6/8/3
f 8/12/4 6/10/3 5/9/3
f 5/9/3 7/11/4 8/12/4
f 10/16/5 8/14/4 7/13/4
f 7/13/4 9/15/5 10/16/5
f 12/20/6 10/18/5 9/17/5
f 9/17/5 11/19/6 12/20/6
f 14/24/7 12/22/6 11/21/6
f 11/21/6 13/23/7 14/24/7
f 16/28/8 14/26/7 13/25/7
f 13/25/7 15/27/8 16/28/8
f 18/32/9 16/30/8 15/29/8
f 15/29/8 17/31/9 18/32/9
f 20/36/10 18/34/9 17/33/9
f 17/33/9 19/35/10 20/36/10
f 22/40/11 20/38/10 19/37/10
f 19/37/10 21/39/11 22/40/11
f 24/44/12 22/42/11 21/41/11
f 21/41/11 23/43/12 24/44/12
f 26/48/13 24/46/12 23/45/12
f 23/45/12 25/47/13 26/48/13
f 28/52/14 26/50/13 25/49/13
f 25/49/13 27/51/14 28/52/14
f 30/56/15 28/54/14 27/53/14
f 27/53/14 29/55/15 30/56/15
f 32/60/16 30/58/15 29/57/15
f 29/57/15 31/59/16 32/60/16
f 34/64/17 32/62/16 31/61/16
f 31/61/16 33/63/17 34/64/17
f 36/68/18 34/66/17 33/65/17
f 33/65/17 35/67/18 36/68/18
f 38/72/19 36/70/18 35/69/18
f 35/69/18 37/71/19 38/72/19
f 40/76/20 38/74/19 37/73/19
f 37/73/19 39/75/20 40/76/20
f 42/80/21 40/78/20 39/77/20
f 39/77/20 41/79/21 42/80/21
f 44/84/22 42/82/21 41/81/21
f 41/81/21 43/83/22 44/84/22
f 46/88/23 44/86/22 43/85/22
f 43/85/22 45/87/23 46/88/23
f 48/92/24 46/90/23 45/89/23
f 45/89/23 47/91/24 48/92/24
f 2/96/1 48/94/24 47/93/24
f 47/93/24 1/95/1 2/96/1

usemtl Amarillo_JD
f 51/243/25 99/98/25 53/244/25
f 53/244/25 99/98/25 55/247/25
f 55/247/25 99/98/25 57/249/25
f 57/249/25 99/98/25 59/251/25
f 59/251/25 99/98/25 61/253/25
f 61/253/25 99/98/25 63/255/25
f 63/255/25 99/98/25 65/257/25
f 65/257/25 99/98/25 67/259/25
f 67/259/25 99/98/25 69/261/25
f 69/261/25 99/98/25 71/263/25
f 71/263/25 99/98/25 73/265/25
f 73/265/25 99/98/25 75/267/25
f 75/267/25 99/98/25 77/269/25
f 77/269/25 99/98/25 79/271/25
f 79/271/25 99/98/25 81/273/25
f 81/273/25 99/98/25 83/275/25
f 83/275/25 99/98/25 85/277/25
f 85/277/25 99/98/25 87/279/25
f 87/279/25 99/98/25 89/281/25
f 89/281/25 99/98/25 91/283/25
f 91/283/25 99/98/25 93/285/25
f 93/285/25 99/98/25 95/287/25
f 95/287/25 99/98/25 97/289/25
f 97/289/25 99/98/25 51/243/25
f 54/246/26 100/101/26 52/245/26
f 56/248/26 100/101/26 54/246/26
f 58/250/26 100/101/26 56/248/26
f 60/252/26 100/101/26 58/250/26
f 62/254/26 100/101/26 60/252/26
f 64/256/26 100/101/26 62/254/26
f 66/258/26 100/101/26 64/256/26
f 68/260/26 100/101/26 66/258/26
f 70/262/26 100/101/26 68/260/26
f 72/264/26 100/101/26 70/262/26
f 74/266/26 100/101/26 72/264/26
f 76/268/26 100/101/26 74/266/26
f 78/270/26 100/101/26 76/268/26
f 80/272/26 100/101/26 78/270/26
f 82/274/26 100/101/26 80/272/26
f 84/276/26 100/101/26 82/274/26
f 86/278/26 100/101/26 84/276/26
f 88/280/26 100/101/26 86/278/26
f 90/282/26 100/101/26 88/280/26
f 92/284/26 100/101/26 90/282/26
f 94/286/26 100/101/26 92/284/26
f 96/288/26 100/101/26 94/286/26
f 98/290/26 100/101/26 96/288/26
f 52/245/26 100/101/26 98/290/26
f 54/150/2 52/148/1 51/147/1
f 51/147/1 53/149/2 54/150/2
f 56/154/27 54/152/2 53/151/2
f 53/151/2 55/153/27 56/154/27
f 58/158/4 56/156/27 55/155/27
f 55/155/27 57/157/4 58/158/4
f 60/162/28 58/160/4 57/159/4
f 57/159/4 59/161/28 60/162/28
f 62/166/6 60/164/28 59/163/28
f 59/163/28 61/165/6 62/166/6
f 64/170/7 62/168/6 61/167/6
f 61/167/6 63/169/7 64/170/7
f 66/174/8 64/172/7 63/171/7
f 63/171/7 65/173/8 66/174/8
f 68/178/29 66/176/8 65/175/8
f 65/175/8 67/177/29 68/178/29
f 70/182/10 68/180/29 67/179/29
f 67/179/29 69/181/10 70/182/10
f 72/186/30 70/184/10 69/183/10
f 69/183/10 71/185/30 72/186/30
f 74/190/12 72/188/30 71/187/30
f 71/187/30 73/189/12 74/190/12
f 76/194/13 74/192/12 73/191/12
f 73/191/12 75/193/13 76/194/13
f 78/198/14 76/196/13 75/195/13
f 75/195/13 77/197/14 78/198/14
f 80/202/31 78/200/14 77/199/14
f 77/199/14 79/201/31 80/202/31
f 82/206/16 80/204/31 79/203/31
f 79/203/31 81/205/16 82/206/16
f 84/210/17 82/208/16 81/207/16
f 81/207/16 83/209/17 84/210/17
f 86/214/18 84/212/17 83/211/17
f 83/211/17 85/213/18 86/214/18
f 88/218/19 86/216/18 85/215/18
f 85/215/18 87/217/19 88/218/19
f 90/222/20 88/220/19 87/219/19
f 87/219/19 89/221/20 90/222/20
f 92/226/32 90/224/20 89/223/20
f 89/223/20 91/225/32 92/226/32
f 94/230/22 92/228/32 91/227/32
f 91/227/32 93/229/22 94/230/22
f 96/234/33 94/232/22 93/231/22
f 93/231/22 95/233/33 96/234/33
f 98/238/24 96/236/33 95/235/33
f 95/235/33 97/237/24 98/238/24
f 52/242/1 98/240/24 97/239/24
f 97/239/24 51/241/1 52/242/1

